<svg width="47" height="47" viewBox="0 0 47 47" fill="none" xmlns="http://www.w3.org/2000/svg">
<path d="M30.9645 24.6553H15.6312C14.8454 24.6553 14.1937 24.0036 14.1937 23.2178C14.1937 22.4319 14.8454 21.7803 15.6312 21.7803H30.9645C31.7504 21.7803 32.402 22.4319 32.402 23.2178C32.402 24.0036 31.7504 24.6553 30.9645 24.6553Z" fill="#239ED9"/>
<path d="M23.2979 32.3219C22.512 32.3219 21.8604 31.6702 21.8604 30.8844V15.551C21.8604 14.7652 22.512 14.1135 23.2979 14.1135C24.0837 14.1135 24.7354 14.7652 24.7354 15.551V30.8844C24.7354 31.6702 24.0837 32.3219 23.2979 32.3219Z" fill="#239ED9"/>
<path d="M29.0478 43.8219H17.5478C7.14035 43.8219 2.69368 39.3752 2.69368 28.9677V17.4677C2.69368 7.06019 7.14035 2.61353 17.5478 2.61353H29.0478C39.4553 2.61353 43.902 7.06019 43.902 17.4677V28.9677C43.902 39.3752 39.4553 43.8219 29.0478 43.8219ZM17.5478 5.48853C8.71201 5.48853 5.56868 8.63186 5.56868 17.4677V28.9677C5.56868 37.8035 8.71201 40.9469 17.5478 40.9469H29.0478C37.8837 40.9469 41.027 37.8035 41.027 28.9677V17.4677C41.027 8.63186 37.8837 5.48853 29.0478 5.48853H17.5478Z" fill="#239ED9"/>
</svg>
