<svg width="49" height="49" viewBox="0 0 49 49" fill="none" xmlns="http://www.w3.org/2000/svg">
<g filter="url(#filter0_d_1128_2178)">
<path d="M4.9978 4.21777C4.9978 2.00864 6.78866 0.217773 8.9978 0.217773H40.9978C43.2069 0.217773 44.9978 2.00863 44.9978 4.21777V36.2178C44.9978 38.4269 43.2069 40.2178 40.9978 40.2178H8.9978C6.78866 40.2178 4.9978 38.4269 4.9978 36.2178V4.21777Z" fill="#FDFEFF" shape-rendering="crispEdges"/>
<path d="M33.7143 21.2163C33.7592 26.0497 37.9545 27.6581 38.001 27.6786C37.9655 27.7921 37.3306 29.9708 35.7907 32.2213C34.4595 34.1669 33.0779 36.1054 30.9014 36.1456C28.7628 36.185 28.0752 34.8774 25.6302 34.8774C23.1859 34.8774 22.4218 36.1054 20.3974 36.185C18.2966 36.2645 16.6968 34.081 15.3546 32.1425C12.6118 28.1772 10.5158 20.9375 13.3302 16.0505C14.7284 13.6236 17.227 12.0868 19.939 12.0474C22.002 12.0081 23.9492 13.4353 25.2103 13.4353C26.4706 13.4353 28.8369 11.7189 31.3244 11.971C32.3658 12.0143 35.289 12.3917 37.166 15.1392C37.0148 15.2329 33.6781 17.1754 33.7143 21.2163V21.2163ZM29.6951 9.3476C30.8105 7.99752 31.5612 6.11808 31.3564 4.24805C29.7487 4.31266 27.8046 5.31937 26.6515 6.6687C25.618 7.86361 24.7129 9.77613 24.9571 11.6091C26.7491 11.7478 28.5797 10.6985 29.6951 9.3476" fill="#1B1C1E"/>
</g>
<defs>
<filter id="filter0_d_1128_2178" x="0.997803" y="0.217773" width="48" height="48" filterUnits="userSpaceOnUse" color-interpolation-filters="sRGB">
<feFlood flood-opacity="0" result="BackgroundImageFix"/>
<feColorMatrix in="SourceAlpha" type="matrix" values="0 0 0 0 0 0 0 0 0 0 0 0 0 0 0 0 0 0 127 0" result="hardAlpha"/>
<feOffset dy="4"/>
<feGaussianBlur stdDeviation="2"/>
<feComposite in2="hardAlpha" operator="out"/>
<feColorMatrix type="matrix" values="0 0 0 0 0.298039 0 0 0 0 0.686275 0 0 0 0 0.890196 0 0 0 0.3 0"/>
<feBlend mode="normal" in2="BackgroundImageFix" result="effect1_dropShadow_1128_2178"/>
<feBlend mode="normal" in="SourceGraphic" in2="effect1_dropShadow_1128_2178" result="shape"/>
</filter>
</defs>
</svg>
