<svg width="25" height="25" viewBox="0 0 25 25" fill="none" xmlns="http://www.w3.org/2000/svg">
<path d="M8.29785 5.96777C7.88785 5.96777 7.54785 5.62777 7.54785 5.21777V2.21777C7.54785 1.80777 7.88785 1.46777 8.29785 1.46777C8.70785 1.46777 9.04785 1.80777 9.04785 2.21777V5.21777C9.04785 5.62777 8.70785 5.96777 8.29785 5.96777Z" fill="#292D32"/>
<path d="M16.2979 5.96777C15.8879 5.96777 15.5479 5.62777 15.5479 5.21777V2.21777C15.5479 1.80777 15.8879 1.46777 16.2979 1.46777C16.7079 1.46777 17.0479 1.80777 17.0479 2.21777V5.21777C17.0479 5.62777 16.7079 5.96777 16.2979 5.96777Z" fill="#292D32"/>
<path d="M8.79785 14.7178C8.66785 14.7178 8.53785 14.6879 8.41785 14.6379C8.28785 14.5879 8.18785 14.5178 8.08785 14.4278C7.90785 14.2378 7.79785 13.9878 7.79785 13.7178C7.79785 13.5878 7.82785 13.4578 7.87785 13.3378C7.92785 13.2178 7.99785 13.1078 8.08785 13.0078C8.18785 12.9178 8.28785 12.8478 8.41785 12.7978C8.77785 12.6478 9.22785 12.7278 9.50785 13.0078C9.68785 13.1978 9.79785 13.4578 9.79785 13.7178C9.79785 13.7778 9.78785 13.8479 9.77785 13.9179C9.76785 13.9779 9.74785 14.0378 9.71785 14.0978C9.69785 14.1578 9.66785 14.2178 9.62785 14.2778C9.59785 14.3278 9.54785 14.3778 9.50785 14.4278C9.31785 14.6078 9.05785 14.7178 8.79785 14.7178Z" fill="#292D32"/>
<path d="M12.2979 14.7176C12.1679 14.7176 12.0379 14.6877 11.9179 14.6377C11.7879 14.5877 11.6879 14.5176 11.5879 14.4276C11.4079 14.2376 11.2979 13.9876 11.2979 13.7176C11.2979 13.5876 11.3279 13.4576 11.3779 13.3376C11.4279 13.2176 11.4979 13.1077 11.5879 13.0077C11.6879 12.9177 11.7879 12.8476 11.9179 12.7976C12.2779 12.6376 12.7279 12.7277 13.0079 13.0077C13.1879 13.1977 13.2979 13.4576 13.2979 13.7176C13.2979 13.7776 13.2879 13.8477 13.2779 13.9177C13.2679 13.9777 13.2478 14.0377 13.2178 14.0977C13.1978 14.1577 13.1679 14.2176 13.1279 14.2776C13.0979 14.3276 13.0479 14.3776 13.0079 14.4276C12.8179 14.6076 12.5579 14.7176 12.2979 14.7176Z" fill="#292D32"/>
<path d="M15.7979 14.7176C15.6679 14.7176 15.5379 14.6877 15.4179 14.6377C15.2879 14.5877 15.1879 14.5176 15.0879 14.4276C15.0479 14.3776 15.0078 14.3276 14.9678 14.2776C14.9278 14.2176 14.8979 14.1577 14.8779 14.0977C14.8479 14.0377 14.8279 13.9777 14.8179 13.9177C14.8079 13.8477 14.7979 13.7776 14.7979 13.7176C14.7979 13.4576 14.9079 13.1977 15.0879 13.0077C15.1879 12.9177 15.2879 12.8476 15.4179 12.7976C15.7879 12.6376 16.2279 12.7277 16.5079 13.0077C16.6879 13.1977 16.7979 13.4576 16.7979 13.7176C16.7979 13.7776 16.7879 13.8477 16.7779 13.9177C16.7679 13.9777 16.7478 14.0377 16.7178 14.0977C16.6978 14.1577 16.6679 14.2176 16.6279 14.2776C16.5979 14.3276 16.5479 14.3776 16.5079 14.4276C16.3179 14.6076 16.0579 14.7176 15.7979 14.7176Z" fill="#292D32"/>
<path d="M8.79785 18.2177C8.66785 18.2177 8.53785 18.1877 8.41785 18.1377C8.29785 18.0877 8.18785 18.0177 8.08785 17.9277C7.90785 17.7377 7.79785 17.4777 7.79785 17.2177C7.79785 17.0877 7.82785 16.9577 7.87785 16.8377C7.92785 16.7077 7.99785 16.5977 8.08785 16.5077C8.45785 16.1377 9.13785 16.1377 9.50785 16.5077C9.68785 16.6977 9.79785 16.9577 9.79785 17.2177C9.79785 17.4777 9.68785 17.7377 9.50785 17.9277C9.31785 18.1077 9.05785 18.2177 8.79785 18.2177Z" fill="#292D32"/>
<path d="M12.2979 18.2177C12.0379 18.2177 11.7779 18.1077 11.5879 17.9277C11.4079 17.7377 11.2979 17.4777 11.2979 17.2177C11.2979 17.0877 11.3279 16.9577 11.3779 16.8377C11.4279 16.7077 11.4979 16.5977 11.5879 16.5077C11.9579 16.1377 12.6379 16.1377 13.0079 16.5077C13.0979 16.5977 13.1678 16.7077 13.2178 16.8377C13.2678 16.9577 13.2979 17.0877 13.2979 17.2177C13.2979 17.4777 13.1879 17.7377 13.0079 17.9277C12.8179 18.1077 12.5579 18.2177 12.2979 18.2177Z" fill="#292D32"/>
<path d="M15.7979 18.2177C15.5379 18.2177 15.2779 18.1077 15.0879 17.9277C14.9979 17.8377 14.9279 17.7277 14.8779 17.5977C14.8279 17.4777 14.7979 17.3477 14.7979 17.2177C14.7979 17.0877 14.8279 16.9577 14.8779 16.8377C14.9279 16.7077 14.9979 16.5977 15.0879 16.5077C15.3179 16.2777 15.6679 16.1677 15.9879 16.2377C16.0579 16.2477 16.1179 16.2677 16.1779 16.2977C16.2379 16.3177 16.2979 16.3477 16.3579 16.3877C16.4079 16.4177 16.4579 16.4677 16.5079 16.5077C16.6879 16.6977 16.7979 16.9577 16.7979 17.2177C16.7979 17.4777 16.6879 17.7377 16.5079 17.9277C16.3179 18.1077 16.0579 18.2177 15.7979 18.2177Z" fill="#292D32"/>
<path d="M20.7979 10.0576H3.79785C3.38785 10.0576 3.04785 9.71762 3.04785 9.30762C3.04785 8.89762 3.38785 8.55762 3.79785 8.55762H20.7979C21.2079 8.55762 21.5479 8.89762 21.5479 9.30762C21.5479 9.71762 21.2079 10.0576 20.7979 10.0576Z" fill="#292D32"/>
<path d="M16.2979 22.9678H8.29785C4.64785 22.9678 2.54785 20.8678 2.54785 17.2178V8.71777C2.54785 5.06777 4.64785 2.96777 8.29785 2.96777H16.2979C19.9479 2.96777 22.0479 5.06777 22.0479 8.71777V17.2178C22.0479 20.8678 19.9479 22.9678 16.2979 22.9678ZM8.29785 4.46777C5.43785 4.46777 4.04785 5.85777 4.04785 8.71777V17.2178C4.04785 20.0778 5.43785 21.4678 8.29785 21.4678H16.2979C19.1579 21.4678 20.5479 20.0778 20.5479 17.2178V8.71777C20.5479 5.85777 19.1579 4.46777 16.2979 4.46777H8.29785Z" fill="#292D32"/>
</svg>

