<svg width="41" height="41" viewBox="0 0 41 41" fill="none" xmlns="http://www.w3.org/2000/svg">
<path d="M5.67003 17.0568L5.66979 17.0563C4.91506 15.2724 4.53027 13.5228 4.53027 11.8948C4.53027 10.854 4.70689 9.87391 5.08238 8.94322C5.44446 8.021 6.02077 7.17862 6.83459 6.41683C7.71713 5.5538 8.68496 5.07812 9.76361 5.07812C10.1252 5.07812 10.4765 5.16303 10.7974 5.30338L10.8084 5.30823L10.8084 5.30837C11.1384 5.46237 11.405 5.68587 11.6205 5.98751L11.6218 5.98939L15.4857 11.4522C15.7307 11.7851 15.9356 12.1167 16.0717 12.4277L16.0752 12.4358L16.0751 12.4358C16.17 12.6634 16.2469 12.9336 16.2469 13.1615C16.2469 13.4363 16.1623 13.7078 15.9921 13.9859C15.7995 14.3121 15.5226 14.6591 15.1707 15.0115L13.924 16.308L13.9172 16.3151L13.9172 16.315C13.597 16.6352 13.4303 17.0402 13.4303 17.5115C13.4303 17.6797 13.4513 17.8453 13.5396 18.1886L13.7171 18.6322C14.0442 19.2331 14.5809 19.9772 15.3429 20.869C16.1845 21.8426 16.9928 22.7169 17.8009 23.5416C18.8432 24.5672 19.6999 25.3578 20.4878 26.0308C21.3477 26.7609 22.1122 27.3009 22.7506 27.6456L23.1677 27.8309C23.7672 28.0461 24.5507 27.9203 25.047 27.4377C25.0473 27.4374 25.0477 27.437 25.048 27.4367L26.3101 26.1912C26.3105 26.1908 26.3109 26.1904 26.3113 26.19C26.6526 25.8488 26.9913 25.5593 27.3864 25.3578C27.6977 25.1681 27.9827 25.0592 28.2873 25.0839C28.435 25.0959 28.5584 25.1373 28.6545 25.1756C28.7008 25.1941 28.7466 25.2143 28.7851 25.2313L28.7868 25.232C28.828 25.2502 28.8643 25.2662 28.9029 25.282L28.904 25.2825C29.2278 25.4158 29.56 25.6019 29.917 25.8518L29.92 25.8539L35.4498 29.7847C35.8472 30.0576 35.9978 30.3117 36.0775 30.4712L36.0826 30.4813L36.0872 30.4917C36.249 30.8557 36.3136 31.1916 36.3136 31.5281C36.3136 32.0391 36.1956 32.5453 35.9654 33.0257C35.6954 33.6012 35.3684 34.0927 34.9509 34.5471C34.2214 35.3647 33.4112 35.9432 32.4883 36.3234C30.1167 37.3111 27.3012 36.983 24.3855 35.7386C22.5119 34.9549 20.6287 33.868 18.8022 32.532L5.67003 17.0568ZM5.67003 17.0568C6.43668 18.8627 7.50654 20.7289 8.85924 22.5889C10.2078 24.4431 11.7409 26.2457 13.425 27.9466L13.4249 27.9466M5.67003 17.0568L13.4249 27.9466M13.4249 27.9466L13.4285 27.9501M13.4249 27.9466L13.4285 27.9501M13.4285 27.9501C15.1126 29.6174 16.9316 31.1669 18.802 32.5319L13.4285 27.9501ZM24.3468 26.1581L24.4102 25.9936L25.2647 25.1508L25.2672 25.1483C25.7591 24.6564 26.2183 24.3087 26.6433 24.0889L26.6603 24.0801L26.6765 24.0701C27.4457 23.5946 28.4414 23.4969 29.4705 23.9226C29.8705 24.092 30.3053 24.3245 30.7754 24.6534C30.7759 24.6537 30.7764 24.6541 30.7769 24.6544L36.3073 28.5857L36.3072 28.5858L36.317 28.5924C36.859 28.9586 37.2414 29.4166 37.4673 29.9505C37.6959 30.531 37.7969 31.0505 37.7969 31.5615C37.7969 32.2848 37.6312 33.0128 37.3105 33.7C36.9817 34.4046 36.5767 35.0118 36.0617 35.5736L36.0595 35.576C35.1535 36.5774 34.181 37.2795 33.0601 37.731L33.0589 37.7315C31.969 38.1738 30.7828 38.4115 29.5303 38.4115C27.7268 38.4115 25.81 37.9805 23.8085 37.1343C21.8487 36.3014 19.8651 35.1549 17.9244 33.7571C15.9952 32.339 14.1315 30.7557 12.3663 29.0237C10.6188 27.2595 9.03629 25.3966 7.63518 23.4848C6.22021 21.5101 5.09056 19.5433 4.2911 17.6508C3.44588 15.6351 3.03027 13.701 3.03027 11.8948C3.03027 10.6559 3.2524 9.48464 3.67901 8.39423C4.1171 7.28365 4.82332 6.24517 5.78831 5.34345L5.78844 5.34359L5.79818 5.33398C7.0003 4.14747 8.34482 3.57812 9.76361 3.57812C10.3409 3.57812 10.9347 3.71224 11.434 3.9472L11.434 3.94721L11.4374 3.94877C12.0104 4.21321 12.4861 4.60494 12.8309 5.12214L12.8349 5.12819L12.8391 5.13411L16.7058 10.5841L16.7058 10.5841L16.7086 10.588C17.0401 11.0458 17.2837 11.4755 17.4482 11.8943L17.4514 11.9023L17.4548 11.9103C17.6496 12.3597 17.7469 12.792 17.7469 13.1948C17.7469 13.7278 17.5935 14.2565 17.2849 14.7709L17.2806 14.778L17.2765 14.7853C17.0557 15.1827 16.7052 15.6294 16.2434 16.0912L16.2433 16.0912L16.2358 16.099L15.1025 17.2823L14.8939 17.5001L14.9893 17.7862C15.0172 17.8701 15.0468 17.9292 15.0652 17.9659L15.0664 17.9684L15.0726 17.9808L15.0795 17.9929C15.2988 18.3766 15.7186 19.0021 16.4997 19.919L16.4996 19.9191L16.504 19.924C17.3232 20.8603 18.0968 21.7182 18.8729 22.5112L18.8729 22.5113L18.8798 22.518C19.8653 23.4868 20.6937 24.2651 21.4767 24.9121C22.1986 25.5199 22.7448 25.9123 23.1487 26.1585L22.9436 27.0303L23.8968 27.3247L24.3468 26.1581Z" fill="none" stroke="#239ED9"/>
</svg>
