<svg width="25" height="25" viewBox="0 0 25 25" fill="none" xmlns="http://www.w3.org/2000/svg">
<path d="M22.0578 16.1378L15.6578 4.61777C14.7978 3.06777 13.6078 2.21777 12.2978 2.21777C10.9878 2.21777 9.79783 3.06777 8.93783 4.61777L2.53783 16.1378C1.72783 17.6078 1.63783 19.0178 2.28783 20.1278C2.93783 21.2378 4.21783 21.8478 5.89783 21.8478H18.6978C20.3778 21.8478 21.6578 21.2378 22.3078 20.1278C22.9578 19.0178 22.8678 17.5978 22.0578 16.1378ZM11.5478 9.21777C11.5478 8.80777 11.8878 8.46777 12.2978 8.46777C12.7078 8.46777 13.0478 8.80777 13.0478 9.21777V14.2178C13.0478 14.6278 12.7078 14.9678 12.2978 14.9678C11.8878 14.9678 11.5478 14.6278 11.5478 14.2178V9.21777ZM13.0078 17.9278C12.9578 17.9678 12.9078 18.0078 12.8578 18.0478C12.7978 18.0878 12.7378 18.1178 12.6778 18.1378C12.6178 18.1678 12.5578 18.1878 12.4878 18.1978C12.4278 18.2078 12.3578 18.2178 12.2978 18.2178C12.2378 18.2178 12.1678 18.2078 12.0978 18.1978C12.0378 18.1878 11.9778 18.1678 11.9178 18.1378C11.8578 18.1178 11.7978 18.0878 11.7378 18.0478C11.6878 18.0078 11.6378 17.9678 11.5878 17.9278C11.4078 17.7378 11.2978 17.4778 11.2978 17.2178C11.2978 16.9578 11.4078 16.6978 11.5878 16.5078C11.6378 16.4678 11.6878 16.4278 11.7378 16.3878C11.7978 16.3478 11.8578 16.3178 11.9178 16.2978C11.9778 16.2678 12.0378 16.2478 12.0978 16.2378C12.2278 16.2078 12.3678 16.2078 12.4878 16.2378C12.5578 16.2478 12.6178 16.2678 12.6778 16.2978C12.7378 16.3178 12.7978 16.3478 12.8578 16.3878C12.9078 16.4278 12.9578 16.4678 13.0078 16.5078C13.1878 16.6978 13.2978 16.9578 13.2978 17.2178C13.2978 17.4778 13.1878 17.7378 13.0078 17.9278Z" fill="#E03F1B"/>
</svg>
