<svg width="141" height="102" viewBox="0 0 141 102" fill="none" xmlns="http://www.w3.org/2000/svg">
<path d="M73.1796 101.999C110.166 101.999 140.149 100.037 140.149 97.6159C140.149 95.1951 110.166 93.2327 73.1796 93.2327C36.1935 93.2327 6.21033 95.1951 6.21033 97.6159C6.21033 100.037 36.1935 101.999 73.1796 101.999Z" fill="#F5F5F5"/>
<path d="M129.624 -0.000854492H23.9534V76.1411H129.624V-0.000854492Z" fill="#239ED9"/>
<path opacity="0.6" d="M129.624 -0.000854492H23.9534V76.1411H129.624V-0.000854492Z" fill="white"/>
<path opacity="0.1" d="M91.9922 -0.000854492C91.9922 -0.000854492 61.5904 30.1243 23.9534 30.8413V-0.000854492H91.9922Z" fill="white"/>
<path opacity="0.1" d="M129.619 39.7476C129.619 39.7476 108.739 37.4454 88.0808 50.1441C67.423 62.8428 46.797 74.791 23.9534 69.1894V76.1353H129.619V39.7476Z" fill="white"/>
<path d="M102.049 17.2124H51.5183V26.371H102.049V17.2124Z" fill="white"/>
<path d="M102.049 30.2025H51.5183V39.3611H102.049V30.2025Z" fill="white"/>
<g opacity="0.4">
<path d="M56.0433 22.6851V22.926H54.2861V20.2988H55.9904V20.5397H54.5508V21.4976H55.8316V21.7328H54.5508V22.7075L56.0433 22.6851Z" fill="#263238"/>
<path d="M56.3926 21.7889H57.3241V22.0239H56.3926V21.7889Z" fill="#263238"/>
<path d="M60.9606 21.7777V22.926H60.7118V21.8057C60.7118 21.3912 60.5107 21.1783 60.1826 21.1783C60.0949 21.1725 60.0072 21.1873 59.9256 21.2218C59.8441 21.2562 59.7708 21.3094 59.711 21.3774C59.6513 21.4455 59.6065 21.5268 59.5801 21.6154C59.5536 21.704 59.5461 21.7977 59.558 21.8897V22.926H59.304V21.8057C59.304 21.3912 59.1081 21.1783 58.7747 21.1783C58.6877 21.1744 58.601 21.1905 58.5206 21.2256C58.4402 21.2608 58.3679 21.3141 58.309 21.3818C58.25 21.4496 58.2057 21.5301 58.1792 21.6178C58.1527 21.7056 58.1446 21.7983 58.1554 21.8897V22.926H57.8855V20.9375H58.129V21.3016C58.1998 21.1793 58.3008 21.0797 58.4211 21.0136C58.5414 20.9475 58.6765 20.9173 58.8117 20.9263C58.9488 20.9155 59.0858 20.9494 59.2041 21.0235C59.3224 21.0976 59.4163 21.2084 59.4733 21.3408C59.5494 21.208 59.6579 21.0994 59.7873 21.0265C59.9168 20.9535 60.0625 20.9189 60.209 20.9263C60.3147 20.9164 60.4212 20.9321 60.5203 20.9723C60.6194 21.0125 60.7085 21.076 60.781 21.158C60.8534 21.2401 60.9072 21.3386 60.9384 21.4459C60.9695 21.5533 60.9771 21.6668 60.9606 21.7777Z" fill="#263238"/>
<path d="M63.0509 21.6995V22.9263H62.8074V22.6182C62.7378 22.728 62.6417 22.816 62.5291 22.8732C62.4165 22.9303 62.2914 22.9545 62.167 22.9431C61.7436 22.9431 61.4895 22.7134 61.4895 22.3829C61.4895 22.0524 61.6695 21.8228 62.204 21.8228H62.7968V21.6995C62.8035 21.6259 62.7941 21.5516 62.7692 21.4825C62.7444 21.4133 62.7049 21.3511 62.6537 21.3008C62.6025 21.2504 62.5411 21.2132 62.4741 21.192C62.4071 21.1708 62.3365 21.1662 62.2675 21.1786C62.0394 21.1748 61.8176 21.2584 61.643 21.4139L61.5319 21.2122C61.7477 21.0343 62.0152 20.9412 62.2887 20.9489C62.3878 20.9324 62.4891 20.94 62.585 20.971C62.6809 21.002 62.7689 21.0557 62.8423 21.128C62.9157 21.2003 62.9727 21.2893 63.0088 21.3883C63.0449 21.4874 63.0593 21.5938 63.0509 21.6995ZM62.7968 22.3325V22.0076H62.2146C61.8547 22.0076 61.733 22.1589 61.733 22.3605C61.733 22.5622 61.9076 22.7358 62.204 22.7358C62.3306 22.7446 62.4565 22.7101 62.5632 22.6375C62.6699 22.5649 62.7518 22.458 62.7968 22.3325Z" fill="#263238"/>
<path d="M63.6755 20.3276C63.6744 20.2886 63.6844 20.2501 63.7041 20.2172C63.7238 20.1842 63.7524 20.1582 63.7861 20.1425C63.8198 20.1268 63.8573 20.1221 63.8935 20.129C63.9298 20.1359 63.9633 20.1542 63.9897 20.1813C64.0162 20.2085 64.0344 20.2434 64.0419 20.2816C64.0495 20.3198 64.0462 20.3595 64.0323 20.3956C64.0185 20.4318 63.9947 20.4627 63.9642 20.4846C63.9336 20.5064 63.8976 20.518 63.8607 20.518C63.8367 20.5188 63.8127 20.5144 63.7902 20.5052C63.7678 20.4959 63.7473 20.482 63.7301 20.4643C63.7128 20.4465 63.699 20.4252 63.6897 20.4018C63.6803 20.3783 63.6755 20.3531 63.6755 20.3276ZM63.7337 20.9493H63.9825V22.9267H63.7337V20.9493Z" fill="#263238"/>
<path d="M64.6865 20.1424H64.9342V22.9432H64.6865V20.1424Z" fill="#263238"/>
</g>
<g opacity="0.4">
<path d="M56.2286 34.1964C56.2286 34.7565 55.8475 35.0982 55.2177 35.0982H54.5508V35.9272H54.2861V33.3001H55.2388C55.8475 33.3001 56.2286 33.6362 56.2286 34.1964ZM55.9692 34.1964C55.9692 33.7762 55.7046 33.541 55.2071 33.541H54.5508V34.8517H55.2071C55.7046 34.8517 55.9692 34.6109 55.9692 34.1964Z" fill="#263238"/>
<path d="M58.1282 34.7006V35.9273H57.8847V35.6192C57.8148 35.7286 57.7186 35.8163 57.6061 35.8734C57.4935 35.9305 57.3687 35.9549 57.2443 35.9441C56.8209 35.9441 56.5615 35.7088 56.5615 35.384C56.5615 35.0591 56.7468 34.8238 57.2813 34.8238H57.8847V34.7006C57.8847 34.3645 57.7048 34.1796 57.3554 34.1796C57.1289 34.1757 56.9087 34.2594 56.7362 34.4149L56.6197 34.2132C56.8376 34.0353 57.1068 33.9423 57.3819 33.95C57.48 33.9352 57.5799 33.944 57.6743 33.9759C57.7686 34.0078 57.8549 34.0619 57.9267 34.1341C57.9985 34.2063 58.0539 34.2948 58.0888 34.3929C58.1237 34.491 58.1372 34.5962 58.1282 34.7006ZM57.8847 35.3335V35.0086H57.2972C56.9373 35.0086 56.8209 35.1599 56.8209 35.3615C56.8209 35.5632 56.9955 35.7313 57.2919 35.7313C57.4177 35.7395 57.5428 35.7055 57.6492 35.6341C57.7557 35.5627 57.8381 35.4575 57.8847 35.3335Z" fill="#263238"/>
<path d="M58.5521 35.6977L58.6686 35.4905C58.8616 35.6357 59.0933 35.7122 59.3302 35.7089C59.6848 35.7089 59.8277 35.5857 59.8277 35.3897C59.8277 34.8743 58.6209 35.2776 58.6209 34.499C58.6209 34.1741 58.8856 33.9389 59.3566 33.9389C59.5885 33.9333 59.8174 33.9953 60.0182 34.1181L59.9071 34.3366C59.7514 34.2232 59.5668 34.1626 59.3778 34.1629C59.0444 34.1629 58.8962 34.3029 58.8962 34.4934C58.8962 35.0536 60.1029 34.6222 60.1029 35.3784C60.1029 35.7201 59.8171 35.9386 59.3354 35.9386C59.0562 35.9538 58.7802 35.8689 58.5521 35.6977Z" fill="#263238"/>
<path d="M60.2883 35.6977L60.3995 35.4904C60.593 35.6346 60.8244 35.711 61.0611 35.7089C61.4157 35.7089 61.5639 35.5856 61.5639 35.3896C61.5639 34.8742 60.3518 35.2775 60.3518 34.4989C60.3518 34.174 60.6165 33.9388 61.0928 33.9388C61.323 33.9339 61.5499 33.9959 61.7491 34.118L61.638 34.3365C61.4827 34.2221 61.2978 34.1615 61.1087 34.1628C60.77 34.1628 60.6218 34.3029 60.6218 34.4933C60.6218 35.0535 61.8285 34.6222 61.8285 35.3784C61.8285 35.7201 61.548 35.9385 61.0611 35.9385C60.7852 35.9525 60.513 35.8676 60.2883 35.6977Z" fill="#263238"/>
<path d="M64.9772 33.9503L64.2733 35.9276H64.0351L63.4476 34.3088L62.8601 35.9276H62.6484L61.9445 33.9503H62.1879L62.7701 35.6308L63.3682 33.9503H63.5852L64.1833 35.6308L64.7761 33.9503H64.9772Z" fill="#263238"/>
<path d="M65.1153 34.9415C65.1163 34.7434 65.1728 34.5501 65.2775 34.386C65.3822 34.2218 65.5306 34.0942 65.7038 34.0191C65.877 33.9441 66.0673 33.925 66.2507 33.9643C66.4342 34.0037 66.6025 34.0996 66.7344 34.2401C66.8664 34.3805 66.9561 34.5592 66.9923 34.7535C67.0284 34.9479 67.0093 35.1492 66.9374 35.3321C66.8656 35.515 66.7442 35.6712 66.5885 35.7812C66.4328 35.8911 66.2498 35.9498 66.0627 35.9498C65.9366 35.9545 65.811 35.9316 65.6936 35.8826C65.5763 35.8335 65.4698 35.7593 65.3809 35.6646C65.2919 35.57 65.2224 35.4569 65.1767 35.3324C65.131 35.208 65.1101 35.0749 65.1153 34.9415ZM66.756 34.9415C66.7488 34.7983 66.7021 34.6604 66.6216 34.545C66.5412 34.4296 66.4305 34.3417 66.3033 34.2921C66.1762 34.2425 66.0381 34.2335 65.9061 34.2661C65.7742 34.2987 65.6541 34.3715 65.5608 34.4755C65.4675 34.5795 65.4051 34.7102 65.3812 34.8513C65.3573 34.9925 65.373 35.138 65.4264 35.2698C65.4798 35.4016 65.5685 35.514 65.6816 35.593C65.7947 35.6721 65.9272 35.7143 66.0627 35.7145C66.1574 35.7163 66.2514 35.6972 66.3388 35.6585C66.4261 35.6197 66.5049 35.5622 66.5701 35.4895C66.6353 35.4168 66.6855 35.3305 66.7176 35.2362C66.7496 35.1418 66.7627 35.0415 66.756 34.9415Z" fill="#263238"/>
<path d="M68.4711 33.9389V34.1966H68.4129C68.3238 34.1915 68.2348 34.2073 68.1522 34.243C68.0696 34.2787 67.9955 34.3334 67.9353 34.403C67.875 34.4727 67.8301 34.5556 67.8038 34.6458C67.7775 34.736 67.7704 34.8313 67.7831 34.9248V35.933H67.5343V33.9557H67.7725V34.3422C67.8369 34.2082 67.9381 34.098 68.0628 34.026C68.1875 33.954 68.3298 33.9237 68.4711 33.9389Z" fill="#263238"/>
<path d="M70.5884 33.1434V35.9442H70.3449V35.5521C70.2708 35.6812 70.1656 35.7871 70.04 35.859C69.9144 35.9308 69.7731 35.9661 69.6304 35.961C69.3791 35.961 69.1382 35.8553 68.9605 35.6673C68.7828 35.4793 68.683 35.2242 68.683 34.9583C68.683 34.6924 68.7828 34.4374 68.9605 34.2493C69.1382 34.0613 69.3791 33.9556 69.6304 33.9556C69.7692 33.9508 69.9069 33.9838 70.0301 34.0514C70.1534 34.1191 70.2582 34.2192 70.3343 34.3421V33.1602L70.5884 33.1434ZM70.3396 34.9359C70.3324 34.7925 70.2855 34.6544 70.2048 34.5389C70.1241 34.4234 70.0131 34.3355 69.8857 34.2861C69.7582 34.2367 69.6199 34.228 69.4878 34.261C69.3557 34.294 69.2357 34.3674 69.1426 34.472C69.0495 34.5765 68.9875 34.7077 68.9642 34.8492C68.9409 34.9908 68.9574 35.1364 69.0116 35.2681C69.0658 35.3998 69.1553 35.5118 69.2691 35.5902C69.3828 35.6685 69.5158 35.7098 69.6516 35.7089C69.7462 35.7114 69.8404 35.6931 69.928 35.6551C70.0156 35.617 70.0947 35.5601 70.1605 35.4879C70.2262 35.4157 70.277 35.3299 70.3096 35.2358C70.3423 35.1418 70.3561 35.0415 70.3502 34.9415L70.3396 34.9359Z" fill="#263238"/>
</g>
<path opacity="0.2" d="M102.577 48.6993H52.0472V57.8579H102.577V48.6993Z" fill="black"/>
<g opacity="0.5">
<path d="M58.3563 44.9066L58.0176 44.408H57.4883V44.901H57.356V43.3437H57.8852C58.261 43.3437 58.4886 43.5454 58.4886 43.9039C58.4935 44.0146 58.4626 44.1237 58.401 44.2133C58.3395 44.3029 58.2509 44.3676 58.1499 44.3968L58.5098 44.929L58.3563 44.9066ZM58.3563 43.8815C58.3563 43.6294 58.1975 43.4838 57.9011 43.4838H57.5095V44.2736H57.8852C58.1922 44.2736 58.351 44.1279 58.351 43.9039L58.3563 43.8815Z" fill="black"/>
<path d="M59.8121 44.3693H58.8805C58.8839 44.4268 58.8979 44.4829 58.9219 44.5346C58.9458 44.5862 58.9791 44.6324 59.0199 44.6704C59.0607 44.7084 59.1082 44.7374 59.1597 44.756C59.2112 44.7745 59.2656 44.7821 59.3198 44.7783C59.3841 44.7805 59.448 44.7682 59.5073 44.7421C59.5667 44.716 59.62 44.6768 59.6639 44.627L59.7485 44.7278C59.6937 44.7912 59.6265 44.8411 59.5515 44.874C59.4765 44.9069 59.3956 44.922 59.3145 44.9183C59.2375 44.9267 59.1596 44.9172 59.0865 44.8903C59.0133 44.8634 58.9466 44.8198 58.8911 44.7626C58.8355 44.7055 58.7926 44.6361 58.7651 44.5594C58.7377 44.4828 58.7265 44.4007 58.7323 44.3189C58.728 44.2426 58.7385 44.1661 58.7631 44.0942C58.7878 44.0223 58.8261 43.9566 58.8757 43.9009C58.9253 43.8453 58.9851 43.801 59.0515 43.7708C59.1178 43.7405 59.1894 43.725 59.2616 43.7252C59.3339 43.725 59.4054 43.7405 59.4718 43.7708C59.5382 43.801 59.598 43.8453 59.6476 43.9009C59.6971 43.9566 59.7354 44.0223 59.7601 44.0942C59.7847 44.1661 59.7952 44.2426 59.7909 44.3189C59.7909 44.3189 59.8121 44.3525 59.8121 44.3693ZM58.8805 44.2517H59.6745C59.6745 44.1403 59.6326 44.0334 59.5582 43.9546C59.4837 43.8759 59.3828 43.8316 59.2775 43.8316C59.1722 43.8316 59.0712 43.8759 58.9968 43.9546C58.9224 44.0334 58.8805 44.1403 58.8805 44.2517Z" fill="black"/>
<path d="M61.9607 44.2292V44.907H61.8072V44.2404C61.8072 43.994 61.6908 43.8651 61.4897 43.8651C61.4375 43.8621 61.3853 43.8714 61.3369 43.8922C61.2885 43.9131 61.2451 43.945 61.2097 43.9856C61.1743 44.0263 61.1478 44.0748 61.1322 44.1275C61.1165 44.1803 61.1121 44.2361 61.1192 44.2909V44.907H60.9657V44.2404C60.9657 43.994 60.8493 43.8651 60.6481 43.8651C60.5958 43.8623 60.5434 43.8716 60.4948 43.8924C60.4462 43.9132 60.4025 43.945 60.3667 43.9855C60.3309 44.0261 60.3039 44.0744 60.2876 44.1271C60.2713 44.1799 60.2661 44.2358 60.2723 44.2909V44.907H60.1241V43.7307H60.267V43.9492C60.3093 43.8761 60.3695 43.8166 60.4414 43.7771C60.5132 43.7376 60.5938 43.7197 60.6746 43.7251C60.7567 43.7174 60.8391 43.7371 60.9103 43.7812C60.9814 43.8254 61.0378 43.8919 61.0715 43.9716C61.1167 43.8921 61.1814 43.8271 61.2588 43.7837C61.3362 43.7403 61.4234 43.72 61.5109 43.7251C61.5736 43.7193 61.6368 43.7287 61.6957 43.7524C61.7546 43.7761 61.8076 43.8136 61.8509 43.8621C61.8942 43.9106 61.9265 43.9688 61.9455 44.0324C61.9645 44.096 61.9698 44.1632 61.9607 44.2292Z" fill="black"/>
<path d="M63.3424 44.3688H62.4109C62.4143 44.4263 62.4283 44.4824 62.4522 44.5341C62.4761 44.5857 62.5095 44.6319 62.5503 44.6699C62.5911 44.7079 62.6386 44.7369 62.6901 44.7555C62.7416 44.774 62.796 44.7815 62.8502 44.7778C62.9137 44.7803 62.9769 44.7681 63.0355 44.742C63.094 44.7158 63.1464 44.6764 63.1889 44.6265L63.2736 44.7273C63.1936 44.8155 63.0909 44.8767 62.9782 44.9034C62.8656 44.9302 62.748 44.9211 62.6401 44.8775C62.5322 44.8339 62.4389 44.7576 62.3718 44.6581C62.3047 44.5587 62.2667 44.4406 62.2627 44.3184C62.2627 44.1662 62.3199 44.0201 62.4216 43.9124C62.5233 43.8048 62.6613 43.7443 62.8052 43.7443C62.9491 43.7443 63.0871 43.8048 63.1888 43.9124C63.2906 44.0201 63.3477 44.1662 63.3477 44.3184C63.3477 44.3184 63.3424 44.352 63.3424 44.3688ZM62.4109 44.2512H63.1784C63.177 44.1982 63.1658 44.1461 63.1453 44.0977C63.1249 44.0493 63.0957 44.0057 63.0593 43.9693C63.0229 43.9328 62.9801 43.9044 62.9334 43.8855C62.8866 43.8666 62.8367 43.8576 62.7867 43.8591C62.6891 43.8631 62.5965 43.9056 62.527 43.9781C62.4575 44.0506 62.4161 44.148 62.4109 44.2512Z" fill="black"/>
<path d="M65.4909 44.2292V44.907H65.3374V44.2404C65.3374 43.994 65.221 43.8651 65.0198 43.8651C64.9677 43.8621 64.9155 43.8714 64.8671 43.8922C64.8187 43.9131 64.7752 43.945 64.7398 43.9856C64.7044 44.0263 64.678 44.0748 64.6623 44.1275C64.6467 44.1803 64.6422 44.2361 64.6493 44.2909V44.907H64.4958V44.2404C64.4958 43.994 64.3794 43.8651 64.173 43.8651C64.1211 43.8631 64.0693 43.8731 64.0214 43.8942C63.9734 43.9154 63.9303 43.9473 63.8951 43.9877C63.8599 44.0282 63.8334 44.0762 63.8174 44.1286C63.8014 44.1809 63.7963 44.2363 63.8025 44.2909V44.907H63.6543V43.7307H63.7972V43.9492C63.8394 43.8761 63.8997 43.8166 63.9715 43.7771C64.0433 43.7376 64.124 43.7197 64.2048 43.7251C64.2869 43.7174 64.3693 43.7371 64.4404 43.7812C64.5116 43.8254 64.5679 43.8919 64.6017 43.9716C64.6468 43.8921 64.7116 43.8271 64.789 43.7837C64.8664 43.7403 64.9535 43.72 65.041 43.7251C65.1038 43.7193 65.167 43.7287 65.2259 43.7524C65.2847 43.7761 65.3378 43.8136 65.381 43.8621C65.4243 43.9106 65.4567 43.9688 65.4757 44.0324C65.4947 44.096 65.4999 44.1632 65.4909 44.2292Z" fill="black"/>
<path d="M67.0263 44.319C67.0314 44.3958 67.0215 44.4728 66.9972 44.5454C66.9729 44.6179 66.9347 44.6844 66.885 44.7407C66.8354 44.7969 66.7753 44.8417 66.7085 44.8723C66.6418 44.9028 66.5698 44.9185 66.497 44.9183C66.4119 44.9214 66.3275 44.9007 66.2523 44.8585C66.1771 44.8162 66.1136 44.7538 66.0683 44.6775V44.9071H65.9254V43.2267H66.0736V43.9325C66.1201 43.8594 66.1833 43.8 66.2574 43.7599C66.3314 43.7197 66.4139 43.7001 66.497 43.7028C66.5712 43.7024 66.6447 43.7185 66.7126 43.7501C66.7805 43.7817 66.8414 43.828 66.8913 43.8861C66.9412 43.9442 66.979 44.0128 67.0023 44.0874C67.0255 44.1619 67.0337 44.2408 67.0263 44.319ZM66.8781 44.319C66.875 44.2322 66.8479 44.1484 66.8001 44.0779C66.7523 44.0073 66.6859 43.9532 66.6093 43.9223C66.5327 43.8914 66.4492 43.885 66.3691 43.9039C66.2891 43.9228 66.2161 43.9662 66.1592 44.0287C66.1023 44.0912 66.064 44.1701 66.0491 44.2554C66.0342 44.3408 66.0434 44.4289 66.0754 44.5088C66.1075 44.5887 66.161 44.6568 66.2294 44.7047C66.2978 44.7526 66.378 44.7782 66.46 44.7783C66.5169 44.7799 66.5735 44.7691 66.6263 44.7464C66.6791 44.7237 66.7269 44.6898 66.7666 44.6466C66.8064 44.6035 66.8373 44.5521 66.8574 44.4957C66.8775 44.4393 66.8863 44.3792 66.8834 44.319H66.8781Z" fill="black"/>
<path d="M68.3014 44.3693H67.3699C67.3733 44.4268 67.3873 44.4829 67.4112 44.5346C67.4352 44.5862 67.4685 44.6324 67.5093 44.6704C67.5501 44.7084 67.5976 44.7374 67.6491 44.756C67.7006 44.7745 67.755 44.7821 67.8092 44.7783C67.8734 44.7802 67.9372 44.7677 67.9965 44.7416C68.0558 44.7155 68.1092 44.6765 68.1532 44.627L68.2326 44.7278C68.1796 44.792 68.1134 44.8426 68.0391 44.8756C67.9648 44.9086 67.8844 44.9232 67.8039 44.9183C67.7269 44.9267 67.649 44.9172 67.5758 44.8903C67.5027 44.8634 67.436 44.8198 67.3804 44.7626C67.3249 44.7055 67.2819 44.6361 67.2545 44.5594C67.2271 44.4828 67.2159 44.4007 67.2217 44.3189C67.2174 44.2426 67.2279 44.1661 67.2525 44.0942C67.2772 44.0223 67.3155 43.9566 67.365 43.9009C67.4146 43.8453 67.4744 43.801 67.5408 43.7708C67.6072 43.7405 67.6787 43.725 67.751 43.7252C67.8233 43.725 67.8948 43.7405 67.9612 43.7708C68.0275 43.801 68.0874 43.8453 68.1369 43.9009C68.1865 43.9566 68.2248 44.0223 68.2495 44.0942C68.2741 44.1661 68.2846 44.2426 68.2803 44.3189C68.2803 44.3189 68.3014 44.3525 68.3014 44.3693ZM67.3699 44.2517H68.1585C68.1572 44.1987 68.1459 44.1466 68.1255 44.0982C68.1051 44.0498 68.0759 44.0062 68.0395 43.9698C68.0031 43.9333 67.9603 43.9049 67.9135 43.886C67.8667 43.8671 67.8169 43.8581 67.7669 43.8596C67.6657 43.858 67.5678 43.8979 67.4938 43.971C67.4198 44.0441 67.3754 44.1447 67.3699 44.2517Z" fill="black"/>
<path d="M69.175 43.725V43.9043H69.138C69.0851 43.9013 69.0323 43.9107 68.9833 43.9318C68.9342 43.9529 68.8902 43.9852 68.8543 44.0264C68.8184 44.0676 68.7916 44.1167 68.7756 44.1701C68.7597 44.2236 68.7551 44.2801 68.7622 44.3356V44.935H68.614V43.7586H68.7569V43.9883C68.792 43.9037 68.8511 43.8329 68.9261 43.7857C69.0011 43.7385 69.0881 43.7172 69.175 43.725Z" fill="black"/>
<path d="M71.8532 44.2292V44.907H71.705V44.2404C71.705 43.994 71.5833 43.8651 71.3821 43.8651C71.33 43.8621 71.2778 43.8714 71.2294 43.8922C71.181 43.9131 71.1375 43.945 71.1021 43.9856C71.0667 44.0263 71.0403 44.0748 71.0246 44.1275C71.009 44.1803 71.0045 44.2361 71.0116 44.2909V44.907H70.8582V44.2404C70.8582 43.994 70.7417 43.8651 70.5406 43.8651C70.4882 43.8623 70.4359 43.8716 70.3873 43.8924C70.3387 43.9132 70.2949 43.945 70.2591 43.9855C70.2234 44.0261 70.1964 44.0744 70.1801 44.1271C70.1638 44.1799 70.1586 44.2358 70.1648 44.2909V44.907H70.0166V43.7307H70.1595V43.9492C70.2017 43.8761 70.262 43.8166 70.3338 43.7771C70.4056 43.7376 70.4863 43.7197 70.567 43.7251C70.6492 43.7174 70.7316 43.7371 70.8027 43.7812C70.8739 43.8254 70.9302 43.8919 70.964 43.9716C71.0091 43.8921 71.0739 43.8271 71.1513 43.7837C71.2287 43.7403 71.3158 43.72 71.4033 43.7251C71.4661 43.7193 71.5293 43.7287 71.5881 43.7524C71.647 43.7761 71.7001 43.8136 71.7433 43.8621C71.7866 43.9106 71.819 43.9688 71.838 44.0324C71.857 44.096 71.8622 44.1632 71.8532 44.2292Z" fill="black"/>
<path d="M73.2344 44.3693H72.3029C72.3063 44.4268 72.3203 44.4829 72.3442 44.5346C72.3682 44.5862 72.4015 44.6324 72.4423 44.6704C72.4831 44.7084 72.5306 44.7374 72.5821 44.756C72.6336 44.7745 72.688 44.7821 72.7422 44.7783C72.8057 44.7808 72.8689 44.7686 72.9275 44.7425C72.986 44.7163 73.0384 44.6769 73.0809 44.627L73.1656 44.7278C73.1126 44.792 73.0464 44.8426 72.9721 44.8756C72.8978 44.9086 72.8174 44.9232 72.7369 44.9183C72.6599 44.9267 72.582 44.9172 72.5088 44.8903C72.4357 44.8634 72.369 44.8198 72.3134 44.7626C72.2579 44.7055 72.2149 44.6361 72.1875 44.5594C72.1601 44.4828 72.1489 44.4007 72.1547 44.3189C72.1504 44.2426 72.1609 44.1661 72.1855 44.0942C72.2102 44.0223 72.2484 43.9566 72.298 43.9009C72.3476 43.8453 72.4074 43.801 72.4738 43.7708C72.5402 43.7405 72.6117 43.725 72.684 43.7252C72.7562 43.725 72.8278 43.7405 72.8941 43.7708C72.9605 43.801 73.0204 43.8453 73.0699 43.9009C73.1195 43.9566 73.1578 44.0223 73.1825 44.0942C73.2071 44.1661 73.2176 44.2426 73.2133 44.3189C73.2133 44.3189 73.2344 44.3525 73.2344 44.3693ZM72.3029 44.2517H73.0915C73.0902 44.1987 73.0789 44.1466 73.0585 44.0982C73.0381 44.0498 73.0088 44.0062 72.9725 43.9698C72.9361 43.9333 72.8933 43.9049 72.8465 43.886C72.7997 43.8671 72.7499 43.8581 72.6999 43.8596C72.5986 43.858 72.5008 43.8979 72.4268 43.971C72.3527 44.0441 72.3084 44.1447 72.3029 44.2517Z" fill="black"/>
</g>
<path d="M102.049 48.1391H51.5183V57.2977H102.049V48.1391Z" fill="#239ED9"/>
<g opacity="0.5">
<path d="M67.6612 63.1173V63.7278H68.4287V63.8735H67.6612V64.5401H67.5024V62.9492H68.5186V63.0949L67.6612 63.1173Z" fill="black"/>
<path d="M68.6611 63.9518C68.6611 63.8333 68.6943 63.7174 68.7565 63.6188C68.8187 63.5203 68.9072 63.4435 69.0107 63.3981C69.1142 63.3527 69.228 63.3409 69.3379 63.364C69.4477 63.3871 69.5487 63.4442 69.6279 63.528C69.7071 63.6118 69.761 63.7187 69.7828 63.8349C69.8047 63.9512 69.7935 64.0717 69.7506 64.1812C69.7078 64.2907 69.6352 64.3843 69.542 64.4502C69.4489 64.5161 69.3394 64.5512 69.2274 64.5512C69.1516 64.557 69.0755 64.5455 69.0043 64.5175C68.9331 64.4894 68.8684 64.4455 68.8147 64.3886C68.761 64.3318 68.7194 64.2633 68.6929 64.1879C68.6664 64.1126 68.6555 64.0321 68.6611 63.9518ZM69.6402 63.9518C69.6402 63.836 69.5967 63.7248 69.5193 63.6429C69.4419 63.561 69.3369 63.5149 69.2274 63.5149C69.1179 63.5149 69.0129 63.561 68.9355 63.6429C68.8581 63.7248 68.8146 63.836 68.8146 63.9518C68.8146 64.0677 68.8581 64.1789 68.9355 64.2608C69.0129 64.3427 69.1179 64.3888 69.2274 64.3888C69.3369 64.3888 69.4419 64.3427 69.5193 64.2608C69.5967 64.1789 69.6402 64.0677 69.6402 63.9518Z" fill="black"/>
<path d="M70.662 63.3523V63.5092H70.6249C70.3921 63.5092 70.2544 63.666 70.2544 63.9461V64.5455H70.101V63.3691H70.2439V63.5988C70.2819 63.5179 70.3423 63.451 70.4169 63.407C70.4915 63.363 70.577 63.344 70.662 63.3523Z" fill="black"/>
<path d="M71.9535 63.3639V64.3946C71.9652 64.4747 71.959 64.5566 71.9352 64.6336C71.9114 64.7106 71.8708 64.7806 71.8166 64.8379C71.7625 64.8952 71.6964 64.9382 71.6236 64.9634C71.5508 64.9885 71.4734 64.9952 71.3978 64.9828C71.2064 64.9946 71.0178 64.9307 70.8685 64.8035L70.9426 64.6803C71.0661 64.7881 71.2219 64.8457 71.3819 64.8427C71.6624 64.8427 71.7947 64.7083 71.7947 64.417V64.2658C71.7449 64.3379 71.6796 64.3964 71.6041 64.4364C71.5286 64.4763 71.4451 64.4966 71.3607 64.4954C71.2886 64.5 71.2163 64.4889 71.1484 64.4628C71.0805 64.4368 71.0183 64.3962 70.9658 64.3438C70.9132 64.2913 70.8714 64.228 70.8428 64.1577C70.8142 64.0875 70.7996 64.0118 70.7997 63.9353C70.7996 63.8588 70.8142 63.7831 70.8428 63.7129C70.8714 63.6426 70.9132 63.5793 70.9658 63.5268C71.0183 63.4743 71.0805 63.4338 71.1484 63.4077C71.2163 63.3816 71.2886 63.3705 71.3607 63.3751C71.4469 63.3706 71.5328 63.39 71.6098 63.4312C71.6868 63.4725 71.7524 63.5342 71.8 63.6104V63.3863L71.9535 63.3639ZM71.8106 63.9241C71.8127 63.835 71.7897 63.7473 71.7444 63.6721C71.6992 63.597 71.6339 63.5378 71.5567 63.5022C71.4795 63.4665 71.3941 63.456 71.3113 63.472C71.2284 63.4881 71.152 63.5298 71.0917 63.592C71.0315 63.6542 70.9901 63.734 70.9728 63.8213C70.9556 63.9085 70.9634 63.9992 70.9951 64.0817C71.0268 64.1642 71.081 64.2349 71.1509 64.2846C71.2207 64.3344 71.303 64.361 71.3872 64.361C71.4431 64.3642 71.4991 64.3549 71.5515 64.3339C71.6038 64.3129 71.6515 64.2805 71.6913 64.2388C71.7312 64.1971 71.7624 64.1471 71.7829 64.092C71.8035 64.0368 71.8129 63.9777 71.8106 63.9185V63.9241Z" fill="black"/>
<path d="M72.2662 63.9518C72.2662 63.7929 72.3259 63.6404 72.4321 63.528C72.5383 63.4156 72.6824 63.3525 72.8326 63.3525C72.9828 63.3525 73.1268 63.4156 73.233 63.528C73.3392 63.6404 73.3989 63.7929 73.3989 63.9518C73.3989 64.1108 73.3392 64.2633 73.233 64.3757C73.1268 64.4881 72.9828 64.5512 72.8326 64.5512C72.6824 64.5512 72.5383 64.4881 72.4321 64.3757C72.3259 64.2633 72.2662 64.1108 72.2662 63.9518ZM73.2454 63.9518C73.252 63.8899 73.2462 63.8272 73.2283 63.7679C73.2105 63.7085 73.181 63.6538 73.1417 63.6073C73.1025 63.5609 73.0545 63.5237 73.0007 63.4982C72.947 63.4728 72.8888 63.4596 72.8299 63.4596C72.771 63.4596 72.7128 63.4728 72.6591 63.4982C72.6054 63.5237 72.5573 63.5609 72.5181 63.6073C72.4789 63.6538 72.4494 63.7085 72.4315 63.7679C72.4136 63.8272 72.4078 63.8899 72.4144 63.9518C72.4115 64.0116 72.4202 64.0713 72.44 64.1273C72.4598 64.1833 72.4902 64.2344 72.5294 64.2774C72.5686 64.3205 72.6157 64.3546 72.6679 64.3776C72.72 64.4006 72.7761 64.412 72.8326 64.4112C72.8879 64.4105 72.9426 64.398 72.9932 64.3742C73.0439 64.3505 73.0894 64.3161 73.127 64.2731C73.1647 64.2301 73.1936 64.1794 73.2122 64.1242C73.2307 64.069 73.2384 64.0103 73.2348 63.9518H73.2454Z" fill="black"/>
<path d="M74.2929 64.4671C74.2272 64.5236 74.1446 64.5534 74.06 64.5511C74.0162 64.5563 73.9718 64.5511 73.9301 64.5359C73.8884 64.5206 73.8505 64.4957 73.819 64.463C73.7876 64.4302 73.7634 64.3905 73.7483 64.3466C73.7333 64.3028 73.7276 64.2559 73.7318 64.2094V63.5092H73.536V63.3748H73.7318V63.1171H73.8853V63.3748H74.2241V63.5092H73.8853V64.2094C73.8811 64.2374 73.8831 64.266 73.891 64.2931C73.8989 64.3202 73.9126 64.345 73.931 64.3655C73.9494 64.3861 73.9721 64.4019 73.9972 64.4118C74.0223 64.4216 74.0492 64.4252 74.0759 64.4223C74.1352 64.4254 74.1935 64.4055 74.2399 64.3662L74.2929 64.4671Z" fill="black"/>
<path d="M76.3094 63.5094C76.3094 63.8399 76.0818 64.0695 75.7007 64.0695H75.3038V64.5625H75.1503V62.9492H75.6795C76.0818 62.9492 76.3094 63.1733 76.3094 63.5094ZM76.1506 63.5094C76.1506 63.2573 75.9971 63.1173 75.7007 63.1173H75.3038V63.8959H75.7007C75.9971 63.8959 76.1506 63.7558 76.1506 63.5094Z" fill="black"/>
<path d="M77.4689 63.8124V64.5406H77.326V64.3558C77.2843 64.4223 77.2264 64.4756 77.1584 64.5102C77.0903 64.5447 77.0148 64.5591 76.9396 64.5518C76.6909 64.5518 76.5321 64.4118 76.5321 64.2101C76.5321 64.0085 76.6432 63.874 76.9661 63.874H77.3154V63.8012C77.3154 63.5996 77.2096 63.4931 77.0032 63.4931C76.8686 63.4904 76.7374 63.538 76.6327 63.6276L76.5639 63.5099C76.6936 63.403 76.8547 63.3475 77.019 63.3531C77.0787 63.3443 77.1395 63.3499 77.1967 63.3696C77.254 63.3893 77.3063 63.4225 77.3497 63.4668C77.393 63.511 77.4263 63.5652 77.447 63.625C77.4676 63.6849 77.4751 63.749 77.4689 63.8124ZM77.3154 64.1877V63.9917H76.9396C76.7279 63.9917 76.6538 64.0813 76.6538 64.2045C76.6538 64.3278 76.7597 64.423 76.9396 64.423C77.0148 64.4296 77.09 64.4102 77.1539 64.3678C77.2179 64.3254 77.2671 64.2622 77.2943 64.1877H77.3154Z" fill="black"/>
<path d="M77.7014 64.4058L77.7702 64.277C77.8829 64.367 78.0208 64.4143 78.1619 64.4114C78.3736 64.4114 78.4636 64.333 78.4636 64.221C78.4636 63.9129 77.7385 64.1538 77.7385 63.6888C77.7385 63.4984 77.8973 63.3527 78.1831 63.3527C78.3211 63.3489 78.4573 63.3879 78.5747 63.4648L78.5059 63.588C78.4115 63.5181 78.2982 63.4827 78.1831 63.4872C77.9819 63.4872 77.8919 63.5712 77.8919 63.6832C77.8919 64.0025 78.6118 63.7617 78.6118 64.2154C78.6118 64.417 78.4424 64.5515 78.1513 64.5515C77.9903 64.5563 77.8323 64.5052 77.7014 64.4058Z" fill="black"/>
<path d="M78.7334 64.4056L78.8022 64.2767C78.9168 64.3667 79.0564 64.414 79.1992 64.4111C79.4109 64.4111 79.4955 64.3327 79.4955 64.2207C79.4955 63.9126 78.7757 64.1535 78.7757 63.6886C78.7757 63.4981 78.9345 63.3525 79.215 63.3525C79.3532 63.348 79.4895 63.387 79.6067 63.4645L79.5432 63.5877C79.4474 63.5166 79.3319 63.4812 79.215 63.4869C79.0139 63.4869 78.9239 63.5709 78.9239 63.6829C78.9239 64.0022 79.649 63.7614 79.649 64.2151C79.649 64.4168 79.4797 64.5512 79.1886 64.5512C79.0259 64.5561 78.8662 64.505 78.7334 64.4056Z" fill="black"/>
<path d="M81.539 63.3639L81.1156 64.5403H80.9727L80.6234 63.5768L80.2741 64.5403H80.1153L79.6971 63.3639H79.8401L80.1894 64.361L80.5493 63.3639H80.6763L81.0309 64.361L81.3855 63.3639H81.539Z" fill="black"/>
<path d="M81.6236 63.9518C81.6236 63.8333 81.6568 63.7174 81.719 63.6188C81.7813 63.5203 81.8697 63.4435 81.9732 63.3981C82.0767 63.3527 82.1905 63.3409 82.3004 63.364C82.4103 63.3871 82.5112 63.4442 82.5904 63.528C82.6696 63.6118 82.7235 63.7187 82.7454 63.8349C82.7672 63.9512 82.756 64.0717 82.7131 64.1812C82.6703 64.2907 82.5977 64.3843 82.5046 64.4502C82.4114 64.5161 82.3019 64.5512 82.1899 64.5512C82.1141 64.557 82.038 64.5455 81.9668 64.5175C81.8956 64.4894 81.8309 64.4455 81.7772 64.3886C81.7235 64.3318 81.682 64.2633 81.6554 64.1879C81.6289 64.1126 81.6181 64.0321 81.6236 63.9518ZM82.6028 63.9518C82.6094 63.8899 82.6035 63.8272 82.5857 63.7679C82.5678 63.7085 82.5383 63.6538 82.4991 63.6073C82.4599 63.5609 82.4118 63.5237 82.3581 63.4982C82.3043 63.4728 82.2461 63.4596 82.1873 63.4596C82.1284 63.4596 82.0702 63.4728 82.0164 63.4982C81.9627 63.5237 81.9147 63.5609 81.8754 63.6073C81.8362 63.6538 81.8067 63.7085 81.7888 63.7679C81.771 63.8272 81.7652 63.8899 81.7718 63.9518C81.7689 64.0116 81.7776 64.0712 81.7974 64.1273C81.8172 64.1833 81.8476 64.2344 81.8868 64.2774C81.926 64.3205 81.9731 64.3546 82.0252 64.3776C82.0774 64.4006 82.1334 64.412 82.1899 64.4112C82.2462 64.4121 82.302 64.4006 82.3539 64.3776C82.4058 64.3545 82.4526 64.3203 82.4914 64.2772C82.5301 64.234 82.5601 64.1828 82.5792 64.1268C82.5984 64.0709 82.6064 64.0113 82.6028 63.9518Z" fill="black"/>
<path d="M83.6192 63.3529V63.5097H83.5875C83.5341 63.5066 83.4807 63.5161 83.4312 63.5375C83.3818 63.5589 83.3374 63.5918 83.3014 63.6336C83.2654 63.6755 83.2387 63.7253 83.2232 63.7794C83.2077 63.8335 83.2037 63.8907 83.2117 63.9466V64.546H83.0635V63.3697H83.2064V63.5993C83.2435 63.5189 83.3029 63.4522 83.3766 63.4082C83.4503 63.3642 83.5349 63.3449 83.6192 63.3529Z" fill="black"/>
<path d="M84.879 62.8766V64.5571H84.7361V64.3219C84.691 64.4001 84.627 64.4641 84.5507 64.5074C84.4744 64.5508 84.3886 64.5718 84.302 64.5683C84.1519 64.5683 84.0078 64.5052 83.9016 64.3928C83.7954 64.2804 83.7357 64.1279 83.7357 63.969C83.7357 63.81 83.7954 63.6575 83.9016 63.5451C84.0078 63.4327 84.1519 63.3696 84.302 63.3696C84.3854 63.3658 84.4682 63.385 84.5424 63.4252C84.6167 63.4655 84.6797 63.5254 84.7255 63.5993V62.8935L84.879 62.8766ZM84.7308 63.9522C84.7374 63.8902 84.7316 63.8275 84.7137 63.7682C84.6958 63.7088 84.6663 63.6541 84.6271 63.6076C84.5879 63.5612 84.5398 63.524 84.4861 63.4985C84.4324 63.4731 84.3742 63.4599 84.3153 63.4599C84.2564 63.4599 84.1982 63.4731 84.1445 63.4985C84.0907 63.524 84.0427 63.5612 84.0035 63.6076C83.9642 63.6541 83.9347 63.7088 83.9169 63.7682C83.899 63.8275 83.8932 63.8902 83.8998 63.9522C83.8932 64.0141 83.899 64.0768 83.9169 64.1361C83.9347 64.1955 83.9642 64.2502 84.0035 64.2967C84.0427 64.3431 84.0907 64.3803 84.1445 64.4058C84.1982 64.4312 84.2564 64.4444 84.3153 64.4444C84.3742 64.4444 84.4324 64.4312 84.4861 64.4058C84.5398 64.3803 84.5879 64.3431 84.6271 64.2967C84.6663 64.2502 84.6958 64.1955 84.7137 64.1361C84.7316 64.0768 84.7374 64.0141 84.7308 63.9522Z" fill="black"/>
<path d="M85.9897 63.3693C85.9897 63.2125 85.868 63.1004 85.651 63.1004C85.5754 63.0951 85.4996 63.1086 85.4298 63.1397C85.36 63.1708 85.298 63.2188 85.2487 63.2797L85.1376 63.1901C85.2029 63.111 85.2848 63.0491 85.3766 63.0092C85.4685 62.9694 85.5678 62.9527 85.6669 62.9604C85.9632 62.9604 86.1538 63.106 86.1538 63.3469C86.1538 63.7278 85.7674 63.7502 85.7674 64.0695H85.6086C85.6033 63.6998 85.9897 63.6662 85.9897 63.3693ZM85.5716 64.4336C85.5716 64.4184 85.5745 64.4034 85.5801 64.3894C85.5858 64.3754 85.594 64.3628 85.6044 64.3523C85.6148 64.3419 85.6271 64.3337 85.6406 64.3285C85.6541 64.3232 85.6684 64.3208 85.6827 64.3216C85.6971 64.3208 85.7114 64.3232 85.7249 64.3285C85.7383 64.3337 85.7506 64.3419 85.761 64.3523C85.7714 64.3628 85.7797 64.3754 85.7853 64.3894C85.791 64.4034 85.7939 64.4184 85.7939 64.4336C85.7939 64.4648 85.7822 64.4947 85.7613 64.5168C85.7405 64.5389 85.7122 64.5512 85.6827 64.5512C85.6537 64.5499 85.6261 64.537 85.6056 64.5153C85.585 64.4935 85.5729 64.4644 85.5716 64.4336Z" fill="black"/>
</g>
<path d="M54.4719 42.4474H51.9049V45.1642H54.4719V42.4474Z" fill="white"/>
<path d="M71.2073 51.0073H71.6307V53.752H73.2185V54.1385H71.1914L71.2073 51.0073Z" fill="white"/>
<path d="M73.4252 52.9508C73.421 52.705 73.486 52.4635 73.6119 52.257C73.7379 52.0505 73.9191 51.8884 74.1324 51.7912C74.3457 51.6941 74.5816 51.6663 74.8098 51.7115C75.0381 51.7568 75.2485 51.8729 75.4142 52.0451C75.5799 52.2173 75.6935 52.4378 75.7403 52.6785C75.7872 52.9192 75.7653 53.1693 75.6774 53.3968C75.5896 53.6243 75.4397 53.819 75.2469 53.956C75.0541 54.0931 74.8271 54.1663 74.5949 54.1663C74.4411 54.1741 74.2875 54.1482 74.1437 54.0901C73.9998 54.0321 73.8689 53.9432 73.759 53.8291C73.6492 53.7149 73.5628 53.578 73.5054 53.4269C73.4479 53.2757 73.4206 53.1136 73.4252 52.9508ZM75.3465 52.9508C75.3392 52.794 75.2886 52.643 75.2009 52.5164C75.1132 52.3898 74.9923 52.2933 74.8532 52.2388C74.7141 52.1843 74.563 52.1743 74.4186 52.2099C74.2742 52.2456 74.1428 52.3253 74.0409 52.4393C73.9389 52.5533 73.8708 52.6965 73.8451 52.851C73.8194 53.0056 73.8371 53.1648 73.8961 53.3088C73.9552 53.4528 74.0529 53.5752 74.1771 53.661C74.3013 53.7467 74.4466 53.7919 74.5949 53.791C74.6984 53.7945 74.8014 53.7749 74.8972 53.7333C74.993 53.6918 75.0794 53.6294 75.1509 53.5501C75.2223 53.4707 75.2771 53.3764 75.3118 53.2731C75.3464 53.1698 75.36 53.06 75.3518 52.9508H75.3465Z" fill="white"/>
<path d="M78.469 51.7465V53.8023C78.4917 53.969 78.477 54.139 78.4263 54.2986C78.3755 54.4582 78.2901 54.6029 78.1768 54.7212C78.0635 54.8395 77.9256 54.9279 77.7741 54.9794C77.6226 55.031 77.4618 55.0441 77.3046 55.0178C76.924 55.032 76.5503 54.9075 76.246 54.6649L76.4419 54.3344C76.6885 54.537 76.9925 54.6455 77.3046 54.6425C77.8339 54.6425 78.0773 54.3849 78.0773 53.8471V53.6567C77.9754 53.7763 77.8503 53.8712 77.7106 53.935C77.5708 53.9988 77.4197 54.03 77.2675 54.0264C77.1183 54.0374 76.9686 54.0158 76.8276 53.9629C76.6866 53.9101 76.5574 53.8271 76.448 53.7191C76.3386 53.6111 76.2514 53.4805 76.1917 53.3353C76.1321 53.1901 76.1013 53.0335 76.1013 52.8752C76.1013 52.7169 76.1321 52.5603 76.1917 52.4151C76.2514 52.27 76.3386 52.1393 76.448 52.0314C76.5574 51.9234 76.6866 51.8404 76.8276 51.7875C76.9686 51.7347 77.1183 51.7131 77.2675 51.7241C77.4249 51.72 77.5811 51.753 77.7249 51.8209C77.8686 51.8887 77.9963 51.9896 78.0985 52.1162V51.7465H78.469ZM78.0721 52.8668C78.0805 52.7035 78.0425 52.5412 77.9629 52.4009C77.8833 52.2607 77.7658 52.1489 77.6255 52.0801C77.4853 52.0112 77.3288 51.9885 77.1762 52.0148C77.0236 52.0411 76.882 52.1153 76.7697 52.2277C76.6573 52.3401 76.5794 52.4855 76.546 52.6453C76.5126 52.805 76.5252 52.9717 76.5822 53.1237C76.6393 53.2758 76.7381 53.4063 76.8659 53.4983C76.9938 53.5903 77.1447 53.6396 77.2993 53.6398C77.3993 53.6485 77.4998 53.6348 77.5945 53.5997C77.6891 53.5645 77.7757 53.5087 77.8486 53.4357C77.9215 53.3628 77.979 53.2745 78.0175 53.1765C78.056 53.0784 78.0746 52.9729 78.0721 52.8668Z" fill="white"/>
<path d="M79.1731 51.0293C79.1709 50.9712 79.1853 50.9138 79.2142 50.8645C79.2431 50.8151 79.2853 50.7761 79.3354 50.7523C79.3855 50.7285 79.4411 50.7211 79.4952 50.7311C79.5493 50.741 79.5993 50.7678 79.6388 50.8081C79.6784 50.8483 79.7057 50.9002 79.7172 50.957C79.7287 51.0138 79.7239 51.0729 79.7034 51.1268C79.6829 51.1807 79.6477 51.2268 79.6022 51.2594C79.5568 51.2919 79.5032 51.3093 79.4483 51.3093C79.4126 51.3108 79.3771 51.3047 79.3438 51.2913C79.3104 51.2779 79.28 51.2575 79.2543 51.2314C79.2286 51.2052 79.2081 51.1738 79.1942 51.1391C79.1802 51.1044 79.173 51.067 79.1731 51.0293ZM79.2419 51.7631H79.6494V54.1381H79.2419V51.7631Z" fill="white"/>
<path d="M82.5551 52.7715V54.1383H82.1475V52.8219C82.1475 52.357 81.9252 52.1273 81.5442 52.1273C81.4456 52.119 81.3465 52.1341 81.2541 52.1714C81.1616 52.2086 81.0782 52.2672 81.0098 52.3428C80.9414 52.4184 80.8898 52.5091 80.8586 52.6085C80.8274 52.7078 80.8175 52.8132 80.8296 52.9171V54.1383H80.4274V51.7464H80.8137V52.1049C80.9104 51.9778 81.0342 51.8769 81.1751 51.8107C81.3159 51.7444 81.4697 51.7147 81.6235 51.724C81.7535 51.7135 81.884 51.7339 82.0056 51.7838C82.1271 51.8336 82.2365 51.9117 82.3258 52.0121C82.4152 52.1126 82.4821 52.2329 82.5218 52.3643C82.5615 52.4957 82.5728 52.6348 82.5551 52.7715Z" fill="white"/>
<path d="M52.9578 44.554L52.3915 43.9042L52.582 43.7137L52.9578 44.145L53.8047 43.2208L53.9952 43.4112L52.9578 44.554Z" fill="#263238"/>
<g opacity="0.4">
<path d="M97.2533 36.4767C96.7854 36.4548 96.3298 36.3116 95.9264 36.0596C95.5231 35.8076 95.1845 35.4545 94.9404 35.0315L94.8875 34.9531L94.9404 34.8747C95.1692 34.4369 95.5047 34.072 95.9119 33.8179C96.3191 33.5638 96.7833 33.4298 97.256 33.4298C97.7287 33.4298 98.1928 33.5638 98.6 33.8179C99.0072 34.072 99.3427 34.4369 99.5716 34.8747L99.6245 34.9531L99.5716 35.0315C99.3266 35.455 98.9871 35.8082 98.5828 36.0602C98.1786 36.3122 97.722 36.4553 97.2533 36.4767ZM95.2103 34.9419C95.4184 35.3209 95.7169 35.6355 96.0758 35.8542C96.4348 36.0728 96.8418 36.1879 97.256 36.1879C97.6702 36.1879 98.0771 36.0728 98.4361 35.8542C98.7951 35.6355 99.0936 35.3209 99.3016 34.9419C99.0936 34.5629 98.7951 34.2483 98.4361 34.0296C98.0771 33.811 97.6702 33.6959 97.256 33.6959C96.8418 33.6959 96.4348 33.811 96.0758 34.0296C95.7169 34.2483 95.4184 34.5629 95.2103 34.9419Z" fill="#263238"/>
<path d="M97.2529 35.9888C97.0579 35.9888 96.8674 35.9276 96.7054 35.8129C96.5434 35.6981 96.4172 35.5351 96.3429 35.3444C96.2685 35.1537 96.2493 34.9439 96.2877 34.7416C96.3262 34.5394 96.4204 34.3537 96.5586 34.2082C96.6969 34.0628 96.8728 33.964 97.0641 33.9244C97.2554 33.8848 97.4535 33.9063 97.6333 33.986C97.8131 34.0657 97.9665 34.2001 98.074 34.3722C98.1815 34.5443 98.2384 34.7463 98.2373 34.9526C98.2373 35.0891 98.2118 35.2243 98.1623 35.3504C98.1128 35.4765 98.0402 35.591 97.9487 35.6873C97.8572 35.7836 97.7486 35.8598 97.6292 35.9116C97.5098 35.9633 97.3819 35.9896 97.2529 35.9888ZM97.2529 34.1907C97.1105 34.1907 96.9713 34.2354 96.853 34.3191C96.7346 34.4028 96.6423 34.5218 96.5879 34.661C96.5334 34.8002 96.5191 34.9534 96.5469 35.1012C96.5747 35.249 96.6432 35.3847 96.7439 35.4912C96.8446 35.5978 96.9728 35.6703 97.1124 35.6997C97.2521 35.7291 97.3968 35.714 97.5283 35.6564C97.6599 35.5987 97.7723 35.5011 97.8514 35.3758C97.9305 35.2505 97.9727 35.1032 97.9727 34.9526C97.9727 34.7505 97.8969 34.5567 97.7619 34.4139C97.6269 34.271 97.4438 34.1907 97.2529 34.1907Z" fill="#263238"/>
<path d="M98.7238 33.2028L95.6025 36.5062L95.7897 36.7043L98.911 33.4009L98.7238 33.2028Z" fill="#263238"/>
</g>
<g opacity="0.5">
<path d="M70.6144 13.0504L70.7255 12.8263C70.9612 13.0485 71.2674 13.1685 71.583 13.1624C72.0646 13.1624 72.2763 12.9439 72.2763 12.6751C72.2763 11.9245 70.6885 12.3838 70.6885 11.3699C70.6885 10.9666 70.9849 10.6137 71.6465 10.6137C71.9318 10.6097 72.2118 10.6954 72.451 10.8602L72.361 11.0898C72.1479 10.9431 71.9006 10.8616 71.6465 10.8546C71.1701 10.8546 70.9584 11.073 70.9584 11.3475C70.9584 12.1037 72.5463 11.65 72.5463 12.6471C72.5463 13.0504 72.2446 13.3977 71.583 13.3977C71.2305 13.4134 70.8852 13.2896 70.6144 13.0504Z" fill="black"/>
<path d="M73.0278 10.6703C73.0285 10.6438 73.0341 10.6177 73.0444 10.5935C73.0546 10.5693 73.0692 10.5475 73.0874 10.5293C73.1056 10.5111 73.127 10.4969 73.1503 10.4874C73.1737 10.478 73.1987 10.4735 73.2237 10.4742C73.251 10.4694 73.279 10.4709 73.3057 10.4786C73.3324 10.4864 73.3572 10.5002 73.3784 10.5191C73.3995 10.538 73.4165 10.5616 73.4282 10.5882C73.4398 10.6148 73.4459 10.6438 73.4459 10.6731C73.4459 10.7024 73.4398 10.7314 73.4282 10.758C73.4165 10.7846 73.3995 10.8081 73.3784 10.8271C73.3572 10.846 73.3324 10.8598 73.3057 10.8676C73.279 10.8753 73.251 10.8768 73.2237 10.8719C73.1982 10.8727 73.1729 10.868 73.1491 10.8582C73.1254 10.8484 73.1038 10.8337 73.0855 10.8149C73.0673 10.7961 73.0527 10.7736 73.0428 10.7488C73.0329 10.7239 73.0278 10.6972 73.0278 10.6703ZM73.0861 11.3201H73.3507V13.387H73.0861V11.3201Z" fill="black"/>
<path d="M75.8813 11.32V13.1349C75.9009 13.275 75.8893 13.4181 75.8472 13.5526C75.8052 13.6872 75.7341 13.8094 75.6394 13.9096C75.5448 14.0098 75.4292 14.0851 75.3021 14.1295C75.175 14.174 75.0398 14.1863 74.9074 14.1656C74.5781 14.1807 74.2548 14.0693 73.9971 13.8519L74.1294 13.639C74.3454 13.8263 74.6176 13.9257 74.8968 13.9191C75.3891 13.9191 75.6166 13.6782 75.6166 13.1685V12.9052C75.5324 13.0354 75.4182 13.1406 75.2849 13.2112C75.1515 13.2818 75.0034 13.3153 74.8545 13.3085C74.7245 13.3188 74.5938 13.3006 74.4708 13.255C74.3477 13.2095 74.2349 13.1375 74.1393 13.0436C74.0437 12.9498 73.9675 12.8361 73.9154 12.7096C73.8632 12.5831 73.8363 12.4466 73.8363 12.3086C73.8363 12.1707 73.8632 12.0342 73.9154 11.9077C73.9675 11.7812 74.0437 11.6675 74.1393 11.5737C74.2349 11.4798 74.3477 11.4078 74.4708 11.3623C74.5938 11.3167 74.7245 11.2985 74.8545 11.3088C75.0056 11.3013 75.156 11.3349 75.2913 11.4065C75.4266 11.4781 75.5422 11.5852 75.6272 11.7177V11.32H75.8813ZM75.6219 12.3058C75.6272 12.1497 75.5883 11.9954 75.5101 11.8628C75.432 11.7302 75.3182 11.6253 75.1833 11.5617C75.0485 11.498 74.8987 11.4784 74.7533 11.5054C74.6078 11.5325 74.4734 11.6048 74.3671 11.7133C74.2608 11.8218 74.1875 11.9614 74.1567 12.1142C74.1259 12.2671 74.139 12.4262 74.1942 12.5711C74.2494 12.7161 74.3443 12.8402 74.4667 12.9277C74.589 13.0152 74.7333 13.062 74.8809 13.0621C74.9784 13.0699 75.0763 13.0561 75.1684 13.0214C75.2605 12.9867 75.3446 12.9319 75.4155 12.8607C75.4863 12.7894 75.5422 12.7032 75.5796 12.6076C75.617 12.5121 75.635 12.4092 75.6325 12.3058H75.6219Z" fill="black"/>
<path d="M78.4217 12.1878V13.3865H78.157V12.2158C78.1728 12.1288 78.1688 12.0391 78.1455 11.9541C78.1222 11.8691 78.0801 11.7911 78.0228 11.7266C77.9654 11.6621 77.8944 11.6129 77.8157 11.583C77.7369 11.5532 77.6525 11.5435 77.5696 11.5548C77.4763 11.5485 77.3828 11.5639 77.2958 11.5999C77.2087 11.6358 77.1301 11.6915 77.0656 11.7631C77.001 11.8346 76.952 11.9202 76.922 12.0139C76.8921 12.1076 76.8818 12.2071 76.8921 12.3054V13.3865H76.6274V11.3196H76.8762V11.7005C76.9574 11.5718 77.069 11.4678 77.1999 11.399C77.3309 11.3302 77.4766 11.299 77.6225 11.3084C77.7324 11.2993 77.8428 11.3161 77.9459 11.3576C78.0489 11.3991 78.142 11.4642 78.2184 11.5483C78.2948 11.6324 78.3527 11.7333 78.3878 11.8439C78.423 11.9545 78.4345 12.0719 78.4217 12.1878Z" fill="black"/>
<path d="M80.0465 10.6702C80.0541 10.6218 80.0776 10.5778 80.113 10.546C80.1484 10.5143 80.1933 10.4969 80.2396 10.4969C80.286 10.4969 80.3309 10.5143 80.3663 10.546C80.4017 10.5778 80.4252 10.6218 80.4328 10.6702C80.4336 10.6976 80.429 10.7249 80.4194 10.7504C80.4098 10.7759 80.3954 10.7991 80.3771 10.8185C80.3588 10.8379 80.3369 10.8531 80.3128 10.8632C80.2887 10.8734 80.2629 10.8782 80.237 10.8774C80.2115 10.8774 80.1863 10.8721 80.1628 10.8616C80.1394 10.8511 80.1181 10.8357 80.1004 10.8164C80.0826 10.7971 80.0687 10.7742 80.0594 10.7491C80.0502 10.724 80.0458 10.6971 80.0465 10.6702ZM80.1047 11.32H80.3693V13.3869H80.1153L80.1047 11.32Z" fill="black"/>
<path d="M82.894 12.1884V13.3871H82.6347V12.2164C82.6504 12.1294 82.6464 12.0397 82.6231 11.9547C82.5997 11.8696 82.5577 11.7916 82.5003 11.7271C82.443 11.6626 82.372 11.6134 82.2933 11.5836C82.2145 11.5537 82.1301 11.5441 82.0471 11.5554C81.9537 11.5492 81.86 11.5646 81.7727 11.6005C81.6855 11.6365 81.6066 11.6921 81.5417 11.7635C81.4767 11.8349 81.4272 11.9204 81.3966 12.0141C81.366 12.1078 81.355 12.2074 81.3644 12.306V13.3871H81.0997V11.3201H81.3538V11.701C81.4337 11.5724 81.5443 11.4683 81.6745 11.3995C81.8046 11.3306 81.9496 11.2994 82.0948 11.3089C82.2049 11.2988 82.3158 11.3149 82.4193 11.356C82.5228 11.3971 82.6163 11.4622 82.6929 11.5466C82.7695 11.6309 82.8274 11.7323 82.8622 11.8433C82.897 11.9544 82.9078 12.0723 82.894 12.1884Z" fill="black"/>
</g>
<path d="M39.289 89.6551L38.6533 87.0857H12.5971L0.604242 88.3658L0.148926 89.6551H39.289Z" fill="#263238"/>
<path opacity="0.5" d="M39.289 89.6551L38.6533 87.0857H12.5971L0.604242 88.3658L0.148926 89.6551H39.289Z" fill="white"/>
<path opacity="0.2" d="M12.5974 87.0857V89.6551H39.2893L38.6536 87.0857H12.5974Z" fill="black"/>
<path d="M21.4107 74.7832C21.3763 75.0947 21.4045 75.4105 21.4933 75.7093C21.5821 76.0082 21.7295 76.2833 21.9255 76.5161C22.1216 76.749 22.3618 76.9342 22.6301 77.0594C22.8984 77.1846 23.1885 77.2469 23.4811 77.2421H63.3943C64.0181 77.2261 64.6152 76.968 65.075 76.5158C65.5347 76.0636 65.8258 75.448 65.8943 74.7832L68.2654 47.3943C68.288 47.129 68.2706 46.8616 68.2138 46.6023C68.1044 46.1197 67.8448 45.6915 67.4777 45.3884C67.1107 45.0853 66.6582 44.9255 66.195 44.9354H26.2817C25.6579 44.9514 25.0608 45.2095 24.601 45.6617C24.1413 46.1139 23.8502 46.7295 23.7817 47.3943L21.4107 74.7832Z" fill="#263238"/>
<path opacity="0.5" d="M21.4107 74.7832C21.3763 75.0947 21.4045 75.4105 21.4933 75.7093C21.5821 76.0082 21.7295 76.2833 21.9255 76.5161C22.1216 76.749 22.3618 76.9342 22.6301 77.0594C22.8984 77.1846 23.1885 77.2469 23.4811 77.2421H63.3943C64.0181 77.2261 64.6152 76.968 65.075 76.5158C65.5347 76.0636 65.8258 75.448 65.8943 74.7832L68.2654 47.3943C68.288 47.129 68.2706 46.8616 68.2138 46.6023C68.1044 46.1197 67.8448 45.6915 67.4777 45.3884C67.1107 45.0853 66.6582 44.9255 66.195 44.9354H26.2817C25.6579 44.9514 25.0608 45.2095 24.601 45.6617C24.1413 46.1139 23.8502 46.7295 23.7817 47.3943L21.4107 74.7832Z" fill="white"/>
<path opacity="0.1" d="M23.6536 77.2412H63.4208C64.0446 77.2252 64.6417 76.9672 65.1015 76.515C65.5612 76.0628 65.8523 75.4471 65.9208 74.7823L68.2919 47.3934C68.3145 47.1282 68.2971 46.8607 68.2403 46.6014H28.4645C27.8422 46.6196 27.2471 46.8787 26.7892 47.3307C26.3312 47.7826 26.0414 48.397 25.9731 49.0603L23.602 76.4492C23.575 76.7144 23.5925 76.9826 23.6536 77.2412Z" fill="black"/>
<path d="M51.0417 60.4431H42.7858L44.9851 85.7875L31.9355 87.8873V89.6555H59.435V87.8873L53.7994 85.7875L51.0417 60.4431Z" fill="#263238"/>
<path opacity="0.5" d="M51.0417 60.4431H42.7858L44.9851 85.7875L31.9355 87.8873V89.6555H59.435V87.8873L53.7994 85.7875L51.0417 60.4431Z" fill="white"/>
<path opacity="0.2" d="M42.7852 60.4431L48.9019 89.2503L53.7987 89.0937L51.041 60.4431H42.7852Z" fill="white"/>
</svg>
