<svg width="349" height="183" viewBox="0 0 349 183" fill="none" xmlns="http://www.w3.org/2000/svg">
<path d="M340.425 134.822L333.553 134.969L330.065 135.026C328.897 135.053 327.724 135.026 326.556 135.058H326.325V134.822L326.294 128.945V128.684H326.556L333.49 128.715C335.805 128.715 338.115 128.773 340.425 128.799H340.572V128.945C340.572 129.941 340.53 130.931 340.504 131.91L340.425 134.822ZM340.425 134.822L340.352 131.863C340.326 130.889 340.294 129.925 340.284 128.961L340.425 129.108C338.115 129.134 335.805 129.192 333.49 129.192L326.556 129.223L326.818 128.961V134.822L326.582 134.592C327.724 134.592 328.866 134.592 330.013 134.618L333.422 134.707L340.425 134.822Z" fill="#E2F3FC"/>
<path d="M332.689 142.213L325.817 142.359L322.324 142.417C321.161 142.417 319.988 142.417 318.82 142.448H318.589V142.213V136.352V136.09H318.851L325.786 136.126C328.095 136.126 330.41 136.184 332.72 136.21H332.867V136.352C332.867 137.347 332.825 138.337 332.799 139.316L332.689 142.213ZM332.689 142.213L332.615 139.253C332.589 138.279 332.558 137.315 332.547 136.352L332.689 136.498C330.379 136.525 328.064 136.582 325.754 136.582L318.82 136.614L319.081 136.352V142.213L318.846 141.982C319.988 141.982 321.129 141.982 322.276 142.008L325.718 142.071L332.689 142.213Z" fill="#E2F3FC"/>
<path d="M348.161 142.213L341.289 142.359L337.801 142.417C336.633 142.417 335.46 142.417 334.292 142.448H334.061V142.213L334.03 136.352V136.09H334.292L341.226 136.126C343.541 136.126 345.851 136.184 348.161 136.21H348.308V136.352C348.308 137.347 348.26 138.337 348.239 139.316L348.161 142.213ZM348.161 142.213L348.088 139.253C348.088 138.279 348.03 137.315 348.019 136.352L348.161 136.498C345.851 136.525 343.541 136.582 341.226 136.582L334.292 136.614L334.554 136.352V142.213L334.318 141.982C335.465 141.982 336.601 141.982 337.749 142.008L341.195 142.071L348.161 142.213Z" fill="#E2F3FC"/>
<path d="M142.662 65.0819L135.79 65.2286L132.302 65.2862C131.134 65.2862 129.961 65.2862 128.793 65.2862H128.563V65.0505L128.531 59.1896V58.9277H128.793L135.728 58.9592C138.043 58.9592 140.352 59.0168 142.662 59.043H142.809V59.1844C142.809 60.1795 142.762 61.1642 142.736 62.1436L142.662 65.0819ZM142.662 65.0819L142.589 62.1174C142.589 61.1432 142.531 60.1795 142.521 59.221L142.662 59.3625C140.352 59.3625 138.043 59.4463 135.728 59.4463L128.793 59.4829L129.055 59.221L129.029 65.0819L128.793 64.8462C129.935 64.8462 131.077 64.8462 132.224 64.8777L135.67 64.9353L142.662 65.0819Z" fill="#E2F3FC"/>
<path d="M134.916 72.473L128.044 72.6197L124.551 72.6773C123.388 72.6773 122.215 72.6773 121.047 72.7035H120.816V72.4678L120.774 66.6174V66.3555H121.036L127.971 66.3869C130.281 66.3869 132.596 66.4445 134.906 66.4707H135.052V66.6174C135.052 67.6125 135.01 68.5972 134.984 69.5766L134.916 72.473ZM134.916 72.473L134.843 69.5085C134.816 68.5343 134.785 67.5706 134.775 66.6121L134.916 66.7535C132.606 66.7797 130.291 66.8373 127.981 66.8373L121.047 66.874L121.309 66.6121L121.298 72.473L121.062 72.2373C122.204 72.2373 123.346 72.2373 124.493 72.2687L127.934 72.3264L134.916 72.473Z" fill="#E2F3FC"/>
<path d="M150.398 72.473L143.526 72.6197L140.038 72.6773C138.87 72.6773 137.702 72.6773 136.529 72.7035H136.299V72.4678L136.267 66.6174V66.3555H136.529L143.464 66.3869C145.779 66.3869 148.088 66.4445 150.398 66.4707H150.545V66.6174C150.545 67.6125 150.498 68.5972 150.477 69.5766L150.398 72.473ZM150.398 72.473L150.325 69.5085C150.325 68.5343 150.267 67.5706 150.257 66.6121L150.398 66.7535C148.088 66.7797 145.779 66.8373 143.464 66.8373L136.529 66.874L136.791 66.6121L136.765 72.473L136.529 72.2373C137.676 72.2373 138.813 72.2373 139.96 72.2687L143.406 72.3264L150.398 72.473Z" fill="#E2F3FC"/>
<path d="M29.5767 103.86L22.7049 104.007L19.2114 104.065C18.0486 104.065 16.8754 104.065 15.7074 104.091H15.4979V103.855V97.9943V97.7324H15.7598L22.6944 97.7638C25.0042 97.7638 27.3192 97.8215 29.629 97.8477H29.7757V97.9891C29.7757 98.9842 29.7338 99.9689 29.7076 100.948L29.5767 103.86ZM29.5767 103.86L29.5033 100.896C29.5033 99.9217 29.4457 98.958 29.4352 97.9995L29.5767 98.141C27.2669 98.1671 24.9518 98.2248 22.642 98.2248L15.7074 98.2614L15.9693 97.9995L15.9431 103.86L15.7074 103.625C16.8492 103.625 17.991 103.625 19.1381 103.656L22.5792 103.714L29.5767 103.86Z" fill="#E2F3FC"/>
<path d="M259.498 65.0792L252.626 65.2258L249.138 65.2835C247.97 65.3096 246.797 65.2835 245.629 65.3096H245.398V65.074L245.367 59.2131V58.9512H245.629L252.563 58.9826C254.878 58.9826 257.188 59.0454 259.498 59.0716H259.644V59.2131C259.644 60.2082 259.603 61.1981 259.576 62.1723L259.498 65.0792ZM259.498 65.0792L259.424 62.1199C259.398 61.1405 259.367 60.1768 259.356 59.2183L259.498 59.3597C257.188 59.3859 254.878 59.4435 252.563 59.4487L245.629 59.4802L245.89 59.2183L245.864 65.0792L245.629 64.8435C246.77 64.8435 247.912 64.8435 249.059 64.8749L252.506 64.9325L259.498 65.0792Z" fill="#E2F3FC"/>
<path d="M339.624 8.15599L332.752 8.30264L329.258 8.36025C328.096 8.36025 326.922 8.36026 325.754 8.39168H325.524V8.15599V2.29508V2.0332H325.786L332.72 2.06463C335.03 2.06463 337.345 2.12748 339.655 2.15367H339.802V2.29508C339.802 3.29023 339.76 4.28015 339.734 5.25434L339.624 8.15599ZM339.624 8.15599L339.55 5.19673C339.524 4.21729 339.493 3.25357 339.482 2.29508L339.624 2.4365C337.314 2.4365 334.999 2.5203 332.689 2.52554L325.754 2.55697L326.016 2.29508L325.99 8.15599L325.754 7.92029C326.896 7.92029 328.038 7.92029 329.185 7.95172L332.626 8.00933L339.624 8.15599Z" fill="#E2F3FC"/>
<path d="M347.359 15.546L340.488 15.6926L336.999 15.7503C335.831 15.7764 334.658 15.7503 333.49 15.7764H333.26V15.5408L333.228 9.67985V9.41797H333.49L340.425 9.44939C342.74 9.44939 345.05 9.51224 347.359 9.53843H347.506V9.67985C347.506 10.675 347.459 11.6649 347.433 12.6391L347.359 15.546ZM347.359 15.546L347.286 12.5867C347.286 11.6073 347.228 10.6436 347.218 9.68509L347.359 9.8265C345.05 9.85269 342.74 9.9103 340.425 9.91554L333.49 9.94697L333.752 9.68509V15.546L333.516 15.3103C334.658 15.3103 335.8 15.3103 336.947 15.3417L340.393 15.3993L347.359 15.546Z" fill="#E2F3FC"/>
<path d="M14.1049 8.15989L7.22792 8.30654L3.73966 8.36416C2.57691 8.36416 1.40368 8.36416 0.235694 8.39558H0V8.15989V2.29899V2.03711H0.267118L7.20173 2.07377C9.51153 2.07377 11.8213 2.13139 14.1363 2.15757H14.2778V2.29899C14.2778 3.29414 14.2306 4.28405 14.2097 5.26349L14.1049 8.15989ZM14.1049 8.15989L14.0264 5.20064C14.0264 4.2212 13.9687 3.25748 13.9583 2.29899L14.1049 2.44041C11.7899 2.47183 9.4801 2.52421 7.17031 2.52945L0.235694 2.56087L0.497575 2.29899L0.466148 8.15989L0.235694 7.95563C1.3775 7.95563 2.51406 7.95563 3.6611 7.95563L7.10746 8.01324L14.1049 8.15989Z" fill="#E2F3FC"/>
<path d="M183.982 80.8579C183.339 81.465 182.542 81.8836 181.677 82.0678C181.154 82.204 180.572 82.2826 180.017 82.3821H178.121C177.341 82.2616 176.55 82.1673 175.79 82.0154C172.952 81.4063 170.264 80.2383 167.881 78.5796C161.608 74.4324 156.323 68.9574 152.399 62.5419C151.084 60.425 150.178 58.0798 149.728 55.6283C149.613 54.9841 149.524 54.3346 149.424 53.6851V51.7891C149.581 51.0611 149.707 50.3226 149.901 49.605C150.092 48.9316 150.452 48.3184 150.948 47.8242C151.042 47.908 151.126 47.9761 151.21 48.0599C154.227 51.0733 157.246 54.0867 160.266 57.1001C160.364 57.1814 160.433 57.2914 160.465 57.4145C160.497 57.5376 160.49 57.6676 160.444 57.7862C160.215 58.533 160.184 59.3267 160.355 60.089C160.525 60.8514 160.892 61.556 161.418 62.1334C163.995 65.0597 166.753 67.8202 169.678 70.3984C170.261 70.9278 170.972 71.2957 171.741 71.4656C172.51 71.6356 173.31 71.6017 174.062 71.3674C174.282 71.3097 174.439 71.2731 174.628 71.4616C177.711 74.5623 180.801 77.656 183.898 80.7427C183.914 80.7584 183.935 80.8055 183.982 80.8579Z" fill="#E2F3FC"/>
<path d="M189.911 74.087V74.7156C189.638 75.1092 189.342 75.487 189.026 75.8469C188.094 76.8159 187.13 77.7534 186.182 78.7014L185.889 78.979L176.576 69.6717C177.796 68.4671 179.012 67.2362 180.269 66.0368C180.405 65.9103 180.565 65.8125 180.74 65.7491C180.915 65.6858 181.1 65.6582 181.286 65.6679C181.472 65.6777 181.653 65.7247 181.82 65.806C181.988 65.8874 182.137 66.0015 182.259 66.1416C182.961 66.8225 183.642 67.5191 184.354 68.2052C185.972 69.8289 187.601 71.4421 189.204 73.0762C189.466 73.3941 189.702 73.7321 189.911 74.087Z" fill="#E2F3FC"/>
<path d="M165.498 51.8368C164.346 52.9524 163.168 54.0418 162.026 55.1208L152.787 45.8868C152.991 45.7035 153.227 45.5097 153.441 45.3002C154.29 44.457 155.123 43.5928 155.987 42.7652C156.338 42.4572 156.707 42.1704 157.092 41.9062H157.726C158.079 42.1232 158.415 42.3665 158.731 42.6343C160.994 44.876 163.248 47.1282 165.493 49.3908C166.342 50.2393 166.342 51.004 165.498 51.8368Z" fill="#E2F3FC"/>
<path d="M10.6589 56.9761H71.274V18.5215H10.6589V56.9761Z" fill="#E2F3FC"/>
<path d="M82.613 56.9749H71.2736V45.1641L82.613 56.9749Z" fill="#E2F3FC"/>
<path d="M64.2553 25.166H17.6719V25.8993H64.2553V25.166Z" fill="white"/>
<path d="M41.7494 29.1172H17.672V29.8505H41.7494V29.1172Z" fill="white"/>
<path d="M55.341 37.0078H17.672V37.7411H55.341V37.0078Z" fill="white"/>
<path d="M64.2547 40.9512H17.6713V41.6844H64.2547V40.9512Z" fill="white"/>
<path d="M64.2547 44.8965H17.6713V45.6297H64.2547V44.8965Z" fill="white"/>
<path d="M34.2228 48.8477H17.6719V49.5809H34.2228V48.8477Z" fill="white"/>
<path d="M337.737 72.332H277.122V106.246H337.737V72.332Z" fill="#DBDBDB"/>
<path d="M265.783 106.25H277.122V94.4395L265.783 106.25Z" fill="#DBDBDB"/>
<path d="M324.833 90.0391H284.278V90.7723H324.833V90.0391Z" fill="white"/>
<path d="M316.494 93.9883H284.278V94.7216H316.494V93.9883Z" fill="white"/>
<path d="M318.924 82.1465H284.278V82.8798H318.924V82.1465Z" fill="white"/>
<path d="M329.515 78.2031H284.278V78.9364H329.515V78.2031Z" fill="white"/>
<path d="M319.836 97.9355H284.278V98.6688H319.836V97.9355Z" fill="white"/>
<path d="M307.113 36.2871H195.809V41.1686H307.113V36.2871Z" fill="#E2F3FC"/>
<path d="M206.928 41.1738H202.047V57.3162H206.928V41.1738Z" fill="#E2F3FC"/>
<path d="M206.928 41.1738H202.047V46.1653H206.928V41.1738Z" fill="#DBDBDB"/>
<path d="M300.876 41.1738H295.994V57.3162H300.876V41.1738Z" fill="#E2F3FC"/>
<path d="M300.876 41.1738H295.994V46.1653H300.876V41.1738Z" fill="#DBDBDB"/>
<path d="M224.422 36.2879V5.18164L216.586 5.18164V36.2879H224.422Z" fill="#C7C7C7"/>
<path d="M224.422 6.93579V3.51562L216.586 3.51563V6.93579H224.422Z" fill="#DBDBDB"/>
<path d="M224.417 12.5878V11.3203H216.581V12.5878H224.417Z" fill="#DBDBDB"/>
<path d="M225.396 32.2112V28.791H216.586V32.2112H225.396Z" fill="#DBDBDB"/>
<path d="M229.895 36.2863V0L224.422 0V36.2863H229.895Z" fill="#DBDBDB"/>
<path d="M228.779 17.3704V3.41211H225.495V17.3704H228.779Z" fill="#E2F3FC"/>
<path d="M268.826 32.4105L243.02 6.90039L239.172 10.7928L264.978 36.3029L268.826 32.4105Z" fill="#C7C7C7"/>
<path d="M262.016 27.1938L252.089 17.3809L249.781 19.7163L259.707 29.5293L262.016 27.1938Z" fill="#DBDBDB"/>
<path d="M239.186 36.2941V8.72852H229.889V36.2941H239.186Z" fill="#A6A6A6"/>
<path d="M239.186 33.3672V30.8008H229.889V33.3672H239.186Z" fill="#C7C7C7"/>
<path d="M239.186 29.1201V28.125H229.889V29.1201H239.186Z" fill="#C7C7C7"/>
<path d="M216.586 36.2959V10.3906H210.165V36.2959H216.586Z" fill="#A6A6A6"/>
<path d="M216.586 33.5474V31.1328H210.165V33.5474H216.586Z" fill="#C7C7C7"/>
<path d="M216.586 18.1431V15.7285H210.165V18.1431H216.586Z" fill="#C7C7C7"/>
<path d="M216.586 20.7344V19.7969H210.165V20.7344H216.586Z" fill="#C7C7C7"/>
<path d="M295.412 24.2203L294.716 26.0692L294.286 27.1953L293.584 29.0494L290.85 36.293H276.064L273.32 29.0494L272.618 27.1953L272.194 26.0692L271.492 24.2203L276.95 16.2643L274.121 11.0215H292.799L289.955 16.2643L295.412 24.2203Z" fill="#DBDBDB"/>
<path d="M295.413 24.2188L294.716 26.0676H272.194L271.492 24.2188H295.413Z" fill="#A6A6A6"/>
<path d="M294.286 27.1914L293.584 29.0455H273.32L272.618 27.1914H294.286Z" fill="#A6A6A6"/>
<path d="M7 177.46L48.7963 177.334L90.5873 177.287L174.175 177.203L257.762 177.287L299.553 177.334L341.349 177.46L299.553 177.591L257.762 177.638L174.175 177.722L90.5873 177.638L48.7963 177.591L7 177.46Z" fill="#263238"/>
<path d="M86.1299 177.451H150.375L137.563 102.936H89.5239L86.1299 177.451Z" fill="#DBDBDB"/>
<path d="M86.1299 177.451H91.7603L94.9239 102.936H89.5239L86.1299 177.451Z" fill="#A6A6A6"/>
<path d="M124.207 70.4357C118.241 76.3699 116.529 86.1485 116.529 86.1485C116.529 86.1485 110.809 95.99 112.407 101.338C112.829 102.854 113.613 104.245 114.691 105.392C115.77 106.538 117.11 107.406 118.598 107.921L118.032 104.967C118.032 104.967 119.949 108.765 126.354 110.294C132.76 111.823 141.235 109.854 145.645 107.623C148.258 106.314 150.489 104.351 152.118 101.924L150.468 106.219C150.468 106.219 156.686 105.999 160.378 99.384C164.071 92.7689 153.464 83.2626 152.564 81.2147C151.663 79.1668 150.521 64.2448 134.824 66.8165C134.845 66.7798 128.334 66.3503 124.207 70.4357Z" fill="#263238"/>
<path d="M116.351 107.496C114.717 106.276 113.104 104.877 112.203 103.149C111.22 101.357 110.872 99.2867 111.213 97.2723C111.648 94.8577 112.92 92.726 114.156 90.6467C115.392 88.5673 116.88 86.4566 118.121 84.2725C118.189 84.152 118.006 84.0525 117.922 84.1468C116.528 85.7847 115.227 87.5001 114.025 89.2849C112.797 90.9169 111.763 92.687 110.946 94.5592C110.182 96.2831 109.931 98.1906 110.223 100.053C110.532 101.568 111.204 102.984 112.182 104.181C113.339 105.621 114.801 106.543 116.267 107.627C116.351 107.695 116.44 107.564 116.351 107.496Z" fill="#263238"/>
<path d="M161.724 92.5432C159.839 87.0489 154.915 83.5607 151.893 78.7683C150.27 76.1756 149.007 73.3054 146.891 71.0532C146.834 70.9904 146.729 71.0899 146.781 71.1528C148.52 73.1797 149.526 75.6204 150.783 77.9617C152.122 80.2656 153.687 82.4306 155.455 84.4249C158.566 88.1541 162.29 92.5694 161.578 97.7913C161.248 100.201 159.823 102.872 157.351 103.621C157.257 103.652 157.314 103.809 157.408 103.767C158.383 103.376 159.268 102.79 160.01 102.045C160.751 101.301 161.332 100.413 161.719 99.4359C162.552 97.2142 162.554 94.7662 161.724 92.5432Z" fill="#263238"/>
<path d="M161.95 94.0225C162.12 91.9415 161.641 89.8591 160.578 88.062C159.494 86.2917 157.791 85.0137 156.089 83.8719C154.125 82.5678 152.056 81.3264 150.81 79.2576C150.757 79.1685 150.632 79.2576 150.679 79.3466C152.659 82.7616 156.44 84.3538 158.97 87.2292C161.877 90.5132 161.882 95.2952 159.881 99.0506C158.61 101.34 156.815 103.296 154.644 104.76C154.607 104.76 154.644 104.838 154.686 104.812C158.389 102.382 161.652 98.642 161.95 94.0225Z" fill="#263238"/>
<path d="M138.213 119.052C154.109 127.778 173.137 138.73 184.796 136.153C189.966 135.011 213.179 104.58 214.164 101.061C215.007 98.0384 193.988 85.8714 191.642 88.2545C187.682 92.2508 176.976 114.752 175.405 115.129C173.834 115.506 160.488 112.798 146.598 110.289C133.232 107.89 127.177 112.997 138.213 119.052Z" fill="#EB9481"/>
<path d="M211.906 104.852C213.718 102.569 221.114 91.3705 222.47 87.7932C223.827 84.2159 227.001 73.6517 224.372 72.3213C221.742 70.9909 220.58 74.0026 220.58 74.0026C220.58 74.0026 221.213 69.3254 218.443 68.2412C215.672 67.157 213.996 71.9075 213.996 71.9075C213.996 71.9075 214.295 67.0575 211.451 66.1461C208.607 65.2348 207.727 70.3362 207.727 70.3362C207.727 70.3362 208.208 65.9157 205.558 66.1461C202.374 66.4552 202.416 74.7097 200.614 78.5436C200.205 79.413 191.076 95.6078 191.076 95.6078L211.906 104.852Z" fill="#EB9481"/>
<path d="M207.79 69.9234C207.79 75.9938 206.742 78.6546 203.6 83.7141C203.537 83.8084 203.668 83.9236 203.746 83.8293C207.308 79.1574 209.099 76.0148 208.104 69.9077C208.036 69.6092 207.79 69.6354 207.79 69.9234Z" fill="#263238"/>
<path d="M213.964 71.4288C213.441 77.7139 212.32 80.6261 209.381 86.1727C209.34 86.2513 209.47 86.3298 209.518 86.2513C212.854 81.0555 214.572 77.8711 214.279 71.5073C214.294 71.2193 213.991 71.1407 213.964 71.4288Z" fill="#263238"/>
<path d="M220.402 74.282C219.443 80.3471 218.364 83.5735 214.824 88.5912C214.814 88.6025 214.807 88.6156 214.803 88.6296C214.799 88.6437 214.797 88.6584 214.799 88.673C214.8 88.6876 214.805 88.7017 214.812 88.7147C214.819 88.7276 214.828 88.739 214.839 88.7483C214.851 88.7576 214.864 88.7645 214.878 88.7688C214.892 88.773 214.907 88.7744 214.921 88.773C214.936 88.7715 214.95 88.7672 214.963 88.7603C214.976 88.7533 214.987 88.7439 214.996 88.7326C219.108 83.9663 220.485 79.9543 220.585 74.3291C220.58 73.952 220.465 73.8996 220.402 74.282Z" fill="#263238"/>
<path d="M186.577 97.4399C186.577 97.4399 186.132 89.8506 186.677 86.4723C187.222 83.0941 193.868 71.2465 196.487 72.535C199.897 74.2058 197.404 81.8004 195.696 85.3619C195.696 85.3619 203.584 89.2064 202.976 95.0463C202.369 100.886 186.577 97.4399 186.577 97.4399Z" fill="#EB9481"/>
<path d="M197.293 73.2988C199.304 77.0647 196.769 81.5952 195.366 85.1725C195.343 85.2242 195.333 85.2807 195.336 85.3371C195.34 85.3935 195.357 85.4482 195.386 85.4966C195.416 85.5449 195.456 85.5855 195.505 85.6148C195.553 85.6441 195.608 85.6613 195.664 85.6648C198.864 87.498 202.845 91.0177 203.185 94.8935C203.185 94.9172 203.195 94.9398 203.211 94.9565C203.228 94.9732 203.251 94.9826 203.274 94.9826C203.298 94.9826 203.321 94.9732 203.337 94.9565C203.354 94.9398 203.363 94.9172 203.363 94.8935C203.562 90.7034 199.933 86.9114 196.303 85.1254C197.791 81.459 200.142 76.8237 197.351 73.2779C197.314 73.2622 197.282 73.2779 197.293 73.2988Z" fill="#263238"/>
<path d="M171.624 113.886L152.491 129.924C152.491 129.924 140.811 123.848 132.184 116.866C123.558 109.885 133.111 106.491 147.923 108.978C162.735 111.466 171.624 113.886 171.624 113.886Z" fill="#4CAFE3"/>
<path d="M148.96 117.108C148.418 116.368 147.791 115.695 147.09 115.102C147.865 116.767 148.985 118.249 150.374 119.45C149.999 118.615 149.524 117.829 148.96 117.108ZM132.2 116.878L132.43 117.056C132.582 116.894 132.734 116.721 132.876 116.532C132.635 116.642 132.409 116.757 132.189 116.899L132.2 116.878ZM164.228 116.983C163.323 116.85 162.406 116.822 161.494 116.899C162.349 117.221 163.238 117.445 164.144 117.564C165.049 117.701 165.967 117.731 166.878 117.653C166.02 117.327 165.127 117.102 164.218 116.983H164.228ZM157.822 110.781C157.811 111.131 157.823 111.481 157.859 111.829C157.987 111.514 158.095 111.193 158.184 110.865L157.822 110.781Z" fill="white"/>
<path d="M148.206 126.499C152.097 122.759 156.256 119.286 160.472 115.903C161.666 114.95 162.881 114.017 164.138 113.122C164.175 113.096 164.222 113.122 164.186 113.169C162.206 114.997 160.147 116.741 158.1 118.495C156.052 120.25 153.978 122.005 151.877 123.707C150.688 124.671 149.505 125.634 148.3 126.572C148.227 126.609 148.159 126.546 148.206 126.499Z" fill="#263238"/>
<path d="M160.619 123.111L152.485 129.92C152.485 129.92 140.805 123.849 132.179 116.867C129.115 114.39 128.345 112.368 129.283 110.896L160.619 123.111Z" fill="#263238"/>
<path d="M156.681 177.386H95.7095C95.7095 177.386 108.955 126.231 121.217 111.827C121.489 111.497 121.772 111.183 122.055 110.89C122.112 110.821 122.165 110.774 122.222 110.717C123.172 109.703 124.277 108.847 125.496 108.182C125.711 108.066 125.925 107.956 126.151 107.862C130.864 105.689 135.861 107.49 139.459 110.57C140.601 111.544 153.528 128.378 154.648 134.773C155.638 140.435 151.815 146.516 151.815 146.516L156.681 177.386Z" fill="#4CAFE3"/>
<path d="M142.681 144.33C140.085 144.583 137.511 145.029 134.981 145.665C133.724 146 132.499 146.388 131.268 146.802C130.655 147.011 130.042 147.2 129.424 147.383C128.781 147.593 128.114 147.723 127.439 147.771C127.427 147.771 127.415 147.776 127.406 147.785C127.397 147.793 127.392 147.805 127.392 147.818C127.392 147.83 127.397 147.842 127.406 147.851C127.415 147.86 127.427 147.865 127.439 147.865C128.079 147.892 128.719 147.875 129.356 147.813C129.969 147.736 130.577 147.617 131.174 147.457C132.452 147.127 133.709 146.744 134.981 146.409C137.548 145.728 140.109 145.047 142.717 144.55C142.747 144.545 142.773 144.529 142.79 144.504C142.807 144.48 142.814 144.45 142.809 144.421C142.804 144.392 142.788 144.366 142.764 144.349C142.74 144.332 142.71 144.325 142.681 144.33Z" fill="#263238"/>
<path d="M149.123 146.575C146.98 146.369 144.828 146.283 142.675 146.318C141.628 146.344 140.533 146.428 139.46 146.538C138.936 146.596 138.412 146.659 137.93 146.727C137.448 146.795 136.82 146.952 136.259 147.02C136.202 147.02 136.202 147.119 136.259 147.114C136.783 147.067 137.333 147.114 137.867 147.088L139.475 147.03C140.523 146.999 141.617 146.973 142.691 146.926C144.839 146.837 146.981 146.769 149.128 146.748C149.243 146.753 149.233 146.585 149.123 146.575Z" fill="#263238"/>
<path d="M115.424 123.854C115.136 123.487 114.842 123.126 114.523 122.806L114.298 123.278C114.507 123.602 114.732 123.922 114.963 124.231C115.505 124.966 116.133 125.634 116.833 126.221C116.45 125.383 115.978 124.59 115.424 123.854ZM122.5 110.435C122.393 111.253 122.375 112.08 122.447 112.902C122.773 112.043 122.993 111.148 123.102 110.236C123.102 110.1 123.139 109.958 123.154 109.822C122.934 110.016 122.714 110.22 122.5 110.435ZM141.004 127.478C140.678 128.336 140.453 129.229 140.334 130.139C140.202 131.046 140.172 131.965 140.245 132.878C140.574 132.022 140.795 131.128 140.905 130.218C141.048 129.312 141.082 128.392 141.004 127.478ZM129.351 156.977C129.028 157.831 128.806 158.721 128.691 159.627C128.558 160.534 128.53 161.453 128.607 162.366C129.229 160.642 129.483 158.805 129.351 156.977ZM109.542 134.706C109.222 135.567 109.001 136.461 108.882 137.372C108.749 138.277 108.72 139.195 108.798 140.106C109.119 139.248 109.338 138.355 109.453 137.446C109.59 136.539 109.62 135.62 109.542 134.706ZM125.936 130.967C125.03 130.834 124.113 130.806 123.202 130.883C124.057 131.205 124.946 131.429 125.852 131.548C126.756 131.685 127.674 131.715 128.586 131.637C127.734 131.305 126.846 131.073 125.941 130.946L125.936 130.967ZM147.871 156.107C146.964 155.974 146.045 155.946 145.131 156.023C146.856 156.646 148.692 156.899 150.521 156.767C149.668 156.444 148.78 156.219 147.876 156.097L147.871 156.107ZM106.923 153.693C106.033 153.564 105.132 153.532 104.236 153.598H104.184H104.231C105.077 153.91 105.955 154.127 106.85 154.243C107.755 154.375 108.672 154.404 109.584 154.326C108.724 154.013 107.831 153.8 106.923 153.693ZM129.927 175.319C129.022 175.186 128.104 175.158 127.193 175.235C128.919 175.859 130.757 176.11 132.587 175.973C131.721 175.654 130.822 175.434 129.906 175.319H129.927ZM105.184 172.669C104.277 172.536 103.358 172.508 102.445 172.585C103.3 172.903 104.19 173.123 105.095 173.239C106.001 173.38 106.921 173.408 107.834 173.323C106.972 173.003 106.076 172.783 105.163 172.669H105.184ZM130.524 117.946C129.786 118.495 129.113 119.125 128.518 119.826C129.353 119.446 130.144 118.973 130.875 118.417C131.611 117.87 132.279 117.237 132.865 116.532C132.035 116.915 131.25 117.39 130.524 117.946ZM137.05 145.983C136.314 146.524 135.646 147.152 135.06 147.853C135.893 147.475 136.679 147 137.401 146.439C138.138 145.899 138.806 145.271 139.391 144.569C138.558 144.952 137.773 145.43 137.05 145.993V145.983ZM114.167 163.12C113.426 163.66 112.756 164.29 112.171 164.995C113.001 164.612 113.786 164.137 114.512 163.581C115.249 163.035 115.921 162.408 116.518 161.711C115.677 162.083 114.887 162.56 114.167 163.131V163.12ZM152.171 138.467C151.629 137.727 151.001 137.054 150.301 136.461C151.076 138.126 152.195 139.608 153.585 140.808C153.209 139.977 152.734 139.195 152.171 138.477V138.467ZM144.372 170.191C143.826 169.455 143.198 168.782 142.502 168.185C142.869 169.026 143.343 169.816 143.911 170.537C144.452 171.274 145.08 171.944 145.781 172.532C145.399 171.702 144.926 170.917 144.372 170.191ZM121.41 145.239C120.867 144.5 120.239 143.827 119.54 143.233C119.912 144.073 120.387 144.863 120.955 145.585C121.494 146.324 122.122 146.994 122.824 147.58C122.443 146.749 121.969 145.964 121.41 145.239Z" fill="white"/>
<path d="M119.97 112.226C108.243 121.68 78.2104 159.145 84.9827 167.802C91.7549 176.46 136.767 172.516 149.835 168.42C153.721 167.205 143.12 142.541 138.92 141.405C135.421 140.457 116.021 146.192 115.644 145.071C115.219 143.804 120.436 136.79 127.067 121.596C134.714 104.071 125.15 108.052 119.97 112.226Z" fill="#EB9481"/>
<path d="M160.106 139.347C169.068 140.394 171.21 142.023 179.239 138.88C184.508 136.822 188.086 139.299 184.231 143.746C177.946 151.021 166.088 152.126 161.871 151.309L160.106 139.347Z" fill="#EB9481"/>
<path d="M134.971 141.719C134.971 141.719 146.09 138.843 155.748 139C162.432 139.11 176.94 140.97 186.787 158.311C189.123 162.423 189.536 169.944 183.277 164.597C178.836 160.81 177.165 157.065 174.18 155.331C174.18 155.331 173.567 164.953 169.356 167.137C165.673 169.041 161.859 170.681 157.943 172.045C157.528 171.385 157.157 170.699 156.833 169.991C156.833 169.991 152.705 171.657 146.357 169.347L134.971 141.719Z" fill="#EB9481"/>
<path d="M162.112 140.127C164.731 142.473 170.136 147.533 173.111 153.221C176.442 159.538 181.156 172.6 176.468 175.015C173.033 176.785 170.791 171.951 170.791 171.951C170.791 171.951 171.603 177.765 168.172 178.681C165.03 179.519 163.516 175.675 163.516 175.675C163.516 175.675 163.401 179.283 160.216 179.509C156.382 179.771 157.252 172.176 153.135 169.081C152.208 168.384 162.112 140.127 162.112 140.127Z" fill="#EB9481"/>
<path d="M165.873 155.658C167.968 158.277 171.168 165.4 170.896 171.858C170.896 172.005 170.775 172.078 170.754 171.942C169.772 166.35 168.113 160.897 165.815 155.705C165.809 155.698 165.806 155.688 165.807 155.678C165.808 155.668 165.813 155.659 165.82 155.653C165.828 155.647 165.838 155.644 165.848 155.645C165.857 155.646 165.866 155.651 165.873 155.658Z" fill="#263238"/>
<path d="M159.593 159.175C161.164 161.611 164.144 169.127 163.642 175.647C163.642 175.794 163.511 175.857 163.495 175.721C162.803 170.082 161.473 164.54 159.53 159.201C159.53 159.194 159.532 159.187 159.536 159.181C159.54 159.174 159.546 159.17 159.553 159.167C159.559 159.164 159.567 159.163 159.574 159.165C159.581 159.166 159.588 159.17 159.593 159.175Z" fill="#263238"/>
<path d="M174.195 155.291C176.814 156.862 178.275 158.711 180.224 160.979C181.176 162.115 182.19 163.197 183.262 164.221C184.246 165.138 185.697 166.515 187.174 165.86C187.996 165.494 188.222 164.509 188.29 163.692C188.354 162.773 188.22 161.852 187.897 160.989C187.897 160.947 187.96 160.916 187.975 160.963C188.297 161.724 188.509 162.526 188.604 163.346C188.728 164.117 188.617 164.908 188.285 165.614C187.467 167.06 185.582 166.787 184.398 166.028C183.698 165.543 183.047 164.99 182.455 164.378C181.874 163.807 181.318 163.21 180.779 162.603C179.674 161.346 178.642 160.031 177.553 158.769C176.485 157.565 175.341 156.431 174.127 155.375C174.08 155.333 174.143 155.259 174.195 155.291Z" fill="#263238"/>
<path d="M177.526 166.741C177.217 164.945 174.997 157.225 174.117 155.344C174.111 155.335 174.11 155.323 174.113 155.312C174.116 155.302 174.123 155.292 174.132 155.287C174.142 155.281 174.154 155.28 174.164 155.283C174.175 155.286 174.184 155.293 174.19 155.303C175.85 157.958 177.945 164.406 178.312 166.391C178.679 168.376 179.03 170.832 178.521 172.786C177.757 175.729 175.662 175.782 174.902 175.74C174.005 175.674 173.157 175.305 172.498 174.692C171.748 173.909 171.163 172.983 170.78 171.969C170.78 171.922 170.827 171.88 170.854 171.927C171.576 173.351 172.975 174.938 174.63 175.143C174.996 175.199 175.371 175.182 175.73 175.092C176.09 175.002 176.428 174.841 176.725 174.619C177.347 174.024 177.732 173.224 177.809 172.367C178.038 170.489 177.942 168.587 177.526 166.741Z" fill="#263238"/>
<path d="M163.642 175.649C163.961 176.105 164.49 177.545 165.763 178.153C166.206 178.405 166.703 178.546 167.212 178.563C167.721 178.58 168.227 178.474 168.686 178.252C169.56 177.709 170.19 176.847 170.44 175.848C170.652 174.57 170.766 173.278 170.781 171.983C170.781 171.92 170.859 171.915 170.864 171.983C171.028 173.388 170.978 174.809 170.718 176.199C170.595 176.744 170.364 177.258 170.039 177.712C169.715 178.167 169.302 178.551 168.827 178.844C168.323 179.119 167.754 179.249 167.18 179.221C166.607 179.192 166.053 179.006 165.58 178.682C165.103 178.352 163.72 176.859 163.485 175.686C163.49 175.649 163.626 175.628 163.642 175.649Z" fill="#263238"/>
<path d="M153.538 168.621C153.916 169.041 154.245 169.503 154.517 169.999C154.826 170.522 155.12 171.02 155.397 171.544C155.949 172.602 156.389 173.715 156.712 174.864C157.047 176.017 157.309 177.274 158.1 178.222C158.47 178.69 158.978 179.031 159.553 179.194C160.127 179.358 160.738 179.336 161.3 179.133C161.894 178.897 162.389 178.462 162.698 177.902C163.057 177.299 163.297 176.632 163.405 175.938C163.403 175.932 163.402 175.925 163.403 175.918C163.404 175.912 163.406 175.905 163.41 175.9C163.414 175.894 163.419 175.89 163.425 175.886C163.431 175.883 163.438 175.882 163.445 175.882C163.451 175.882 163.458 175.883 163.464 175.886C163.47 175.89 163.475 175.894 163.479 175.9C163.483 175.905 163.485 175.912 163.486 175.918C163.487 175.925 163.486 175.932 163.484 175.938C163.439 176.567 163.33 177.19 163.159 177.797C162.961 178.343 162.624 178.827 162.18 179.201C161.715 179.556 161.161 179.777 160.579 179.838C159.996 179.899 159.409 179.798 158.88 179.547C157.707 179.023 157.047 177.839 156.638 176.666C156.183 175.362 155.879 174.016 155.36 172.727C155.093 172.047 154.837 171.366 154.512 170.711C154.187 170.056 153.737 169.375 153.464 168.674C153.433 168.632 153.496 168.574 153.538 168.621Z" fill="#263238"/>
<path d="M149.447 170.243C151.103 170.482 152.778 170.565 154.449 170.489C154.501 170.489 154.533 170.641 154.481 170.652C153.652 170.807 152.809 170.872 151.966 170.845C151.112 170.809 150.268 170.645 149.463 170.358C149.395 170.322 149.395 170.233 149.447 170.243Z" fill="#263238"/>
<path d="M98.0195 150.683C100.819 149.332 103.713 148.184 106.677 147.247C109.611 146.33 112.608 145.63 115.644 145.152C117.378 144.864 119.117 144.66 120.882 144.445C120.934 144.445 120.945 144.519 120.882 144.524C117.831 145.018 114.811 145.686 111.836 146.525C108.875 147.331 105.932 148.192 103.006 149.107C101.351 149.631 99.7165 150.217 98.0771 150.788C98.0195 150.83 97.9671 150.72 98.0195 150.683Z" fill="#263238"/>
<path d="M95.4684 134.976L120.289 137.673C120.289 137.673 126.622 126.15 129.916 115.534C133.211 104.917 123.856 106.981 112.925 117.273C101.994 127.565 95.4684 134.976 95.4684 134.976Z" fill="#4CAFE3"/>
<path d="M95.4684 134.976L120.289 137.673C120.289 137.673 126.622 126.15 129.916 115.534C133.211 104.917 123.856 106.981 112.925 117.273C101.994 127.565 95.4684 134.976 95.4684 134.976Z" fill="#4CAFE3"/>
<path d="M122.542 110.09C122.545 110.116 122.545 110.142 122.542 110.168C122.409 111.075 122.381 111.994 122.458 112.907C122.784 112.049 123.003 111.153 123.113 110.242C123.113 110.084 123.155 109.933 123.171 109.775L122.542 110.09ZM109.542 134.706C109.315 135.278 109.14 135.869 109.018 136.472L109.542 136.524C109.6 135.919 109.6 135.311 109.542 134.706ZM100.932 129.118L100.691 129.369C100.963 129.369 101.214 129.369 101.513 129.322C101.314 129.244 101.125 129.176 100.932 129.118ZM123.207 130.862C123.354 130.92 123.506 130.977 123.658 131.024C123.685 130.956 123.716 130.89 123.752 130.825C123.574 130.831 123.391 130.841 123.207 130.862ZM115.424 123.854C114.878 123.118 114.25 122.445 113.554 121.848C113.923 122.69 114.396 123.482 114.963 124.205C115.506 124.94 116.133 125.608 116.833 126.195C116.449 125.366 115.977 124.582 115.424 123.854Z" fill="white"/>
<path d="M119.284 137.441C119.421 137.441 120.332 137.441 120.332 137.441C120.442 137.122 122.579 132.204 123.103 131.156C124.182 129.003 125.386 126.908 126.559 124.808C126.596 124.74 126.701 124.808 126.664 124.855C125.837 126.688 125.041 128.522 124.197 130.365C124.407 130.119 124.616 129.873 124.821 129.621C125.234 129.098 125.611 128.574 126.004 128.019C126.041 127.972 126.114 128.019 126.088 128.076C125.713 128.834 125.239 129.538 124.679 130.171C124.441 130.449 124.184 130.71 123.909 130.952C123.841 131.104 123.773 131.261 123.7 131.407C123.176 132.455 120.594 137.735 120.5 137.729L119.305 137.583C119.216 137.604 119.216 137.436 119.284 137.441Z" fill="#263238"/>
<path d="M100.146 130.758C105.53 131.119 110.899 131.858 116.236 132.696C117.751 132.937 119.256 133.211 120.751 133.518C120.793 133.518 120.793 133.592 120.751 133.586C118.069 133.351 115.393 133.005 112.716 132.675C110.04 132.345 107.342 131.989 104.666 131.565C103.158 131.334 101.644 131.104 100.141 130.847C100.078 130.852 100.078 130.753 100.146 130.758Z" fill="#263238"/>
<path d="M128.675 108.571C128.769 109.66 132.823 117.234 137.679 117.7C139.25 117.847 140.46 109.252 140.46 109.252L140.69 108.639L143.953 100.039L134.473 91.8421L133.096 90.7422C133.096 90.7422 132.357 93.1515 131.472 96.1631C131.43 96.3045 131.383 96.446 131.341 96.5926C131.299 96.7393 131.236 96.9226 131.189 97.0797C131.053 97.5302 130.912 97.9858 130.786 98.4467C130.686 98.7977 130.587 99.1381 130.493 99.4943C130.398 99.8504 130.304 100.228 130.199 100.594C129.51 103.215 129.001 105.881 128.675 108.571Z" fill="#EB9481"/>
<path d="M131.472 96.1631C132.012 98.7868 133.116 101.262 134.708 103.416C136.299 105.57 138.341 107.353 140.69 108.639L143.953 100.039L134.473 91.8421L133.095 90.7422C133.095 90.7422 132.357 93.1515 131.472 96.1631Z" fill="#263238"/>
<path d="M146.823 86.8283C147.656 90.4947 150.956 92.9092 154.193 92.1812C157.43 91.4531 159.373 87.8654 158.54 84.1781C157.707 80.4908 154.407 78.092 151.171 78.8252C147.934 79.5585 145.991 83.1358 146.823 86.8283Z" fill="#455A64"/>
<path d="M144.974 87.4892C145.906 91.5902 149.573 94.2562 153.176 93.4444C156.78 92.6325 158.937 88.6467 158.01 84.5404C157.083 80.4341 153.412 77.7734 149.814 78.5852C146.215 79.397 144.047 83.3776 144.974 87.4892Z" fill="#C7C7C7"/>
<path d="M155.565 82.2419C159.965 97.7714 151.161 102.145 147.808 103.109C144.765 103.968 134.301 106.503 128.319 91.5072C122.338 76.5119 128.167 69.5563 135.018 67.2256C141.869 64.8948 151.166 66.7071 155.565 82.2419Z" fill="#EB9481"/>
<path d="M150.16 80.288C149.791 80.3246 149.42 80.3403 149.05 80.3351C148.66 80.4095 148.256 80.3524 147.903 80.1727C147.802 80.0949 147.73 79.9858 147.697 79.8626C147.665 79.7394 147.675 79.6091 147.724 79.4918C147.858 79.276 148.047 79.1 148.272 78.9821C148.497 78.8642 148.749 78.8087 149.002 78.8214C149.518 78.7641 150.037 78.9003 150.459 79.2038C150.549 79.2798 150.617 79.3804 150.652 79.4935C150.687 79.6067 150.689 79.7276 150.658 79.8418C150.626 79.9561 150.563 80.0589 150.474 80.138C150.386 80.2171 150.277 80.2692 150.16 80.288Z" fill="#263238"/>
<path d="M139.92 83.9009C140.276 83.7906 140.626 83.6612 140.968 83.5133C141.356 83.4276 141.705 83.218 141.963 82.9162C142.024 82.8046 142.047 82.6761 142.028 82.5502C142.009 82.4244 141.95 82.3082 141.858 82.2196C141.651 82.0734 141.408 81.9851 141.154 81.964C140.901 81.9428 140.647 81.9894 140.418 82.0991C139.921 82.2486 139.498 82.5771 139.229 83.0209C139.174 83.1257 139.15 83.2441 139.161 83.3619C139.172 83.4798 139.216 83.592 139.289 83.6851C139.363 83.7782 139.461 83.848 139.573 83.8863C139.685 83.9246 139.806 83.9297 139.92 83.9009Z" fill="#263238"/>
<path d="M143.063 86.6418C143.063 86.5999 142.995 86.7152 143.01 86.7571C143.346 87.8046 143.534 89.0616 142.696 89.6849C142.67 89.6849 142.696 89.753 142.722 89.7425C143.833 89.2449 143.539 87.5689 143.063 86.6418Z" fill="#263238"/>
<path d="M141.795 85.8035C140.056 86.1597 140.894 89.606 142.507 89.276C144.121 88.9461 143.251 85.5049 141.795 85.8035Z" fill="#263238"/>
<path d="M141.162 86.1482C140.91 86.4206 140.696 86.8343 140.345 86.96C139.994 87.0858 139.528 86.8186 139.171 86.5358C139.135 86.5096 139.109 86.5358 139.119 86.5934C139.271 87.2534 139.69 87.8714 140.423 87.7981C141.156 87.7247 141.413 87.0334 141.413 86.3263C141.418 86.1954 141.266 86.0435 141.162 86.1482Z" fill="#263238"/>
<path d="M149.186 84.7508C149.186 84.7089 149.285 84.7822 149.291 84.8241C149.511 85.9031 149.94 87.1025 150.993 87.2282C151.024 87.2282 151.035 87.2858 150.993 87.291C149.778 87.401 149.222 85.8036 149.186 84.7508Z" fill="#263238"/>
<path d="M149.872 83.4081C151.558 82.8844 152.491 86.2888 150.919 86.7864C149.348 87.284 148.463 83.8533 149.872 83.4081Z" fill="#263238"/>
<path d="M150.657 83.435C150.977 83.5398 151.333 83.7964 151.663 83.7284C151.993 83.6603 152.218 83.2046 152.359 82.7803C152.359 82.7384 152.412 82.7803 152.422 82.7803C152.621 83.4298 152.595 84.1683 151.998 84.4669C151.401 84.7654 150.882 84.294 150.547 83.6864C150.484 83.6026 150.526 83.3774 150.657 83.435Z" fill="#263238"/>
<path d="M145.483 95.2528C145.787 95.4571 146.112 95.7766 146.531 95.7085C146.931 95.6216 147.309 95.4522 147.641 95.2109C147.647 95.2033 147.656 95.1984 147.666 95.1975C147.676 95.1965 147.686 95.1994 147.693 95.2057C147.701 95.2119 147.706 95.221 147.707 95.2308C147.708 95.2406 147.705 95.2504 147.699 95.2581C147.585 95.5002 147.408 95.7073 147.187 95.8575C146.966 96.0078 146.708 96.0956 146.441 96.1118C146.208 96.1001 145.983 96.0184 145.796 95.8774C145.609 95.7364 145.469 95.5425 145.394 95.3209C145.357 95.2633 145.436 95.2266 145.483 95.2528Z" fill="#263238"/>
<path d="M148.997 89.9316C148.997 89.9316 149.62 91.4662 149.814 92.2152C149.814 92.2886 147.237 93.5456 145.571 92.0057C145.554 91.9939 145.542 91.9757 145.538 91.9551C145.534 91.9344 145.539 91.9131 145.55 91.8957C145.562 91.8784 145.58 91.8664 145.601 91.8625C145.622 91.8586 145.643 91.863 145.66 91.8748C146.784 92.2839 148.009 92.3188 149.154 91.9743C149.154 91.7543 147.991 89.3817 148.106 89.3555C148.702 89.2576 149.308 89.24 149.908 89.3031C148.693 86.0715 146.975 83.0599 145.818 79.8178C145.807 79.7938 145.806 79.7668 145.815 79.7422C145.824 79.7176 145.841 79.697 145.864 79.6846C145.887 79.6721 145.914 79.6687 145.939 79.6749C145.964 79.6811 145.986 79.6966 146.001 79.7183C148.028 82.7508 149.505 86.4434 150.84 89.7483C151.019 90.1516 149.348 89.984 148.997 89.9316Z" fill="#263238"/>
<path d="M149.149 92.3327C148.871 93.0279 148.421 93.6407 147.84 94.1135C147.514 94.3581 147.121 94.497 146.714 94.5116C145.818 94.5116 145.583 93.7731 145.551 93.0765C145.539 92.7076 145.568 92.3386 145.64 91.9766C146.742 92.4677 147.972 92.5925 149.149 92.3327Z" fill="#263238"/>
<path d="M147.84 94.1144C147.514 94.3589 147.121 94.4978 146.714 94.5124C145.818 94.5124 145.583 93.7739 145.551 93.0773C146.468 92.9149 147.515 93.2711 147.84 94.1144Z" fill="#FF99BA"/>
<path d="M129.068 90.99C132.075 91.1838 132.42 84.3068 132.42 84.3068C132.42 84.3068 144.991 81.379 145.441 70.9666C145.441 70.9666 148.023 77.4298 154.869 80.0067C154.869 80.0067 153.732 68.6934 144.608 67.0384C144.608 67.0384 133.201 63.6548 127.466 72.894C121.73 82.1332 127.052 90.8591 129.068 90.99Z" fill="#263238"/>
<path d="M145.441 70.1953C145.689 71.7839 145.595 73.4073 145.164 74.9563C144.757 76.5305 144.025 78.0023 143.016 79.2774C142.769 79.5979 142.501 79.9023 142.215 80.1887L141.796 80.6339C141.649 80.7701 141.492 80.8958 141.335 81.0267C141.021 81.2781 140.717 81.5505 140.392 81.7862C140.067 82.0219 139.711 82.2157 139.344 82.4252C139.172 82.5247 139.004 82.6347 138.821 82.7289L138.297 82.9804L137.202 83.4779C136.448 83.7398 135.683 83.9598 134.924 84.1693C135.631 83.8079 136.364 83.5198 137.061 83.1584L138.082 82.5823L138.606 82.2942C138.768 82.1895 138.92 82.069 139.077 81.9538C139.392 81.7233 139.706 81.4981 140.025 81.2781C140.345 81.0581 140.602 80.7544 140.89 80.5187L141.324 80.1363L141.712 79.7068C141.978 79.4319 142.228 79.1416 142.461 78.8374C143.413 77.623 144.151 76.2558 144.645 74.7939C144.898 74.06 145.09 73.3068 145.221 72.5418C145.36 71.7672 145.434 70.9823 145.441 70.1953Z" fill="#263238"/>
<path d="M131.31 90.8274C131.31 90.8274 126.899 86.5378 124.893 88.2086C122.887 89.8794 126.863 96.5521 129.686 97.0235C130.044 97.1095 130.415 97.1223 130.778 97.0611C131.141 96.9999 131.487 96.8659 131.797 96.6673C132.107 96.4686 132.373 96.2094 132.58 95.9052C132.787 95.601 132.93 95.2581 133.001 94.897L131.31 90.8274Z" fill="#EB9481"/>
<path d="M126.082 90.0866C126.072 90.0866 126.063 90.0905 126.056 90.0974C126.049 90.1043 126.045 90.1136 126.045 90.1233C126.045 90.133 126.049 90.1424 126.056 90.1492C126.063 90.1561 126.072 90.16 126.082 90.16C128.078 90.5528 129.377 92.0822 130.403 93.7268C129.722 93.1507 128.9 92.9202 128.109 93.7268C128.067 93.7739 128.109 93.8368 128.177 93.8158C128.483 93.651 128.832 93.5847 129.177 93.626C129.522 93.6672 129.846 93.814 130.105 94.0463C130.535 94.4363 130.921 94.8718 131.257 95.3452C131.372 95.4971 131.655 95.3452 131.555 95.1724L131.529 95.1305C131.121 92.805 128.654 89.8405 126.082 90.0866Z" fill="#263238"/>
<path d="M128.293 88.6422C128.293 88.6422 125.433 81.0215 126.423 76.0457C127.523 70.5043 134.39 64.1825 142.241 66.5499C142.241 66.5499 132.902 67.9483 129.603 75.4539C128.084 78.9107 130.954 88.0608 130.954 88.0608L128.293 88.6422Z" fill="#C7C7C7"/>
<path d="M132.703 99.5018C136.169 98.4222 137.981 94.3432 136.75 90.3911C135.519 86.4389 131.711 84.1103 128.245 85.1898C124.779 86.2694 122.967 90.3484 124.198 94.3005C125.429 98.2526 129.237 100.581 132.703 99.5018Z" fill="#C7C7C7"/>
<path d="M134.861 90.7111C135.966 94.2622 134.337 97.9285 131.195 98.8975C128.052 99.8664 124.658 97.7766 123.548 94.2255C122.438 90.6744 124.072 87.0081 127.214 86.0339C130.357 85.0597 133.756 87.1809 134.861 90.7111Z" fill="#455A64"/>
<path d="M140.654 108.694L137.773 115.964L128.712 106.824L126.172 109.778C126.172 109.778 135.075 124.328 135.107 123.668L138.071 117.383L142.408 121.715L142.015 110.81L140.654 108.694Z" fill="#E2F3FC"/>
<path d="M142.539 116.316C142.408 114.519 142.335 112.696 142.125 110.905C142.125 110.842 142.015 110.816 141.999 110.905C141.648 112.644 142.167 119.532 142.167 121.181C141.989 120.993 138.15 117.368 138.113 117.426C137.469 118.421 135.295 122.988 135.149 123.402C133.74 121.092 127.779 111.984 126.119 109.784C126.109 109.774 126.096 109.768 126.082 109.766C126.068 109.764 126.054 109.767 126.042 109.775C126.03 109.782 126.02 109.793 126.015 109.806C126.01 109.819 126.01 109.834 126.014 109.847C127.255 112.288 134.955 124.308 135.065 124.277C136.21 122.122 137.245 119.911 138.165 117.651C138.815 118.442 142.691 122.533 142.701 122.266C142.75 120.281 142.696 118.295 142.539 116.316Z" fill="#263238"/>
<path d="M111.056 60.2581C110.742 63.271 109.596 66.1373 107.748 68.5371C105.899 70.9369 103.42 72.7759 100.587 73.8487C97.7541 74.9216 94.6788 75.1862 91.7043 74.6129C88.7298 74.0397 85.973 72.6512 83.7417 70.6024L75.5605 71.8018L79.6564 64.7311C78.7294 62.4311 78.3377 59.9505 78.5112 57.4768C78.6846 55.0032 79.4185 52.6014 80.6574 50.4533C81.8962 48.3052 83.6076 46.4672 85.6618 45.0783C87.716 43.6893 90.0593 42.786 92.5143 42.4365C94.9693 42.0871 97.4716 42.3008 99.8318 43.0614C102.192 43.822 104.348 45.1096 106.137 46.8267C107.926 48.5438 109.301 50.6454 110.158 52.9724C111.015 55.2994 111.331 57.7909 111.082 60.2581H111.056Z" fill="white"/>
<path d="M111.056 60.2588C110.739 63.2733 109.597 66.1422 107.756 68.5499C106.852 69.7526 105.771 70.8121 104.551 71.6925C103.346 72.6058 102.018 73.3446 100.607 73.8871C99.1944 74.4396 97.7118 74.7921 96.2019 74.9346C95.448 75.0035 94.69 75.0176 93.934 74.9765C93.1747 74.9585 92.4181 74.8797 91.6714 74.7408C88.6545 74.1978 85.8487 72.8248 83.5688 70.7759L83.7625 70.8336L75.5919 72.0906L75 72.1796L75.2985 71.6559L79.3787 64.5694V64.8522C78.4193 62.5084 78.0115 59.9754 78.1868 57.4489C78.3621 54.9224 79.1157 52.47 80.3895 50.2811C81.6614 48.1004 83.4109 46.2363 85.5067 44.8287C87.6007 43.4421 89.9815 42.5474 92.4705 42.2117C94.9595 41.8761 97.4922 42.1083 99.8787 42.8908C102.236 43.6963 104.384 45.0188 106.164 46.7614C107.947 48.495 109.313 50.6103 110.16 52.9481C111.008 55.286 111.314 57.7856 111.056 60.2588ZM111.056 60.2588C111.317 57.7966 111.01 55.3072 110.157 52.9826C109.304 50.658 107.929 48.5602 106.138 46.8509C104.347 45.1415 102.187 43.8663 99.8249 43.1234C97.4629 42.3805 94.9619 42.1898 92.5146 42.5661C90.09 42.9303 87.7808 43.844 85.7633 45.2373C83.7653 46.6388 82.0961 48.4582 80.8714 50.5692C79.6662 52.6878 78.9571 55.0521 78.7974 57.4843C78.6378 59.9165 79.0317 62.3533 79.9496 64.6113L80.0072 64.7579L79.9286 64.8889L75.8118 71.9492L75.5185 71.5144L83.7049 70.3674H83.8202L83.8987 70.446C86.0924 72.4935 88.8128 73.89 91.7552 74.4789C92.4856 74.6256 93.2263 74.7149 93.9707 74.7461C94.7152 74.7984 95.4626 74.7984 96.2071 74.7461C97.7004 74.6296 99.1704 74.307 100.575 73.7876C101.988 73.2786 103.318 72.5619 104.519 71.6611C105.748 70.7865 106.832 69.7263 107.735 68.5185C109.582 66.1239 110.731 63.2654 111.056 60.2588Z" fill="#263238"/>
<path d="M101.932 61.0339C103.026 61.0339 103.912 60.1475 103.912 59.054C103.912 57.9606 103.026 57.0742 101.932 57.0742C100.839 57.0742 99.9526 57.9606 99.9526 59.054C99.9526 60.1475 100.839 61.0339 101.932 61.0339Z" fill="#263238"/>
<path d="M94.8346 61.0339C95.928 61.0339 96.8144 60.1475 96.8144 59.054C96.8144 57.9606 95.928 57.0742 94.8346 57.0742C93.7411 57.0742 92.8547 57.9606 92.8547 59.054C92.8547 60.1475 93.7411 61.0339 94.8346 61.0339Z" fill="#263238"/>
<path d="M87.7429 61.0339C88.8363 61.0339 89.7227 60.1475 89.7227 59.054C89.7227 57.9606 88.8363 57.0742 87.7429 57.0742C86.6495 57.0742 85.7631 57.9606 85.7631 59.054C85.7631 60.1475 86.6495 61.0339 87.7429 61.0339Z" fill="#263238"/>
<path d="M273.695 60.2576C273.381 63.2705 272.235 66.1368 270.387 68.5366C268.538 70.9364 266.059 72.7754 263.226 73.8482C260.393 74.9211 257.318 75.1857 254.344 74.6124C251.369 74.0392 248.612 72.6507 246.381 70.6019L238.2 71.8013L242.29 64.7305C241.359 62.4294 240.965 59.9466 241.136 57.4702C241.307 54.9938 242.04 52.5889 243.279 50.4378C244.517 48.2867 246.23 46.4458 248.285 45.0548C250.341 43.6638 252.687 42.759 255.145 42.4093C257.602 42.0595 260.107 42.2738 262.469 43.0359C264.832 43.7981 266.99 45.0881 268.779 46.8082C270.569 48.5282 271.944 50.6332 272.799 52.9634C273.654 55.2937 273.968 57.7881 273.716 60.2576H273.695Z" fill="white"/>
<path d="M273.695 60.2582C273.376 63.2721 272.235 66.1404 270.395 68.5493C269.935 69.1455 269.44 69.7139 268.913 70.2516C268.368 70.7738 267.79 71.2618 267.185 71.7129C265.981 72.6282 264.653 73.3672 263.241 73.9074C261.83 74.4601 260.349 74.8127 258.841 74.955C258.085 75.0239 257.326 75.0379 256.568 74.9969C255.809 74.9785 255.052 74.8997 254.305 74.7612C251.291 74.2076 248.491 72.8256 246.218 70.7701L246.412 70.8277L238.242 72.0847L237.65 72.1738L237.948 71.65L242.018 64.5635V64.8463C241.059 62.5026 240.651 59.9701 240.825 57.4438C241 54.9175 241.752 52.465 243.023 50.2753C244.297 48.0943 246.049 46.2302 248.146 44.8229C250.24 43.4362 252.621 42.5415 255.11 42.2059C257.599 41.8703 260.131 42.1024 262.518 42.885C264.876 43.6898 267.023 45.0124 268.803 46.7556C270.587 48.489 271.955 50.6051 272.802 52.9441C273.65 55.2831 273.955 57.784 273.695 60.2582ZM273.695 60.2582C273.956 57.796 273.649 55.3066 272.796 52.982C271.944 50.6574 270.569 48.5596 268.777 46.8502C266.986 45.1409 264.826 43.8656 262.464 43.1228C260.102 42.3799 257.601 42.1892 255.154 42.5655C252.729 42.9297 250.42 43.8434 248.403 45.2367C246.405 46.6382 244.735 48.4576 243.511 50.5686C242.297 52.6863 241.581 55.0522 241.416 57.4875C241.262 59.9177 241.654 62.3516 242.563 64.6106L242.625 64.7573L242.547 64.8882L238.43 71.9486L238.137 71.5138L246.323 70.3668H246.438L246.517 70.4454C248.703 72.4886 251.414 73.8848 254.347 74.4783C255.078 74.6249 255.818 74.7143 256.563 74.7454C257.307 74.7978 258.055 74.7978 258.799 74.7454C260.292 74.629 261.763 74.3064 263.167 73.787C264.58 73.277 265.909 72.5604 267.111 71.6605C268.337 70.7841 269.42 69.7241 270.322 68.5179C272.189 66.1301 273.357 63.2707 273.695 60.2582Z" fill="#263238"/>
<path d="M264.545 61.0339C265.638 61.0339 266.525 60.1475 266.525 59.054C266.525 57.9606 265.638 57.0742 264.545 57.0742C263.451 57.0742 262.565 57.9606 262.565 59.054C262.565 60.1475 263.451 61.0339 264.545 61.0339Z" fill="#263238"/>
<path d="M257.453 61.0339C258.546 61.0339 259.433 60.1475 259.433 59.054C259.433 57.9606 258.546 57.0742 257.453 57.0742C256.36 57.0742 255.473 57.9606 255.473 59.054C255.473 60.1475 256.36 61.0339 257.453 61.0339Z" fill="#263238"/>
<path d="M252.341 59.0547C252.342 59.4465 252.227 59.8297 252.01 60.156C251.793 60.4823 251.484 60.7369 251.123 60.8875C250.761 61.0382 250.363 61.0781 249.978 61.0023C249.594 60.9265 249.241 60.7384 248.963 60.4617C248.686 60.185 248.497 59.8323 248.42 59.4481C248.343 59.0639 248.382 58.6655 248.532 58.3035C248.681 57.9414 248.935 57.6319 249.261 57.4141C249.587 57.1963 249.97 57.0801 250.361 57.0801C250.886 57.0801 251.388 57.2879 251.759 57.6581C252.131 58.0283 252.34 58.5305 252.341 59.0547Z" fill="#263238"/>
<path d="M187.362 176.178H183.858V178.467H187.362V176.178Z" fill="#21313F"/>
<path d="M191.908 176.025H188.404V178.314H191.908V176.025Z" fill="#21313F"/>
<path d="M196.454 175.871H192.95V178.16H196.454V175.871Z" fill="#21313F"/>
<path d="M200.995 175.721H197.491V178.01H200.995V175.721Z" fill="#21313F"/>
<path d="M205.542 175.568H202.038V177.857H205.542V175.568Z" fill="#21313F"/>
<path d="M210.088 175.422H206.584V177.711H210.088V175.422Z" fill="#21313F"/>
<path d="M214.629 175.27H211.125V177.558H214.629V175.27Z" fill="#21313F"/>
<path d="M219.175 175.117H215.671V177.406H219.175V175.117Z" fill="#21313F"/>
<path d="M223.716 174.967H220.212V177.256H223.716V174.967Z" fill="#21313F"/>
<path d="M224.576 179.78H182.999V176.993L224.576 175.836V179.78Z" fill="#374754"/>
<path d="M265.156 168.801H196.522L207.438 117.703H276.071L265.156 168.801Z" fill="#21313F"/>
<path d="M267.696 168.801H199.057L209.973 117.703H278.612L267.696 168.801Z" fill="#374754"/>
<path d="M244.766 140.295C244.556 141.458 243.953 142.514 243.058 143.286C242.163 144.058 241.03 144.5 239.848 144.537C239.315 144.554 238.785 144.449 238.298 144.231C237.811 144.014 237.38 143.689 237.036 143.28C236.693 142.872 236.447 142.391 236.316 141.874C236.185 141.357 236.173 140.817 236.281 140.295C236.49 139.131 237.091 138.074 237.986 137.301C238.88 136.527 240.013 136.085 241.194 136.047C241.728 136.029 242.26 136.133 242.748 136.351C243.236 136.568 243.668 136.894 244.012 137.303C244.356 137.712 244.603 138.194 244.733 138.712C244.864 139.23 244.875 139.771 244.766 140.295Z" fill="#1B252B"/>
<path d="M248.285 182.147H214.529V179.523L248.285 178.434V182.147Z" fill="#21313F"/>
<path d="M257.462 182.142H239.335L228.42 153.508H246.547L257.462 182.142Z" fill="#21313F"/>
<path d="M260.442 182.142H242.32L231.405 153.508H249.527L260.442 182.142Z" fill="#1B252B"/>
<path d="M181.705 182.844H146.917C143.947 182.844 148.242 174.386 159.084 171.143C169.926 167.901 185.136 179.67 181.705 182.844Z" fill="#374754"/>
<path d="M168.087 182.843C168.111 181.879 168.269 180.924 168.559 180.004C168.838 179.074 169.23 178.183 169.727 177.349C170.224 176.509 170.848 175.752 171.576 175.102C172.297 174.457 173.127 173.944 174.027 173.588C173.655 173.892 173.231 174.112 172.89 174.442L172.367 174.897L171.874 175.421C171.231 176.095 170.667 176.84 170.193 177.642C169.711 178.444 169.298 179.285 168.957 180.156C168.607 181.031 168.317 181.929 168.087 182.843Z" fill="#1B252B"/>
<path d="M172.184 174.793C174.254 175.448 176.212 176.414 177.992 177.658C178.893 178.28 179.708 179.018 180.417 179.853C181.161 180.683 181.613 181.733 181.706 182.843C181.417 181.819 180.864 180.889 180.103 180.146C179.361 179.39 178.549 178.706 177.678 178.103C176.814 177.48 175.908 176.919 174.986 176.369C174.064 175.82 173.137 175.301 172.184 174.793Z" fill="#1B252B"/>
</svg>
