<svg width="49" height="49" viewBox="0 0 49 49" fill="none" xmlns="http://www.w3.org/2000/svg">
<g filter="url(#filter0_d_1128_2177)">
<path d="M4.9978 4.21777C4.9978 2.00863 6.78866 0.217773 8.9978 0.217773H40.9978C43.2069 0.217773 44.9978 2.00863 44.9978 4.21777V36.2179C44.9978 38.427 43.2069 40.2179 40.9978 40.2179H8.9978C6.78866 40.2179 4.9978 38.427 4.9978 36.2179V4.21777Z" fill="#FDFEFF" shape-rendering="crispEdges"/>
<path d="M39.2317 36.2179C40.2069 36.2179 40.9978 35.4271 40.9978 34.4518V5.9839C40.9978 5.0084 40.2069 4.21777 39.2317 4.21777H10.7639C9.7883 4.21777 8.9978 5.0084 8.9978 5.9839V34.4518C8.9978 35.4271 9.7883 36.2179 10.7639 36.2179H39.2317Z" fill="#FDFEFF"/>
<path d="M31.0773 36.2178V23.8257H35.2369L35.8597 18.9963H31.0773V15.9128C31.0773 14.5145 31.4657 13.5617 33.4708 13.5617L36.0282 13.5605V9.24116C35.5857 9.18228 34.0677 9.05078 32.3017 9.05078C28.6144 9.05078 26.0902 11.3014 26.0902 15.4347V18.9963H21.9199V23.8257H26.0902V36.2178H31.0773Z" fill="#395185"/>
</g>
<defs>
<filter id="filter0_d_1128_2177" x="0.997803" y="0.217773" width="48" height="48" filterUnits="userSpaceOnUse" color-interpolation-filters="sRGB">
<feFlood flood-opacity="0" result="BackgroundImageFix"/>
<feColorMatrix in="SourceAlpha" type="matrix" values="0 0 0 0 0 0 0 0 0 0 0 0 0 0 0 0 0 0 127 0" result="hardAlpha"/>
<feOffset dy="4"/>
<feGaussianBlur stdDeviation="2"/>
<feComposite in2="hardAlpha" operator="out"/>
<feColorMatrix type="matrix" values="0 0 0 0 0.298039 0 0 0 0 0.686275 0 0 0 0 0.890196 0 0 0 0.3 0"/>
<feBlend mode="normal" in2="BackgroundImageFix" result="effect1_dropShadow_1128_2177"/>
<feBlend mode="normal" in="SourceGraphic" in2="effect1_dropShadow_1128_2177" result="shape"/>
</filter>
</defs>
</svg>
