<svg width="24" height="25" viewBox="0 0 24 25" fill="none" xmlns="http://www.w3.org/2000/svg">
<g clip-path="url(#clip0_1569_7428)">
<path d="M4.38226 0.00488281C1.95468 0.00488281 0 1.95956 0 4.38714V19.6227C0 22.0502 1.95468 24.0049 4.38226 24.0049H12.6398V14.6224H10.1588V11.2444H12.6398V8.35839C12.6398 6.09099 14.1057 4.00914 17.4825 4.00914C18.8497 4.00914 19.8608 4.1404 19.8608 4.1404L19.7813 7.29491C19.7813 7.29491 18.7501 7.28516 17.625 7.28516C16.4073 7.28516 16.212 7.84623 16.212 8.77767V11.2444H19.878L19.7183 14.6224H16.212V24.0049H19.6177C22.0453 24.0049 24 22.0503 24 19.6227V4.38716C24 1.95959 22.0453 0.00490681 19.6177 0.00490681H4.38223L4.38226 0.00488281Z" fill="#131622"/>
</g>
<defs>
<clipPath id="clip0_1569_7428">
<rect width="24" height="24" fill="white" transform="translate(0 0.00488281)"/>
</clipPath>
</defs>
</svg>
