<svg width="24" height="24" viewBox="0 0 24 24" fill="none" xmlns="http://www.w3.org/2000/svg">
<path d="M9.1058 13.6481L9.43059 14.2164L9.89348 13.7536L13.7535 9.89355L14.2164 9.43066L13.648 9.10588C13.1527 8.82283 12.5872 8.67 11.9999 8.67C10.1638 8.67 8.66992 10.1639 8.66992 12C8.66992 12.5873 8.82276 13.1527 9.1058 13.6481ZM9.46992 14.78C9.40537 14.78 9.34476 14.7577 9.29347 14.7064C8.56714 13.9801 8.16992 13.0172 8.16992 12C8.16992 9.88614 9.88606 8.17 11.9999 8.17C13.0172 8.17 13.98 8.56721 14.7064 9.29355C14.7537 9.34085 14.7799 9.40411 14.7799 9.47C14.7799 9.53589 14.7537 9.59915 14.7064 9.64645L9.64637 14.7064C9.59508 14.7577 9.53447 14.78 9.46992 14.78Z" fill="#239ED9" stroke="#239ED9"/>
<path d="M5.43377 17.9491L5.43524 17.9504C5.47911 17.988 5.54174 18.01 5.59984 18.01C5.67114 18.01 5.73546 17.9788 5.77388 17.9321L5.77767 17.9275L5.7777 17.9276C5.8704 17.8177 5.85671 17.6595 5.75229 17.5678C4.76207 16.7129 3.87162 15.6653 3.0989 14.4598C2.65849 13.7728 2.45734 12.8689 2.45734 12C2.45734 11.1313 2.65838 10.2277 3.09853 9.54074C5.32482 6.04704 8.55659 3.98 11.9998 3.98C13.9884 3.98 15.9527 4.67165 17.6714 5.97117L17.6718 5.97145C17.7767 6.05092 17.9342 6.03299 18.0213 5.91807C18.1007 5.81332 18.0829 5.65602 17.9684 5.56889C16.1474 4.19862 14.0817 3.48 11.9998 3.48C8.45865 3.48 5.052 5.55755 2.68126 9.26909L5.43377 17.9491ZM5.43377 17.9491C4.40553 17.0746 3.47804 15.9941 2.68274 14.7332L2.68276 14.7332M5.43377 17.9491L2.68276 14.7332M2.68276 14.7332L2.68052 14.7297M2.68276 14.7332L2.68052 14.7297M2.68052 14.7297C2.21347 14.0027 1.96484 13.0172 1.96484 12.0037M2.68052 14.7297L1.96484 12.0037M1.96484 12.0037C1.96484 10.9905 2.21341 10.0018 2.68122 9.26915L1.96484 12.0037Z" fill="#239ED9" stroke="#239ED9"/>
<path d="M8.3136 19.7592L8.31476 19.7597C9.50503 20.2643 10.7388 20.52 11.9996 20.52C15.5408 20.52 18.9474 18.4424 21.3182 14.7309L8.3136 19.7592ZM8.3136 19.7592C8.18733 19.706 8.12788 19.5587 8.18039 19.434C8.23349 19.3079 8.38043 19.2485 8.50505 19.3006C9.62457 19.7757 10.8006 20.02 11.9896 20.02C15.4328 20.02 18.6646 17.953 20.8909 14.4593C21.331 13.7723 21.5321 12.8687 21.5321 12C21.5321 11.1317 21.3312 10.2284 20.8914 9.54154C20.5708 9.03489 20.2194 8.54911 19.8472 8.09418C19.7664 7.99418 19.7729 7.83577 19.8884 7.73522C19.9969 7.65002 20.1497 7.66367 20.2422 7.7761C20.6211 8.24248 20.9887 8.74591 21.3165 9.26641L21.3164 9.26642M8.3136 19.7592L21.3164 9.26642M21.3164 9.26642L21.3189 9.27025M21.3164 9.26642L21.3189 9.27025M21.3189 9.27025C21.7859 9.99725 22.0346 10.9828 22.0346 11.9962M21.3189 9.27025L22.0346 11.9962M22.0346 11.9962C22.0346 13.0095 21.786 13.9982 21.3182 14.7308L22.0346 11.9962Z" fill="#239ED9" stroke="#239ED9"/>
<path d="M12.4404 15.5644L12.4403 15.5641C12.4141 15.4295 12.5007 15.3054 12.6337 15.2827L12.6337 15.2828L12.639 15.2818C13.9426 15.0448 15.022 13.9665 15.2608 12.6634C15.2877 12.5313 15.4121 12.4395 15.5596 12.4618C15.7024 12.4926 15.7842 12.6242 15.7588 12.7541L15.7579 12.7589C15.4798 14.2625 14.2905 15.4614 12.8028 15.7657C12.7744 15.7649 12.7504 15.7658 12.7319 15.7669L12.7066 15.7685L12.6918 15.7696C12.6898 15.7697 12.6884 15.7698 12.6876 15.7698C12.571 15.7689 12.4633 15.6823 12.4404 15.5644Z" fill="#239ED9" stroke="#239ED9"/>
<path d="M2.00043 22.2502C1.93588 22.2502 1.87527 22.228 1.82398 22.1767C1.72925 22.0819 1.72925 21.9185 1.82398 21.8238L9.29398 14.3538C9.38872 14.259 9.55214 14.259 9.64688 14.3538C9.74161 14.4485 9.74161 14.6119 9.64688 14.7067L2.17688 22.1767C2.12559 22.228 2.06498 22.2502 2.00043 22.2502Z" fill="#239ED9" stroke="#239ED9"/>
<path d="M14.5297 9.71994C14.4652 9.71994 14.4046 9.69768 14.3533 9.64639C14.2585 9.55165 14.2585 9.38823 14.3533 9.29349L21.8233 1.82349C21.918 1.72876 22.0814 1.72876 22.1762 1.82349C22.2709 1.91823 22.2709 2.08165 22.1762 2.17639L14.7062 9.64639C14.6549 9.69768 14.5943 9.71994 14.5297 9.71994Z" fill="#239ED9" stroke="#239ED9"/>
</svg>
