<svg width="24" height="25" viewBox="0 0 24 25" fill="none" xmlns="http://www.w3.org/2000/svg">
<g clip-path="url(#clip0_1569_7430)">
<path d="M23.9227 8.07012C23.9093 7.06074 23.7203 6.06138 23.3643 5.11677C23.0556 4.31999 22.584 3.59638 21.9798 2.99215C21.3756 2.38793 20.652 1.91639 19.8552 1.60766C18.9227 1.25763 17.9376 1.06836 16.9418 1.04791C15.6597 0.990602 15.2532 0.974609 11.9987 0.974609C8.74411 0.974609 8.32697 0.974609 7.0542 1.04791C6.05885 1.06851 5.07421 1.25777 4.14216 1.60766C3.34526 1.91618 2.62153 2.38764 2.01728 2.99189C1.41303 3.59614 0.941567 4.31987 0.633052 5.11677C0.282316 6.04853 0.093456 7.0334 0.0746335 8.02881C0.0173256 9.31224 0 9.71872 0 12.9733C0 16.2278 -9.92969e-09 16.6436 0.0746335 17.9177C0.0946246 18.9146 0.282541 19.8982 0.633052 20.8325C0.942085 21.6291 1.4139 22.3525 2.01835 22.9565C2.6228 23.5605 3.3466 24.0318 4.14349 24.3402C5.07299 24.7043 6.0578 24.9071 7.05553 24.94C8.33896 24.9973 8.74545 25.0146 12 25.0146C15.2546 25.0146 15.6717 25.0146 16.9445 24.94C17.9402 24.9203 18.9254 24.7315 19.8578 24.3815C20.6544 24.0725 21.3778 23.6008 21.982 22.9966C22.5862 22.3924 23.0579 21.669 23.3669 20.8724C23.7175 19.9395 23.9054 18.956 23.9254 17.9577C23.9827 16.6756 24 16.2691 24 13.0133C23.9973 9.75871 23.9973 9.34556 23.9227 8.07012ZM11.9907 19.1279C8.58685 19.1279 5.82941 16.3704 5.82941 12.9666C5.82941 9.56279 8.58685 6.80535 11.9907 6.80535C13.6247 6.80535 15.1919 7.45448 16.3473 8.60994C17.5028 9.7654 18.1519 11.3325 18.1519 12.9666C18.1519 14.6007 17.5028 16.1678 16.3473 17.3233C15.1919 18.4787 13.6247 19.1279 11.9907 19.1279ZM18.3972 8.01415C18.2084 8.01432 18.0215 7.97728 17.8472 7.90514C17.6728 7.833 17.5143 7.72718 17.3809 7.59374C17.2474 7.4603 17.1416 7.30185 17.0695 7.12746C16.9973 6.95307 16.9603 6.76617 16.9605 6.57745C16.9605 6.38887 16.9976 6.20214 17.0698 6.02791C17.1419 5.85368 17.2477 5.69537 17.3811 5.56203C17.5144 5.42868 17.6727 5.3229 17.8469 5.25074C18.0212 5.17857 18.2079 5.14142 18.3965 5.14142C18.5851 5.14142 18.7718 5.17857 18.946 5.25074C19.1203 5.3229 19.2786 5.42868 19.4119 5.56203C19.5453 5.69537 19.651 5.85368 19.7232 6.02791C19.7954 6.20214 19.8325 6.38887 19.8325 6.57745C19.8325 7.37177 19.1901 8.01415 18.3972 8.01415Z" fill="#131622"/>
<path d="M12 17.4951C14.4853 17.4951 16.5 15.4804 16.5 12.9951C16.5 10.5098 14.4853 8.49512 12 8.49512C9.51472 8.49512 7.5 10.5098 7.5 12.9951C7.5 15.4804 9.51472 17.4951 12 17.4951Z" fill="#131622"/>
</g>
<defs>
<clipPath id="clip0_1569_7430">
<rect width="24" height="24" fill="white" transform="translate(0 0.995117)"/>
</clipPath>
</defs>
</svg>
