<svg width="24" height="25" viewBox="0 0 24 25" fill="none" xmlns="http://www.w3.org/2000/svg">
<path fill-rule="evenodd" clip-rule="evenodd" d="M1 3.83312C1 3.34565 1.19365 2.87815 1.53834 2.53346C1.88303 2.18877 2.35053 1.99512 2.838 1.99512H21.16C21.4016 1.99473 21.6409 2.04198 21.8641 2.13419C22.0874 2.22639 22.2903 2.36173 22.4612 2.53246C22.6322 2.70318 22.7677 2.90594 22.8602 3.12913C22.9526 3.35232 23.0001 3.59154 23 3.83312V22.1551C23.0003 22.3967 22.9529 22.636 22.8606 22.8593C22.7683 23.0826 22.6328 23.2855 22.462 23.4564C22.2912 23.6273 22.0884 23.7629 21.8651 23.8553C21.6419 23.9477 21.4026 23.9953 21.161 23.9951H2.838C2.59655 23.9951 2.35746 23.9475 2.1344 23.8551C1.91134 23.7627 1.70867 23.6272 1.53798 23.4564C1.3673 23.2856 1.23193 23.0829 1.13962 22.8598C1.04731 22.6367 0.999869 22.3976 1 22.1561V3.83312ZM9.708 10.3831H12.687V11.8791C13.117 11.0191 14.217 10.2451 15.87 10.2451C19.039 10.2451 19.79 11.9581 19.79 15.1011V20.9231H16.583V15.8171C16.583 14.0271 16.153 13.0171 15.061 13.0171C13.546 13.0171 12.916 14.1061 12.916 15.8171V20.9231H9.708V10.3831ZM4.208 20.7861H7.416V10.2451H4.208V20.7851V20.7861ZM7.875 6.80712C7.88105 7.08179 7.83217 7.35491 7.73124 7.61043C7.63031 7.86596 7.47935 8.09875 7.28723 8.29515C7.09511 8.49155 6.8657 8.64759 6.61246 8.75413C6.35921 8.86066 6.08724 8.91554 5.8125 8.91554C5.53776 8.91554 5.26579 8.86066 5.01255 8.75413C4.7593 8.64759 4.52989 8.49155 4.33777 8.29515C4.14565 8.09875 3.99469 7.86596 3.89376 7.61043C3.79283 7.35491 3.74395 7.08179 3.75 6.80712C3.76187 6.26797 3.98439 5.75491 4.36989 5.37781C4.75539 5.0007 5.27322 4.78954 5.8125 4.78954C6.35178 4.78954 6.86961 5.0007 7.25512 5.37781C7.64062 5.75491 7.86313 6.26797 7.875 6.80712Z" fill="#131622"/>
</svg>
