<svg width="217" height="73" viewBox="0 0 217 73" fill="none" xmlns="http://www.w3.org/2000/svg">
<path d="M44.5984 33.3534L38.3701 41.3046L25.9022 58.0342H13.4286L32.2268 33.5348L18.2514 15.802H30.8213L38.6308 25.5836L44.5984 33.3534Z" fill="#4CAFE3"/>
<path d="M76.4949 38.6508H58.0977C58.3695 40.3028 59.2752 41.7819 60.6203 42.7705C62.1007 43.8297 63.8882 44.3675 65.7044 44.3001C66.8826 44.3387 68.0561 44.132 69.151 43.693C70.2459 43.2539 71.2385 42.5921 72.0665 41.749L75.0058 45.1374C73.9364 46.4158 72.5619 47.4011 71.0107 48.0011C69.2781 48.6719 67.4332 49.0017 65.5766 48.9724C63.2186 49.0219 60.8842 48.493 58.7756 47.4317C56.885 46.4657 55.3111 44.9736 54.2416 43.1334C53.1548 41.2391 52.5998 39.0841 52.6358 36.898C52.6067 34.7276 53.1492 32.588 54.2083 30.6961C55.2198 28.888 56.7154 27.4008 58.5256 26.4033C60.4383 25.3574 62.588 24.8267 64.7654 24.8626C66.8995 24.826 69.0062 25.3494 70.8774 26.381C72.6549 27.3759 74.1152 28.8566 75.0891 30.6514C76.1223 32.6189 76.6368 34.8193 76.5838 37.0431C76.5838 37.4004 76.556 37.9475 76.4949 38.6508ZM60.3203 30.8301C59.0927 31.8946 58.301 33.3781 58.0977 34.9944H71.3663C71.1892 33.3788 70.4102 31.8903 69.1858 30.828C67.9613 29.7656 66.3822 29.2079 64.7654 29.267C63.1427 29.2207 61.56 29.7772 60.3203 30.8301Z" fill="#4CAFE3"/>
<path d="M92.6972 36.6245L89.6746 40.4985L95.681 48.6542H101.865L92.6972 36.6245ZM95.5532 25.125L89.8024 32.8341L92.6972 36.6245L101.465 25.125H95.5532Z" fill="#4CAFE3"/>
<path d="M125.213 25.1251V56.6481C125.213 56.7961 125.155 56.9381 125.05 57.0428C124.946 57.1475 124.805 57.2063 124.658 57.2063H120.279C120.132 57.2063 119.99 57.1475 119.886 57.0428C119.782 56.9381 119.723 56.7961 119.723 56.6481V45.7906C117.871 47.9044 115.371 48.9613 112.222 48.9613C110.091 48.9972 107.986 48.482 106.11 47.4653C104.334 46.4869 102.872 45.0188 101.899 43.2339C100.859 41.2843 100.339 39.098 100.387 36.8869C100.343 34.6894 100.871 32.5185 101.921 30.5901C102.903 28.8111 104.362 27.345 106.133 26.3587C108.007 25.3365 110.113 24.821 112.245 24.8627C113.754 24.8438 115.252 25.1285 116.651 25.7C117.953 26.2449 119.099 27.1084 119.985 28.212V25.1251H125.213ZM117.845 42.2179C118.513 41.5077 119.032 40.6696 119.371 39.7538C119.71 38.8379 119.862 37.863 119.818 36.8869C119.861 35.9109 119.709 34.9361 119.37 34.0203C119.031 33.1045 118.513 32.2665 117.845 31.5558C117.198 30.8869 116.419 30.3611 115.558 30.0121C114.697 29.6632 113.773 29.4988 112.845 29.5295C111.921 29.4996 111.001 29.6645 110.145 30.0135C109.288 30.3625 108.514 30.8879 107.872 31.5558C107.209 32.2689 106.695 33.1078 106.359 34.0232C106.023 34.9386 105.872 35.9122 105.916 36.8869C105.872 37.8616 106.022 38.8352 106.358 39.7507C106.694 40.6662 107.209 41.505 107.872 42.2179C108.513 42.887 109.287 43.4131 110.144 43.7622C111.001 44.1113 111.921 44.2756 112.845 44.2443C113.773 44.275 114.697 44.1106 115.558 43.7616C116.419 43.4127 117.198 42.8869 117.845 42.2179Z" fill="#4CAFE3"/>
<path d="M151.184 25.125V48.6542H145.961V45.6566C145.072 46.7208 143.944 47.5586 142.671 48.1016C141.329 48.6805 139.882 48.9732 138.421 48.9613C135.294 48.9613 132.831 48.0867 131.031 46.3376C129.23 44.5885 128.33 41.9965 128.33 38.5615V25.125H133.814V37.8135C133.814 39.9292 134.287 41.5089 135.242 42.5528C136.198 43.5967 137.543 44.1158 139.299 44.1158C140.161 44.1593 141.023 44.0186 141.828 43.7029C142.632 43.3873 143.361 42.904 143.966 42.2849C145.122 41.0679 145.7 39.3132 145.7 37.0208V25.125H151.184Z" fill="#4CAFE3"/>
<path d="M168.025 24.8628V30.1045C167.606 30.02 167.18 29.9752 166.753 29.9706C164.619 29.9706 162.952 30.5958 161.752 31.8462C160.552 33.091 159.952 34.8941 159.952 37.2387V48.6544H154.468V25.1252H159.691V28.5638C161.272 26.0965 164.05 24.8628 168.025 24.8628Z" fill="#4CAFE3"/>
<path d="M192.318 38.6508H174.226C174.495 40.3024 175.399 41.7817 176.743 42.7706C178.212 43.8192 179.982 44.3564 181.783 44.3001C182.957 44.3348 184.126 44.125 185.216 43.6841C186.306 43.2432 187.294 42.5805 188.117 41.7378L191.056 45.1263C189.989 46.4044 188.616 47.3897 187.067 47.99C185.095 48.7177 182.998 49.0432 180.899 48.9474C178.8 48.8515 176.741 48.3363 174.843 47.4317C172.95 46.4674 171.373 44.975 170.303 43.1334C169.221 41.2376 168.668 39.0833 168.703 36.898C168.669 34.7327 169.206 32.597 170.259 30.7073C171.272 28.8988 172.77 27.4116 174.582 26.4145C176.489 25.3707 178.633 24.84 180.805 24.8738C182.939 24.8351 185.046 25.3586 186.917 26.3922C188.697 27.3839 190.158 28.8654 191.129 30.6626C192.174 32.6227 192.7 34.8199 192.657 37.0432C192.657 37.3781 192.657 37.8303 192.59 38.4108C192.581 38.4769 192.548 38.5375 192.498 38.5815C192.448 38.6256 192.384 38.6502 192.318 38.6508ZM176.365 30.8357C175.137 31.8999 174.345 33.3835 174.143 35H187.428C187.247 33.4006 186.483 31.925 185.283 30.858C184.016 29.8393 182.442 29.2843 180.819 29.2843C179.196 29.2843 177.621 29.8393 176.354 30.858L176.365 30.8357Z" fill="#4CAFE3"/>
<path d="M90.747 36.6245L87.7243 40.4986L81.6735 48.6543H75.6226L84.7461 36.7082L77.9618 28.0669H84.0627L87.8521 32.8341L90.747 36.6245Z" fill="#4CAFE3"/>
</svg>
