<svg width="408" height="23" viewBox="0 0 408 23" fill="none" xmlns="http://www.w3.org/2000/svg">
<path d="M199.482 5.35377C196.282 5.35377 193.93 7.75377 193.93 10.8898C193.93 14.0258 196.282 16.4258 199.482 16.4258C202.682 16.4258 205.034 14.0258 205.034 10.8898C205.034 7.75377 202.682 5.35377 199.482 5.35377ZM199.482 14.9218C197.194 14.9218 195.562 13.2578 195.562 10.8898C195.562 8.52177 197.194 6.85777 199.482 6.85777C201.77 6.85777 203.402 8.52177 203.402 10.8898C203.402 13.2578 201.77 14.9218 199.482 14.9218ZM207.562 5.54577V16.2178H209.194V11.8498H209.482L212.538 16.2178H214.506L211.178 11.6578C212.602 11.3378 213.546 10.2178 213.546 8.68177C213.546 8.21777 213.45 6.95377 212.282 6.16977C211.594 5.70577 210.762 5.54577 209.466 5.54577H207.562ZM209.194 7.04977H209.754C210.554 7.04977 211.978 7.19377 211.978 8.69777C211.978 10.3938 210.154 10.4418 209.706 10.4418H209.194V7.04977Z" fill="#9FA2A5"/>
<line x1="218.996" y1="11.1646" x2="407.996" y2="11.1646" stroke="#9FA2A5"/>
<line y1="11.1646" x2="189" y2="11.1646" stroke="#9FA2A5"/>
</svg>
