<svg width="275" height="205" viewBox="0 0 275 205" fill="none" xmlns="http://www.w3.org/2000/svg">
<g opacity="0.3">
<path d="M274.798 179.49H0.797852V179.627H274.798V179.49Z" fill="#EBEBEB"/>
<path d="M247.343 188.3H229.193V188.437H247.343V188.3Z" fill="#EBEBEB"/>
<path d="M182.306 189.79H177.544V189.927H182.306V189.79Z" fill="#EBEBEB"/>
<path d="M228.645 183.219H218.129V183.356H228.645V183.219Z" fill="#EBEBEB"/>
<path d="M53.214 184.139H29.5459V184.276H53.214V184.139Z" fill="#EBEBEB"/>
<path d="M61.5655 184.139H58.0967V184.276H61.5655V184.139Z" fill="#EBEBEB"/>
<path d="M124.18 186.449H72.8435V186.586H124.18V186.449Z" fill="#EBEBEB"/>
<path d="M130.674 155.069H24.8605C24.0316 155.067 23.2371 154.737 22.6515 154.151C22.0658 153.565 21.7369 152.77 21.7369 151.942V3.31698C21.7441 2.49346 22.0762 1.70604 22.6611 1.12575C23.2459 0.545467 24.0363 0.219184 24.8605 0.217773H130.674C131.504 0.217773 132.3 0.547181 132.886 1.13353C133.473 1.71988 133.803 2.51513 133.803 3.34436V151.942C133.803 152.771 133.473 153.566 132.886 154.153C132.3 154.739 131.504 155.069 130.674 155.069V155.069ZM24.8605 0.327286C24.0679 0.328737 23.3083 0.644361 22.7483 1.20488C22.1884 1.7654 21.8739 2.52501 21.8739 3.31698V151.942C21.8739 152.734 22.1884 153.494 22.7483 154.054C23.3083 154.615 24.0679 154.93 24.8605 154.932H130.674C131.467 154.93 132.227 154.615 132.788 154.054C133.349 153.494 133.664 152.734 133.666 151.942V3.31698C133.664 2.52451 133.349 1.76491 132.788 1.20455C132.227 0.644183 131.467 0.328734 130.674 0.327286H24.8605Z" fill="#EBEBEB"/>
<path d="M249.212 155.069H143.393C142.563 155.067 141.768 154.737 141.182 154.151C140.595 153.565 140.265 152.771 140.264 151.942V3.31698C140.272 2.49296 140.606 1.70554 141.191 1.12541C141.777 0.545275 142.568 0.219169 143.393 0.217773H249.212C250.035 0.220623 250.824 0.547543 251.408 1.12767C251.991 1.7078 252.323 2.4944 252.33 3.31698V151.942C252.33 152.769 252.002 153.563 251.417 154.149C250.833 154.735 250.04 155.066 249.212 155.069V155.069ZM143.393 0.327286C142.6 0.328734 141.84 0.644183 141.279 1.20455C140.718 1.76491 140.402 2.52451 140.401 3.31698V151.942C140.402 152.734 140.718 153.494 141.279 154.054C141.84 154.615 142.6 154.93 143.393 154.932H249.212C250.005 154.93 250.765 154.615 251.326 154.054C251.887 153.494 252.202 152.734 252.204 151.942V3.31698C252.202 2.52451 251.887 1.76491 251.326 1.20455C250.765 0.644183 250.005 0.328734 249.212 0.327286H143.393Z" fill="#EBEBEB"/>
<path d="M120.508 126.634H51.2302V131.518H120.508V126.634Z" fill="#EBEBEB"/>
<path d="M120.508 126.634H90.3848V131.518H120.508V126.634Z" fill="#E0E0E0"/>
<path d="M61.4669 131.518H51.2302V179.49H61.4669V131.518Z" fill="#EBEBEB"/>
<path d="M61.4669 136.468L51.2302 132.985V131.518H61.4669V136.468Z" fill="#E0E0E0"/>
<path d="M120.508 131.518H110.272V179.49H120.508V131.518Z" fill="#E0E0E0"/>
<path d="M100.621 131.518H90.3848V179.49H100.621V131.518Z" fill="#EBEBEB"/>
<path d="M100.616 136.468L90.3848 132.985V131.518H100.616V136.468Z" fill="#E0E0E0"/>
<path d="M81.3538 131.518H71.1172V179.49H81.3538V131.518Z" fill="#E0E0E0"/>
<path d="M127.019 17.8328H39.7058V92.1206H127.019V17.8328Z" fill="#EBEBEB"/>
<path d="M127.019 92.1152H127.994L127.994 17.8274H127.019L127.019 92.1152Z" fill="#E0E0E0"/>
<path d="M123.736 88.8299V21.1128L42.9995 21.1128V88.8299H123.736Z" fill="#F5F5F5"/>
<path d="M82.3896 78.5521C87.3216 62.1252 88.6916 37.8956 99.1804 41.2357C109.669 44.5758 95.9307 80.4029 95.9307 80.4029L82.3896 78.5521Z" fill="#FDFEFF"/>
<path d="M90.8616 79.368C85.8419 55.56 87.1078 23.9547 71.5117 24.6775C55.9156 25.4002 71.5117 80.4029 71.5117 80.4029L90.8616 79.368Z" fill="#FDFEFF"/>
<path d="M101.882 76.696H67.7359C67.0391 76.6736 66.3614 76.9256 65.8489 77.3978C65.3364 77.87 65.03 78.5245 64.9959 79.2202C64.2999 94.9353 66.8755 110.979 71.6705 126.634H97.8156C102.611 110.951 105.186 94.9353 104.49 79.2202C104.463 78.5451 104.178 77.9062 103.692 77.4362C103.206 76.9661 102.558 76.7011 101.882 76.696V76.696Z" fill="#EBEBEB"/>
<path d="M179.555 26.1174H177.632V179.49H179.555V26.1174Z" fill="#E0E0E0"/>
<path d="M224.76 26.1174H222.837V179.49H224.76V26.1174Z" fill="#E0E0E0"/>
<path d="M165.916 26.1174H163.992V179.49H165.916V26.1174Z" fill="#EBEBEB"/>
<path d="M211.12 26.1174H209.197V179.49H211.12V26.1174Z" fill="#EBEBEB"/>
<path d="M224.76 25.0662H163.992V27.1633H224.76V25.0662Z" fill="#EBEBEB"/>
<path d="M224.76 62.6235H163.992V64.7207H224.76V62.6235Z" fill="#EBEBEB"/>
<path d="M224.76 100.181H163.992V102.278H224.76V100.181Z" fill="#EBEBEB"/>
<path d="M224.76 137.738H163.992V139.835H224.76V137.738Z" fill="#EBEBEB"/>
<path d="M224.76 175.295H163.992V177.393H224.76V175.295Z" fill="#EBEBEB"/>
<path d="M224.76 25.0662H211.12V27.1633H224.76V25.0662Z" fill="#E0E0E0"/>
<path d="M224.76 62.6235H211.12V64.7207H224.76V62.6235Z" fill="#E0E0E0"/>
<path d="M224.76 100.181H211.12V102.278H224.76V100.181Z" fill="#E0E0E0"/>
<path d="M224.76 137.738H211.12V139.835H224.76V137.738Z" fill="#E0E0E0"/>
<path d="M224.76 175.295H211.12V177.393H224.76V175.295Z" fill="#E0E0E0"/>
<path d="M188.504 37.8409V34.884H181.2V37.8409C181.2 38.7679 180.831 39.657 180.176 40.3131C179.52 40.9691 178.631 41.3384 177.703 41.3398C176.776 41.3398 175.886 41.7077 175.229 42.3627C174.573 43.0177 174.203 43.9062 174.202 44.8332V62.64H195.508V44.8332C195.506 43.9062 195.137 43.0177 194.48 42.3627C193.824 41.7077 192.934 41.3398 192.006 41.3398C191.077 41.3398 190.187 40.9712 189.53 40.315C188.873 39.6588 188.504 38.7688 188.504 37.8409Z" fill="#F0F0F0"/>
<path d="M203.624 87.9702H171.609V100.186H203.624V87.9702Z" fill="#F0F0F0"/>
<path d="M203.623 100.181H209.197V87.9648H203.623V100.181Z" fill="#E6E6E6"/>
<path d="M203.623 94.749H209.197V93.402H203.623V94.749Z" fill="#EBEBEB"/>
<path d="M203.624 93.4021H171.609V94.7491H203.624V93.4021Z" fill="#F5F5F5"/>
<path d="M195.047 153.7H170.042V175.296H195.047V153.7Z" fill="#F0F0F0"/>
<path d="M195.047 175.301H199.398V153.705H195.047V175.301Z" fill="#E6E6E6"/>
<path d="M195.047 165.691H199.398V163.309H195.047V165.691Z" fill="#EBEBEB"/>
<path d="M195.047 163.309H170.042V165.691H195.047V163.309Z" fill="#F5F5F5"/>
<path d="M195.047 161.639H199.398V160.79H195.047V161.639Z" fill="#EBEBEB"/>
<path d="M195.047 160.791H170.042V161.639H195.047V160.791Z" fill="#F5F5F5"/>
<path d="M176.136 115.781H171.609V137.738H176.136V115.781Z" fill="#F0F0F0"/>
<path d="M176.136 123.605H171.609V129.913H176.136V123.605Z" fill="#FAFAFA"/>
<path d="M176.136 137.744H191.535V115.786H176.136V137.744Z" fill="#E6E6E6"/>
<path d="M183.128 112.945H178.016V137.738H183.128V112.945Z" fill="#EBEBEB"/>
<path d="M183.128 120.824H178.016V124.64H183.128V120.824Z" fill="#FAFAFA"/>
<path d="M183.128 127.198H178.016V131.014H183.128V127.198Z" fill="#FAFAFA"/>
<path d="M183.134 137.738H200.522V112.945H183.134V137.738Z" fill="#E0E0E0"/>
<path d="M188.822 115.781H186.066V137.738H188.822V115.781Z" fill="#F0F0F0"/>
<path d="M188.345 118.562H186.537V134.957H188.345V118.562Z" fill="#FAFAFA"/>
<path d="M188.817 137.744H198.182V115.786H188.817V137.744Z" fill="#E6E6E6"/>
<path d="M196.182 114.625H193.069V137.738H196.182V114.625Z" fill="#EBEBEB"/>
<path d="M196.182 121.968H193.069V125.527H196.182V121.968Z" fill="#FAFAFA"/>
<path d="M196.182 127.915H193.069V131.474H196.182V127.915Z" fill="#FAFAFA"/>
<path d="M196.182 137.738H206.758V114.626H196.182V137.738Z" fill="#E0E0E0"/>
<path d="M194.766 85.9753C197.428 83.3151 197.428 79.0022 194.766 76.3421C192.104 73.682 187.787 73.682 185.125 76.3421C182.463 79.0022 182.463 83.3152 185.125 85.9753C187.787 88.6354 192.104 88.6354 194.766 85.9753Z" fill="#F5F5F5"/>
<path d="M198.249 87.894C200.824 87.4764 202.572 85.0519 202.154 82.4788C201.736 79.9057 199.31 78.1583 196.735 78.576C194.16 78.9937 192.411 81.4182 192.829 83.9913C193.247 86.5644 195.673 88.3117 198.249 87.894Z" fill="#EBEBEB"/>
<path d="M137.798 204.218C196.479 204.218 244.05 201.443 244.05 198.019C244.05 194.596 196.479 191.821 137.798 191.821C79.1167 191.821 31.5461 194.596 31.5461 198.019C31.5461 201.443 79.1167 204.218 137.798 204.218Z" fill="#F5F5F5"/>
<path d="M69.906 155.556H140.291V191.865C140.291 192.33 140.199 192.79 140.021 193.22C139.843 193.65 139.582 194.041 139.253 194.37C138.923 194.699 138.533 194.96 138.102 195.138C137.672 195.316 137.211 195.407 136.746 195.407H73.4516C72.986 195.407 72.5249 195.316 72.0947 195.138C71.6646 194.96 71.2737 194.699 70.9445 194.37C70.6152 194.041 70.3541 193.65 70.1759 193.22C69.9977 192.79 69.906 192.33 69.906 191.865V155.556V155.556Z" fill="#E03F1B"/>
<path d="M69.906 155.556H119.714L113.587 147.72C112.913 146.86 111.247 146.165 109.861 146.165H65.0671C63.6862 146.165 63.1053 146.86 63.7793 147.72L69.906 155.556Z" fill="#E03F1B"/>
<path opacity="0.2" d="M69.906 155.556H119.714L113.587 147.72C112.913 146.86 111.247 146.165 109.861 146.165H65.0671C63.6862 146.165 63.1053 146.86 63.7793 147.72L69.906 155.556Z" fill="#1B1C1E"/>
<path d="M140.291 155.556H90.489L96.6157 150.447C97.2897 149.899 98.9556 149.434 100.342 149.434H145.13C146.517 149.434 147.092 149.889 146.418 150.447L140.291 155.556Z" fill="#E03F1B"/>
<path opacity="0.2" d="M90.489 155.556H140.291V191.865C140.291 192.33 140.2 192.79 140.021 193.22C139.843 193.65 139.582 194.041 139.253 194.37C138.924 194.699 138.533 194.96 138.103 195.138C137.672 195.316 137.211 195.407 136.746 195.407H94.0346C93.569 195.407 93.1079 195.316 92.6777 195.138C92.2476 194.96 91.8567 194.699 91.5275 194.37C91.1982 194.041 90.9371 193.65 90.7589 193.22C90.5807 192.79 90.489 192.33 90.489 191.865V155.556Z" fill="#FDFEFF"/>
<path opacity="0.5" d="M76.0874 155.556V180.459L77.8081 179.101L79.0192 180.459L80.0714 178.948L81.1509 180.459L82.6524 179.325L84.3074 180.459V155.556H76.0874Z" fill="#FDFEFF"/>
<path d="M87.2286 101.232L78.3784 93.8071" stroke="#E03F1B" stroke-miterlimit="10"/>
<path d="M91.8151 105.082L89.1189 102.815" stroke="#E03F1B" stroke-miterlimit="10"/>
<path d="M118.327 120.621L147.525 84.1592L108.65 51.5464L82.8938 81.0764L79.0578 88.4631C78.8673 88.6728 78.7222 88.9195 78.6316 89.1877C78.5409 89.456 78.5065 89.7401 78.5307 90.0222C78.5549 90.3044 78.637 90.5785 78.772 90.8275C78.9071 91.0764 79.092 91.2949 79.3154 91.4692L114.387 120.895C114.958 121.354 115.681 121.581 116.411 121.531C117.142 121.48 117.826 121.155 118.327 120.621V120.621Z" fill="#E03F1B"/>
<path opacity="0.5" d="M98.3035 93.7305L94.1003 100.493L95.7937 100.86L96.3691 102.426L97.4925 102.491L98.0131 103.833L99.3885 104.233L100.446 105.914L104.649 99.1513L98.3035 93.7305Z" fill="#FDFEFF"/>
<path opacity="0.1" d="M146.254 83.0915L120.07 112.277L82.8774 81.0764L108.65 51.5464L146.254 83.0915Z" fill="#1B1C1E"/>
<path d="M146.254 83.0913L120.07 112.276L130.91 113.076L156.687 83.5458L146.254 83.0913Z" fill="#E03F1B"/>
<path opacity="0.3" d="M146.254 83.0913L120.07 112.276L130.91 113.076L156.687 83.5458L146.254 83.0913Z" fill="#1B1C1E"/>
<path d="M98.2214 51.0864L72.0325 80.277L82.8774 81.0764L108.65 51.5464L98.2214 51.0864Z" fill="#E03F1B"/>
<path opacity="0.4" d="M98.2214 51.0864L72.0325 80.277L82.8774 81.0764L108.65 51.5464L98.2214 51.0864Z" fill="#1B1C1E"/>
<path opacity="0.1" d="M138.192 92.077L146.254 83.0915L108.65 51.5464L103.838 63.1328L138.192 92.077Z" fill="#1B1C1E"/>
<path opacity="0.2" d="M82.8774 81.0764L108.65 51.5464L103.838 63.1328L85.6887 83.4364L82.8774 81.0764Z" fill="#1B1C1E"/>
<path d="M155.334 28.1435C155.438 28.494 155.334 28.8389 155.104 28.9046C154.874 28.9703 154.605 28.7404 154.501 28.3899C154.397 28.0395 154.501 27.6945 154.731 27.6233C154.961 27.5522 155.235 27.7931 155.334 28.1435Z" fill="#263238"/>
<path d="M155.372 28.8335C155.269 30.0383 155 31.2231 154.572 32.3543C154.865 32.4559 155.177 32.4923 155.485 32.4611C155.794 32.4299 156.092 32.3318 156.359 32.1736L155.372 28.8335Z" fill="#ED847E"/>
<path d="M156.063 25.8054C156.109 25.7786 156.144 25.7358 156.161 25.6849C156.172 25.6584 156.176 25.63 156.175 25.6016C156.174 25.5731 156.167 25.5452 156.155 25.5195C156.143 25.4939 156.125 25.471 156.104 25.4524C156.082 25.4337 156.057 25.4197 156.03 25.4111C155.709 25.2881 155.363 25.2443 155.021 25.2834C154.68 25.3225 154.353 25.4433 154.068 25.6356C154.031 25.6732 154.009 25.7228 154.005 25.7755C154.002 25.8281 154.018 25.8802 154.05 25.9221C154.082 25.9641 154.128 25.9931 154.179 26.0038C154.231 26.0146 154.285 26.0063 154.331 25.9806V25.9806C154.559 25.8314 154.819 25.7387 155.089 25.7101C155.36 25.6815 155.634 25.7179 155.887 25.8163C155.916 25.8267 155.946 25.8311 155.976 25.8292C156.006 25.8273 156.036 25.8192 156.063 25.8054V25.8054Z" fill="#263238"/>
<path d="M167.521 30.4872C167.762 33.3892 168.48 38.7006 170.196 39.9271C170.196 39.9271 169.79 43.4151 163.62 44.3076C156.857 45.3042 159.893 41.4275 159.893 41.4275C163.45 40.0038 162.951 37.2824 161.932 34.8074L164.54 31.8177C165.543 30.7117 167.39 29.0033 167.521 30.4872Z" fill="#FFC3BD"/>
<path d="M172.404 41.3453C172.952 40.847 171.856 38.8538 171.182 38.5746C169.417 37.8354 162.2 38.5746 159.488 40.9017C159.263 41.2868 159.127 41.7172 159.09 42.1616C159.053 42.6059 159.116 43.0529 159.274 43.4698L172.404 41.3453Z" fill="#FDFEFF"/>
<path d="M195.387 187.709C195.209 187.79 195.016 187.835 194.821 187.84C194.625 187.846 194.43 187.812 194.247 187.742C194.175 187.685 194.122 187.607 194.096 187.519C194.069 187.43 194.071 187.336 194.1 187.249C194.114 187.177 194.144 187.11 194.188 187.051C194.231 186.992 194.287 186.944 194.352 186.909C194.943 186.564 196.407 187.019 196.467 187.041C196.487 187.046 196.505 187.057 196.519 187.073C196.532 187.088 196.541 187.108 196.544 187.128C196.546 187.15 196.543 187.172 196.533 187.192C196.523 187.211 196.508 187.227 196.489 187.238C196.139 187.432 195.77 187.59 195.387 187.709V187.709ZM194.587 187.041L194.461 187.096C194.424 187.116 194.391 187.144 194.366 187.178C194.34 187.212 194.322 187.251 194.313 187.293C194.275 187.49 194.352 187.55 194.374 187.566C194.637 187.753 195.53 187.484 196.149 187.172C195.644 187.014 195.111 186.969 194.587 187.041V187.041Z" fill="#E03F1B"/>
<path d="M196.467 187.243C196.449 187.249 196.43 187.249 196.412 187.243C195.864 187.134 194.719 186.449 194.658 185.935C194.65 185.854 194.67 185.772 194.715 185.704C194.76 185.636 194.827 185.586 194.905 185.562C194.981 185.528 195.063 185.511 195.146 185.511C195.229 185.511 195.311 185.528 195.387 185.562C196.023 185.825 196.516 187.052 196.533 187.101C196.543 187.117 196.549 187.136 196.549 187.156C196.549 187.175 196.543 187.194 196.533 187.21C196.525 187.221 196.515 187.229 196.504 187.235C196.492 187.24 196.48 187.243 196.467 187.243V187.243ZM195.042 185.748C195.026 185.744 195.009 185.744 194.993 185.748C194.867 185.803 194.872 185.869 194.878 185.896C194.911 186.203 195.689 186.756 196.242 186.959C196.078 186.603 195.694 185.913 195.305 185.748C195.22 185.716 195.127 185.716 195.042 185.748V185.748Z" fill="#E03F1B"/>
<path d="M163.269 193.59C162.683 193.59 162.118 193.508 161.926 193.245C161.877 193.176 161.851 193.094 161.851 193.009C161.851 192.925 161.877 192.843 161.926 192.774C161.963 192.71 162.012 192.655 162.07 192.611C162.128 192.567 162.195 192.535 162.266 192.516C163.028 192.314 164.628 193.223 164.694 193.261C164.714 193.271 164.731 193.287 164.741 193.307C164.751 193.327 164.755 193.35 164.751 193.372C164.748 193.394 164.737 193.415 164.721 193.43C164.704 193.446 164.683 193.456 164.661 193.458C164.202 193.544 163.736 193.588 163.269 193.59V193.59ZM162.546 192.703C162.475 192.7 162.405 192.709 162.337 192.73C162.25 192.75 162.173 192.803 162.124 192.878C162.047 193.015 162.074 193.08 162.124 193.119C162.337 193.414 163.494 193.42 164.316 193.299C163.77 192.988 163.169 192.786 162.546 192.703V192.703Z" fill="#E03F1B"/>
<path d="M164.65 193.464H164.606C164.058 193.217 162.962 192.226 163.044 191.711C163.044 191.591 163.154 191.438 163.45 191.41C163.557 191.398 163.665 191.409 163.768 191.441C163.871 191.473 163.966 191.526 164.047 191.597C164.633 192.073 164.754 193.305 164.759 193.354C164.762 193.373 164.76 193.392 164.752 193.41C164.744 193.427 164.732 193.442 164.716 193.453C164.695 193.463 164.672 193.467 164.65 193.464ZM163.554 191.613H163.488C163.291 191.613 163.28 191.711 163.274 191.733C163.225 192.046 163.97 192.829 164.529 193.163C164.481 192.64 164.271 192.146 163.926 191.75C163.824 191.659 163.691 191.61 163.554 191.613V191.613Z" fill="#E03F1B"/>
<path d="M169.681 193.354H165.105L164.65 182.775H169.226L169.681 193.354Z" fill="#FFC3BD"/>
<path d="M201.821 186.132L197.607 187.583L193.234 177.612L197.448 176.161L201.821 186.132Z" fill="#FFC3BD"/>
<path d="M196.604 186.537L201.536 185.031C201.623 185.004 201.717 185.008 201.802 185.042C201.886 185.076 201.957 185.138 202.002 185.217L204.057 188.831C204.106 188.92 204.135 189.018 204.141 189.119C204.147 189.22 204.13 189.321 204.092 189.415C204.053 189.509 203.994 189.592 203.919 189.66C203.843 189.728 203.754 189.778 203.657 189.806C201.93 190.304 201.07 190.458 198.911 191.12C197.579 191.525 194.225 192.796 192.335 193.173C190.444 193.551 189.836 191.744 190.57 191.421C193.858 189.97 195.206 188.322 195.99 187.041C196.127 186.804 196.345 186.625 196.604 186.537V186.537Z" fill="#263238"/>
<path d="M165.138 192.823H170.13C170.22 192.824 170.308 192.856 170.378 192.912C170.449 192.969 170.498 193.047 170.519 193.135L171.423 197.198C171.446 197.296 171.446 197.398 171.423 197.496C171.4 197.594 171.355 197.685 171.292 197.763C171.229 197.841 171.148 197.904 171.057 197.946C170.966 197.989 170.866 198.01 170.766 198.008C168.963 197.981 166.382 197.872 164.096 197.872C161.45 197.872 160.337 198.019 157.23 198.019C155.356 198.019 154.835 196.125 155.619 195.95C159.197 195.167 160.945 195.084 164.036 193.179C164.364 192.962 164.745 192.839 165.138 192.823Z" fill="#263238"/>
<path d="M178.427 42.8401C179.758 44.0612 180.909 45.2822 182.104 46.558C183.298 47.8339 184.405 49.1535 185.479 50.5607C186.601 51.9904 187.619 53.4982 188.526 55.0726C189.022 55.9405 189.45 56.8447 189.809 57.7776C189.902 58.035 189.995 58.2814 190.072 58.5606C190.161 58.8431 190.236 59.13 190.296 59.4203L190.389 59.8748L190.455 60.3785C190.516 60.8401 190.516 61.3078 190.455 61.7693C190.329 62.6406 190.007 63.4719 189.513 64.2005C189.152 64.7326 188.729 65.2197 188.252 65.6516C187.486 66.346 186.648 66.9572 185.753 67.4749C184.176 68.3763 182.527 69.1437 180.821 69.7692C177.586 70.9691 174.253 71.8852 170.859 72.507L169.9 69.2217C172.875 67.9349 175.889 66.5441 178.668 65.0602C180.02 64.3513 181.322 63.5499 182.564 62.6619C183.081 62.2946 183.557 61.8724 183.983 61.4025C184.113 61.2636 184.222 61.1068 184.307 60.937C184.35 60.844 184.307 60.8549 184.252 61.052C184.213 61.4189 184.219 61.1342 184.131 60.937C184.104 60.844 184.055 60.718 184.005 60.5976C183.956 60.4771 183.896 60.3402 183.835 60.2088C183.538 59.6116 183.207 59.032 182.843 58.473C181.997 57.2174 181.082 56.0091 180.103 54.8536C179.095 53.6599 178.032 52.4717 176.941 51.3054C175.851 50.1391 174.706 48.9618 173.653 47.8777L178.427 42.8401Z" fill="#FFC3BD"/>
<path d="M171.155 68.7014L166.842 70.0046L169.615 74.5603C169.615 74.5603 172.163 73.509 172.727 71.3461L171.155 68.7014Z" fill="#FFC3BD"/>
<path d="M165.099 71.6199L166.798 75.3762L169.587 74.5658L166.814 70.0046L165.099 71.6199Z" fill="#FFC3BD"/>
<path d="M168.322 44.0775C167.911 48.458 177.183 55.2368 177.183 55.2368L186.11 49.1315C184.559 46.2748 182.294 43.8692 179.534 42.1501C174.415 38.8757 168.837 38.6347 168.322 44.0775Z" fill="#E03F1B"/>
<g opacity="0.3">
<path d="M168.322 44.0775C167.911 48.458 177.183 55.2368 177.183 55.2368L186.11 49.1315C184.559 46.2748 182.294 43.8692 179.534 42.1501C174.415 38.8757 168.837 38.6347 168.322 44.0775Z" fill="#FDFEFF"/>
</g>
<path d="M153.142 43.7271C153.142 43.7271 149.136 49.8707 158.649 82.8231L182.838 79.2529C182.498 75.9128 178.454 61.3422 178.317 45.4136C178.311 44.6443 178.15 43.8842 177.842 43.1791C177.534 42.474 177.087 41.8384 176.527 41.3109C175.966 40.7833 175.305 40.3746 174.582 40.1095C173.86 39.8443 173.091 39.7282 172.322 39.7682C171.62 39.8065 170.897 39.8558 170.179 39.927C166.726 40.2346 163.294 40.741 159.899 41.4437C157.591 42.0304 155.332 42.7938 153.142 43.7271Z" fill="#E03F1B"/>
<g opacity="0.3">
<path d="M153.142 43.7271C153.142 43.7271 149.136 49.8707 158.649 82.8231L182.838 79.2529C182.498 75.9128 178.454 61.3422 178.317 45.4136C178.311 44.6443 178.15 43.8842 177.842 43.1791C177.534 42.474 177.087 41.8384 176.527 41.3109C175.966 40.7833 175.305 40.3746 174.582 40.1095C173.86 39.8443 173.091 39.7282 172.322 39.7682C171.62 39.8065 170.897 39.8558 170.179 39.927C166.726 40.2346 163.294 40.741 159.899 41.4437C157.591 42.0304 155.332 42.7938 153.142 43.7271Z" fill="#FDFEFF"/>
</g>
<path opacity="0.2" d="M152.55 54.317L152.632 54.2239L158.32 54.7276C159.186 58.3963 156.019 63.401 154.347 65.7227C153.543 61.956 152.943 58.1485 152.55 54.317V54.317Z" fill="#1B1C1E"/>
<path opacity="0.2" d="M164.65 182.781L164.886 188.234H169.461L169.226 182.781H164.65Z" fill="#1B1C1E"/>
<path opacity="0.2" d="M197.448 176.161L193.234 177.612L195.491 182.753L199.706 181.302L197.448 176.161Z" fill="#1B1C1E"/>
<path d="M166.924 23.9382C167.932 28.357 168.743 30.8922 167.204 33.7943C164.891 38.1146 158.94 37.6984 156.633 33.6684C154.556 30.038 153.252 23.4235 157 20.4447C157.821 19.7857 158.797 19.347 159.836 19.1701C160.874 18.9931 161.941 19.0838 162.934 19.4336C163.928 19.7833 164.816 20.3806 165.514 21.1688C166.212 21.9571 166.697 22.9103 166.924 23.9382V23.9382Z" fill="#FFC3BD"/>
<path d="M158.041 28.2695L156.359 29.2989L156.518 23.5495C155.433 23.5961 154.363 23.2864 153.471 22.6679C154.079 22.0875 163.548 18.7748 166.502 19.3497C166.809 19.2238 167.182 18.6543 167.182 18.6543C167.182 18.6543 167.297 19.3716 166.798 19.6454C167.16 19.5742 168.064 19.7494 168.316 20.2806C167.901 20.1673 167.461 20.1923 167.061 20.3517C167.061 20.3517 170.349 20.85 169.182 25.4057C167.872 30.4269 168.305 33.3126 168.305 33.3126C168.305 33.3126 165.861 35.2016 163.735 34.8512C161.466 32.3543 158.189 29.3537 158.041 28.2695Z" fill="#263238"/>
<path d="M154.819 22.2134C152.15 22.2134 151.191 20.9102 150.506 19.815C152.424 19.6124 156.419 18.3804 159.384 18.1723C162.348 17.9643 165.598 18.5173 164.617 19.815C163.636 21.1128 154.819 22.2134 154.819 22.2134Z" fill="#263238"/>
<path d="M155.405 21.0251C153.213 20.7185 151.076 18.6542 152.72 16.6775C153.328 18.1285 157.433 17.9588 160.348 17.351C164.184 16.5516 166.842 17.8438 165.483 20.4557C164.737 21.8848 155.405 21.0251 155.405 21.0251Z" fill="#263238"/>
<path d="M160.408 26.9607C160.722 28.0419 160.672 29.1961 160.266 30.2461C159.718 31.6205 158.501 31.3412 157.866 30.153C157.318 29.0579 156.901 27.0703 157.833 26.0792C158.764 25.0881 160.014 25.663 160.408 26.9607Z" fill="#FFC3BD"/>
<path d="M167.231 81.5582C167.231 81.5582 171.155 114.932 174.004 128.008C177.122 142.332 192.505 181.384 192.505 181.384L200.177 178.734C200.177 178.734 190.313 149.33 187.693 129.306C185.682 113.93 182.816 79.2529 182.816 79.2529L167.231 81.5582Z" fill="#263238"/>
<path d="M190.543 178.931C190.505 178.931 192.116 182.217 192.116 182.217L201.075 179.309L200.023 176.637L190.543 178.931Z" fill="#E03F1B"/>
<path opacity="0.3" d="M169.396 98.6804C170.623 107.956 172.196 118.94 173.577 125.955C175.61 115.206 176.087 101.632 169.396 98.6804Z" fill="#1B1C1E"/>
<path d="M158.649 82.8232C158.649 82.8232 155.394 114.177 155.909 128.107C156.424 142.595 163.198 187.178 163.198 187.178H170.941C170.941 187.178 169.516 143.438 169.845 129.213C170.223 113.7 176.043 80.2551 176.043 80.2551L158.649 82.8232Z" fill="#263238"/>
<path d="M161.691 184.095C161.658 184.095 162.129 187.303 162.129 187.303H171.549L171.807 184.44L161.691 184.095Z" fill="#E03F1B"/>
<path d="M157.148 51.4258C156.293 52.7837 155.427 54.0048 154.528 55.2587C153.629 56.5126 152.687 57.7228 151.728 58.9274C149.773 61.3712 147.655 63.6798 145.388 65.8376C144.774 66.3852 144.209 66.9328 143.546 67.431L143.064 67.8198L142.823 68.0115C142.735 68.0826 142.697 68.121 142.516 68.2524C141.973 68.6393 141.377 68.9455 140.746 69.1613C139.769 69.4947 138.747 69.6793 137.716 69.7089C136.843 69.7382 135.969 69.6997 135.102 69.5939C131.932 69.1787 128.84 68.3044 125.923 66.9985L126.871 63.7131C129.674 64.0455 132.498 64.1809 135.321 64.1183C135.945 64.0856 136.567 64.018 137.184 63.9157C137.649 63.8478 138.1 63.7074 138.521 63.4995C138.653 63.4284 138.724 63.3572 138.707 63.3408C138.691 63.3243 138.779 63.2696 138.828 63.2203L139.014 63.0505L139.381 62.7056C139.875 62.2675 140.34 61.7364 140.823 61.2545C141.771 60.2361 142.713 59.1902 143.607 58.0787C144.5 56.9671 145.404 55.8501 146.281 54.7002C147.158 53.5503 148.007 52.384 148.862 51.2177C149.717 50.0514 150.55 48.8249 151.339 47.6914L157.148 51.4258Z" fill="#FFC3BD"/>
<path d="M160.332 49.9748C162.173 55.998 151.481 62.6728 151.481 62.6728L144.533 53.8296C146.099 50.9138 148.033 48.2105 150.287 45.7859C155.016 40.6443 158.929 45.3917 160.332 49.9748Z" fill="#E03F1B"/>
<g opacity="0.3">
<path d="M160.332 49.9748C162.173 55.998 151.481 62.6728 151.481 62.6728L144.533 53.8296C146.099 50.9138 148.033 48.2105 150.287 45.7859C155.016 40.6443 158.929 45.3917 160.332 49.9748Z" fill="#FDFEFF"/>
</g>
<path d="M128.482 63.9157L122.854 62.8862L123.446 67.7486C123.446 67.7486 126.372 69.3913 128.493 66.8232L128.482 63.9157Z" fill="#FFC3BD"/>
<path d="M120.684 63.9814L121.9 67.4912L123.435 67.7486L122.843 62.8862L120.684 63.9814Z" fill="#FFC3BD"/>
</g>
</svg>
