<svg width="189" height="104" viewBox="0 0 189 104" fill="none" xmlns="http://www.w3.org/2000/svg">
<g opacity="0.1">
<path d="M3.34435 29.373C3.41122 30.1786 3.34042 30.9896 3.13497 31.7714C2.94761 32.55 2.71456 33.317 2.43704 34.0682C1.8979 35.5712 1.19354 37.0097 0.336914 38.3573C0.755671 36.8092 1.30767 35.3245 1.84697 33.8398L2.65911 31.6255C2.93962 30.8915 3.16859 30.1389 3.34435 29.373Z" fill="#1B1C1E"/>
<path d="M3.979 29.8926C4.32405 30.4888 4.58659 31.1292 4.75942 31.796C4.94202 32.4636 5.07144 33.1446 5.14645 33.8327C5.29843 35.21 5.21041 36.6032 4.88631 37.9505C4.79748 37.2589 4.75941 36.5863 4.70231 35.9074C4.64521 35.2286 4.58176 34.5687 4.51831 33.9025C4.37873 32.5764 4.20107 31.2757 3.979 29.8926Z" fill="#1B1C1E"/>
<path d="M5.48242 29.373C5.96825 29.8892 6.48981 30.3705 7.04324 30.8133C7.58205 31.2497 8.1549 31.6422 8.75634 31.9871C9.366 32.3391 10.0025 32.6424 10.6598 32.8944C11.2943 33.1672 11.9858 33.3576 12.6774 33.5923C11.9466 33.6304 11.2144 33.5534 10.5075 33.3639C9.05079 33.0074 7.72451 32.2463 6.68159 31.1686C6.17263 30.6507 5.76581 30.0416 5.48242 29.373Z" fill="#1B1C1E"/>
</g>
<g opacity="0.1">
<path d="M185.656 29.373C185.831 30.141 186.06 30.8958 186.341 31.6318L187.159 33.8144C187.699 35.2991 188.244 36.7838 188.663 38.3319C187.811 36.9797 187.107 35.5395 186.563 34.0365C186.285 33.2861 186.054 32.519 185.871 31.7397C185.665 30.9689 185.592 30.1684 185.656 29.373Z" fill="#1B1C1E"/>
<path d="M185.028 29.8926C184.806 31.2504 184.628 32.5764 184.489 33.9152C184.419 34.5814 184.355 35.2476 184.305 35.9201C184.254 36.5927 184.203 37.2716 184.114 37.9632C183.79 36.6159 183.702 35.2227 183.854 33.8454C183.929 33.1573 184.058 32.4763 184.241 31.8087C184.415 31.1371 184.68 30.4925 185.028 29.8926Z" fill="#1B1C1E"/>
<path d="M183.524 29.373C183.229 30.0449 182.812 30.656 182.293 31.175C181.265 32.2412 179.96 32.9993 178.524 33.3639C177.82 33.5535 177.09 33.6306 176.361 33.5923C177.052 33.3576 177.725 33.1672 178.372 32.8944C179.665 32.3815 180.875 31.6802 181.963 30.8133C182.517 30.3705 183.038 29.8892 183.524 29.373Z" fill="#1B1C1E"/>
</g>
<path d="M5.48253 29.3729C5.48253 29.6703 5.39434 29.961 5.22911 30.2083C5.06388 30.4556 4.82903 30.6483 4.55426 30.7621C4.27949 30.8759 3.97714 30.9057 3.68545 30.8477C3.39376 30.7897 3.12582 30.6464 2.91552 30.4361C2.70523 30.2258 2.56201 29.9579 2.50399 29.6662C2.44597 29.3745 2.47575 29.0722 2.58956 28.7974C2.70337 28.5226 2.89611 28.2878 3.1434 28.1226C3.39068 27.9573 3.68141 27.8691 3.97881 27.8691C4.37762 27.8691 4.7601 28.0276 5.0421 28.3096C5.3241 28.5916 5.48253 28.974 5.48253 29.3729Z" fill="#131622"/>
<path d="M186.005 29.3729C186.005 29.6703 185.917 29.961 185.752 30.2083C185.586 30.4556 185.351 30.6483 185.077 30.7621C184.802 30.8759 184.5 30.9057 184.208 30.8477C183.916 30.7897 183.648 30.6464 183.438 30.4361C183.228 30.2258 183.084 29.9579 183.026 29.6662C182.968 29.3745 182.998 29.0722 183.112 28.7974C183.226 28.5226 183.419 28.2878 183.666 28.1226C183.913 27.9573 184.204 27.8691 184.501 27.8691C184.9 27.8691 185.283 28.0276 185.565 28.3096C185.847 28.5916 186.005 28.974 186.005 29.3729Z" fill="#131622"/>
<path d="M94.7273 103.343C123.052 103.343 146.014 80.3814 146.014 52.0565C146.014 23.7315 123.052 0.769531 94.7273 0.769531C66.4024 0.769531 43.4404 23.7315 43.4404 52.0565C43.4404 80.3814 66.4024 103.343 94.7273 103.343Z" fill="#3FB55D"/>
<path d="M65.5493 61.2613C68.5857 63.9182 71.3375 66.7886 74.113 69.6352C76.8884 72.4819 79.4741 75.4471 82.0598 78.4598H77.5052C84.266 68.2593 91.5249 58.4384 99.1634 48.9259C102.983 44.1815 106.968 39.4371 111.024 34.9537C115.081 30.4702 119.327 25.9393 123.882 21.7168C121.082 27.2677 117.951 32.534 114.701 37.7291C111.451 42.9242 108.035 48.0007 104.501 52.9586C97.3842 62.9219 90.0067 72.6004 82.0361 81.8757L79.4504 84.8647L77.4815 81.8757C75.3149 78.5705 73.2194 75.2099 71.1952 71.7939C69.25 68.3305 67.2573 64.8908 65.5493 61.2613Z" fill="#FDFEFF"/>
</svg>
