<svg width="25" height="25" viewBox="0 0 25 25" fill="none" xmlns="http://www.w3.org/2000/svg">
<path d="M17.7427 6.75179L17.7441 6.75276C19.8631 8.21908 21.2258 10.527 21.5011 13.0721C21.5132 13.2059 21.4258 13.3249 21.2916 13.3516H21.2915H21.2914H21.2912H21.2911H21.291H21.2908H21.2907H21.2906H21.2904H21.2903H21.2902H21.29H21.2899H21.2897H21.2896H21.2895H21.2893H21.2892H21.2891H21.2889H21.2888H21.2887H21.2885H21.2884H21.2882H21.2881H21.288H21.2878H21.2877H21.2876H21.2874H21.2873H21.2871H21.287H21.2869H21.2867H21.2866H21.2865H21.2863H21.2862H21.2861H21.2859H21.2858H21.2857H21.2855H21.2854H21.2852H21.2851H21.285H21.2848H21.2847H21.2846H21.2844H21.2843H21.2842H21.284H21.2839H21.2838H21.2836H21.2835H21.2834H21.2832H21.2831H21.2829H21.2828H21.2827H21.2825H21.2824H21.2823H21.2821H21.282H21.2819H21.2817H21.2816H21.2815H21.2813H21.2812H21.2811H21.2809H21.2808H21.2807H21.2805H21.2804H21.2803H21.2801H21.28H21.2799H21.2797H21.2796H21.2795H21.2794H21.2792H21.2791H21.279H21.2788H21.2787H21.2786H21.2784H21.2783H21.2782H21.278H21.2779H21.2778H21.2776H21.2775H21.2774H21.2773H21.2771H21.277H21.2769H21.2767H21.2766H21.2765H21.2764H21.2762H21.2761H21.276H21.2758H21.2757H21.2756H21.2755H21.2753H21.2752H21.2751H21.2749H21.2748H21.2747H21.2746H21.2744H21.2743H21.2742H21.2741H21.2739H21.2738H21.2737H21.2736H21.2734H21.2733H21.2732H21.2731H21.2729H21.2728H21.2727H21.2726H21.2724H21.2723H21.2722H21.2721H21.2719H21.2718H21.2717H21.2716H21.2714H21.2713H21.2712H21.2711H21.271H21.2708H21.2707H21.2706H21.2705H21.2704H21.2702H21.2701H21.27H21.2699H21.2698H21.2696H21.2695H21.2694H21.2693H21.2692H21.269H21.2689H21.2688H21.2687H21.2686C21.1507 13.3516 21.0354 13.2596 21.0149 13.121C20.7576 10.7195 19.4609 8.543 17.4655 7.16209C17.3525 7.08121 17.3249 6.93139 17.3999 6.81592C17.4839 6.70163 17.6419 6.68156 17.7427 6.75179Z" fill="#239ED9" stroke="#239ED9"/>
<path d="M4.38149 13.1809L4.38137 13.1809L4.38047 13.1922C4.37205 13.2989 4.27153 13.4015 4.13892 13.4015H4.13875H4.13857H4.1384H4.13822H4.13805H4.13787H4.1377H4.13752H4.13735H4.13718H4.137H4.13683H4.13666H4.13648H4.13631H4.13614H4.13597H4.1358H4.13562H4.13545H4.13528H4.13511H4.13494H4.13477H4.1346H4.13443H4.13426H4.13409H4.13392H4.13375H4.13358H4.13341H4.13324H4.13307H4.1329H4.13274H4.13257H4.1324H4.13223H4.13207H4.1319H4.13173H4.13156H4.1314H4.13123H4.13106H4.1309H4.13073H4.13057H4.1304H4.13024H4.13007H4.12991H4.12974H4.12958H4.12941H4.12925H4.12908H4.12892H4.12876H4.12859H4.12843H4.12827H4.1281H4.12794H4.12778H4.12761H4.12745H4.12729H4.12713H4.12697H4.1268H4.12664H4.12648H4.12632H4.12616H4.126H4.12584H4.12568H4.12552H4.12536H4.1252H4.12504H4.12488H4.12472H4.12456H4.1244H4.12424H4.12408H4.12392H4.12376H4.1236H4.12345H4.12329H4.12313H4.12297H4.12281H4.12266H4.1225H4.12234H4.12218H4.12203H4.12187H4.12171H4.12156H4.1214H4.12124H4.12109H4.12093H4.12077H4.12062H4.12046H4.12031H4.12015H4.12H4.11984H4.11968H4.11953H4.11937H4.11922H4.11907H4.11891H4.11876H4.1186H4.11845H4.11829H4.11814H4.11799H4.11783H4.11768H4.11752H4.11737H4.11722H4.11706H4.11691H4.11676H4.11661H4.11645H4.1163H4.11615H4.116H4.11584H4.11569H4.11554H4.11539H4.11523H4.11508H4.11493H4.11478H4.11463H4.11448H4.11433H4.11417H4.11402H4.11387H4.11372H4.11357H4.11342H4.11327H4.11312H4.11297H4.11282H4.11267H4.11252H4.11237H4.11222H4.11207H4.11192H4.11177H4.11162H4.11147H4.11132H4.11117H4.11102H4.11087H4.11072H4.11057H4.11042H4.11027H4.11012H4.10997H4.10982H4.10967H4.10953H4.10938H4.10923H4.10908H4.10893H4.10878H4.10863H4.10849H4.10834H4.10819H4.10804H4.10789H4.10774H4.1076H4.10745H4.1073H4.10715H4.107H4.10686H4.10671H4.10656H4.10641H4.10627H4.10612H4.10597H4.10582H4.10568H4.10553H4.10538H4.10523H4.10509H4.10494H4.10479H4.10464H4.1045H4.10435H4.1042H4.10406H4.10391H4.10376H4.10362H4.10347H4.10332H4.10317H4.10303H4.10288H4.10273H4.10259H4.10244H4.10229H4.10215H4.102H4.10185H4.10171H4.10156H4.10141H4.10127H4.10112H4.10097H4.10083H4.10068H4.10053H4.10039H4.10024H4.1001H4.09995H4.0998H4.09966H4.09951H4.09936H4.09922H4.09907H4.09892H4.09878H4.09863H4.09848H4.09834H4.09819H4.09804H4.0979H4.09775H4.0976H4.09746H4.09731H4.09719C3.96526 13.3739 3.87419 13.2497 3.88651 13.1206C4.14205 10.5772 5.49423 8.27722 7.58774 6.78966C7.70312 6.7086 7.86051 6.73662 7.94044 6.84985C8.02191 6.96527 7.99396 7.12299 7.88058 7.20302L8.16892 7.61151L7.88101 7.20272C5.90278 8.59599 4.62618 10.7766 4.38149 13.1809Z" fill="#239ED9" stroke="#239ED9"/>
<path d="M16.7689 22.4612L16.551 22.0112C15.3393 22.5981 14.0539 22.8912 12.7089 22.8912C11.3092 22.8912 9.9766 22.5705 8.72552 21.9455C8.59698 21.8783 8.55299 21.7279 8.61371 21.6096C8.68044 21.4797 8.83172 21.435 8.95053 21.496L8.95367 21.4976C11.253 22.6579 14.0164 22.6789 16.3359 21.5617L16.3377 21.5608C16.4546 21.5039 16.6078 21.5535 16.6693 21.6799C16.7262 21.7969 16.6766 21.9501 16.5502 22.0116L16.7689 22.4612ZM16.7689 22.4612C15.4889 23.0812 14.1289 23.3912 12.7089 23.3912C11.2289 23.3912 9.81893 23.0512 8.49893 22.3912L9.17893 21.0512C11.3389 22.1412 13.9389 22.1612 16.1189 21.1112C16.4889 20.9312 16.9389 21.0912 17.1189 21.4612C17.2989 21.8312 17.1389 22.2812 16.7689 22.4612Z" fill="#239ED9" stroke="#239ED9"/>
<path d="M12.7092 8.72113C11.0353 8.72113 9.6792 7.36499 9.6792 5.69113C9.6792 4.01728 11.0353 2.66113 12.7092 2.66113C14.3831 2.66113 15.7392 4.01727 15.7392 5.69113C15.7392 7.36407 14.374 8.72113 12.7092 8.72113ZM12.7092 3.17113C11.3131 3.17113 10.1792 4.30499 10.1792 5.70113C10.1792 7.09728 11.3131 8.23113 12.7092 8.23113C14.1053 8.23113 15.2392 7.09728 15.2392 5.70113C15.2392 4.30339 14.0937 3.17113 12.7092 3.17113Z" fill="#239ED9" stroke="#239ED9"/>
<path d="M5.47893 20.9516C3.80507 20.9516 2.44893 19.5955 2.44893 17.9216C2.44893 16.2568 3.80599 14.8916 5.47893 14.8916C7.15279 14.8916 8.50893 16.2477 8.50893 17.9216C8.50893 19.5864 7.15187 20.9516 5.47893 20.9516ZM5.47893 15.3916C4.08279 15.3916 2.94893 16.5255 2.94893 17.9216C2.94893 19.3177 4.08279 20.4516 5.47893 20.4516C6.87507 20.4516 8.00893 19.3177 8.00893 17.9216C8.00893 16.5255 6.87507 15.3916 5.47893 15.3916Z" fill="#239ED9" stroke="#239ED9"/>
<path d="M22.3486 17.9216L22.3486 17.9171C22.3362 16.5286 21.2187 15.3916 19.8186 15.3916C18.4224 15.3916 17.2886 16.5255 17.2886 17.9216C17.2886 19.3177 18.4224 20.4516 19.8186 20.4516C21.2147 20.4516 22.3486 19.3177 22.3486 17.9216ZM19.8186 20.9516C18.1447 20.9516 16.7886 19.5955 16.7886 17.9216C16.7886 16.2568 18.1456 14.8916 19.8186 14.8916C21.492 14.8916 22.8479 16.2471 22.8486 17.9203C22.8393 19.5879 21.4797 20.9516 19.8186 20.9516Z" fill="#239ED9" stroke="#239ED9"/>
</svg>
