<svg width="25" height="24" viewBox="0 0 25 24" fill="none" xmlns="http://www.w3.org/2000/svg">
<path d="M17.6489 21.25H7.64893C3.99893 21.25 1.89893 19.15 1.89893 15.5V8.5C1.89893 4.85 3.99893 2.75 7.64893 2.75H17.6489C21.2989 2.75 23.3989 4.85 23.3989 8.5V15.5C23.3989 19.15 21.2989 21.25 17.6489 21.25ZM7.64893 4.25C4.78893 4.25 3.39893 5.64 3.39893 8.5V15.5C3.39893 18.36 4.78893 19.75 7.64893 19.75H17.6489C20.5089 19.75 21.8989 18.36 21.8989 15.5V8.5C21.8989 5.64 20.5089 4.25 17.6489 4.25H7.64893Z" fill="#239ED9"/>
<path d="M12.6487 12.87C11.8087 12.87 10.9587 12.61 10.3087 12.08L7.1787 9.57997C6.8587 9.31997 6.79871 8.84997 7.05871 8.52997C7.31871 8.20997 7.78871 8.14997 8.10871 8.40997L11.2387 10.91C11.9987 11.52 13.2887 11.52 14.0487 10.91L17.1787 8.40997C17.4987 8.14997 17.9787 8.19997 18.2287 8.52997C18.4887 8.84997 18.4387 9.32997 18.1087 9.57997L14.9787 12.08C14.3387 12.61 13.4887 12.87 12.6487 12.87Z" fill="#239ED9"/>
</svg>
