<svg width="135" height="108" viewBox="0 0 135 108" fill="none" xmlns="http://www.w3.org/2000/svg">
<path d="M131.791 107.919C131.791 107.963 102.287 108 65.9014 108C29.516 108 0.00561523 107.966 0.00561523 107.919C0.00561523 107.873 29.5035 107.839 65.9014 107.839C102.299 107.839 131.791 107.876 131.791 107.919Z" fill="#263238"/>
<path d="M127.665 55.1432L117.234 65.1949L107.622 83.346L96.8142 103.872L83.5347 97.7035L69.18 90.4307L78.3613 73.0722L84.0676 53.6411C80.0348 56.2875 72.5365 59.893 63.5921 58.0116C53.8872 55.9759 58.5464 19.7662 58.5464 19.7662L69.2112 19.4948L70.2832 45.0236L82.3286 39.7556L82.3473 39.7988C83.0734 39.4903 83.7092 39.1819 84.0458 39.0123C90.712 35.4129 95.0876 34.978 102.24 37.5041L112.559 40.8968C115.211 42.1305 124.988 46.8958 127.665 55.1432Z" fill="#4CAFE3"/>
<path d="M91.164 36.7455C91.164 36.7455 90.924 36.8813 90.5189 37.1681C89.9508 37.5769 89.4468 38.0664 89.023 38.6208C88.4006 39.448 87.9049 40.3615 87.552 41.3319C87.1225 42.5246 86.7553 43.7383 86.4518 44.9683L84.6193 51.6396C84.3793 52.4755 84.1861 53.1602 84.0428 53.6537C83.9773 53.8788 83.9212 54.0608 83.8807 54.1996C83.8655 54.2648 83.8425 54.328 83.8121 54.3878C83.8162 54.3217 83.8288 54.2564 83.8495 54.1934C83.8838 54.0485 83.9274 53.8665 83.9835 53.6383C84.1113 53.1386 84.2952 52.4508 84.5071 51.6088C84.9684 49.8816 85.5979 47.5283 86.296 44.9251C86.6015 43.6909 86.9739 42.474 87.4117 41.2795C87.7762 40.2996 88.289 39.3803 88.9326 38.5529C89.3717 37.9951 89.8977 37.5099 90.4908 37.1157C90.6506 37.0086 90.8172 36.9118 90.9895 36.8257C91.0457 36.7949 91.104 36.7681 91.164 36.7455Z" fill="#263238"/>
<g opacity="0.3">
<path d="M87.2712 41.8622C84.2887 49.8537 78.9252 54.3197 71.3302 58.3232C75.8142 57.8316 80.1115 56.274 83.8555 53.7831" fill="black"/>
</g>
<g opacity="0.3">
<path d="M96.7737 36.1749C98.0369 56.1982 99.3001 76.2204 100.563 96.2417L96.8235 103.872L96.7737 36.1749Z" fill="black"/>
</g>
<path d="M108.517 56.9474C108.473 56.9659 108.093 56.0221 107.56 54.884C107.027 53.7459 106.553 52.8422 106.594 52.8206C106.741 52.9905 106.865 53.1781 106.965 53.3789C107.174 53.7367 107.442 54.2425 107.706 54.8162C107.971 55.3898 108.19 55.9173 108.33 56.3059C108.421 56.5103 108.484 56.7261 108.517 56.9474Z" fill="#FAFAFA"/>
<path d="M117.006 52.7253C116.363 53.2199 115.686 53.6693 114.98 54.0701C114.304 54.5193 113.598 54.9232 112.867 55.2791C113.514 54.7884 114.191 54.3392 114.896 53.9344C115.572 53.4857 116.277 53.0818 117.006 52.7253Z" fill="#FAFAFA"/>
<path d="M113.322 49.6842C113.214 49.1447 113.158 48.5963 113.154 48.0464C113.102 47.4976 113.102 46.9451 113.154 46.3963C113.266 46.9362 113.322 47.486 113.322 48.0372C113.376 48.5848 113.376 49.1365 113.322 49.6842Z" fill="#FAFAFA"/>
<path d="M121.796 49.0982C120.751 48.5848 119.755 47.9767 118.823 47.2815C119.358 47.5141 119.87 47.7949 120.353 48.1205C120.864 48.401 121.347 48.7284 121.796 49.0982Z" fill="#FAFAFA"/>
<path d="M108.841 65.7349C109.071 65.005 109.352 64.2918 109.682 63.6005C109.965 62.8891 110.296 62.1977 110.673 61.5309C110.444 62.2612 110.163 62.9744 109.832 63.6653C109.55 64.377 109.219 65.0685 108.841 65.7349Z" fill="#FAFAFA"/>
<path d="M105.067 69.5161C104.767 69.1014 104.513 68.6569 104.306 68.1899C104.051 67.7456 103.842 67.2763 103.683 66.7896C103.983 67.2046 104.239 67.649 104.447 68.1158C104.703 68.5595 104.911 69.0289 105.067 69.5161Z" fill="#FAFAFA"/>
<path d="M108.224 74.6081C107.715 74.8261 107.174 74.9624 106.622 75.0122C106.078 75.1163 105.52 75.133 104.97 75.0615C104.97 75.0153 105.703 74.9813 106.6 74.8549C107.498 74.7284 108.212 74.5588 108.224 74.6081Z" fill="#FAFAFA"/>
<path d="M112.272 69.0381C112.407 68.5228 112.593 68.0218 112.827 67.5422C113.011 67.0419 113.246 66.5614 113.528 66.108C113.395 66.6235 113.21 67.1246 112.976 67.6039C112.793 68.1053 112.557 68.586 112.272 69.0381Z" fill="#FAFAFA"/>
<path d="M102.427 80.8015C102.387 80.8262 101.929 80.2001 101.299 79.4814C100.67 78.7628 100.109 78.223 100.143 78.1891C101.079 78.8942 101.857 79.7838 102.427 80.8015Z" fill="#FAFAFA"/>
<path d="M100.641 68.1529C100.421 68.6915 100.148 69.2079 99.8279 69.695C99.5555 70.2127 99.2352 70.7041 98.8711 71.1632C99.0962 70.626 99.3695 70.1099 99.6876 69.621C99.9593 69.1037 100.279 68.6123 100.641 68.1529Z" fill="#FAFAFA"/>
<path d="M101.913 63.8131C101.322 63.7426 100.74 63.6208 100.171 63.4491C99.5888 63.3278 99.0193 63.1544 98.4691 62.931C99.0598 62.9997 99.6429 63.1215 100.211 63.2949C100.793 63.4151 101.363 63.5886 101.913 63.8131Z" fill="#FAFAFA"/>
<path d="M101.838 54.8687C102.181 55.2647 102.493 55.6853 102.773 56.127C103.094 56.5368 103.384 56.9699 103.639 57.4225C103.256 57.0647 102.92 56.6593 102.642 56.2165C102.315 55.8046 102.044 55.3513 101.838 54.8687Z" fill="#FAFAFA"/>
<path d="M98.9552 54.4214C98.2749 55.1506 97.5162 55.8043 96.6926 56.3707C97.0126 55.9872 97.3742 55.6397 97.771 55.3344C98.1319 54.9894 98.5289 54.6834 98.9552 54.4214Z" fill="#FAFAFA"/>
<path d="M101.233 49.7426C100.181 48.9212 99.3038 47.9012 98.653 46.7416C98.6935 46.7169 99.2046 47.4386 99.9183 48.2652C100.632 49.0918 101.268 49.7087 101.233 49.7426Z" fill="#FAFAFA"/>
<path d="M109.206 48.3024C108.642 48.5584 108.057 48.7648 107.457 48.9192C106.874 49.124 106.273 49.2768 105.662 49.3757C106.226 49.1221 106.811 48.9157 107.41 48.7588C107.994 48.5547 108.595 48.4019 109.206 48.3024Z" fill="#FAFAFA"/>
<path d="M97.9823 40.7889C97.9356 40.7889 97.9574 40.0826 97.8454 39.2252C97.7334 38.3678 97.5343 37.683 97.5903 37.683C98.0125 38.6646 98.1483 39.7439 97.9823 40.7982V40.7889Z" fill="#FAFAFA"/>
<path d="M90.89 63.1531C90.6602 63.3504 90.4154 63.5299 90.1576 63.6898C89.6964 63.9982 89.0668 64.4578 88.3937 64.9821C87.7205 65.5065 87.1284 66.003 86.7045 66.367C86.4852 66.5768 86.2509 66.7706 86.0033 66.9468C86.1867 66.7045 86.3956 66.4822 86.6266 66.2837C87.157 65.7794 87.7135 65.3027 88.2939 64.8557C88.8717 64.4058 89.4719 63.9847 90.0922 63.5942C90.3435 63.4226 90.6106 63.2749 90.89 63.1531Z" fill="#FAFAFA"/>
<path d="M90.4814 60.6796C90.4409 60.7011 89.9173 59.8961 89.1911 58.9554C88.465 58.0147 87.823 57.2992 87.8573 57.2652C88.0346 57.3845 88.1931 57.5289 88.3279 57.694C88.6789 58.0647 89.0107 58.4528 89.322 58.8567C89.6835 59.3317 89.9858 59.782 90.1884 60.1151C90.3122 60.2888 90.4108 60.4788 90.4814 60.6796Z" fill="#FAFAFA"/>
<path d="M92.3795 50.9301C91.4158 51.5787 90.3934 52.1373 89.3253 52.5987C89.7929 52.253 90.2915 51.9505 90.815 51.695C91.311 51.3919 91.8349 51.1358 92.3795 50.9301Z" fill="#FAFAFA"/>
<path d="M90.5001 46.6738C90.3038 46.5601 90.1245 46.42 89.9672 46.2574C89.5634 45.8926 89.1874 45.4988 88.8421 45.0792C88.4935 44.6604 88.1758 44.2171 87.8916 43.753C87.7602 43.5688 87.6553 43.3674 87.58 43.1546C87.6236 43.1299 88.1565 44.0059 88.9637 44.9774C89.7709 45.949 90.5407 46.6368 90.5001 46.6738Z" fill="#FAFAFA"/>
<path d="M93.7351 46.5843C93.877 46.116 94.0692 45.6641 94.3085 45.2364C94.501 44.7852 94.7424 44.356 95.0285 43.9565C94.8882 44.4253 94.6959 44.8774 94.455 45.3043C94.264 45.7562 94.0226 46.1855 93.7351 46.5843Z" fill="#FAFAFA"/>
<path d="M92.8718 41.7143C92.8219 41.7143 92.8718 40.7551 92.691 39.5985C92.5103 38.4419 92.1643 37.5474 92.2111 37.5289C92.3287 37.7055 92.4181 37.899 92.476 38.1026C92.6481 38.5802 92.7743 39.0728 92.8531 39.5738C92.9306 40.0748 92.963 40.5816 92.9497 41.0882C92.9579 41.2997 92.9316 41.5111 92.8718 41.7143Z" fill="#FAFAFA"/>
<path d="M93.6569 66.2805C93.6361 65.9796 93.6361 65.6777 93.6569 65.3768C93.6787 64.8216 93.6942 64.0536 93.6724 63.2178C93.6507 62.3819 93.5947 61.6047 93.548 61.0588C93.5057 60.7605 93.487 60.4593 93.492 60.1581C93.5782 60.448 93.6355 60.7455 93.6631 61.0464C93.76 61.7686 93.8171 62.4956 93.8342 63.2239C93.8539 63.9514 93.8331 64.6794 93.772 65.4045C93.7644 65.6997 93.7259 65.9933 93.6569 66.2805Z" fill="#FAFAFA"/>
<path d="M93.1959 73.9574C92.7606 73.5609 92.2994 73.193 91.8153 72.8563C91.304 72.5637 90.7741 72.3041 90.229 72.0791C90.8264 72.1794 91.3973 72.3973 91.908 72.72C92.4187 73.0426 92.8588 73.4634 93.2022 73.9574H93.1959Z" fill="#FAFAFA"/>
<path d="M97.0854 78.7073C96.3992 79.1498 95.6839 79.5465 94.9444 79.8948C94.2305 80.2917 93.4902 80.64 92.7285 80.9373C93.4158 80.4974 94.1309 80.1018 94.8696 79.7529C95.5838 79.3559 96.3241 79.0066 97.0854 78.7073Z" fill="#FAFAFA"/>
<path d="M86.1215 80.8139C85.5529 80.1874 85.0261 79.5249 84.5446 78.8307C84.0185 78.1677 83.5355 77.4724 83.0985 76.7487C83.6658 77.3774 84.1925 78.0408 84.6755 78.735C85.2003 79.3978 85.6832 80.0921 86.1215 80.8139Z" fill="#FAFAFA"/>
<path d="M82.7492 72.0423C82.6955 71.8359 82.6714 71.623 82.6777 71.41C82.6621 71.0183 82.6559 70.4847 82.6777 69.8678C82.6994 69.251 82.7617 68.7297 82.8146 68.3257C82.8294 68.1154 82.8723 67.908 82.9421 67.7088C82.9888 67.7088 82.8954 68.6773 82.8395 69.8678C82.7835 71.0584 82.7803 72.0423 82.7492 72.0423Z" fill="#FAFAFA"/>
<path d="M79.0781 87.0166C78.4397 86.5939 77.8316 86.1281 77.2581 85.6225C76.6505 85.157 76.0767 84.6499 75.5409 84.105C76.1796 84.5273 76.7877 84.9931 77.3609 85.4991C77.9686 85.9645 78.5424 86.4716 79.0781 87.0166Z" fill="#FAFAFA"/>
<path d="M81.271 86.5569C81.1709 85.7548 81.1243 84.947 81.1316 84.1388C81.0868 83.3321 81.0951 82.5233 81.1564 81.7177C81.2565 82.5197 81.303 83.3275 81.2958 84.1358C81.3405 84.9425 81.3323 85.7513 81.271 86.5569Z" fill="#FAFAFA"/>
<path d="M85.6041 95.8438C85.6041 95.8684 85.2145 95.7173 84.5881 95.5168C82.9567 94.9972 81.2455 94.7665 79.5331 94.8352C78.8755 94.8599 78.4704 94.9061 78.4673 94.8784C78.5571 94.8435 78.6516 94.8217 78.7478 94.8136C78.9285 94.7797 79.1965 94.7488 79.5269 94.7211C81.2547 94.5918 82.9904 94.8273 84.6193 95.412C84.8672 95.5007 85.1097 95.6037 85.3454 95.7204C85.4376 95.7481 85.5248 95.7897 85.6041 95.8438Z" fill="#FAFAFA"/>
<path d="M89.1725 97.5402C89.4257 97.6711 89.6622 97.8316 89.8768 98.0182C90.955 98.8632 91.9308 99.8288 92.7845 100.896C92.9731 101.108 93.1353 101.342 93.2676 101.593C93.0615 101.401 92.8698 101.195 92.6942 100.976C92.3513 100.584 91.8652 100.051 91.3011 99.4925C90.737 98.9343 90.1978 98.4562 89.802 98.1138C89.5782 97.9383 89.3677 97.7465 89.1725 97.5402Z" fill="#FAFAFA"/>
<path d="M90.7278 81.4711C90.4114 80.8936 90.1415 80.2924 89.9207 79.6729C89.6516 79.0745 89.4317 78.4557 89.2631 77.8223C89.5795 78.3998 89.8494 79.001 90.0702 79.6205C90.3393 80.2188 90.5592 80.8377 90.7278 81.4711Z" fill="#FAFAFA"/>
<path d="M78.2085 50.2115C78.0758 50.4053 77.9152 50.5788 77.7317 50.7266C77.3161 51.109 76.87 51.4576 76.3978 51.7691C75.9249 52.0827 75.4267 52.3571 74.9081 52.5895C74.6993 52.6994 74.4758 52.7794 74.2443 52.827C74.2256 52.7807 75.2135 52.3612 76.3074 51.6364C77.4013 50.9116 78.1742 50.1745 78.2085 50.2115Z" fill="#FAFAFA"/>
<path d="M79.0093 46.9421C78.9452 46.0252 78.9889 45.1039 79.1395 44.1971C79.2036 45.114 79.1599 46.0353 79.0093 46.9421Z" fill="#FAFAFA"/>
<path d="M72.7919 49.6872C72.2336 49.5228 71.6921 49.3069 71.1745 49.0425C70.6315 48.8263 70.1099 48.561 69.6162 48.2499C70.1739 48.4159 70.7153 48.6317 71.2337 48.8945C71.7766 49.1107 72.2983 49.3761 72.7919 49.6872Z" fill="#FAFAFA"/>
<path d="M83.8835 45.5049C83.8474 44.936 83.8651 44.365 83.9364 43.7993C83.9512 43.2294 84.0221 42.6623 84.148 42.106C84.1842 42.6749 84.1676 43.2458 84.0982 43.8116C84.0808 44.3815 84.009 44.9485 83.8835 45.5049Z" fill="#FAFAFA"/>
<path d="M69.4886 56.2258C68.8574 56.0682 68.257 55.8076 67.7122 55.4548C67.1392 55.1471 66.6237 54.7444 66.1882 54.2642C66.2194 54.2272 66.8832 54.7793 67.7932 55.319C68.7033 55.8588 69.5073 56.1796 69.4886 56.2258Z" fill="#FAFAFA"/>
<path d="M64.8667 49.9494C64.4653 50.4969 64.0214 51.0125 63.5391 51.4916C63.0953 52.0108 62.6119 52.4954 62.093 52.9412C62.9369 51.8687 63.8643 50.8633 64.8667 49.934V49.9494Z" fill="#FAFAFA"/>
<path d="M64.4711 44.3264C63.9401 44.1488 63.4467 43.8759 63.0156 43.5214C62.5539 43.2096 62.1518 42.819 61.8282 42.3679C61.8625 42.334 62.3861 42.8552 63.1154 43.3919C63.8446 43.9286 64.4929 44.2863 64.4711 44.3264Z" fill="#FAFAFA"/>
<path d="M61.557 45.5047C61.3805 45.8349 61.157 46.1382 60.8932 46.4053C60.6693 46.7067 60.4039 46.9756 60.1047 47.2042C60.5041 46.5718 60.9932 45.9994 61.557 45.5047Z" fill="#FAFAFA"/>
<path d="M67.7902 35.0675C67.4273 35.6311 67.0199 36.1653 66.5716 36.6651C66.1662 37.2004 65.7169 37.7018 65.2284 38.1641C65.5916 37.5998 65.999 37.0645 66.447 36.5634C66.8539 36.0303 67.3031 35.5301 67.7902 35.0675Z" fill="#FAFAFA"/>
<path d="M62.4516 36.2548C61.971 35.8327 61.527 35.3715 61.124 34.8762C60.6822 34.4166 60.2798 33.9214 59.921 33.3957C60.4021 33.8162 60.8463 34.2764 61.2487 34.7713C61.6907 35.2318 62.0931 35.728 62.4516 36.2548Z" fill="#FAFAFA"/>
<path d="M65.1257 29.5559C64.7682 29.0988 64.4551 28.6093 64.1907 28.094C63.8819 27.6042 63.618 27.0881 63.4022 26.5518C63.7592 27.0103 64.0722 27.5008 64.3372 28.0169C64.6463 28.5054 64.9101 29.0205 65.1257 29.5559Z" fill="#FAFAFA"/>
<path d="M64.9854 25.2348C64.948 25.2039 65.4155 24.6179 65.7863 23.7883C66.1572 22.9586 66.2912 22.2276 66.3411 22.2461C66.2635 23.3731 65.7829 24.4359 64.9854 25.244V25.2348Z" fill="#FAFAFA"/>
<path d="M59.8459 24.9787C59.7975 24.3267 59.9301 23.674 60.2293 23.0911C60.4227 22.6728 60.6791 22.286 60.9897 21.9438C61.1086 21.793 61.2557 21.6664 61.4229 21.5706C61.0183 22.061 60.6673 22.5924 60.3757 23.1559C60.1336 23.7429 59.9559 24.3541 59.8459 24.9787Z" fill="#FAFAFA"/>
<path d="M104.78 17.6413C104.637 16.3628 104.621 15.0735 104.733 13.792C104.849 12.5028 105.348 11.2763 106.167 10.2667C107.018 9.29204 108.326 8.66593 109.614 8.8294C110.411 8.93118 111.172 9.3198 111.967 9.29821C112.902 9.27045 113.702 8.70294 114.547 8.32357C115.879 7.7254 117.37 7.57065 118.798 7.88252C119.551 8.02291 120.248 8.37155 120.808 8.888C121.084 9.14859 121.289 9.4744 121.403 9.83482C121.517 10.1952 121.536 10.5784 121.459 10.9483C122.401 10.9074 123.344 10.9893 124.264 11.192C125.186 11.3974 125.99 11.9508 126.505 12.7341C126.97 13.5391 126.938 14.6587 126.271 15.3095C126.71 15.2513 127.156 15.3558 127.522 15.6029C127.888 15.85 128.148 16.2223 128.254 16.6481C128.336 17.0791 128.292 17.5245 128.126 17.9313C127.961 18.3381 127.68 18.6892 127.319 18.9428C126.447 19.4709 125.415 19.6763 124.405 19.5227C123.538 19.3592 122.535 19.1186 121.84 18.5974" fill="#263238"/>
<path d="M104.104 46.6954C105.823 47.1324 107.647 46.879 109.179 45.9904C110.71 45.1018 111.824 43.6501 112.278 41.9517C112.805 39.9747 113.235 38.3184 113.235 38.3184C113.235 38.3184 118.443 39.2036 120.166 34.3088C121.89 29.4141 124.841 17.8973 124.841 17.8973C122.433 15.7659 119.493 14.3092 116.326 13.6776C113.159 13.0459 109.879 13.2622 106.824 14.3041L105.89 14.6125L99.2731 38.4634C99.0336 39.3179 98.969 40.2113 99.0831 41.0909C99.1973 41.9705 99.4879 42.8186 99.9379 43.5855C100.388 44.3524 100.988 45.0225 101.704 45.5566C102.419 46.0906 103.235 46.4778 104.104 46.6954Z" fill="#B55B52"/>
<path d="M113.266 38.2507C110.967 37.5338 108.935 36.1563 107.429 34.2936C107.429 34.2936 107.759 38.3248 112.849 39.5369L113.266 38.2507Z" fill="#B55B52"/>
<path d="M104.796 19.9112C104.724 19.8464 101.732 17.7861 100.707 21.1727C99.6816 24.5592 103.325 24.8738 103.359 24.7844C103.393 24.6949 104.796 19.9112 104.796 19.9112Z" fill="#B55B52"/>
<path d="M102.695 23.1898C102.695 23.1898 102.624 23.2145 102.508 23.2299C102.352 23.2428 102.196 23.1965 102.072 23.1004C101.76 22.8629 101.62 22.2029 101.788 21.5891C101.867 21.296 102.01 21.024 102.209 20.7933C102.275 20.6994 102.362 20.6223 102.464 20.5687C102.566 20.515 102.68 20.4863 102.795 20.4849C102.871 20.4842 102.944 20.5107 103.001 20.5595C103.059 20.6083 103.096 20.6761 103.107 20.7502C103.125 20.8581 103.082 20.9198 103.107 20.9321C103.132 20.9445 103.197 20.8951 103.21 20.7471C103.216 20.6585 103.192 20.5703 103.141 20.4972C103.104 20.4472 103.058 20.4051 103.004 20.3733C102.951 20.3415 102.891 20.3207 102.829 20.3122C102.68 20.2974 102.53 20.3208 102.393 20.3802C102.256 20.4397 102.137 20.5331 102.047 20.6515C101.812 20.9008 101.643 21.2038 101.555 21.5336C101.368 22.2214 101.527 22.9647 101.979 23.2546C102.063 23.308 102.158 23.3421 102.257 23.3544C102.356 23.3667 102.457 23.3568 102.552 23.3256C102.674 23.27 102.714 23.2022 102.695 23.1898Z" fill="#B55B52"/>
<path d="M120.649 24.9664C120.589 25.1519 120.456 25.3062 120.281 25.3957C120.106 25.4852 119.902 25.5028 119.714 25.4445C119.622 25.4216 119.535 25.3806 119.459 25.3241C119.383 25.2675 119.319 25.1965 119.272 25.1152C119.224 25.0339 119.193 24.9439 119.18 24.8506C119.168 24.7572 119.175 24.6624 119.2 24.5716C119.26 24.3891 119.39 24.2368 119.561 24.147C119.733 24.0573 119.933 24.037 120.12 24.0905C120.213 24.112 120.302 24.1521 120.38 24.2082C120.457 24.2643 120.523 24.3354 120.572 24.4171C120.622 24.4989 120.654 24.5897 120.667 24.684C120.681 24.7784 120.674 24.8744 120.649 24.9664Z" fill="#263238"/>
<path d="M121.572 24.4914C121.453 24.5531 121.051 23.9856 120.291 23.7327C119.531 23.4798 118.842 23.6741 118.792 23.5538C118.764 23.5014 118.91 23.3657 119.213 23.2701C119.621 23.1508 120.057 23.1616 120.459 23.3009C120.856 23.4307 121.2 23.6825 121.441 24.0195C121.606 24.2755 121.628 24.4668 121.572 24.4914Z" fill="#263238"/>
<path d="M113.17 22.4836C113.11 22.6662 112.98 22.8184 112.809 22.9082C112.637 22.998 112.437 23.0183 112.25 22.9648C112.158 22.9419 112.072 22.9009 111.996 22.8444C111.919 22.7878 111.856 22.7168 111.808 22.6355C111.76 22.5542 111.729 22.4642 111.717 22.3708C111.704 22.2775 111.711 22.1827 111.736 22.0919C111.796 21.9089 111.925 21.7561 112.097 21.6663C112.269 21.5764 112.469 21.5565 112.656 21.6108C112.748 21.6337 112.835 21.6746 112.911 21.7312C112.987 21.7877 113.051 21.8587 113.098 21.9401C113.146 22.0214 113.177 22.1114 113.19 22.2047C113.202 22.2981 113.195 22.3929 113.17 22.4836Z" fill="#263238"/>
<path d="M114.049 22.1475C113.93 22.2123 113.525 21.6417 112.765 21.3888C112.004 21.1359 111.319 21.3302 111.266 21.2099C111.241 21.1574 111.384 21.0217 111.69 20.9292C112.098 20.8098 112.534 20.8195 112.936 20.957C113.333 21.0877 113.678 21.3393 113.921 21.6756C114.08 21.9316 114.105 22.1228 114.049 22.1475Z" fill="#263238"/>
<path d="M114.915 28.6522C114.915 28.609 115.426 28.683 116.224 28.8403C116.426 28.8866 116.623 28.9082 116.701 28.7879C116.784 28.5932 116.806 28.3782 116.763 28.171C116.738 27.6436 116.713 27.0915 116.685 26.5148C116.595 24.1676 116.598 22.2615 116.685 22.2584C116.772 22.2553 116.931 24.1584 117.022 26.5055C117.04 27.0823 117.056 27.6344 117.072 28.1618C117.116 28.4336 117.062 28.7123 116.919 28.9483C116.868 29.0068 116.804 29.0531 116.732 29.0835C116.66 29.114 116.582 29.1279 116.504 29.1241C116.387 29.1182 116.27 29.0964 116.158 29.0593C115.382 28.8465 114.902 28.6923 114.915 28.6522Z" fill="#263238"/>
<path d="M112.5 28.4269C112.624 28.4609 112.35 29.2782 112.861 30.0925C113.372 30.9067 114.279 31.1103 114.248 31.2244C114.248 31.2799 113.996 31.32 113.625 31.2059C113.139 31.0521 112.724 30.733 112.453 30.3053C112.191 29.8958 112.101 29.4007 112.204 28.9266C112.285 28.575 112.444 28.4023 112.5 28.4269Z" fill="#263238"/>
<path d="M121.74 23.0756C121.55 23.2021 121.086 22.8505 120.459 22.6315C119.833 22.4125 119.256 22.3601 119.194 22.1411C119.169 22.0362 119.312 21.8913 119.599 21.808C119.978 21.7178 120.376 21.7411 120.742 21.8751C121.107 22.0091 121.425 22.2477 121.653 22.5606C121.815 22.8104 121.827 23.0109 121.74 23.0756Z" fill="#263238"/>
<path d="M113.98 19.0908C113.865 19.1525 113.668 19.0507 113.447 18.9181C113.161 18.7489 112.86 18.6034 112.55 18.4832C112.235 18.371 111.91 18.2864 111.58 18.2303C111.315 18.1779 111.11 18.1378 111.063 18.0144C111.016 17.891 111.166 17.706 111.502 17.5826C111.95 17.4426 112.433 17.4545 112.873 17.6166C113.313 17.7786 113.687 18.0814 113.933 18.4771C114.105 18.8009 114.089 19.0415 113.98 19.0908Z" fill="#263238"/>
<path d="M124.582 19.4978C121.979 19.3479 119.493 18.381 117.483 16.7374C115.245 14.9238 112.443 13.6531 111.68 14.0109C110.916 14.3686 110.19 16.9101 107.516 17.0952C107.516 17.0952 106.562 22.0455 104.624 21.4132C102.686 20.7809 105.668 13.4649 105.668 13.4649L111.044 12.2127L116.551 12.4132L121.497 13.5235L125.776 15.9571L124.582 19.4978Z" fill="#263238"/>
<path d="M96.814 0.0822754H26.8387V107.922H96.814V0.0822754Z" fill="#FAFAFA"/>
<path d="M96.8142 107.919C96.8142 107.256 96.783 63.4587 96.7394 0.079338L96.8142 0.153361H26.8482L26.9324 0.0731681C26.9324 40.8723 26.9324 78.4391 26.9137 107.913L26.8482 107.848L96.8235 107.913L26.8482 107.974H26.7859V107.919C26.7859 78.4453 26.7859 40.8785 26.7672 0.079338V-0.000854492H26.8576H96.8235H96.8983V0.0731681C96.8453 63.4618 96.8142 107.259 96.8142 107.919Z" fill="#263238"/>
<path d="M45.5941 24.0966H36.6404C36.3434 24.0966 36.0585 23.9801 35.8481 23.7725C35.6378 23.565 35.5193 23.2833 35.5184 22.9894V10.7231C35.5193 10.4292 35.6378 10.1475 35.8481 9.93997C36.0585 9.7324 36.3434 9.61584 36.6404 9.61584H42.3187L46.713 14.0973V22.9894C46.713 23.283 46.5951 23.5647 46.3853 23.7723C46.1755 23.98 45.8909 24.0966 45.5941 24.0966Z" fill="#4CAFE3"/>
<path d="M42.3187 9.61584V13.0672C42.3195 13.3401 42.4295 13.6017 42.6245 13.7947C42.8195 13.9877 43.0838 14.0965 43.3596 14.0973H46.713L42.3187 9.61584Z" fill="#4CAFE3"/>
<g opacity="0.2">
<path d="M42.3655 13.3697C42.3668 13.6309 42.4585 13.8838 42.6252 14.0864C42.7918 14.2889 43.0235 14.4289 43.2817 14.4831L43.3939 14.5078C43.8302 14.5849 46.713 15.0907 46.713 15.026V14.1007H43.3596C43.3596 14.1007 42.5244 14.0698 42.3655 13.3697Z" fill="black"/>
</g>
<g opacity="0.3">
<path d="M42.3187 9.61584V13.0672C42.3195 13.3401 42.4295 13.6017 42.6245 13.7947C42.8195 13.9877 43.0838 14.0965 43.3596 14.0973H46.713L42.3187 9.61584Z" fill="white"/>
</g>
<path d="M41.5675 12.9227C40.8798 13.0023 40.1869 13.0293 39.495 13.0033C38.8042 13.0293 38.1123 13.0024 37.4257 12.9227C38.1123 12.843 38.8042 12.8161 39.495 12.8422C40.1869 12.8161 40.8798 12.8431 41.5675 12.9227Z" fill="#FAFAFA"/>
<path d="M44.2415 14.878C44.2415 14.9213 42.7175 14.9585 40.8351 14.9585C38.9528 14.9585 37.4257 14.9213 37.4257 14.878C37.4257 14.8346 38.9528 14.7974 40.8351 14.7974C42.7175 14.7974 44.2415 14.8315 44.2415 14.878Z" fill="#FAFAFA"/>
<path d="M44.8554 16.5065C44.8554 16.553 43.1943 16.587 41.1406 16.587C39.0868 16.587 37.4257 16.553 37.4257 16.5065C37.4257 16.46 39.0899 16.4259 41.1406 16.4259C43.1912 16.4259 44.8554 16.4631 44.8554 16.5065Z" fill="#FAFAFA"/>
<path d="M44.8554 18.0455C44.8554 18.0889 43.1943 18.1261 41.1406 18.1261C39.0868 18.1261 37.4257 18.0889 37.4257 18.0455C37.4257 18.0022 39.0899 17.965 41.1406 17.965C43.1912 17.965 44.8554 17.9991 44.8554 18.0455Z" fill="#FAFAFA"/>
<path d="M44.8554 19.5817C44.8554 19.6281 43.1943 19.6622 41.1406 19.6622C39.0868 19.6622 37.4257 19.6281 37.4257 19.5817C37.4257 19.5352 39.0899 19.5011 41.1406 19.5011C43.1912 19.5011 44.8554 19.5383 44.8554 19.5817Z" fill="#FAFAFA"/>
<path d="M44.8554 21.1207C44.8554 21.1641 43.1943 21.2013 41.1406 21.2013C39.0868 21.2013 37.4257 21.1641 37.4257 21.1207C37.4257 21.0774 39.0899 21.0402 41.1406 21.0402C43.1912 21.0402 44.8554 21.0743 44.8554 21.1207Z" fill="#FAFAFA"/>
<path d="M49.8452 15.9172H48.9103V15.5779H51.1885V15.9172H50.2535V18.3044H49.8639L49.8452 15.9172Z" fill="#263238"/>
<path d="M53.6068 17.9651V18.3044H51.6091V15.5779H53.5507V15.9172H51.9925V16.753H53.3731V17.0861H51.9925V17.9651H53.6068Z" fill="#263238"/>
<path d="M56.0843 18.3044L55.489 17.4655C55.432 17.4687 55.3747 17.4687 55.3176 17.4655H54.6382V18.2952H54.2424V15.5686H55.3239C56.0407 15.5686 56.4707 15.9264 56.4707 16.5186C56.4803 16.708 56.4262 16.8952 56.3168 17.0509C56.2074 17.2066 56.0489 17.3221 55.8661 17.3791L56.5206 18.3044H56.0843ZM56.0843 16.5279C56.0843 16.1392 55.8225 15.911 55.3176 15.911H54.6382V17.1447H55.3052C55.81 17.1447 56.0718 16.9319 56.0718 16.5279H56.0843Z" fill="#263238"/>
<path d="M59.6559 18.3043V16.315L58.6586 17.9682H58.4778L57.4837 16.3273V18.3013H57.1066V15.5747H57.4182L58.5651 17.4901L59.6964 15.5747H60.008V18.3013L59.6559 18.3043Z" fill="#263238"/>
<path d="M60.6222 17.9929L60.7656 17.6844C61.0231 17.8895 61.3451 17.9986 61.6756 17.9929C62.1524 17.9929 62.355 17.8078 62.355 17.5703C62.355 16.9041 60.6876 17.3266 60.6876 16.315C60.6876 15.8924 61.018 15.5347 61.741 15.5347C62.0538 15.5286 62.3614 15.6133 62.6261 15.7783L62.4983 16.0868C62.2718 15.9446 62.0093 15.8687 61.741 15.8678C61.2735 15.8678 61.0741 16.0621 61.0741 16.2996C61.0741 16.9627 62.7414 16.5463 62.7414 17.5333C62.7414 17.9497 62.4017 18.3075 61.6756 18.3075C61.2983 18.3258 60.9262 18.2147 60.6222 17.9929Z" fill="#263238"/>
<path d="M64.1375 16.9318C64.1264 16.643 64.2027 16.3575 64.3567 16.1119C64.5107 15.8663 64.7353 15.6719 65.0018 15.5536C65.2683 15.4354 65.5644 15.3986 65.8521 15.4481C66.1399 15.4976 66.4061 15.6311 66.6166 15.8315C66.8271 16.0318 66.9723 16.2899 67.0335 16.5725C67.0947 16.8551 67.0691 17.1493 66.9601 17.4175C66.8511 17.6856 66.6636 17.9154 66.4216 18.0772C66.1797 18.2391 65.8944 18.3257 65.6023 18.3259C65.4123 18.3348 65.2225 18.3051 65.0445 18.2389C64.8665 18.1727 64.7039 18.0712 64.5669 17.9408C64.4298 17.8103 64.321 17.6535 64.2472 17.4801C64.1734 17.3066 64.1361 17.1201 64.1375 16.9318ZM66.6682 16.9318C66.67 16.7221 66.6088 16.5165 66.4924 16.3413C66.3759 16.166 66.2094 16.029 66.0141 15.9476C65.8187 15.8662 65.6034 15.8441 65.3953 15.8841C65.1872 15.9241 64.9959 16.0245 64.8456 16.1723C64.6953 16.3202 64.5928 16.509 64.5511 16.7147C64.5095 16.9203 64.5305 17.1336 64.6116 17.3274C64.6927 17.5212 64.8302 17.6868 65.0066 17.803C65.183 17.9193 65.3904 17.9811 65.6023 17.9805C65.743 17.9852 65.8832 17.9613 66.0143 17.9103C66.1453 17.8594 66.2644 17.7824 66.3643 17.6842C66.4641 17.5859 66.5426 17.4685 66.5949 17.3391C66.6471 17.2097 66.6721 17.0711 66.6682 16.9318Z" fill="#263238"/>
<path d="M68.0581 15.9172V16.8671H69.4387V17.2033H68.0581V18.3044H67.6654V15.5779H69.607V15.9172H68.0581Z" fill="#263238"/>
<path d="M70.969 17.9928L71.1155 17.6844C71.372 17.889 71.6929 17.9981 72.0224 17.9928C72.4992 17.9928 72.7049 17.8077 72.7049 17.5703C72.7049 16.904 71.0376 17.3266 71.0376 16.3149C71.0376 15.8924 71.3679 15.5346 72.0909 15.5346C72.4036 15.5291 72.7111 15.6138 72.976 15.7783L72.8451 16.0867C72.6195 15.945 72.3581 15.8691 72.0909 15.8677C71.6235 15.8677 71.4209 16.062 71.4209 16.2995C71.4209 16.9626 73.0882 16.5463 73.0882 17.5332C73.0882 17.9496 72.7516 18.3074 72.0224 18.3074C71.6452 18.3253 71.2732 18.2142 70.969 17.9928Z" fill="#263238"/>
<path d="M75.6624 17.9651V18.3044H73.6647V15.5779H75.6063V15.9172H74.048V16.753H75.4286V17.0861H74.048V17.9651H75.6624Z" fill="#263238"/>
<path d="M78.1403 18.3044L77.5481 17.4655C77.49 17.4686 77.4317 17.4686 77.3736 17.4655H76.6942V18.2952H76.3015V15.5686H77.3736C78.0904 15.5686 78.5236 15.9264 78.5236 16.5186C78.533 16.7084 78.4784 16.8959 78.3684 17.0517C78.2584 17.2074 78.0992 17.3226 77.9159 17.3791L78.5703 18.3044H78.1403ZM78.1403 16.5279C78.1403 16.1392 77.8785 15.911 77.3736 15.911H76.7067V17.1447H77.3736C77.866 17.1447 78.1278 16.9319 78.1278 16.5279H78.1403Z" fill="#263238"/>
<path d="M81.5494 15.5779L80.3433 18.3044H79.9444L78.7321 15.5779H79.159L80.1501 17.8171L81.1474 15.5779H81.5494Z" fill="#263238"/>
<path d="M81.9016 15.5779H82.2936V18.3044H81.9016V15.5779Z" fill="#263238"/>
<path d="M82.8958 16.9317C82.8935 16.7438 82.93 16.5574 83.0031 16.3839C83.0762 16.2105 83.1844 16.0536 83.321 15.9231C83.4576 15.7925 83.6197 15.691 83.7974 15.6247C83.9751 15.5584 84.1647 15.5288 84.3543 15.5376C84.5495 15.5299 84.7441 15.5639 84.9248 15.6374C85.1056 15.7108 85.2681 15.822 85.4015 15.9632L85.1459 16.2069C85.0461 16.1039 84.9253 16.0232 84.7915 15.97C84.6577 15.9168 84.514 15.8924 84.3699 15.8985C84.1945 15.8992 84.022 15.943 83.8679 16.026C83.7138 16.1089 83.5829 16.2285 83.487 16.3738C83.3911 16.5192 83.3332 16.6859 83.3184 16.8589C83.3036 17.0319 83.3325 17.2058 83.4024 17.3651C83.4724 17.5243 83.5811 17.6639 83.719 17.7712C83.8569 17.8786 84.0195 17.9504 84.1924 17.9802C84.3652 18.01 84.5428 17.9969 84.7092 17.942C84.8757 17.8871 85.0257 17.7922 85.1459 17.6658L85.4015 17.9094C85.2678 18.0513 85.1048 18.1631 84.9236 18.2371C84.7423 18.311 84.5471 18.3455 84.3512 18.3381C84.1607 18.3466 83.9705 18.3163 83.7923 18.2491C83.6141 18.1819 83.4518 18.0791 83.3153 17.9473C83.1789 17.8154 83.0713 17.6573 82.9991 17.4826C82.9269 17.3079 82.8918 17.1204 82.8958 16.9317Z" fill="#263238"/>
<path d="M87.9631 17.9651V18.3044H85.9655V15.5779H87.907V15.9172H86.3488V16.753H87.7356V17.0861H86.355V17.9651H87.9631Z" fill="#263238"/>
<path d="M52.3166 21.1017L51.5811 23.2607H51.2539L50.6493 21.5397L50.0478 23.273H49.7143L48.9819 21.114H49.2936L49.8857 22.8813L50.509 21.114H50.7989L51.4035 22.8906L52.0081 21.114L52.3166 21.1017Z" fill="#E0E0E0"/>
<path d="M54.0246 22.5514H52.6752C52.6953 22.6926 52.7691 22.821 52.8813 22.9103C52.9936 22.9997 53.1361 23.0434 53.2798 23.0326C53.3689 23.0354 53.4576 23.0192 53.5398 22.9851C53.6221 22.9511 53.696 22.8999 53.7566 22.8352L53.9249 23.0264C53.8414 23.1154 53.7393 23.1852 53.6258 23.2311C53.5122 23.2769 53.3898 23.2976 53.2673 23.2917C53.1517 23.3003 53.0356 23.2849 52.9264 23.2464C52.8172 23.2079 52.7174 23.1471 52.6334 23.0681C52.5494 22.989 52.4831 22.8934 52.4388 22.7874C52.3944 22.6814 52.373 22.5674 52.376 22.4527C52.3713 22.3426 52.3894 22.2327 52.4294 22.1299C52.4693 22.027 52.5302 21.9333 52.6082 21.8547C52.6862 21.776 52.7797 21.7141 52.8829 21.6726C52.9861 21.6312 53.0968 21.6112 53.2081 21.6138C53.3199 21.611 53.431 21.6313 53.5344 21.6734C53.6378 21.7155 53.7312 21.7784 53.8086 21.8582C53.886 21.938 53.9458 22.033 53.984 22.1369C54.0223 22.2409 54.0383 22.3516 54.0309 22.462C54.0309 22.4836 54.0277 22.5237 54.0246 22.5514ZM52.6752 22.3386H53.741C53.7268 22.2086 53.6645 22.0883 53.5661 22.001C53.4678 21.9136 53.3403 21.8653 53.2081 21.8653C53.0759 21.8653 52.9484 21.9136 52.85 22.001C52.7517 22.0883 52.6894 22.2086 52.6752 22.3386Z" fill="#E0E0E0"/>
<path d="M54.4481 20.9721H54.7592V23.273H54.4481V20.9721Z" fill="#E0E0E0"/>
<path d="M55.1681 22.4529C55.1658 22.3394 55.1872 22.2267 55.231 22.1218C55.2747 22.017 55.3399 21.9222 55.4224 21.8434C55.5049 21.7646 55.603 21.7036 55.7105 21.6641C55.818 21.6246 55.9325 21.6075 56.047 21.6139C56.1813 21.6066 56.3151 21.6355 56.4342 21.6974C56.5532 21.7593 56.6531 21.852 56.7233 21.9655L56.4927 22.1105C56.4447 22.0363 56.3782 21.9758 56.2995 21.9347C56.2209 21.8936 56.1328 21.8734 56.0439 21.8761C55.8963 21.8868 55.7582 21.9523 55.6575 22.0596C55.5567 22.1669 55.5007 22.3079 55.5007 22.4544C55.5007 22.6009 55.5567 22.7419 55.6575 22.8492C55.7582 22.9565 55.8963 23.022 56.0439 23.0327C56.1328 23.0354 56.2209 23.0152 56.2995 22.9741C56.3782 22.933 56.4447 22.8724 56.4927 22.7983L56.7233 22.9402C56.6531 23.0537 56.5532 23.1464 56.4342 23.2083C56.3151 23.2702 56.1813 23.2991 56.047 23.2918C55.9325 23.2982 55.818 23.2811 55.7105 23.2416C55.603 23.2021 55.5049 23.1411 55.4224 23.0623C55.3399 22.9835 55.2747 22.8887 55.231 22.7839C55.1872 22.679 55.1658 22.5663 55.1681 22.4529Z" fill="#E0E0E0"/>
<path d="M56.9322 22.4527C56.9291 22.2832 56.9771 22.1167 57.0699 21.9743C57.1627 21.8318 57.2962 21.7199 57.4535 21.6528C57.6108 21.5857 57.7846 21.5664 57.953 21.5973C58.1214 21.6283 58.2767 21.7081 58.3991 21.8266C58.5215 21.9452 58.6055 22.0971 58.6405 22.263C58.6754 22.4289 58.6597 22.6014 58.5953 22.7584C58.531 22.9155 58.4208 23.0501 58.279 23.145C58.1371 23.24 57.9699 23.291 57.7986 23.2916C57.6851 23.2968 57.5717 23.2787 57.4654 23.2386C57.3592 23.1985 57.2625 23.1372 57.1812 23.0585C57.1 22.9798 57.0359 22.8854 56.9931 22.7812C56.9503 22.677 56.9296 22.5652 56.9322 22.4527ZM58.3565 22.4527C58.3516 22.344 58.3145 22.239 58.2498 22.151C58.1852 22.0629 58.0958 21.9956 57.9927 21.9575C57.8897 21.9193 57.7776 21.9119 57.6704 21.9363C57.5632 21.9607 57.4656 22.0157 57.3898 22.0946C57.3139 22.1734 57.2632 22.2726 57.2438 22.3797C57.2245 22.4869 57.2374 22.5973 57.281 22.6973C57.3245 22.7972 57.3968 22.8823 57.4889 22.9419C57.5809 23.0015 57.6886 23.0331 57.7986 23.0326C57.8748 23.0345 57.9506 23.0206 58.021 22.9918C58.0915 22.9629 58.155 22.9198 58.2076 22.8652C58.2602 22.8105 58.3006 22.7456 58.3262 22.6746C58.3519 22.6035 58.3622 22.5279 58.3565 22.4527Z" fill="#E0E0E0"/>
<path d="M61.8343 22.3294V23.2732H61.5226V22.3633C61.5226 22.0394 61.3637 21.8821 61.0925 21.8821C60.8214 21.8821 60.5939 22.0703 60.5939 22.4281V23.2732H60.2822V22.3633C60.2822 22.0394 60.1233 21.8821 59.8522 21.8821C59.581 21.8821 59.3535 22.0703 59.3535 22.4281V23.2732H59.0419V21.6292H59.3753V21.876C59.4421 21.7894 59.5293 21.7203 59.6292 21.6746C59.7292 21.6289 59.8389 21.608 59.9488 21.6138C60.0643 21.6072 60.1795 21.6325 60.2813 21.687C60.3832 21.7415 60.4677 21.8229 60.5253 21.9222C60.5978 21.8226 60.6941 21.7423 60.8056 21.6885C60.9171 21.6347 61.0403 21.609 61.1642 21.6138C61.259 21.6055 61.3545 21.6187 61.4433 21.6526C61.5321 21.6864 61.6119 21.7399 61.6766 21.809C61.7413 21.878 61.7891 21.9608 61.8164 22.0511C61.8438 22.1413 61.8499 22.2365 61.8343 22.3294Z" fill="#E0E0E0"/>
<path d="M63.8943 22.5515H62.548C62.5667 22.6927 62.6396 22.8214 62.7515 22.911C62.8635 23.0006 63.006 23.0441 63.1495 23.0326C63.2391 23.0358 63.3284 23.0198 63.4112 22.9858C63.494 22.9517 63.5685 22.9003 63.6294 22.8352L63.7946 23.0264C63.672 23.1522 63.5151 23.2398 63.343 23.2785C63.1709 23.3172 62.9911 23.3054 62.8257 23.2445C62.6602 23.1836 62.5163 23.0763 62.4117 22.9356C62.307 22.795 62.246 22.6272 62.2363 22.4528C62.232 22.3425 62.2506 22.2325 62.2909 22.1296C62.3312 22.0268 62.3924 21.9331 62.4706 21.8545C62.5489 21.7759 62.6426 21.714 62.7459 21.6726C62.8493 21.6312 62.9601 21.6112 63.0716 21.6138C63.1832 21.611 63.2942 21.6313 63.3974 21.6734C63.5007 21.7155 63.5939 21.7785 63.6711 21.8584C63.7483 21.9382 63.8077 22.0332 63.8456 22.1372C63.8835 22.2411 63.8991 22.3518 63.8912 22.462C63.9005 22.4836 63.8974 22.5237 63.8943 22.5515ZM62.548 22.3386H63.6138C63.5996 22.2086 63.5373 22.0883 63.439 22.001C63.3406 21.9136 63.2131 21.8653 63.0809 21.8653C62.9487 21.8653 62.8212 21.9136 62.7228 22.001C62.6245 22.0883 62.5622 22.2086 62.548 22.3386Z" fill="#E0E0E0"/>
<path d="M64.2498 23.1005C64.2497 23.074 64.2551 23.0478 64.2655 23.0235C64.2759 22.9991 64.2911 22.9771 64.3103 22.9587C64.3294 22.9402 64.3521 22.9258 64.377 22.9163C64.4019 22.9067 64.4284 22.9022 64.4551 22.9031C64.5079 22.9031 64.5585 22.9239 64.5959 22.9609C64.6332 22.9979 64.6542 23.0481 64.6542 23.1005C64.6542 23.1528 64.6332 23.203 64.5959 23.24C64.5585 23.2771 64.5079 23.2979 64.4551 23.2979C64.4284 23.2987 64.4019 23.2942 64.377 23.2846C64.3521 23.2751 64.3294 23.2607 64.3103 23.2423C64.2911 23.2239 64.2759 23.2018 64.2655 23.1775C64.2551 23.1531 64.2497 23.1269 64.2498 23.1005ZM64.2778 21.108H64.6324L64.5733 22.5946H64.3338L64.2778 21.108Z" fill="#E0E0E0"/>
<path d="M92.3234 6.71979H91.9556C91.7267 6.71979 91.5411 6.90345 91.5411 7.13V96.8554C91.5411 97.082 91.7267 97.2657 91.9556 97.2657H92.3234C92.5523 97.2657 92.7379 97.082 92.7379 96.8554V7.13C92.7379 6.90345 92.5523 6.71979 92.3234 6.71979Z" fill="#E0E0E0"/>
<path d="M92.3234 6.71979H91.9556C91.7267 6.71979 91.5411 6.90345 91.5411 7.13V52.9905C91.5411 53.217 91.7267 53.4007 91.9556 53.4007H92.3234C92.5523 53.4007 92.7379 53.217 92.7379 52.9905V7.13C92.7379 6.90345 92.5523 6.71979 92.3234 6.71979Z" fill="#4CAFE3"/>
<path d="M37.7935 33.7474V35.9064H37.4819V34.0188H36.9863V33.7474H37.7935Z" fill="#263238"/>
<path d="M38.2672 35.7245C38.2678 35.6832 38.2807 35.6429 38.3043 35.6088C38.328 35.5748 38.3612 35.5483 38.3999 35.5329C38.4386 35.5175 38.481 35.5138 38.5219 35.5223C38.5627 35.5307 38.6001 35.5509 38.6294 35.5804C38.6587 35.6098 38.6785 35.6472 38.6864 35.6878C38.6943 35.7284 38.69 35.7704 38.6739 35.8085C38.6578 35.8467 38.6307 35.8793 38.5959 35.9022C38.5612 35.9251 38.5204 35.9373 38.4787 35.9373C38.4506 35.9377 38.4226 35.9325 38.3965 35.9219C38.3705 35.9113 38.3468 35.8956 38.3271 35.8757C38.3073 35.8559 38.2918 35.8322 38.2815 35.8062C38.2712 35.7802 38.2663 35.7524 38.2672 35.7245Z" fill="#263238"/>
<path d="M40.4428 34.0188H39.6886V33.7474H41.5055V34.0188H40.7513V35.9188H40.4397L40.4428 34.0188Z" fill="#263238"/>
<path d="M43.126 35.1972H41.7765C41.7959 35.3381 41.869 35.4664 41.9808 35.5558C42.0926 35.6452 42.2347 35.6891 42.378 35.6783C42.4679 35.6811 42.5573 35.6647 42.6401 35.6301C42.723 35.5955 42.7973 35.5435 42.8579 35.4778L43.0231 35.6721C42.9012 35.7993 42.7441 35.8881 42.5716 35.9277C42.399 35.9673 42.2185 35.9558 42.0525 35.8947C41.8865 35.8335 41.7423 35.7255 41.6378 35.5839C41.5333 35.4424 41.4732 35.2736 41.4648 35.0985C41.4601 34.9884 41.4783 34.8785 41.5182 34.7756C41.5582 34.6727 41.619 34.579 41.697 34.5004C41.7751 34.4217 41.8686 34.3598 41.9717 34.3184C42.0749 34.2769 42.1856 34.2569 42.297 34.2595C42.4087 34.2567 42.5198 34.277 42.6232 34.3191C42.7266 34.3612 42.82 34.4241 42.8975 34.5039C42.9749 34.5838 43.0346 34.6787 43.0729 34.7826C43.1112 34.8866 43.1271 34.9973 43.1197 35.1077C43.1322 35.1293 43.1291 35.1694 43.126 35.1972ZM41.7765 34.9813H42.8579C42.8437 34.8512 42.7814 34.731 42.6831 34.6436C42.5847 34.5562 42.4572 34.5079 42.325 34.5079C42.1928 34.5079 42.0653 34.5562 41.967 34.6436C41.8686 34.731 41.8063 34.8512 41.7921 34.9813H41.7765Z" fill="#263238"/>
<path d="M44.441 34.2595V34.5494H44.3725C44.2992 34.5446 44.2257 34.556 44.1575 34.5828C44.0892 34.6096 44.0278 34.651 43.9777 34.7041C43.9276 34.7573 43.89 34.8208 43.8677 34.89C43.8455 34.9593 43.839 35.0326 43.8489 35.1046V35.9219H43.5372V34.278H43.824V34.5556C43.8863 34.4519 43.978 34.3686 44.0876 34.316C44.1973 34.2634 44.3202 34.2437 44.441 34.2595Z" fill="#263238"/>
<path d="M47.5699 34.972V35.9189H47.2583V34.9936C47.2583 34.6852 47.1025 34.5155 46.8282 34.5155C46.5539 34.5155 46.3327 34.7037 46.3327 35.0614V35.9065H46.021V34.9813C46.021 34.6728 45.8652 34.5032 45.5909 34.5032C45.52 34.5002 45.4493 34.5127 45.3838 34.5399C45.3183 34.567 45.2597 34.6081 45.212 34.6602C45.1644 34.7124 45.129 34.7742 45.1083 34.8414C45.0876 34.9087 45.0822 34.9796 45.0923 35.0491V35.8942H44.7806V34.2503H45.0674V34.497C45.134 34.4102 45.2211 34.3409 45.3211 34.2952C45.4211 34.2495 45.5308 34.2288 45.6408 34.2349C45.7564 34.2282 45.8715 34.2535 45.9733 34.308C46.0752 34.3625 46.1597 34.444 46.2174 34.5433C46.2901 34.4432 46.3869 34.3626 46.499 34.3088C46.6111 34.2549 46.7349 34.2295 46.8594 34.2349C46.9595 34.2186 47.062 34.2268 47.1582 34.2586C47.2544 34.2905 47.3413 34.3451 47.4113 34.4178C47.4813 34.4904 47.5323 34.5789 47.56 34.6754C47.5876 34.772 47.591 34.8738 47.5699 34.972Z" fill="#263238"/>
<path d="M38.6537 69.3403V69.6086H37.0954V69.3989L37.9867 68.5446C38.2205 68.3225 38.2641 68.1868 38.2641 68.048C38.2641 67.8259 38.1021 67.6902 37.7966 67.6902C37.6912 67.6841 37.5858 67.7021 37.4886 67.7427C37.3913 67.7834 37.3048 67.8456 37.2357 67.9246L37.0206 67.7426C37.1214 67.6319 37.2459 67.5449 37.385 67.4878C37.5241 67.4307 37.6743 67.405 37.8247 67.4126C38.2828 67.4126 38.5758 67.647 38.5758 68.0295C38.5723 68.1626 38.5382 68.2932 38.4761 68.4113C38.414 68.5294 38.3255 68.6319 38.2174 68.7111L37.5442 69.3526L38.6537 69.3403Z" fill="#263238"/>
<path d="M38.9372 69.4143C38.9364 69.3864 38.9413 69.3586 38.9515 69.3326C38.9618 69.3066 38.9773 69.283 38.9971 69.2631C39.0169 69.2432 39.0405 69.2275 39.0666 69.2169C39.0927 69.2063 39.1206 69.2011 39.1488 69.2015C39.2057 69.2015 39.2603 69.2239 39.3006 69.2638C39.3408 69.3037 39.3634 69.3579 39.3634 69.4143C39.3634 69.4708 39.3408 69.5249 39.3006 69.5648C39.2603 69.6047 39.2057 69.6271 39.1488 69.6271C39.1207 69.6271 39.093 69.6216 39.0671 69.6109C39.0412 69.6001 39.0178 69.5844 38.9981 69.5646C38.9784 69.5448 38.9629 69.5213 38.9524 69.4955C38.942 69.4697 38.9368 69.4421 38.9372 69.4143Z" fill="#263238"/>
<path d="M40.6763 67.4373H40.9879V69.3403H42.1753V69.6087H40.6763V67.4373Z" fill="#263238"/>
<path d="M42.4432 67.4558C42.4432 67.4297 42.4485 67.4039 42.4587 67.38C42.469 67.356 42.484 67.3343 42.5028 67.3161C42.5217 67.298 42.544 67.2838 42.5685 67.2744C42.593 67.265 42.6192 67.2606 42.6455 67.2615C42.6839 67.2627 42.7212 67.2751 42.7526 67.2972C42.784 67.3192 42.8081 67.35 42.822 67.3856C42.8359 67.4212 42.8389 67.46 42.8307 67.4973C42.8224 67.5346 42.8033 67.5686 42.7756 67.5952C42.748 67.6218 42.7131 67.6397 42.6752 67.6467C42.6374 67.6537 42.5983 67.6495 42.5629 67.6346C42.5274 67.6197 42.4972 67.5949 42.4759 67.563C42.4546 67.5312 42.4433 67.4939 42.4432 67.4558ZM42.4961 67.9647H42.8072V69.6086H42.4961V67.9647Z" fill="#263238"/>
<path d="M43.2162 68.7883C43.2139 68.6751 43.2352 68.5627 43.2788 68.4581C43.3224 68.3534 43.3873 68.2588 43.4694 68.18C43.5516 68.1013 43.6493 68.0402 43.7564 68.0005C43.8635 67.9608 43.9778 67.9434 44.092 67.9494C44.2268 67.9412 44.3614 67.9696 44.4811 68.0316C44.6009 68.0935 44.7012 68.1867 44.7714 68.301L44.5408 68.4459C44.4928 68.3718 44.4263 68.3112 44.3476 68.2701C44.269 68.2291 44.1809 68.2089 44.092 68.2115C43.9444 68.2222 43.8063 68.2878 43.7055 68.3951C43.6048 68.5023 43.5488 68.6434 43.5488 68.7899C43.5488 68.9363 43.6048 69.0774 43.7055 69.1846C43.8063 69.2919 43.9444 69.3575 44.092 69.3682C44.1811 69.3702 44.2693 69.3494 44.3479 69.3078C44.4265 69.2662 44.493 69.2052 44.5408 69.1307L44.7714 69.2725C44.7014 69.3872 44.6011 69.4808 44.4814 69.5433C44.3617 69.6057 44.2271 69.6348 44.092 69.6272C43.9778 69.6332 43.8635 69.6158 43.7564 69.5761C43.6493 69.5364 43.5516 69.4753 43.4694 69.3966C43.3873 69.3179 43.3224 69.2232 43.2788 69.1185C43.2352 69.0139 43.2139 68.9015 43.2162 68.7883Z" fill="#263238"/>
<path d="M46.6288 68.8869H45.2825C45.3019 69.0278 45.375 69.1561 45.4868 69.2455C45.5986 69.3349 45.7406 69.3788 45.884 69.368C45.9738 69.3708 46.0633 69.3544 46.1461 69.3198C46.229 69.2852 46.3033 69.2332 46.3639 69.1675L46.5291 69.3618C46.4065 69.4876 46.2496 69.5752 46.0775 69.6139C45.9054 69.6527 45.7256 69.6408 45.5602 69.5799C45.3947 69.519 45.2508 69.4117 45.1462 69.271C45.0415 69.1304 44.9805 68.9626 44.9708 68.7882C44.9665 68.6779 44.9851 68.5679 45.0254 68.4651C45.0657 68.3622 45.1269 68.2685 45.2051 68.1899C45.2834 68.1113 45.3771 68.0494 45.4804 68.008C45.5838 67.9666 45.6946 67.9466 45.806 67.9492C45.9177 67.9464 46.0287 67.9667 46.1319 68.0088C46.2352 68.0509 46.3284 68.1139 46.4056 68.1938C46.4828 68.2736 46.5422 68.3686 46.5801 68.4726C46.618 68.5765 46.6335 68.6872 46.6257 68.7974C46.635 68.8221 46.6319 68.8591 46.6288 68.8869ZM45.2825 68.671H46.3483C46.3341 68.5409 46.2718 68.4207 46.1734 68.3333C46.0751 68.2459 45.9476 68.1976 45.8154 68.1976C45.6832 68.1976 45.5557 68.2459 45.4573 68.3333C45.359 68.4207 45.2967 68.5409 45.2825 68.671Z" fill="#263238"/>
<path d="M48.6297 68.6618V69.6087H48.3181V68.6834C48.3181 68.375 48.156 68.2053 47.8724 68.2053C47.7996 68.1997 47.7265 68.2102 47.6583 68.2361C47.5902 68.2619 47.5286 68.3024 47.4782 68.3547C47.4278 68.4069 47.3898 68.4696 47.3669 68.5382C47.3439 68.6068 47.3367 68.6795 47.3457 68.7512V69.5963H47.0341V67.9524H47.3239V68.1991C47.3951 68.1112 47.4866 68.0415 47.5908 67.9958C47.6949 67.9502 47.8086 67.93 47.9223 67.937C48.0201 67.926 48.1191 67.9374 48.2117 67.9703C48.3043 68.0033 48.3881 68.0568 48.4565 68.1269C48.5248 68.1969 48.576 68.2816 48.6061 68.3744C48.6361 68.4671 48.6442 68.5655 48.6297 68.6618Z" fill="#263238"/>
<path d="M49.0444 68.7883C49.0417 68.675 49.0626 68.5624 49.106 68.4575C49.1494 68.3526 49.2143 68.2578 49.2966 68.179C49.3789 68.1002 49.4768 68.0391 49.5841 67.9996C49.6914 67.96 49.8058 67.943 49.9202 67.9494C50.055 67.9412 50.1896 67.9696 50.3093 68.0316C50.4291 68.0935 50.5294 68.1867 50.5996 68.301L50.369 68.4459C50.3205 68.3716 50.2534 68.3109 50.1742 68.2698C50.095 68.2287 50.0064 68.2086 49.9171 68.2115C49.7694 68.2222 49.6314 68.2878 49.5306 68.3951C49.4299 68.5023 49.3739 68.6434 49.3739 68.7899C49.3739 68.9363 49.4299 69.0774 49.5306 69.1846C49.6314 69.2919 49.7694 69.3575 49.9171 69.3682C50.0067 69.3704 50.0954 69.3498 50.1745 69.3082C50.2537 69.2666 50.3207 69.2054 50.369 69.1307L50.5996 69.2725C50.5296 69.3872 50.4293 69.4808 50.3096 69.5433C50.1899 69.6057 50.0553 69.6348 49.9202 69.6272C49.806 69.6332 49.6917 69.6158 49.5846 69.5761C49.4775 69.5364 49.3798 69.4753 49.2976 69.3966C49.2155 69.3179 49.1506 69.2232 49.107 69.1185C49.0634 69.0139 49.0421 68.9015 49.0444 68.7883Z" fill="#263238"/>
<path d="M52.4567 68.8869H51.1104C51.1298 69.0278 51.2029 69.1561 51.3147 69.2455C51.4264 69.3349 51.5685 69.3788 51.7118 69.368C51.8017 69.3708 51.8911 69.3544 51.974 69.3198C52.0568 69.2852 52.1311 69.2332 52.1918 69.1675L52.357 69.3618C52.2344 69.4876 52.0775 69.5752 51.9054 69.6139C51.7333 69.6527 51.5535 69.6408 51.388 69.5799C51.2226 69.519 51.0787 69.4117 50.974 69.271C50.8694 69.1304 50.8084 68.9626 50.7987 68.7882C50.7944 68.6779 50.813 68.5679 50.8533 68.4651C50.8936 68.3622 50.9547 68.2685 51.033 68.1899C51.1112 68.1113 51.2049 68.0494 51.3083 68.008C51.4116 67.9666 51.5225 67.9466 51.6339 67.9492C51.7456 67.9464 51.8566 67.9667 51.9598 68.0088C52.0631 68.0509 52.1563 68.1139 52.2335 68.1938C52.3106 68.2736 52.3701 68.3686 52.408 68.4726C52.4459 68.5765 52.4614 68.6872 52.4536 68.7974C52.4629 68.8221 52.4598 68.8591 52.4567 68.8869ZM51.1104 68.671H52.1762C52.162 68.5409 52.0997 68.4207 52.0013 68.3333C51.903 68.2459 51.7755 68.1976 51.6433 68.1976C51.5111 68.1976 51.3836 68.2459 51.2852 68.3333C51.1869 68.4207 51.1246 68.5409 51.1104 68.671Z" fill="#263238"/>
<path d="M85.0027 40.8016C85.0027 40.8481 74.2476 40.8822 60.9837 40.8822C47.7198 40.8822 36.9615 40.8481 36.9615 40.8016C36.9615 40.7551 47.7167 40.7211 60.9837 40.7211C74.2507 40.7211 85.0027 40.7582 85.0027 40.8016Z" fill="#263238"/>
<path d="M85.0027 44.4011C85.0027 44.4445 74.2476 44.4817 60.9837 44.4817C47.7198 44.4817 36.9615 44.4445 36.9615 44.4011C36.9615 44.3577 47.7167 44.3206 60.9837 44.3206C74.2507 44.3206 85.0027 44.3546 85.0027 44.4011Z" fill="#263238"/>
<path d="M85.0027 47.9974C85.0027 48.0439 74.2476 48.078 60.9837 48.078C47.7198 48.078 36.9615 48.0439 36.9615 47.9974C36.9615 47.9509 47.7167 47.9169 60.9837 47.9169C74.2507 47.9169 85.0027 47.954 85.0027 47.9974Z" fill="#263238"/>
<path d="M85.0027 51.5967C85.0027 51.64 74.2476 51.6772 60.9837 51.6772C47.7198 51.6772 36.9615 51.64 36.9615 51.5967C36.9615 51.5533 47.7167 51.5161 60.9837 51.5161C74.2507 51.5161 85.0027 51.5502 85.0027 51.5967Z" fill="#263238"/>
<path d="M85.0027 55.193C85.0027 55.2395 74.2476 55.2736 60.9837 55.2736C47.7198 55.2736 36.9615 55.2395 36.9615 55.193C36.9615 55.1465 47.7167 55.1125 60.9837 55.1125C74.2507 55.1125 85.0027 55.1496 85.0027 55.193Z" fill="#263238"/>
<path d="M85.0027 58.7925C85.0027 58.8359 74.2476 58.873 60.9837 58.873C47.7198 58.873 36.9615 58.8359 36.9615 58.7925C36.9615 58.7491 47.7167 58.7119 60.9837 58.7119C74.2507 58.7119 85.0027 58.746 85.0027 58.7925Z" fill="#263238"/>
<path d="M85.0027 72.4496C85.0027 72.4929 74.2476 72.5301 60.9837 72.5301C47.7198 72.5301 36.9615 72.4929 36.9615 72.4496C36.9615 72.4062 47.7167 72.369 60.9837 72.369C74.2507 72.369 85.0027 72.4124 85.0027 72.4496Z" fill="#263238"/>
<path d="M85.0027 75.534C85.0027 75.5805 74.2476 75.6146 60.9837 75.6146C47.7198 75.6146 36.9615 75.5805 36.9615 75.534C36.9615 75.4876 47.7167 75.4535 60.9837 75.4535C74.2507 75.4535 85.0027 75.4907 85.0027 75.534Z" fill="#E0E0E0"/>
<path d="M85.0027 78.6182C85.0027 78.6616 74.2476 78.6988 60.9837 78.6988C47.7198 78.6988 36.9615 78.6616 36.9615 78.6182C36.9615 78.5748 47.7167 78.5377 60.9837 78.5377C74.2507 78.5377 85.0027 78.5686 85.0027 78.6182Z" fill="#EBEBEB"/>
<path d="M88.5086 87.8182H63.0964V97.1883H88.5086V87.8182Z" fill="#4CAFE3"/>
<path d="M71.5611 92.9877H70.3144L70.0558 93.5706H69.7098L70.7757 91.242H71.106L72.175 93.5706H71.8228L71.5611 92.9877ZM71.4426 92.7224L70.9346 91.5812L70.4298 92.7224H71.4426Z" fill="white"/>
<path d="M72.2934 92.6885C72.2911 92.5676 72.3139 92.4476 72.3605 92.3359C72.407 92.2241 72.4763 92.123 72.5639 92.0389C72.6516 91.9547 72.7558 91.8893 72.8701 91.8466C72.9844 91.804 73.1063 91.785 73.2283 91.791C73.3725 91.7825 73.5163 91.813 73.6442 91.8793C73.7721 91.9456 73.8794 92.0452 73.9545 92.1673L73.7083 92.3215C73.6567 92.2416 73.585 92.1764 73.5004 92.1321C73.4157 92.0877 73.3209 92.0659 73.2252 92.0686C73.0599 92.0686 72.9014 92.1336 72.7845 92.2492C72.6676 92.3649 72.6019 92.5218 72.6019 92.6854C72.6019 92.849 72.6676 93.0059 72.7845 93.1216C72.9014 93.2373 73.0599 93.3023 73.2252 93.3023C73.3209 93.305 73.4157 93.2831 73.5004 93.2388C73.585 93.1945 73.6567 93.1292 73.7083 93.0494L73.9545 93.2005C73.8795 93.3229 73.7724 93.4229 73.6445 93.4897C73.5166 93.5566 73.3727 93.5877 73.2283 93.5799C73.1069 93.5858 72.9855 93.567 72.8716 93.5247C72.7577 93.4825 72.6538 93.4176 72.5662 93.3341C72.4787 93.2506 72.4093 93.1503 72.3624 93.0392C72.3154 92.9282 72.2919 92.8088 72.2934 92.6885Z" fill="white"/>
<path d="M74.1853 92.6884C74.1831 92.5675 74.2059 92.4475 74.2524 92.3357C74.299 92.224 74.3682 92.1229 74.4559 92.0387C74.5436 91.9546 74.6478 91.8891 74.7621 91.8465C74.8764 91.8038 74.9983 91.7849 75.1203 91.7908C75.2645 91.782 75.4084 91.8124 75.5364 91.8787C75.6644 91.945 75.7716 92.0448 75.8464 92.1671L75.6002 92.3213C75.5486 92.2415 75.477 92.1762 75.3924 92.1319C75.3077 92.0876 75.2129 92.0657 75.1172 92.0684C74.9519 92.0684 74.7933 92.1334 74.6764 92.2491C74.5595 92.3648 74.4939 92.5217 74.4939 92.6853C74.4939 92.8489 74.5595 93.0058 74.6764 93.1215C74.7933 93.2372 74.9519 93.3021 75.1172 93.3021C75.2129 93.3048 75.3077 93.283 75.3924 93.2386C75.477 93.1943 75.5486 93.1291 75.6002 93.0492L75.8464 93.2004C75.7718 93.323 75.6647 93.4232 75.5367 93.4901C75.4087 93.5569 75.2648 93.5879 75.1203 93.5797C74.9988 93.5856 74.8774 93.5669 74.7636 93.5246C74.6497 93.4823 74.5458 93.4175 74.4582 93.334C74.3706 93.2505 74.3012 93.1501 74.2543 93.0391C74.2074 92.9281 74.1839 92.8087 74.1853 92.6884Z" fill="white"/>
<path d="M77.847 92.8057H76.401C76.422 92.9567 76.5004 93.0941 76.6203 93.1899C76.7402 93.2856 76.8925 93.3324 77.0461 93.3208C77.1423 93.3241 77.238 93.3068 77.3267 93.2701C77.4155 93.2334 77.4952 93.1781 77.5603 93.108L77.738 93.3146C77.6486 93.4099 77.5392 93.4847 77.4175 93.5337C77.2959 93.5827 77.1648 93.6048 77.0336 93.5984C76.9096 93.6075 76.785 93.5907 76.6679 93.5493C76.5508 93.5079 76.4438 93.4427 76.3536 93.3578C76.2635 93.273 76.1924 93.1705 76.1447 93.0568C76.097 92.9431 76.0739 92.8208 76.0769 92.6978C76.0721 92.5797 76.0919 92.4619 76.135 92.3517C76.1782 92.2415 76.2437 92.1413 76.3275 92.0571C76.4113 91.973 76.5117 91.9068 76.6225 91.8626C76.7332 91.8184 76.8519 91.7972 76.9713 91.8002C77.0911 91.7965 77.2103 91.8177 77.3213 91.8624C77.4324 91.9071 77.5327 91.9743 77.6158 92.0598C77.6989 92.1452 77.763 92.247 77.8039 92.3585C77.8448 92.47 77.8616 92.5887 77.8533 92.707C77.8533 92.7255 77.8502 92.7656 77.847 92.8057ZM76.401 92.5744H77.5416C77.5269 92.4349 77.4604 92.3057 77.3551 92.2118C77.2498 92.1179 77.113 92.066 76.9713 92.066C76.8295 92.066 76.6928 92.1179 76.5875 92.2118C76.4822 92.3057 76.4157 92.4349 76.401 92.5744Z" fill="white"/>
<path d="M80.1437 92.6884C80.1504 92.8076 80.1317 92.9269 80.0889 93.0385C80.0462 93.1502 79.9802 93.2517 79.8953 93.3365C79.8105 93.4214 79.7086 93.4877 79.5962 93.5312C79.4839 93.5747 79.3636 93.5944 79.2431 93.589C79.124 93.5929 79.0057 93.5693 78.8976 93.52C78.7894 93.4708 78.6942 93.3972 78.6198 93.3053V94.2152H78.3081V91.8063H78.6198V92.087C78.6909 91.9898 78.7847 91.9109 78.8933 91.8573C79.0018 91.8036 79.1218 91.7766 79.2431 91.7786C79.3644 91.7731 79.4856 91.793 79.5986 91.8371C79.7116 91.8811 79.814 91.9483 79.899 92.0341C79.984 92.12 80.0498 92.2227 80.0919 92.3354C80.1341 92.4482 80.1518 92.5685 80.1437 92.6884ZM79.8165 92.6884C79.8122 92.5717 79.7733 92.4588 79.7047 92.3638C79.6361 92.2688 79.5407 92.1959 79.4305 92.1541C79.3203 92.1123 79.2001 92.1036 79.0849 92.1289C78.9697 92.1543 78.8645 92.2126 78.7826 92.2967C78.7006 92.3807 78.6455 92.4868 78.624 92.6016C78.6025 92.7164 78.6156 92.835 78.6617 92.9425C78.7078 93.05 78.7848 93.1418 78.8832 93.2063C78.9816 93.2708 79.097 93.3052 79.215 93.3053C79.2964 93.3071 79.3772 93.2923 79.4525 93.2616C79.5278 93.231 79.5958 93.1853 79.6523 93.1273C79.7089 93.0693 79.7526 93.0004 79.7809 92.9249C79.8091 92.8493 79.8213 92.7688 79.8165 92.6884Z" fill="white"/>
<path d="M81.5931 93.4658C81.4802 93.5497 81.3417 93.5932 81.2004 93.5891C81.1248 93.5979 81.0481 93.5897 80.9761 93.5651C80.904 93.5405 80.8385 93.5003 80.7843 93.4472C80.7302 93.3942 80.6887 93.3298 80.6631 93.2588C80.6375 93.1878 80.6284 93.112 80.6364 93.037V92.0686H80.3247V91.8064H80.6364V91.4209H80.948V91.8064H81.4591V92.0686H80.948V93.0247C80.9402 93.0639 80.9416 93.1044 80.9523 93.143C80.9629 93.1816 80.9824 93.2172 81.0093 93.2471C81.0362 93.277 81.0696 93.3003 81.1071 93.3152C81.1446 93.3301 81.1851 93.3363 81.2254 93.3331C81.3166 93.3345 81.4057 93.3052 81.4778 93.2499L81.5931 93.4658Z" fill="white"/>
<path d="M35.7739 97.2623C35.7739 97.2623 35.7521 97.2623 35.7116 97.2222L35.5308 97.0834L34.7735 96.5067L34.7455 96.4851L34.7798 96.4696C37.8464 95.3069 47.8473 91.5934 60.1732 87.0471L60.2168 87.0317L60.2511 87.0594L61.2359 87.8429L61.2671 87.8675V97.3548H61.1861L43.0167 97.324L37.6906 97.3024H36.2632H35.8955C35.855 97.3044 35.8144 97.3044 35.7739 97.3024H35.9017H36.2726H37.7093L43.0417 97.2808L61.1861 97.25L61.1081 97.3271C61.1081 95.1526 61.1081 92.8764 61.1081 90.5416V87.957L61.1393 88.0187L60.1545 87.2322H60.2324C47.9034 91.7722 37.8869 95.4426 34.7985 96.5468V96.5128L35.534 97.1143L35.7147 97.2623H35.7739Z" fill="#4CAFE3"/>
<path d="M60.198 87.109H34.7859V96.4791H60.198V87.109Z" fill="white"/>
<path d="M60.2015 96.4791C60.2015 96.4791 60.2015 96.4205 60.2015 96.3095C60.2015 96.1984 60.2015 96.035 60.2015 95.8252C60.2015 95.3965 60.2015 94.7704 60.2015 93.9746C60.2015 92.3616 60.1829 90.0267 60.1704 87.1182L60.2265 87.1738L34.8144 87.1984L34.8954 87.1182C34.8954 90.3876 34.8954 93.5521 34.8954 96.4884L34.8175 96.4112L53.0086 96.4483L58.3067 96.4698H59.731H60.1018H60.2296H60.1112H59.7497H58.3441L53.0616 96.4914L34.8144 96.5285H34.7365V96.4513C34.7365 93.5151 34.7365 90.3506 34.7365 87.0812V87.001H34.8206L60.2327 87.0257H60.2888V87.0812C60.2888 90.0021 60.2639 92.3492 60.2576 93.9716C60.2576 94.7704 60.2576 95.3903 60.2576 95.8221C60.2576 96.0257 60.2576 96.183 60.2576 96.2971C60.2576 96.4112 60.2015 96.4791 60.2015 96.4791Z" fill="#4CAFE3"/>
<path d="M41.7516 91.1311H42.7426C42.9046 91.1194 43.0671 91.1409 43.2203 91.1942C43.3734 91.2475 43.5138 91.3315 43.6327 91.4409C43.7516 91.5503 43.8464 91.6828 43.9112 91.8301C43.9761 91.9773 44.0095 92.1363 44.0095 92.2969C44.0095 92.4576 43.9761 92.6165 43.9112 92.7638C43.8464 92.9111 43.7516 93.0436 43.6327 93.153C43.5138 93.2624 43.3734 93.3464 43.2203 93.3997C43.0671 93.453 42.9046 93.4745 42.7426 93.4628H41.7516V91.1311ZM42.7239 93.1729C42.8464 93.1831 42.9697 93.168 43.086 93.1286C43.2023 93.0892 43.309 93.0263 43.3995 92.944C43.49 92.8617 43.5622 92.7616 43.6116 92.6503C43.661 92.5389 43.6865 92.4186 43.6865 92.2969C43.6865 92.1753 43.661 92.055 43.6116 91.9436C43.5622 91.8322 43.49 91.7322 43.3995 91.6499C43.309 91.5676 43.2023 91.5047 43.086 91.4653C42.9697 91.4259 42.8464 91.4108 42.7239 91.421H42.1006V93.1729H42.7239Z" fill="#4CAFE3"/>
<path d="M46.0837 92.6852H44.6376C44.6586 92.8368 44.7375 92.9747 44.8581 93.0705C44.9787 93.1663 45.1317 93.2128 45.2858 93.2003C45.3821 93.2043 45.478 93.1873 45.5669 93.1505C45.6557 93.1137 45.7353 93.0581 45.8001 92.9875L45.9777 93.1941C45.8457 93.3259 45.6781 93.4172 45.495 93.4568C45.3118 93.4965 45.121 93.4829 44.9454 93.4177C44.7699 93.3526 44.6172 93.2385 44.5056 93.0894C44.394 92.9403 44.3284 92.7625 44.3166 92.5773C44.3114 92.459 44.3309 92.3408 44.3738 92.2303C44.4168 92.1197 44.4822 92.0191 44.5661 91.9346C44.65 91.8501 44.7505 91.7837 44.8615 91.7393C44.9724 91.6949 45.0914 91.6736 45.2111 91.6767C45.331 91.6734 45.4503 91.6949 45.5613 91.74C45.6723 91.7851 45.7726 91.8526 45.8557 91.9383C45.9387 92.024 46.0027 92.1259 46.0436 92.2376C46.0845 92.3492 46.1013 92.4681 46.093 92.5865C46.093 92.6174 46.0868 92.6544 46.0837 92.6852ZM44.6376 92.457H45.7814C45.7636 92.3193 45.6957 92.1928 45.5904 92.1012C45.4851 92.0095 45.3497 91.9589 45.2095 91.9589C45.0693 91.9589 44.9339 92.0095 44.8286 92.1012C44.7233 92.1928 44.6554 92.3193 44.6376 92.457Z" fill="#4CAFE3"/>
<path d="M46.3733 92.5805C46.3706 92.4594 46.3931 92.3391 46.4394 92.2269C46.4858 92.1148 46.555 92.0133 46.6427 91.9288C46.7304 91.8443 46.8348 91.7786 46.9493 91.7358C47.0638 91.693 47.186 91.674 47.3082 91.6799C47.4524 91.6714 47.5962 91.702 47.7241 91.7683C47.852 91.8346 47.9593 91.9341 48.0344 92.0562L47.7882 92.2135C47.7363 92.1339 47.6647 92.0688 47.5801 92.0245C47.4955 91.9802 47.4008 91.9582 47.3051 91.9606C47.1398 91.9606 46.9813 92.0256 46.8644 92.1413C46.7475 92.2569 46.6818 92.4139 46.6818 92.5775C46.6818 92.7411 46.7475 92.898 46.8644 93.0136C46.9813 93.1293 47.1398 93.1943 47.3051 93.1943C47.4008 93.1967 47.4955 93.1747 47.5801 93.1304C47.6647 93.0861 47.7363 93.021 47.7882 92.9414L48.0344 93.0956C47.9594 93.218 47.8523 93.318 47.7244 93.3848C47.5965 93.4517 47.4526 93.4828 47.3082 93.475C47.1865 93.4809 47.0648 93.462 46.9508 93.4196C46.8367 93.3771 46.7326 93.312 46.645 93.2282C46.5574 93.1443 46.488 93.0436 46.4413 92.9322C46.3946 92.8208 46.3714 92.7011 46.3733 92.5805Z" fill="#4CAFE3"/>
<path d="M48.4332 90.9921H48.7443V93.4595H48.4332V90.9921Z" fill="#4CAFE3"/>
<path d="M49.3124 91.1525C49.3128 91.1246 49.3187 91.097 49.3299 91.0713C49.3411 91.0456 49.3572 91.0224 49.3774 91.0029C49.3977 90.9834 49.4216 90.9681 49.4478 90.9578C49.474 90.9475 49.502 90.9424 49.5301 90.9428C49.5717 90.944 49.612 90.9573 49.6459 90.9811C49.6799 91.0049 49.706 91.038 49.7211 91.0764C49.7362 91.1148 49.7395 91.1568 49.7306 91.1971C49.7218 91.2373 49.7012 91.2741 49.6713 91.3028C49.6415 91.3316 49.6038 91.3509 49.563 91.3585C49.5221 91.3661 49.4799 91.3617 49.4416 91.3456C49.4033 91.3296 49.3706 91.3027 49.3476 91.2684C49.3247 91.234 49.3124 91.1937 49.3124 91.1525ZM49.3715 91.6984H49.6826V93.4627H49.3715V91.6984Z" fill="#4CAFE3"/>
<path d="M51.9988 92.4479V93.4627H51.6872V92.4973C51.6872 92.1518 51.5095 91.9822 51.2041 91.9822C51.1261 91.9766 51.0479 91.9882 50.975 92.0161C50.9021 92.044 50.8363 92.0875 50.7824 92.1435C50.7285 92.1995 50.6877 92.2666 50.6631 92.3401C50.6385 92.4135 50.6306 92.4914 50.64 92.5682V93.4781H50.3284V91.7139H50.64V91.9791C50.7162 91.8844 50.8143 91.8091 50.9261 91.7597C51.0378 91.7104 51.1599 91.6883 51.282 91.6954C51.381 91.6913 51.4797 91.7084 51.5715 91.7454C51.6633 91.7824 51.7459 91.8385 51.8139 91.9098C51.8818 91.9812 51.9335 92.0662 51.9654 92.159C51.9973 92.2518 52.0087 92.3504 51.9988 92.4479Z" fill="#4CAFE3"/>
<path d="M54.2114 92.6852H52.7654C52.7864 92.8363 52.8648 92.9737 52.9847 93.0694C53.1046 93.1651 53.2569 93.2119 53.4105 93.2003C53.5067 93.2043 53.6026 93.1873 53.6915 93.1505C53.7804 93.1137 53.86 93.0581 53.9247 92.9875L54.1024 93.1941C53.9704 93.3259 53.8027 93.4172 53.6196 93.4568C53.4364 93.4965 53.2456 93.4829 53.0701 93.4177C52.8945 93.3526 52.7418 93.2385 52.6302 93.0894C52.5187 92.9403 52.453 92.7625 52.4412 92.5773C52.4361 92.459 52.4556 92.3408 52.4985 92.2303C52.5414 92.1197 52.6068 92.0191 52.6907 91.9346C52.7746 91.8501 52.8751 91.7837 52.9861 91.7393C53.0971 91.6949 53.2161 91.6736 53.3357 91.6767C53.4556 91.6734 53.5749 91.6949 53.6859 91.74C53.797 91.7851 53.8972 91.8526 53.9803 91.9383C54.0633 92.024 54.1274 92.1259 54.1683 92.2376C54.2091 92.3492 54.226 92.4681 54.2177 92.5865C54.2177 92.6174 54.2145 92.6544 54.2114 92.6852ZM52.7654 92.457H53.906C53.8913 92.3175 53.8248 92.1883 53.7195 92.0944C53.6142 92.0005 53.4774 91.9486 53.3357 91.9486C53.1939 91.9486 53.0572 92.0005 52.9519 92.0944C52.8466 92.1883 52.7801 92.3175 52.7654 92.457Z" fill="#4CAFE3"/>
<path d="M61.1862 97.2626C61.155 97.2965 60.9088 97.1114 60.6377 96.8524C60.3666 96.5933 60.1702 96.3589 60.2014 96.3249C60.2325 96.291 60.4787 96.4792 60.7499 96.7382C61.021 96.9973 61.2174 97.2317 61.1862 97.2626Z" fill="#4CAFE3"/>
<path d="M97.4905 94.9215L101.118 93.1943L99.1236 87.3588L94.7418 86.3564C94.3335 86.2639 93.8785 86.1559 93.3736 86.0171C92.7799 85.8533 92.2183 85.5915 91.7125 85.243C91.0681 84.8377 90.4829 84.3469 89.9735 83.7841C89.559 83.2258 88.6801 83.4355 88.6801 84.0555C88.6801 84.6754 89.7865 86.2392 91.753 87.3464C93.7195 88.4537 90.2415 88.9873 88.9824 89.197C87.7233 89.4068 83.8526 90.2673 83.622 90.7022C83.2854 91.3375 83.9337 91.8248 85.1803 91.5812C86.4269 91.3375 90.2571 90.8564 90.3568 91.5164V91.5349C90.0494 92.0109 89.9 92.57 89.9296 93.1341C89.9592 93.6983 90.1663 94.2391 90.522 94.6809C91.2263 95.5538 92.2828 96.6487 93.0588 96.4822C94.5174 96.1768 97.4905 94.9215 97.4905 94.9215Z" fill="#B55B52"/>
<path d="M97.2692 84.6538L100.669 96.0317L127.069 88.0928C128.417 87.6853 129.669 87.0159 130.752 86.1238C131.835 85.2317 132.727 84.1348 133.377 82.8972C134.026 81.6596 134.42 80.3063 134.534 78.9164C134.649 77.5265 134.482 76.1279 134.044 74.8025L127.571 54.8687L113.512 58.3231L121.229 76.7672L97.2692 84.6538Z" fill="#4CAFE3"/>
<path d="M127.665 87.8923L127.537 87.9386L127.157 88.0589L125.679 88.5123L120.148 90.1901L100.931 95.9609L100.86 95.9794L100.835 95.9115C99.6596 92.4324 98.519 88.6079 97.2007 84.6785L97.1758 84.6045L97.2537 84.5767L97.9175 84.3608L121.217 76.7025L121.179 76.7858C119.309 72.3135 117.795 68.6494 116.735 66.0956C116.211 64.8248 115.8 63.8317 115.52 63.1501C115.386 62.8139 115.28 62.5548 115.208 62.3759C115.136 62.197 115.108 62.1107 115.108 62.1107C115.108 62.1107 115.152 62.197 115.227 62.3697L115.557 63.1346C115.844 63.8132 116.264 64.8032 116.804 66.0678C117.876 68.6154 119.415 72.2734 121.298 76.7395L121.323 76.8012L121.257 76.8228L97.958 84.5119L97.2942 84.7309L97.3441 84.6291C98.6655 88.5616 99.7999 92.3862 100.972 95.8622L100.878 95.8128L120.11 90.1007L125.664 88.4629L127.147 88.0342L127.534 87.9263L127.665 87.8923Z" fill="#263238"/>
<path d="M126.11 80.0831C126.085 80.0831 125.91 79.7962 125.558 79.3613C124.633 78.2249 123.376 77.3996 121.958 76.9988C121.416 76.8446 121.067 76.8014 121.07 76.7736C121.153 76.7589 121.237 76.7589 121.319 76.7736C121.544 76.7944 121.767 76.8315 121.986 76.8846C122.714 77.0592 123.406 77.3576 124.031 77.7668C124.656 78.1758 125.203 78.6905 125.648 79.2873C125.783 79.4672 125.904 79.6569 126.01 79.8548C126.057 79.9243 126.091 80.0016 126.11 80.0831Z" fill="#263238"/>
<path d="M119.711 59.2917C119.629 58.7332 119.603 58.1682 119.63 57.6046C119.603 57.041 119.629 56.476 119.711 55.9175C119.818 57.0397 119.818 58.1695 119.711 59.2917Z" fill="#FAFAFA"/>
<path d="M125.013 59.5602C124.77 59.0407 124.578 58.4995 124.439 57.944C124.247 57.4041 124.107 56.8475 124.021 56.2816C124.455 57.3412 124.787 58.439 125.013 59.5602Z" fill="#FAFAFA"/>
<path d="M121.725 64.2945C120.633 64.2862 119.566 63.9764 118.642 63.4001C118.664 63.3569 119.316 63.6622 120.166 63.9059C121.017 64.1496 121.728 64.2483 121.725 64.2945Z" fill="#FAFAFA"/>
<path d="M127.721 66.8975C127.733 66.3557 127.8 65.8163 127.92 65.2875C127.986 64.7487 128.106 64.2177 128.278 63.7022C128.264 64.245 128.197 64.7852 128.079 65.3153C128.013 65.8532 127.893 66.3833 127.721 66.8975Z" fill="#FAFAFA"/>
<path d="M125.576 71.1477C125.011 70.1857 124.543 69.1713 124.177 68.1189C124.741 69.0818 125.209 70.096 125.576 71.1477Z" fill="#FAFAFA"/>
<path d="M124.698 74.8674C124.184 74.7121 123.688 74.5054 123.217 74.2506C122.723 74.0443 122.252 73.788 121.812 73.4857C122.323 73.6446 122.817 73.8511 123.289 74.1025C123.784 74.3094 124.256 74.5657 124.698 74.8674Z" fill="#FAFAFA"/>
<path d="M131.442 73.8772C131.274 74.361 131.075 74.8339 130.847 75.2929C130.669 75.7721 130.461 76.2398 130.224 76.6932C130.445 75.6865 130.859 74.7308 131.442 73.8772Z" fill="#FAFAFA"/>
<path d="M129.565 82.8372C129.341 81.696 129.225 80.5363 129.22 79.3736C129.355 79.9397 129.44 80.5167 129.472 81.0977C129.556 81.6735 129.588 82.2558 129.565 82.8372Z" fill="#FAFAFA"/>
<path d="M124.804 85.6657C124.354 85.3697 123.936 85.0286 123.557 84.6479C123.144 84.3077 122.766 83.9275 122.429 83.5129C122.879 83.8089 123.296 84.15 123.675 84.5307C124.089 84.8709 124.467 85.2511 124.804 85.6657Z" fill="#FAFAFA"/>
<path d="M116.576 86.4768C115.987 87.4559 115.304 88.3772 114.538 89.228C114.808 88.7246 115.128 88.2484 115.491 87.8061C115.81 87.3304 116.173 86.8853 116.576 86.4768Z" fill="#FAFAFA"/>
<path d="M119.185 82.6614C118.711 82.3589 118.286 81.9889 117.922 81.5634C117.52 81.1746 117.179 80.7274 116.913 80.2371C116.95 80.2094 117.414 80.7892 118.041 81.4554C118.667 82.1216 119.213 82.6275 119.185 82.6614Z" fill="#FAFAFA"/>
<path d="M112.98 83.5281C112.584 83.6855 112.155 83.7376 111.733 83.6792C111.308 83.6739 110.892 83.5614 110.524 83.3522C110.542 83.306 111.069 83.4725 111.742 83.5188C112.415 83.5651 112.98 83.4818 112.98 83.5281Z" fill="#FAFAFA"/>
<path d="M109.049 90.2766C108.894 89.848 108.789 89.4029 108.738 88.9503C108.633 88.5066 108.581 88.0521 108.585 87.5963C108.845 88.4687 109.001 89.3682 109.049 90.2766Z" fill="#FAFAFA"/>
<path d="M104.413 92.6021C103.337 92.0582 102.314 91.4192 101.355 90.6929C101.905 90.9422 102.432 91.2394 102.929 91.5812C103.453 91.8778 103.949 92.2195 104.413 92.6021Z" fill="#FAFAFA"/>
<path d="M106.067 84.3918C106.101 84.4226 105.649 84.9531 105.148 85.644C104.646 86.3349 104.272 86.924 104.231 86.9024C104.42 86.4136 104.684 85.9568 105.014 85.5484C105.301 85.1101 105.656 84.7197 106.067 84.3918Z" fill="#FAFAFA"/>
<path d="M102.483 85.9493C102.161 85.8789 101.852 85.7571 101.57 85.5884C101.265 85.467 100.983 85.296 100.735 85.0826C101.362 85.2733 101.953 85.5662 102.483 85.9493Z" fill="#FAFAFA"/>
<g opacity="0.2">
<path d="M121.008 76.2953C122.416 76.4372 123.828 76.5822 125.234 76.758C125.724 76.7933 126.207 76.8972 126.667 77.0664C126.896 77.1547 127.105 77.288 127.281 77.4581C127.456 77.6282 127.595 77.8318 127.69 78.0565C127.778 78.2843 127.787 78.5344 127.717 78.7681C127.646 79.0018 127.5 79.2059 127.3 79.3488C127.1 79.45 126.878 79.498 126.654 79.4883C126.43 79.4786 126.212 79.4114 126.022 79.2933C125.645 79.0557 125.292 78.7819 124.969 78.4759C124.335 77.9571 123.598 77.5757 122.806 77.3563C122.445 77.2885 122.096 77.1679 121.771 76.9986C121.609 76.9092 121.479 76.7723 121.398 76.6066C121.318 76.4408 121.291 76.2545 121.323 76.0733" fill="black"/>
</g>
</svg>
