<svg width="25" height="25" viewBox="0 0 25 25" fill="none" xmlns="http://www.w3.org/2000/svg">
<g clip-path="url(#clip0_1569_7429)">
<path d="M20.5 8.52637C19.9167 8.78678 19.2865 8.96387 18.6094 9.05762C19.3177 8.64095 19.8021 8.03158 20.0625 7.22949C19.3854 7.62533 18.6875 7.89095 17.9688 8.02637C17.3333 7.33887 16.5365 6.99512 15.5781 6.99512C14.6719 6.99512 13.8984 7.31543 13.2578 7.95605C12.6172 8.59668 12.2969 9.37012 12.2969 10.2764C12.2969 10.5785 12.3229 10.8285 12.375 11.0264C11.0312 10.9535 9.77083 10.6149 8.59375 10.0107C7.41667 9.40658 6.41667 8.59928 5.59375 7.58887C5.29167 8.1097 5.14062 8.66178 5.14062 9.24512C5.14062 10.4326 5.61458 11.3441 6.5625 11.9795C6.07292 11.9691 5.55208 11.8337 5 11.5732V11.6045C5 12.3857 5.26042 13.0811 5.78125 13.6904C6.30208 14.2998 6.94271 14.6774 7.70312 14.8232C7.40104 14.9066 7.13542 14.9482 6.90625 14.9482C6.77083 14.9482 6.56771 14.9274 6.29688 14.8857C6.51562 15.542 6.90365 16.0837 7.46094 16.5107C8.01823 16.9378 8.65104 17.1566 9.35938 17.167C8.15104 18.1045 6.79167 18.5732 5.28125 18.5732C5.01042 18.5732 4.75 18.5576 4.5 18.5264C6.04167 19.5055 7.71875 19.9951 9.53125 19.9951C10.6979 19.9951 11.7917 19.8102 12.8125 19.4404C13.8333 19.0706 14.7083 18.5758 15.4375 17.9561C16.1667 17.3363 16.7943 16.6227 17.3203 15.8154C17.8464 15.0081 18.237 14.1644 18.4922 13.2842C18.7474 12.404 18.875 11.5264 18.875 10.6514C18.875 10.4639 18.8698 10.3232 18.8594 10.2295C19.5156 9.76074 20.0625 9.19303 20.5 8.52637ZM24.5 5.49512V20.4951C24.5 21.7347 24.0599 22.7946 23.1797 23.6748C22.2995 24.555 21.2396 24.9951 20 24.9951H5C3.76042 24.9951 2.70052 24.555 1.82031 23.6748C0.940104 22.7946 0.5 21.7347 0.5 20.4951V5.49512C0.5 4.25553 0.940104 3.19564 1.82031 2.31543C2.70052 1.43522 3.76042 0.995117 5 0.995117H20C21.2396 0.995117 22.2995 1.43522 23.1797 2.31543C24.0599 3.19564 24.5 4.25553 24.5 5.49512Z" fill="#131622"/>
</g>
<defs>
<clipPath id="clip0_1569_7429">
<rect width="24" height="24" fill="white" transform="translate(0.5 0.995117)"/>
</clipPath>
</defs>
</svg>
