<svg width="284" height="217" viewBox="0 0 284 217" fill="none" xmlns="http://www.w3.org/2000/svg">
<path d="M86.4572 101.638C86.545 102.239 86.392 102.851 86.0314 103.339C85.6708 103.828 85.1319 104.155 84.5317 104.249C84.2342 104.285 83.9325 104.262 83.6441 104.18C83.3556 104.099 83.0861 103.962 82.8511 103.776C82.6162 103.59 82.4203 103.359 82.275 103.097C82.1297 102.835 82.0377 102.547 82.0044 102.249C81.9218 101.647 82.078 101.037 82.4396 100.549C82.8012 100.061 83.3395 99.7345 83.9392 99.6385C84.236 99.6037 84.5367 99.6279 84.8241 99.7096C85.1114 99.7914 85.3798 99.9292 85.6138 100.115C85.8478 100.301 86.0428 100.531 86.1875 100.792C86.3322 101.054 86.4239 101.341 86.4572 101.638Z" fill="#131622"/>
<path d="M263.385 111.255C263.471 111.857 263.315 112.469 262.953 112.957C262.591 113.446 262.051 113.772 261.451 113.866C261.154 113.902 260.853 113.879 260.565 113.797C260.277 113.716 260.008 113.579 259.774 113.392C259.539 113.206 259.344 112.976 259.2 112.714C259.056 112.452 258.965 112.164 258.933 111.866C258.847 111.266 259.001 110.655 259.362 110.167C259.722 109.679 260.259 109.352 260.858 109.256C261.155 109.221 261.457 109.245 261.745 109.327C262.033 109.408 262.302 109.546 262.536 109.732C262.771 109.917 262.967 110.148 263.113 110.409C263.258 110.67 263.351 110.958 263.385 111.255Z" fill="#131622"/>
<path d="M212.544 93.1395C212.583 93.4398 212.504 93.7437 212.322 93.986C212.14 94.2283 211.871 94.3897 211.571 94.4356C211.423 94.4549 211.273 94.4445 211.129 94.405C210.985 94.3654 210.851 94.2975 210.734 94.2052C210.616 94.113 210.519 93.9982 210.446 93.8676C210.374 93.7371 210.328 93.5934 210.312 93.445C210.269 93.1501 210.341 92.8497 210.513 92.6065C210.686 92.3634 210.945 92.1961 211.238 92.1397C211.39 92.1149 211.546 92.1215 211.695 92.159C211.844 92.1965 211.984 92.2642 212.107 92.3578C212.229 92.4514 212.331 92.5691 212.406 92.7035C212.481 92.838 212.528 92.9863 212.544 93.1395Z" fill="#4CAFE3"/>
<path d="M71.6451 93.1389C71.6884 93.4327 71.6162 93.7319 71.4435 93.9736C71.2709 94.2153 71.0113 94.3806 70.7193 94.4349C70.5713 94.4543 70.421 94.4439 70.2771 94.4043C70.1332 94.3648 69.9986 94.2969 69.8814 94.2046C69.7641 94.1123 69.6664 93.9976 69.5941 93.867C69.5218 93.7365 69.4763 93.5928 69.4603 93.4444C69.4167 93.1495 69.4887 92.8491 69.6612 92.6059C69.8336 92.3627 70.0933 92.1955 70.386 92.1391C70.5345 92.1211 70.6851 92.1327 70.829 92.1733C70.973 92.214 71.1074 92.2828 71.2245 92.3758C71.3417 92.4688 71.4392 92.5842 71.5113 92.7152C71.5835 92.8462 71.629 92.9902 71.6451 93.1389Z" fill="#4CAFE3"/>
<path d="M239.733 19.8752C239.774 20.1687 239.701 20.4667 239.528 20.7079C239.356 20.949 239.098 21.1149 238.807 21.1713C238.659 21.192 238.508 21.1825 238.364 21.1435C238.219 21.1044 238.084 21.0366 237.967 20.9441C237.849 20.8516 237.751 20.7363 237.679 20.6051C237.608 20.474 237.563 20.3296 237.548 20.1807C237.502 19.8855 237.573 19.5839 237.746 19.3402C237.919 19.0964 238.18 18.9297 238.474 18.8754C238.622 18.8574 238.773 18.869 238.917 18.9097C239.061 18.9503 239.195 19.0191 239.312 19.1121C239.429 19.2052 239.527 19.3205 239.599 19.4515C239.671 19.5825 239.717 19.7265 239.733 19.8752Z" fill="#131622"/>
<path d="M180.42 166.448C180.466 166.744 180.395 167.045 180.223 167.289C180.05 167.533 179.789 167.699 179.495 167.754C179.346 167.772 179.196 167.76 179.052 167.72C178.908 167.679 178.773 167.61 178.656 167.517C178.539 167.424 178.442 167.309 178.369 167.178C178.297 167.047 178.252 166.903 178.236 166.754C178.195 166.46 178.268 166.162 178.44 165.921C178.612 165.68 178.871 165.514 179.161 165.458C179.31 165.437 179.46 165.447 179.605 165.486C179.749 165.525 179.884 165.593 180.002 165.685C180.119 165.778 180.217 165.893 180.289 166.024C180.361 166.155 180.406 166.3 180.42 166.448Z" fill="#131622"/>
<path d="M161.739 3.03539C161.782 3.33032 161.71 3.63067 161.538 3.87385C161.365 4.11703 161.106 4.28426 160.813 4.34069C160.664 4.35872 160.514 4.34707 160.37 4.30644C160.226 4.2658 160.092 4.19698 159.974 4.10397C159.857 4.01095 159.76 3.8956 159.688 3.76461C159.615 3.63361 159.57 3.48958 159.554 3.34088C159.51 3.04595 159.582 2.7456 159.755 2.50242C159.927 2.25924 160.187 2.09201 160.48 2.03558C160.628 2.01755 160.779 2.02919 160.923 2.06983C161.067 2.11046 161.201 2.17929 161.318 2.2723C161.435 2.36531 161.533 2.48067 161.605 2.61166C161.677 2.74265 161.723 2.88669 161.739 3.03539Z" fill="#131622"/>
<path d="M36.3466 121.707C36.3901 122.002 36.3182 122.303 36.1457 122.546C35.9733 122.789 35.7136 122.956 35.4208 123.013C35.2724 123.031 35.1218 123.019 34.9778 122.978C34.8339 122.938 34.6995 122.869 34.5823 122.776C34.4652 122.683 34.3677 122.567 34.2955 122.436C34.2234 122.305 34.1779 122.161 34.1618 122.013C34.1183 121.718 34.1902 121.417 34.3627 121.174C34.5352 120.931 34.7948 120.764 35.0876 120.707C35.2361 120.689 35.3866 120.701 35.5306 120.742C35.6745 120.782 35.809 120.851 35.9261 120.944C36.0432 121.037 36.1407 121.153 36.2129 121.284C36.2851 121.415 36.3305 121.559 36.3466 121.707Z" fill="#4CAFE3"/>
<path d="M227.791 213.422C227.837 213.717 227.766 214.019 227.593 214.263C227.42 214.506 227.159 214.673 226.865 214.727C226.717 214.745 226.566 214.734 226.422 214.693C226.278 214.653 226.144 214.584 226.027 214.491C225.909 214.398 225.812 214.282 225.74 214.151C225.668 214.02 225.622 213.876 225.606 213.728C225.564 213.426 225.642 213.12 225.824 212.875C226.006 212.631 226.277 212.468 226.578 212.422C226.871 212.396 227.162 212.487 227.389 212.674C227.616 212.861 227.76 213.13 227.791 213.422Z" fill="#374754"/>
<path d="M75.5148 193.397C75.5584 193.692 75.4864 193.992 75.3139 194.235C75.1415 194.478 74.8818 194.646 74.5891 194.702C74.4404 194.721 74.2893 194.711 74.1449 194.67C74.0004 194.63 73.8655 194.562 73.7481 194.468C73.6307 194.375 73.5332 194.259 73.4614 194.128C73.3896 193.996 73.3449 193.851 73.3301 193.702C73.2841 193.407 73.3551 193.105 73.528 192.862C73.7009 192.618 73.962 192.451 74.2558 192.397C74.4043 192.379 74.5549 192.391 74.6988 192.431C74.8427 192.472 74.9772 192.541 75.0943 192.634C75.2114 192.727 75.3089 192.842 75.3811 192.973C75.4533 193.104 75.4987 193.248 75.5148 193.397Z" fill="#4CAFE3"/>
<path d="M91.4746 148.813C91.5623 149.414 91.4093 150.025 91.0487 150.514C90.6881 151.003 90.1492 151.33 89.549 151.423C89.2513 151.461 88.9492 151.438 88.6602 151.358C88.3713 151.277 88.1013 151.14 87.866 150.954C87.6307 150.767 87.4349 150.536 87.29 150.274C87.145 150.011 87.0538 149.722 87.0217 149.424C86.9368 148.823 87.0923 148.212 87.4545 147.725C87.8168 147.238 88.3565 146.914 88.9565 146.822C89.253 146.785 89.5539 146.807 89.8417 146.887C90.1296 146.967 90.3986 147.104 90.633 147.289C90.8674 147.475 91.0625 147.705 91.207 147.966C91.3515 148.228 91.4425 148.516 91.4746 148.813Z" fill="#4CAFE3"/>
<path d="M110.527 28.6522C110.611 29.2417 110.466 29.8413 110.122 30.3271C109.777 30.8129 109.259 31.1478 108.675 31.2628C108.378 31.2976 108.078 31.2734 107.79 31.1916C107.503 31.1099 107.234 30.9721 107 30.7863C106.766 30.6005 106.571 30.3703 106.427 30.1089C106.282 29.8475 106.19 29.5601 106.157 29.2632C106.069 28.6621 106.222 28.0507 106.583 27.5619C106.943 27.073 107.482 26.7462 108.083 26.6526C108.67 26.603 109.253 26.784 109.71 27.1572C110.166 27.5305 110.459 28.0667 110.527 28.6522Z" fill="#374754"/>
<path d="M79.977 171.549C80.0621 172.151 79.9069 172.763 79.5448 173.251C79.1828 173.74 78.643 174.066 78.0422 174.16C77.7458 174.197 77.4448 174.175 77.157 174.095C76.8692 174.015 76.6002 173.878 76.3658 173.693C76.1314 173.507 75.9362 173.277 75.7917 173.016C75.6472 172.754 75.5563 172.466 75.5242 172.169C75.4364 171.568 75.5895 170.957 75.95 170.468C76.3106 169.979 76.8496 169.652 77.4498 169.559C77.7467 169.521 78.0482 169.543 78.3366 169.623C78.625 169.703 78.8946 169.84 79.1297 170.025C79.3649 170.21 79.5609 170.441 79.7063 170.702C79.8518 170.964 79.9438 171.252 79.977 171.549Z" fill="#374754"/>
<path d="M194.057 11.3121C194.145 11.9121 193.991 12.5224 193.63 13.0098C193.27 13.4971 192.731 13.822 192.131 13.9134C191.835 13.9508 191.534 13.9288 191.246 13.8486C190.958 13.7684 190.689 13.6317 190.455 13.4464C190.22 13.2611 190.025 13.0309 189.881 12.7694C189.736 12.5079 189.645 12.2202 189.613 11.9231C189.526 11.322 189.679 10.7106 190.039 10.2217C190.4 9.73289 190.939 9.40613 191.539 9.31248C191.836 9.27513 192.138 9.2975 192.426 9.37827C192.714 9.45904 192.984 9.59658 193.218 9.78283C193.453 9.96908 193.648 10.2003 193.792 10.4629C193.936 10.7255 194.026 11.0142 194.057 11.3121Z" fill="#131622"/>
<path d="M192.224 86.7616L195.408 85.66C195.408 85.66 193.233 84.5028 193.242 80.9017C193.251 77.3005 196.214 75.8841 194.927 72.6348L191.391 73.6346C191.794 74.5008 192.016 75.4404 192.043 76.3956C192.07 77.3508 191.902 78.3014 191.548 79.189C190.613 81.2072 189.771 83.6604 192.224 86.7616Z" fill="#131622"/>
<path d="M114.322 100.814L111.184 99.5547C111.184 99.5547 112.165 101.869 109.971 104.656C107.777 107.442 104.611 106.609 103.62 109.979L106.972 111.525C107.179 110.611 107.573 109.751 108.129 108.997C108.685 108.244 109.391 107.613 110.203 107.146C112.193 106.183 114.35 104.831 114.322 100.814Z" fill="#374754"/>
<path d="M41.7618 162.404L38.6328 161.182C38.6328 161.182 39.5586 163.496 37.4108 166.282C35.2631 169.069 32.0507 168.236 31.0695 171.606L34.4114 173.152C34.6186 172.238 35.0126 171.378 35.5687 170.624C36.1247 169.87 36.8307 169.24 37.6423 168.773C39.6326 167.764 41.7896 166.412 41.7618 162.404Z" fill="#131622"/>
<path d="M282.401 156.025L279.272 154.812C279.272 154.812 280.244 157.118 278.05 159.913C275.856 162.709 272.69 161.867 271.708 165.227L275.05 166.782C275.258 165.868 275.653 165.007 276.209 164.252C276.764 163.497 277.47 162.865 278.281 162.394C280.271 161.358 282.428 160.006 282.401 156.025Z" fill="#4CAFE3"/>
<path d="M54.7689 69.6906L55.2225 66.2561C55.2225 66.2561 53.26 67.7558 50.1495 66.1636C47.039 64.5713 47.1223 61.1738 43.734 60.9238L43.012 64.6268C43.9376 64.6408 44.8495 64.8529 45.6863 65.249C46.523 65.645 47.2652 66.2157 47.8629 66.9227C49.2422 68.7279 50.9919 70.6071 54.7689 69.6906Z" fill="#131622"/>
<path d="M35.2633 208.2L35.7169 204.766C35.7169 204.766 33.7544 206.266 30.6439 204.673C27.5333 203.081 27.6167 199.693 24.2284 199.434L23.5063 203.137C24.432 203.151 25.3439 203.363 26.1806 203.759C27.0174 204.155 27.7596 204.725 28.3573 205.432C29.7366 207.238 31.4863 209.117 35.2633 208.2Z" fill="#4CAFE3"/>
<path d="M148.418 198.97L148.871 195.535C148.871 195.535 146.909 197.035 143.798 195.443C140.688 193.851 140.771 190.462 137.383 190.203L136.661 193.906C137.585 193.921 138.495 194.134 139.33 194.53C140.165 194.926 140.906 195.496 141.502 196.202C142.928 198.007 144.641 199.886 148.418 198.97Z" fill="#374754"/>
<path d="M283.456 78.4016L283.91 74.9671C283.91 74.9671 281.956 76.4668 278.837 74.8652C275.717 73.2637 275.809 69.8847 272.421 69.6348L271.708 73.3377C272.632 73.353 273.542 73.5658 274.378 73.9618C275.213 74.3578 275.953 74.9278 276.55 75.6336C277.929 77.4388 279.679 79.3088 283.456 78.4016Z" fill="#4CAFE3"/>
<path d="M82.495 212.199L83.1338 215.606C83.1338 215.606 84.5224 213.533 87.9662 214.014C91.4099 214.495 92.3727 217.717 95.6591 216.837L95.187 213.07C94.3166 213.365 93.3926 213.469 92.4784 213.373C91.5643 213.277 90.6818 212.984 89.8917 212.514C88.031 211.274 85.7907 210.079 82.495 212.199Z" fill="#374754"/>
<path d="M138.558 141.214L135.022 139.232C135.022 139.232 132.171 143.695 135.605 145.944C135.605 145.907 134.892 143.009 138.558 141.214Z" fill="#4CAFE3"/>
<path d="M135.698 151.34L139.401 149.905C139.401 149.905 139.614 146.61 135.596 145.906C135.605 145.906 138.123 148.887 135.698 151.34Z" fill="#4CAFE3"/>
<path d="M39.7996 1.9811L36.2725 0C36.2725 0 33.412 4.4621 36.8558 6.71166C36.8558 6.71166 36.1429 3.81407 39.7996 1.9811Z" fill="#374754"/>
<path d="M36.9481 12.1451L40.6511 10.7102C40.6511 10.7102 40.8641 7.4145 36.8463 6.71094C36.8556 6.71094 39.3736 9.69184 36.9481 12.1451Z" fill="#374754"/>
<path d="M162.257 85.1407C162.172 84.5387 162.327 83.9273 162.69 83.4388C163.052 82.9503 163.591 82.6239 164.192 82.5301C164.489 82.4941 164.79 82.5174 165.078 82.5986C165.366 82.6799 165.635 82.8176 165.869 83.0036C166.103 83.1896 166.298 83.4203 166.443 83.6823C166.587 83.9443 166.678 84.2324 166.71 84.5298C166.793 85.1314 166.637 85.7416 166.275 86.2295C165.913 86.7174 165.375 87.0444 164.775 87.1404C164.479 87.1751 164.178 87.151 163.89 87.0692C163.603 86.9874 163.335 86.8497 163.101 86.6639C162.867 86.4781 162.672 86.2478 162.527 85.9865C162.382 85.7251 162.291 85.4377 162.257 85.1407Z" fill="#131622"/>
<path d="M234.623 129.965C234.538 129.364 234.693 128.753 235.056 128.266C235.418 127.779 235.958 127.455 236.558 127.363C236.854 127.326 237.155 127.348 237.443 127.428C237.731 127.508 238 127.645 238.234 127.83C238.468 128.016 238.664 128.246 238.808 128.507C238.953 128.769 239.044 129.057 239.076 129.354C239.163 129.955 239.01 130.566 238.65 131.055C238.289 131.544 237.75 131.871 237.15 131.964C236.853 132 236.551 131.977 236.262 131.896C235.974 131.815 235.705 131.677 235.47 131.491C235.235 131.306 235.039 131.075 234.893 130.813C234.748 130.551 234.656 130.263 234.623 129.965Z" fill="#4CAFE3"/>
<path d="M187.363 211.348C187.278 210.746 187.434 210.134 187.796 209.646C188.158 209.157 188.697 208.831 189.298 208.737C189.595 208.701 189.896 208.724 190.184 208.806C190.472 208.887 190.741 209.025 190.975 209.211C191.209 209.397 191.404 209.627 191.549 209.889C191.693 210.151 191.784 210.439 191.816 210.737C191.901 211.337 191.747 211.948 191.387 212.436C191.027 212.924 190.49 213.252 189.891 213.347C189.593 213.382 189.292 213.358 189.004 213.276C188.716 213.195 188.447 213.057 188.212 212.871C187.978 212.686 187.782 212.456 187.636 212.194C187.491 211.933 187.398 211.645 187.363 211.348Z" fill="#4CAFE3"/>
<path d="M0.103739 173.31C0.0577995 173.014 0.12881 172.713 0.301676 172.469C0.474542 172.225 0.735638 172.059 1.02948 172.004C1.17796 171.986 1.32854 171.998 1.47248 172.039C1.61642 172.079 1.75086 172.148 1.86799 172.241C1.98512 172.334 2.08261 172.449 2.15479 172.58C2.22698 172.711 2.27243 172.855 2.2885 173.004C2.3285 173.305 2.24929 173.611 2.06774 173.854C1.88618 174.098 1.61662 174.261 1.31646 174.309C1.02355 174.335 0.732203 174.245 0.505313 174.058C0.278423 173.871 0.13419 173.602 0.103739 173.31Z" fill="#4CAFE3"/>
<path d="M181.717 148.314C181.673 148.019 181.745 147.718 181.917 147.475C182.09 147.232 182.35 147.065 182.642 147.008C182.791 146.99 182.941 147.002 183.085 147.042C183.229 147.083 183.364 147.152 183.481 147.245C183.598 147.338 183.695 147.453 183.768 147.584C183.84 147.715 183.885 147.859 183.901 148.008C183.945 148.303 183.873 148.603 183.7 148.847C183.528 149.09 183.268 149.257 182.976 149.313C182.676 149.347 182.375 149.261 182.139 149.074C181.903 148.886 181.751 148.613 181.717 148.314Z" fill="#4CAFE3"/>
<path d="M151.361 55.294C151.318 54.9991 151.39 54.6987 151.562 54.4555C151.735 54.2124 151.994 54.0451 152.287 53.9887C152.436 53.9707 152.586 53.9823 152.73 54.023C152.874 54.0636 153.008 54.1324 153.126 54.2254C153.243 54.3184 153.34 54.4338 153.412 54.5648C153.485 54.6958 153.53 54.8398 153.546 54.9885C153.59 55.2834 153.518 55.5838 153.345 55.827C153.173 56.0702 152.913 56.2374 152.62 56.2938C152.472 56.3118 152.321 56.3002 152.177 56.2596C152.033 56.2189 151.899 56.1501 151.782 56.0571C151.665 55.9641 151.567 55.8487 151.495 55.7177C151.423 55.5867 151.377 55.4427 151.361 55.294Z" fill="#21313F"/>
<path d="M236.058 65.7365C235.973 65.1344 236.128 64.523 236.49 64.0345C236.852 63.546 237.392 63.2196 237.993 63.1258C238.289 63.0898 238.591 63.1131 238.879 63.1943C239.166 63.2756 239.435 63.4133 239.67 63.5993C239.904 63.7853 240.099 64.016 240.243 64.278C240.387 64.54 240.478 64.8281 240.511 65.1255C240.595 65.7265 240.44 66.3367 240.078 66.8237C239.715 67.3108 239.176 67.6353 238.576 67.7268C238.279 67.7629 237.979 67.74 237.692 67.6593C237.404 67.5786 237.136 67.4417 236.902 67.2567C236.668 67.0716 236.472 66.8419 236.328 66.581C236.183 66.3201 236.091 66.033 236.058 65.7365Z" fill="#4CAFE3"/>
<path d="M5.30622 148.851C5.22109 148.252 5.37537 147.643 5.73569 147.156C6.09601 146.669 6.63343 146.344 7.23177 146.25C7.52874 146.213 7.83019 146.235 8.11859 146.315C8.407 146.395 8.67661 146.531 8.91176 146.717C9.14691 146.902 9.3429 147.132 9.48836 147.394C9.63382 147.655 9.72584 147.943 9.75906 148.24C9.84416 148.843 9.6889 149.454 9.32685 149.942C8.96479 150.431 8.42503 150.757 7.82425 150.851C7.52709 150.888 7.22548 150.866 6.93708 150.785C6.64868 150.705 6.37932 150.567 6.14479 150.381C5.91025 150.195 5.71526 149.963 5.57127 149.701C5.42727 149.438 5.33716 149.149 5.30622 148.851Z" fill="#374754"/>
<path d="M99.1397 66.8393L93.7889 68.4131C93.7889 68.4131 91.2431 61.4885 96.5661 59.5352C96.5384 59.5352 94.7332 63.2196 99.1397 66.8393Z" fill="#374754"/>
<path d="M98.2603 52.2305L102.889 55.3225C102.889 55.3225 102.213 59.8401 96.5754 59.5346C96.5384 59.5346 100.825 56.2945 98.2603 52.2305Z" fill="#374754"/>
<path d="M270.19 199.748L264.848 201.321C264.848 201.321 262.302 194.397 267.625 192.443C267.598 192.443 265.792 196.128 270.19 199.748Z" fill="#374754"/>
<path d="M269.32 185.141L273.949 188.233C273.949 188.233 273.273 192.75 267.635 192.445C267.598 192.445 271.875 189.205 269.32 185.141Z" fill="#374754"/>
<path d="M234.197 153.182L233.475 147.47C233.475 147.47 240.455 145.869 241.547 151.581C241.547 151.581 238.279 149.202 234.197 153.182Z" fill="#131622"/>
<path d="M248.287 154.406L244.658 158.664C244.658 158.664 240.436 157.312 241.547 151.582C241.547 151.582 244.028 156.442 248.287 154.406Z" fill="#131622"/>
<path d="M104.63 191.982L99.2789 193.546C99.2789 193.546 96.7331 186.631 102.056 184.678C102.038 184.724 100.232 188.362 104.63 191.982Z" fill="#131622"/>
<path d="M103.76 177.363L108.388 180.465C108.388 180.465 107.712 184.982 102.075 184.677C102.038 184.723 106.315 181.437 103.76 177.363Z" fill="#131622"/>
<path d="M200.583 50.7858L204.11 52.7761C204.11 52.7761 206.971 48.314 203.536 46.0645C203.536 46.0645 204.24 48.962 200.583 50.7858Z" fill="#374754"/>
<path d="M203.444 40.6309L199.741 42.0565C199.741 42.0565 199.519 45.3522 203.546 46.065C203.536 46.065 201.009 43.0841 203.444 40.6309Z" fill="#374754"/>
<path d="M194.241 165.496L194.825 169.606C194.825 169.606 199.99 169.291 199.657 165.098C199.657 165.098 197.852 167.421 194.241 165.496Z" fill="#4CAFE3"/>
<path d="M203.805 161.756L200.472 159.543C200.472 159.543 197.797 161.339 199.657 165.097C199.657 165.097 200.454 161.209 203.805 161.756Z" fill="#4CAFE3"/>
<g opacity="0.1">
<path d="M51.1055 61.1328C51.1723 61.9383 51.1015 62.7494 50.8961 63.5311C50.7087 64.3098 50.4757 65.0767 50.1982 65.828C49.659 67.331 48.9546 68.7695 48.098 70.1171C48.5168 68.5689 49.0688 67.0842 49.6081 65.5996L50.4202 63.3852C50.7007 62.6513 50.9297 61.8986 51.1055 61.1328Z" fill="#1B1C1E"/>
<path d="M51.74 61.6523C52.085 62.2486 52.3476 62.8889 52.5204 63.5558C52.703 64.2234 52.8324 64.9044 52.9074 65.5925C53.0594 66.9698 52.9714 68.363 52.6473 69.7102C52.5585 69.0187 52.5204 68.3461 52.4633 67.6672C52.4062 66.9883 52.3427 66.3285 52.2793 65.6623C52.1397 64.3362 51.9621 63.0355 51.74 61.6523Z" fill="#1B1C1E"/>
<path d="M53.2438 61.1328C53.7296 61.6489 54.2512 62.1302 54.8046 62.5731C55.3434 63.0094 55.9163 63.4019 56.5177 63.7469C57.1274 64.0988 57.7638 64.4022 58.4211 64.6542C59.0556 64.927 59.7472 65.1173 60.4388 65.3521C59.708 65.3902 58.9757 65.3131 58.2689 65.1237C56.8121 64.7671 55.4859 64.0061 54.4429 62.9284C53.934 62.4105 53.5272 61.8013 53.2438 61.1328Z" fill="#1B1C1E"/>
</g>
<g opacity="0.1">
<path d="M233.417 61.1328C233.592 61.9008 233.821 62.6555 234.102 63.3916L234.921 65.5742C235.46 67.0589 236.006 68.5435 236.424 70.0917C235.572 68.7394 234.868 67.2993 234.324 65.7962C234.046 65.0458 233.815 64.2787 233.633 63.4994C233.426 62.7287 233.353 61.9282 233.417 61.1328Z" fill="#1B1C1E"/>
<path d="M232.789 61.6523C232.567 63.0101 232.389 64.3362 232.25 65.6749C232.18 66.3412 232.116 67.0074 232.066 67.6799C232.015 68.3525 231.964 69.0313 231.875 69.7229C231.551 68.3757 231.463 66.9825 231.615 65.6052C231.69 64.9171 231.819 64.2361 232.002 63.5685C232.176 62.8969 232.441 62.2522 232.789 61.6523Z" fill="#1B1C1E"/>
<path d="M231.285 61.1328C230.99 61.8047 230.573 62.4158 230.054 62.9347C229.026 64.001 227.721 64.7591 226.285 65.1237C225.581 65.3133 224.851 65.3904 224.122 65.3521C224.813 65.1173 225.486 64.927 226.133 64.6542C227.426 64.1413 228.636 63.44 229.724 62.5731C230.278 62.1302 230.799 61.6489 231.285 61.1328Z" fill="#1B1C1E"/>
</g>
<path d="M53.2436 61.1326C53.2436 61.43 53.1555 61.7208 52.9902 61.968C52.825 62.2153 52.5901 62.4081 52.3154 62.5219C52.0406 62.6357 51.7383 62.6655 51.4466 62.6074C51.1549 62.5494 50.8869 62.4062 50.6766 62.1959C50.4663 61.9856 50.3231 61.7177 50.2651 61.426C50.2071 61.1343 50.2369 60.8319 50.3507 60.5572C50.4645 60.2824 50.6572 60.0476 50.9045 59.8823C51.1518 59.7171 51.4425 59.6289 51.7399 59.6289C52.1387 59.6289 52.5212 59.7873 52.8032 60.0693C53.0852 60.3513 53.2436 60.7338 53.2436 61.1326Z" fill="#131622"/>
<path d="M233.766 61.1326C233.766 61.43 233.678 61.7208 233.513 61.968C233.347 62.2153 233.112 62.4081 232.838 62.5219C232.563 62.6357 232.261 62.6655 231.969 62.6074C231.677 62.5494 231.409 62.4062 231.199 62.1959C230.989 61.9856 230.845 61.7177 230.787 61.426C230.729 61.1343 230.759 60.8319 230.873 60.5572C230.987 60.2824 231.18 60.0476 231.427 59.8823C231.674 59.7171 231.965 59.6289 232.262 59.6289C232.661 59.6289 233.044 59.7873 233.326 60.0693C233.608 60.3513 233.766 60.7338 233.766 61.1326Z" fill="#131622"/>
<path d="M142.489 135.103C170.814 135.103 193.775 112.141 193.775 83.8162C193.775 55.4913 170.814 32.5293 142.489 32.5293C114.164 32.5293 91.2017 55.4913 91.2017 83.8162C91.2017 112.141 114.164 135.103 142.489 135.103Z" fill="#3FB55D"/>
<path d="M113.31 93.0211C116.347 95.678 119.098 98.5483 121.874 101.395C124.649 104.242 127.235 107.207 129.821 110.22H125.266C132.027 100.019 139.286 90.1982 146.924 80.6857C150.744 75.9413 154.729 71.1969 158.785 66.7134C162.842 62.23 167.088 57.6991 171.643 53.4766C168.843 59.0275 165.712 64.2938 162.462 69.4889C159.212 74.684 155.796 79.7605 152.262 84.7184C145.145 94.6816 137.768 104.36 129.797 113.635L127.211 116.624L125.242 113.635C123.076 110.33 120.98 106.97 118.956 103.554C117.011 100.09 115.018 96.6506 113.31 93.0211Z" fill="#FDFEFF"/>
</svg>
