<svg width="121" height="105" viewBox="0 0 121 105" fill="none" xmlns="http://www.w3.org/2000/svg">
<path d="M120.149 92.2551H0.148926V92.3256H120.149V92.2551Z" fill="#EBEBEB"/>
<path d="M108.125 96.789H100.176V96.8595H108.125V96.789Z" fill="#EBEBEB"/>
<path d="M79.6418 97.5555H77.5562V97.6259H79.6418V97.5555Z" fill="#EBEBEB"/>
<path d="M99.9362 94.1741H95.3306V94.2445H99.9362V94.1741Z" fill="#EBEBEB"/>
<path d="M23.1049 94.6475H12.7393V94.7179H23.1049V94.6475Z" fill="#EBEBEB"/>
<path d="M26.7625 94.6475H25.2433V94.7179H26.7625V94.6475Z" fill="#EBEBEB"/>
<path d="M54.1849 95.8366H31.7017V95.9071H54.1849V95.8366Z" fill="#EBEBEB"/>
<path d="M57.0289 79.6876H10.6873C10.3243 79.6868 9.97635 79.517 9.71987 79.2153C9.46339 78.9137 9.31934 78.5048 9.31934 78.0786V1.59404C9.3225 1.17025 9.46794 0.765028 9.72408 0.466404C9.98022 0.167781 10.3264 -0.000128508 10.6873 -0.000854492H57.0289C57.3924 -0.000854492 57.741 0.168663 57.998 0.470406C58.255 0.77215 58.3993 1.1814 58.3993 1.60813V78.0786C58.3993 78.5053 58.255 78.9146 57.998 79.2163C57.741 79.5181 57.3924 79.6876 57.0289 79.6876ZM10.6873 0.0555025C10.3402 0.0562489 10.0075 0.218673 9.76229 0.507125C9.51707 0.795576 9.37934 1.18648 9.37934 1.59404V78.0786C9.37934 78.4862 9.51707 78.8771 9.76229 79.1655C10.0075 79.454 10.3402 79.6164 10.6873 79.6171H57.0289C57.3763 79.6164 57.7092 79.4541 57.9548 79.1657C58.2004 78.8773 58.3387 78.4864 58.3393 78.0786V1.59404C58.3387 1.18622 58.2004 0.795323 57.9548 0.506953C57.7092 0.218582 57.3763 0.0562473 57.0289 0.0555025H10.6873Z" fill="#EBEBEB"/>
<path d="M108.943 79.6876H62.5993C62.236 79.6868 61.8878 79.5171 61.631 79.2155C61.3741 78.9139 61.2295 78.5051 61.2289 78.0786V1.59404C61.2327 1.16999 61.3786 0.764774 61.6352 0.466228C61.8917 0.167683 62.2381 -0.000136426 62.5993 -0.000854492H108.943C109.304 0.00061205 109.649 0.16885 109.905 0.467393C110.161 0.765937 110.306 1.17073 110.309 1.59404V78.0786C110.309 78.5044 110.165 78.9128 109.909 79.2143C109.653 79.5159 109.306 79.6861 108.943 79.6876ZM62.5993 0.0555025C62.2519 0.0562473 61.919 0.218582 61.6734 0.506953C61.4278 0.795323 61.2895 1.18622 61.2889 1.59404V78.0786C61.2895 78.4864 61.4278 78.8773 61.6734 79.1657C61.919 79.4541 62.2519 79.6164 62.5993 79.6171H108.943C109.291 79.6164 109.624 79.4541 109.869 79.1657C110.115 78.8773 110.253 78.4864 110.254 78.0786V1.59404C110.253 1.18622 110.115 0.795323 109.869 0.506953C109.624 0.218582 109.291 0.0562473 108.943 0.0555025H62.5993Z" fill="#EBEBEB"/>
<path d="M54.1705 16.6272L56.6497 16.2017L54.1705 15.7762L54.7825 14.6378L53.8129 15.3564L53.4505 12.4484L53.0881 15.3564L52.1185 14.6378L52.7329 15.7762L50.2537 16.2017L52.7329 16.6272L52.1185 17.7656L53.0881 17.0443L53.4505 19.9551L53.8129 17.0443L54.7825 17.7656L54.1705 16.6272Z" fill="#F5F5F5"/>
<path d="M79.0921 24.396L81.5689 23.9705L79.0921 23.545L79.7041 22.4066L78.7345 23.1251L78.3721 20.2143L78.0097 23.1251L77.0401 22.4066L77.6545 23.545L75.1753 23.9705L77.6545 24.396L77.0401 25.5344L78.0097 24.813L78.3721 27.7238L78.7345 24.813L79.7041 25.5344L79.0921 24.396Z" fill="#F5F5F5"/>
<path d="M44.2369 37.0199L46.7161 36.5944L44.2369 36.1661L44.8513 35.0305L43.8817 35.749L43.5193 32.8382L43.1569 35.749L42.1873 35.0305L42.8017 36.1661L40.3225 36.5944L42.8017 37.0199L42.1873 38.1583L43.1569 37.4369L43.5193 40.3477L43.8817 37.4369L44.8513 38.1583L44.2369 37.0199Z" fill="#F5F5F5"/>
<path d="M23.2825 37.0199L25.7593 36.5944L23.2825 36.1661L23.8945 35.0305L22.9249 35.749L22.5625 32.8382L22.2001 35.749L21.2305 35.0305L21.8449 36.1661L19.3657 36.5944L21.8449 37.0199L21.2305 38.1583L22.2001 37.4369L22.5625 40.3477L22.9249 37.4369L23.8945 38.1583L23.2825 37.0199Z" fill="#F5F5F5"/>
<path d="M35.1529 54.3468L37.6321 53.9213L35.1529 53.493L35.7673 52.3574L34.7977 53.0759L34.4353 50.1651L34.0705 53.0759L33.1033 52.3574L33.7153 53.493L31.2361 53.9213L33.7153 54.3468L33.1033 55.4852L34.0705 54.7638L34.4353 57.6746L34.7977 54.7638L35.7673 55.4852L35.1529 54.3468Z" fill="#F5F5F5"/>
<path d="M83.8514 45.0169L86.3305 44.5914L83.8514 44.1659L84.4657 43.0275L83.4961 43.7489L83.1337 40.838L82.7714 43.7489L81.8017 43.0275L82.4137 44.1659L79.937 44.5914L82.4137 45.0169L81.8017 46.1553L82.7714 45.4368L83.1337 48.3476L83.4961 45.4368L84.4657 46.1553L83.8514 45.0169Z" fill="#F5F5F5"/>
<path d="M101.338 70.8086L103.815 70.3802L101.338 69.9548L101.95 68.8192L100.98 69.5377L100.618 66.6269L100.255 69.5377L99.2857 68.8192L99.9001 69.9548L97.4209 70.3802L99.9001 70.8086L99.2857 71.9441L100.255 71.2256L100.618 74.1364L100.98 71.2256L101.95 71.9441L101.338 70.8086Z" fill="#F5F5F5"/>
<path d="M80.6545 69.9125L83.1337 69.487L80.6545 69.0587L81.2689 67.9231L80.2993 68.6417L79.9369 65.7308L79.5721 68.6417L78.6049 67.9231L79.2169 69.0587L76.7377 69.487L79.2169 69.9125L78.6049 71.0509L79.5721 70.3295L79.9369 73.2404L80.2993 70.3295L81.2689 71.0509L80.6545 69.9125Z" fill="#F5F5F5"/>
<path d="M35.1529 75.9765L37.6321 75.5482L35.1529 75.1227L35.7673 73.9843L34.7977 74.7057L34.4353 71.7948L34.0705 74.7057L33.1033 73.9843L33.7153 75.1227L31.2361 75.5482L33.7153 75.9765L33.1033 77.1121L34.0705 76.3935L34.4353 79.3044L34.7977 76.3935L35.7673 77.1121L35.1529 75.9765Z" fill="#F5F5F5"/>
<path d="M62.0905 62.7468L64.5697 62.3213L62.0905 61.8958L62.7049 60.7574L61.7353 61.4759L61.3729 58.5679L61.0105 61.4759L60.0409 60.7574L60.6529 61.8958L58.1737 62.3213L60.6529 62.7468L60.0409 63.8852L61.0105 63.1638L61.3729 66.0746L61.7353 63.1638L62.7049 63.8852L62.0905 62.7468Z" fill="#F5F5F5"/>
<path d="M48.0265 94.0896L50.5057 93.6641L48.0265 93.2386L48.6385 92.1002L47.6689 92.8187L47.3065 89.9107L46.9441 92.8187L45.9745 92.1002L46.5889 93.2386L44.1097 93.6641L46.5889 94.0896L45.9745 95.228L46.9441 94.5066L47.3065 97.4174L47.6689 94.5066L48.6385 95.228L48.0265 94.0896Z" fill="#F5F5F5"/>
<path d="M75.6049 92.1903L78.0841 91.7648L75.6049 91.3393L76.2169 90.2009L75.2497 90.9223L74.8849 88.0115L74.5225 90.9223L73.5529 90.2009L74.1673 91.3393L71.6881 91.7648L74.1673 92.1903L73.5529 93.3287L74.5225 92.6074L74.8849 95.5182L75.2497 92.6074L76.2169 93.3287L75.6049 92.1903Z" fill="#F5F5F5"/>
<path d="M75.9169 39.6489C74.4433 37.0875 73.8121 33.0693 72.4609 31.4772C73.507 30.5344 74.6172 29.6937 75.7801 28.9637C76.6081 31.7618 77.1001 36.1041 79.2361 37.1354C78.19 38.0782 77.0799 38.9189 75.9169 39.6489Z" fill="#EBEBEB"/>
<path d="M78.4129 37.6145C78.2065 37.4539 78.2593 37.1383 78.5113 36.941C77.0329 35.5462 76.5025 32.3 75.8329 29.8711C75.7784 29.9001 75.7191 29.915 75.6592 29.9149C75.5994 29.9147 75.5402 29.8993 75.4858 29.8699C75.4314 29.8405 75.383 29.7977 75.3439 29.7445C75.3048 29.6912 75.276 29.6286 75.2593 29.5611C74.5575 30.0176 73.8766 30.5171 73.2193 31.0574C73.2704 31.1995 73.274 31.3589 73.2296 31.5041C73.1851 31.6492 73.0958 31.7694 72.9793 31.8407C73.9801 33.5004 74.5897 36.5634 75.6841 38.8515C75.807 38.7978 75.9415 38.7927 76.0671 38.837C76.1928 38.8812 76.3026 38.9724 76.3801 39.0967C77.0793 38.6447 77.7579 38.1499 78.4129 37.6145ZM74.8129 34.7713C74.5945 34.0865 74.7961 33.3426 75.2425 33.1003C75.6889 32.858 76.2025 33.2609 76.4065 33.9626C76.6105 34.6642 76.4521 35.3912 76.0081 35.6223C75.5641 35.8533 75.0289 35.4616 74.8201 34.7713H74.8129Z" fill="#E0E0E0"/>
<path d="M42.4009 31.2433C40.2913 32.579 37.0921 32.7453 35.7577 34.0753C35.0882 32.7427 34.5042 31.3534 34.0105 29.919C36.2641 29.3554 39.7081 29.3948 40.6537 27.087C41.3251 28.4184 41.9092 29.8079 42.4009 31.2433Z" fill="#EBEBEB"/>
<path d="M40.9753 28.0958C40.8361 28.3128 40.5889 28.2085 40.4521 27.8901C39.2521 29.392 36.6721 29.5526 34.7161 29.9837C34.7373 30.0454 34.7467 30.1118 34.7436 30.1782C34.7405 30.2447 34.7251 30.3095 34.6983 30.3681C34.6715 30.4267 34.634 30.4777 34.5886 30.5174C34.5431 30.5572 34.4908 30.5847 34.4353 30.598C34.7209 31.3983 35.0593 32.2408 35.4721 33.1341C35.6569 33.0242 35.9281 33.1961 36.0721 33.5173C37.4425 32.6015 39.8881 32.3254 41.7625 31.387C41.7257 31.2464 41.7292 31.0955 41.7725 30.9576C41.8159 30.8196 41.8967 30.7022 42.0025 30.6234C41.7193 29.8259 41.3857 28.9862 40.9777 28.0873L40.9753 28.0958ZM38.4985 31.8407C38.2458 31.9208 37.977 31.8914 37.7412 31.7579C37.5054 31.6244 37.3185 31.3957 37.2145 31.1137C37.0537 30.5501 37.4065 30.0401 37.9705 29.8992C38.5345 29.7583 39.0961 30.0429 39.2473 30.5839C39.3985 31.125 39.0529 31.6773 38.4985 31.8407Z" fill="#E0E0E0"/>
<path d="M63.3386 27.4956C61.5458 25.6217 60.3169 22.1417 58.7953 21.1357C59.632 19.9401 60.5442 18.8201 61.5241 17.7853C62.7457 20.079 63.8953 23.8916 66.0649 24.1423C65.229 25.3387 64.3176 26.4596 63.3386 27.4956Z" fill="#EBEBEB"/>
<path d="M65.3665 24.8412C65.1481 24.7623 65.1457 24.4552 65.3545 24.1959C63.7489 23.3872 62.7289 20.5947 61.7137 18.5969C61.6717 18.6419 61.6217 18.6753 61.5673 18.6948C61.5129 18.7143 61.4555 18.7194 61.3993 18.7097C61.343 18.7 61.2893 18.6758 61.242 18.6387C61.1947 18.6016 61.155 18.5527 61.1257 18.4955C60.5833 19.0872 60.0241 19.7466 59.4457 20.513C59.5969 20.6793 59.5513 21.0371 59.3425 21.3048C60.5425 22.5052 61.6033 25.1089 62.9977 26.8532C63.0976 26.7647 63.2194 26.7168 63.3445 26.7168C63.4697 26.7168 63.5914 26.7647 63.6913 26.8532C64.2313 26.267 64.7881 25.6105 65.3713 24.8525L65.3665 24.8412ZM61.5265 23.3872C61.3756 23.1358 61.3071 22.8289 61.3336 22.523C61.36 22.217 61.4797 21.9325 61.6705 21.7219C62.0545 21.3584 62.5921 21.5669 62.9017 22.1417C63.2113 22.7166 63.1705 23.4323 62.7889 23.7845C62.4073 24.1368 61.8457 23.9508 61.5337 23.3872H61.5265Z" fill="#E0E0E0"/>
<path d="M68.9642 56.8829C68.1458 54.2369 68.4722 50.4976 67.5482 48.7534C68.7684 48.1728 70.0239 47.7 71.3042 47.3388C71.4506 50.0383 70.913 54.034 72.7202 55.4711C71.5001 56.0517 70.2446 56.5236 68.9642 56.8829Z" fill="#EBEBEB"/>
<path d="M71.8226 55.6852C71.6618 55.4908 71.7866 55.2231 72.0626 55.1217C70.973 53.5099 71.2154 50.4863 71.1386 48.1532C71.0832 48.1695 71.0254 48.1712 70.9694 48.1582C70.9134 48.1451 70.8605 48.1177 70.8146 48.0778C70.7687 48.0379 70.7309 47.9866 70.7039 47.9275C70.677 47.8684 70.6615 47.8031 70.6586 47.7361C69.9386 47.9531 69.1826 48.2208 68.3618 48.5674C68.4266 48.7984 68.2418 49.0887 67.949 49.207C68.5202 50.9344 68.3954 53.817 68.909 56.1276C69.0327 56.1073 69.1586 56.1341 69.2684 56.2041C69.3781 56.2741 69.4658 56.3836 69.5186 56.5165C70.2386 56.3023 70.9898 56.0375 71.8082 55.6937L71.8226 55.6852ZM69.0434 52.2644C69.0116 51.9593 69.075 51.651 69.2219 51.3966C69.3689 51.1422 69.5894 50.959 69.8426 50.8808C70.3226 50.7737 70.7162 51.2584 70.7546 51.9347C70.793 52.611 70.469 53.2196 69.9914 53.3182C69.5138 53.4169 69.0866 52.9322 69.0434 52.2644Z" fill="#E0E0E0"/>
<path d="M100.843 46.1018C99.0506 44.2279 97.8218 40.7479 96.3002 39.7419C97.1375 38.547 98.0496 37.4271 99.029 36.3915C100.253 38.6853 101.403 42.4978 103.572 42.7486C102.735 43.9451 101.823 45.066 100.843 46.1018Z" fill="#EBEBEB"/>
<path d="M102.869 43.4502C102.648 43.3685 102.648 43.0613 102.857 42.8021C101.246 41.9849 100.229 39.2009 99.2185 37.1946C99.1765 37.2396 99.1264 37.273 99.0721 37.2925C99.0177 37.3121 98.9603 37.3171 98.904 37.3074C98.8478 37.2977 98.794 37.2735 98.7467 37.2364C98.6994 37.1994 98.6597 37.1504 98.6305 37.0932C98.0881 37.6849 97.5289 38.3443 96.9505 39.1107C97.1017 39.277 97.0561 39.6349 96.8473 39.9026C98.0473 41.103 99.1081 43.7066 100.502 45.4509C100.603 45.3628 100.724 45.3153 100.849 45.3153C100.974 45.3153 101.096 45.3628 101.196 45.4509C101.736 44.8648 102.293 44.2082 102.876 43.4502H102.869ZM99.0289 41.9849C98.8777 41.7342 98.8089 41.4276 98.8354 41.122C98.8619 40.8163 98.9818 40.5323 99.1729 40.3224C99.5545 39.9561 100.094 40.1646 100.402 40.7395C100.709 41.3143 100.673 42.03 100.291 42.3823C99.9097 42.7345 99.3505 42.5485 99.0289 41.9849Z" fill="#E0E0E0"/>
<path d="M99.4225 41.8074L99.3193 41.9004L99.2593 41.7905L99.3601 41.6975C99.2972 41.5755 99.2609 41.437 99.2545 41.2946L99.3793 41.2692C99.3827 41.3876 99.4099 41.5035 99.4585 41.6073L99.6385 41.4439C99.5833 41.2692 99.5281 41.0748 99.6553 40.9592C99.7465 40.8747 99.8833 40.9057 100.011 41.1086L100.114 41.0156L100.174 41.1283L100.073 41.2185C100.123 41.3202 100.155 41.4321 100.169 41.5482L100.047 41.5735C100.035 41.4813 100.01 41.3919 99.9745 41.3086L99.7921 41.4749C99.8497 41.6496 99.9097 41.844 99.7921 41.9567C99.6745 42.0695 99.5521 42.0103 99.4225 41.8074ZM99.7489 41.3425L99.9121 41.1987C99.8497 41.1086 99.7945 41.0973 99.7537 41.1339C99.7129 41.1706 99.7225 41.2495 99.7489 41.3425ZM99.6769 41.7877C99.7225 41.7482 99.7105 41.6693 99.6769 41.5735L99.5161 41.72C99.5857 41.8102 99.6385 41.8243 99.6769 41.7877Z" fill="#E0E0E0"/>
<path d="M58.3297 40.545C56.7193 42.9824 55.2481 45.5918 54.5977 48.3786C53.5129 47.8517 52.3993 47.3219 51.3121 46.7048C52.1641 43.8053 53.6353 41.2607 55.0441 38.8712C56.1289 39.3982 57.2425 39.9279 58.3297 40.545Z" fill="#EBEBEB"/>
<path d="M55.5481 39.3559C55.4673 39.4834 55.3535 39.5768 55.2237 39.622C55.0939 39.6672 54.9551 39.6618 54.8281 39.6067C53.6665 41.5989 52.5049 43.701 51.7225 46.0313C51.8407 46.1058 51.9325 46.2272 51.9813 46.3738C52.0301 46.5205 52.0328 46.6828 51.9889 46.8316C52.6681 47.1979 53.3545 47.5389 54.0337 47.8714C54.0507 47.802 54.0802 47.7377 54.1202 47.6829C54.1601 47.628 54.2096 47.5839 54.2654 47.5534C54.3211 47.523 54.3818 47.5069 54.4433 47.5064C54.5047 47.5058 54.5656 47.5207 54.6217 47.5501C55.2817 45.2818 56.4409 43.1402 57.7273 41.1142C57.6713 41.0851 57.622 41.041 57.5832 40.9854C57.5443 40.9298 57.5172 40.8642 57.5039 40.7941C57.4906 40.7239 57.4915 40.651 57.5065 40.5813C57.5216 40.5117 57.5504 40.4471 57.5905 40.3928C56.9089 40.0265 56.2249 39.6856 55.5457 39.3531L55.5481 39.3559ZM55.3489 43.9574C55.221 44.2348 55.0107 44.4472 54.758 44.5543C54.5052 44.6613 54.2278 44.6555 53.9785 44.5379C53.8624 44.4725 53.7594 44.379 53.6761 44.2637C53.5929 44.1483 53.5314 44.0135 53.4956 43.8683C53.4598 43.723 53.4505 43.5705 53.4684 43.4208C53.4863 43.2711 53.5309 43.1274 53.5993 42.9993C53.7365 42.7222 53.9544 42.5125 54.2128 42.409C54.4712 42.3054 54.7528 42.3149 55.0057 42.4358C55.1216 42.4993 55.2241 42.592 55.3061 42.7072C55.3881 42.8224 55.4476 42.9573 55.4803 43.1024C55.513 43.2475 55.5182 43.3993 55.4955 43.547C55.4728 43.6948 55.4228 43.8349 55.3489 43.9574Z" fill="#E0E0E0"/>
<path d="M54.9817 43.6306L55.1113 43.701L55.0561 43.8137L54.9266 43.7433C54.8638 43.8634 54.7742 43.9609 54.6673 44.0251L54.5785 43.8982C54.6684 43.8459 54.7452 43.7673 54.8017 43.67L54.5617 43.5432C54.4561 43.6785 54.3338 43.825 54.173 43.7348C54.0554 43.67 54.0001 43.5094 54.0889 43.284L53.9594 43.2135L54.0145 43.1008L54.1441 43.1713C54.1976 43.0731 54.2699 42.9911 54.3553 42.9317L54.4441 43.0501C54.3761 43.0995 54.3167 43.1635 54.2689 43.2389L54.5089 43.3657C54.6169 43.2304 54.7489 43.0839 54.9049 43.1741C55.0225 43.2445 55.0729 43.3939 54.9817 43.6306ZM54.4297 43.4728L54.2233 43.36C54.1873 43.4643 54.209 43.5291 54.2594 43.5573C54.3098 43.5855 54.3697 43.5432 54.4297 43.4728ZM54.8258 43.3629C54.7682 43.3319 54.7105 43.3769 54.6505 43.4502L54.8569 43.5601C54.8929 43.453 54.869 43.3939 54.8258 43.3629Z" fill="#E0E0E0"/>
<path d="M99.2522 54.9949C97.6394 57.4323 96.1706 60.0416 95.5202 62.8285C94.4354 62.3015 93.3218 61.7718 92.2346 61.1547C93.0866 58.2551 94.5578 55.7106 95.9642 53.3211C97.0514 53.848 98.165 54.3834 99.2522 54.9949Z" fill="#EBEBEB"/>
<path d="M96.4705 53.8029C96.3903 53.9314 96.2766 54.0256 96.1467 54.0713C96.0168 54.1171 95.8777 54.1119 95.7505 54.0566C94.5889 56.0459 93.4273 58.1509 92.6449 60.4812C92.7637 60.5542 92.8562 60.6749 92.9055 60.8213C92.9549 60.9677 92.9578 61.13 92.9137 61.2787C93.5929 61.6478 94.2793 61.986 94.9585 62.3213C94.9751 62.2516 95.0044 62.187 95.0443 62.1319C95.0842 62.0768 95.1337 62.0325 95.1896 62.002C95.2455 61.9714 95.3063 61.9555 95.3679 61.9551C95.4295 61.9548 95.4904 61.9701 95.5465 62C96.2065 59.7458 97.3657 57.5901 98.6521 55.5641C98.5961 55.535 98.5467 55.4909 98.5079 55.4352C98.4691 55.3796 98.442 55.3141 98.4286 55.2439C98.4153 55.1738 98.4162 55.1009 98.4313 55.0312C98.4463 54.9615 98.4751 54.897 98.5153 54.8427C97.8361 54.4792 97.1521 54.1383 96.4729 53.8058L96.4705 53.8029ZM96.2593 58.4129C96.1314 58.6903 95.921 58.9027 95.6683 59.0098C95.4156 59.1168 95.1382 59.111 94.8889 58.9934C94.7725 58.9284 94.6692 58.8351 94.5857 58.7197C94.5023 58.6044 94.4406 58.4696 94.4048 58.3242C94.369 58.1788 94.3598 58.0262 94.3779 57.8763C94.3959 57.7265 94.4409 57.5828 94.5097 57.4549C94.6501 57.1842 94.8683 56.9814 95.1249 56.8832C95.3816 56.785 95.6596 56.7979 95.9089 56.9195C96.0217 56.9828 96.1217 57.0739 96.202 57.1866C96.2822 57.2992 96.341 57.4308 96.3742 57.5724C96.4074 57.714 96.4143 57.8623 96.3945 58.0073C96.3747 58.1523 96.3286 58.2906 96.2593 58.4129Z" fill="#E0E0E0"/>
<path d="M95.9089 58.0804L96.0385 58.1508C96.0193 58.1875 96.0001 58.2241 95.9833 58.2636L95.8537 58.1931C95.7889 58.3122 95.6987 58.4093 95.5921 58.4749L95.5057 58.3481C95.595 58.2948 95.6717 58.2164 95.7289 58.1198L95.4889 57.993C95.3833 58.1283 95.2609 58.2748 95.1001 58.1847C94.9825 58.1198 94.9273 57.9592 95.0161 57.7338L94.8865 57.6634C94.9033 57.6239 94.9225 57.5873 94.9417 57.5506L95.0713 57.6211C95.1247 57.5221 95.197 57.4391 95.2825 57.3788L95.3689 57.4999C95.3021 57.5501 95.2436 57.6141 95.1961 57.6887L95.4361 57.8155C95.5441 57.6803 95.6761 57.5337 95.8321 57.6239C95.9449 57.6944 95.9929 57.8521 95.9089 58.0804ZM95.3569 57.9226L95.1505 57.8099C95.1145 57.9141 95.1361 57.9789 95.1865 58.0071C95.2369 58.0353 95.2921 57.993 95.3521 57.9226H95.3569ZM95.7529 57.8127C95.6953 57.7817 95.6377 57.8268 95.5777 57.8972L95.7817 58.0099C95.8153 57.9029 95.7985 57.8381 95.7481 57.8127H95.7529Z" fill="#E0E0E0"/>
<path d="M88.9058 22.1643C88.7786 19.09 86.4362 16.9738 86.309 13.8996L89.669 12.4484C89.7986 15.5226 92.1386 17.6388 92.2682 20.7103L88.9058 22.1643Z" fill="#EBEBEB"/>
<path d="M91.6105 20.7525C91.5966 20.5919 91.6265 20.4303 91.696 20.291C91.7654 20.1517 91.8708 20.0419 91.9969 19.9776C91.5913 17.5853 89.9689 15.7227 89.5681 13.3303C89.5124 13.3591 89.4515 13.3716 89.3908 13.3668C89.33 13.3619 89.2712 13.3399 89.2193 13.3025C89.1674 13.2651 89.124 13.2135 89.0928 13.1521C89.0616 13.0907 89.0435 13.0213 89.0401 12.9499L86.9521 13.8544C86.9662 14.0147 86.9367 14.1761 86.8677 14.3154C86.7986 14.4546 86.6938 14.5646 86.5681 14.6294C86.9689 17.0217 88.5913 18.8871 88.9969 21.2794C89.0523 21.2506 89.1129 21.238 89.1733 21.2427C89.2338 21.2473 89.2924 21.2692 89.3441 21.3063C89.3958 21.3435 89.439 21.3948 89.4701 21.4559C89.5012 21.517 89.5192 21.586 89.5225 21.657L91.6081 20.7525H91.6105ZM88.3825 17.6529C88.3174 17.5267 88.2773 17.3848 88.2654 17.2379C88.2534 17.091 88.2698 16.9429 88.3134 16.8044C88.357 16.666 88.4267 16.541 88.5172 16.4385C88.6077 16.3361 88.7167 16.259 88.8361 16.213C89.0973 16.1125 89.38 16.1204 89.6369 16.2353C89.8938 16.3502 90.1092 16.5651 90.2473 16.8442C90.313 16.9701 90.3535 17.1118 90.3659 17.2587C90.3782 17.4056 90.3621 17.5539 90.3187 17.6924C90.2753 17.8309 90.2057 17.9561 90.1152 18.0586C90.0247 18.1611 89.9156 18.2382 89.7961 18.2841C89.5335 18.3843 89.2495 18.3751 88.992 18.2581C88.7345 18.141 88.5192 17.9233 88.3825 17.6416V17.6529Z" fill="#E0E0E0"/>
<path d="M88.8721 17.5627L88.7329 17.6219L88.6801 17.512L88.8169 17.45C88.7624 17.3352 88.7421 17.2023 88.7593 17.0724H88.9129C88.8972 17.1795 88.9098 17.2896 88.9489 17.388L89.1889 17.2809C89.1505 17.1147 89.1193 16.9315 89.2897 16.8583C89.3665 16.8326 89.4486 16.8388 89.522 16.8757C89.5954 16.9127 89.6557 16.9781 89.6929 17.0611L89.8321 17.002L89.8873 17.1147L89.7481 17.1739C89.7903 17.2694 89.8102 17.3763 89.8057 17.4838H89.6689C89.6726 17.3979 89.6595 17.3121 89.6305 17.233L89.3905 17.3429C89.4289 17.5092 89.4649 17.6923 89.2921 17.7656C89.213 17.797 89.127 17.7938 89.0497 17.7565C88.9725 17.7192 88.9094 17.6504 88.8721 17.5627ZM89.3521 17.2218L89.5705 17.126C89.5105 17.0358 89.4481 17.0132 89.3929 17.0358C89.3377 17.0583 89.3305 17.1344 89.3473 17.2218H89.3521ZM89.1865 17.5993C89.2465 17.574 89.2465 17.5007 89.2297 17.4106L89.0113 17.5035C89.0665 17.5994 89.1289 17.6219 89.1889 17.5993H89.1865Z" fill="#E0E0E0"/>
<path d="M20.8922 58.5763C20.7626 55.5105 18.4226 53.3859 18.293 50.3116L21.653 48.8604C21.7826 51.9347 24.1226 54.0481 24.2522 57.1223L20.8922 58.5763Z" fill="#EBEBEB"/>
<path d="M23.5969 57.1646C23.5828 57.0044 23.6124 56.843 23.6814 56.7037C23.7504 56.5645 23.8553 56.4545 23.9809 56.3897C23.5777 53.9974 21.9553 52.1348 21.5521 49.7396C21.4966 49.7691 21.4358 49.7822 21.375 49.7778C21.3142 49.7734 21.2553 49.7516 21.2032 49.7144C21.1512 49.6772 21.1077 49.6257 21.0765 49.5643C21.0453 49.5029 21.0273 49.4334 21.0241 49.362L18.9361 50.2666C18.9502 50.4268 18.9207 50.5882 18.8517 50.7275C18.7827 50.8667 18.6778 50.9767 18.5521 51.0415C18.9553 53.4338 20.5777 55.2992 20.9809 57.6916C21.0364 57.6621 21.0972 57.649 21.158 57.6534C21.2188 57.6578 21.2778 57.6796 21.3298 57.7168C21.3818 57.754 21.4253 57.8055 21.4565 57.8669C21.4878 57.9283 21.5057 57.9977 21.5089 58.0691L23.5969 57.1646ZM20.3665 54.065C20.3014 53.9388 20.2613 53.797 20.2494 53.6501C20.2374 53.5031 20.2538 53.355 20.2974 53.2166C20.341 53.0781 20.4107 52.9531 20.5012 52.8507C20.5917 52.7483 20.7007 52.6711 20.8201 52.6251C21.081 52.5253 21.3632 52.5336 21.6195 52.6484C21.8759 52.7633 22.0909 52.9778 22.2289 53.2563C22.2946 53.3822 22.3351 53.5239 22.3475 53.6708C22.3598 53.8177 22.3437 53.966 22.3003 54.1045C22.2569 54.2431 22.1873 54.3683 22.0968 54.4707C22.0063 54.5732 21.8972 54.6503 21.7777 54.6962C21.5154 54.7957 21.232 54.7861 20.975 54.6691C20.718 54.5521 20.5031 54.3348 20.3665 54.0537V54.065Z" fill="#E0E0E0"/>
<path d="M20.8561 53.9748L20.7169 54.034L20.6641 53.9213L20.8009 53.8621C20.7482 53.7466 20.7289 53.6141 20.7457 53.4845H20.8993C20.8823 53.5915 20.8949 53.7021 20.9353 53.8001L21.1753 53.6931C21.1345 53.5268 21.1033 53.3436 21.2761 53.2704C21.3529 53.2442 21.4351 53.2501 21.5087 53.2871C21.5822 53.3241 21.6425 53.3899 21.6793 53.4733L21.8185 53.4141L21.8713 53.5268L21.7345 53.586C21.7778 53.681 21.7969 53.7885 21.7897 53.8959H21.6385C21.6422 53.81 21.6291 53.7242 21.6001 53.6451L21.3601 53.755C21.4009 53.9185 21.4345 54.1045 21.2641 54.1777C21.1866 54.2048 21.1035 54.1994 21.0291 54.1624C20.9546 54.1253 20.8935 54.059 20.8561 53.9748ZM21.3361 53.6339L21.5569 53.5381C21.5395 53.5019 21.5125 53.4734 21.48 53.4571C21.4474 53.4408 21.4112 53.4376 21.3769 53.4479C21.3145 53.4733 21.3145 53.5381 21.3313 53.6339H21.3361ZM21.1705 54.0115C21.2329 53.9861 21.2329 53.9128 21.2137 53.8199L20.9953 53.9157C21.0529 54.0115 21.1129 54.034 21.1657 54.0115H21.1705Z" fill="#E0E0E0"/>
<path d="M29.4649 22.1023C28.5505 25.0666 25.3849 25.0075 24.3433 27.521C23.3689 26.515 22.4233 25.5485 21.4801 24.6862C22.3921 21.7219 25.5601 21.781 26.6017 19.2675C27.5737 20.2876 28.5337 21.2316 29.4649 22.1023Z" fill="#EBEBEB"/>
<path d="M27.0673 20.0199C26.9449 20.2848 26.6425 20.282 26.4217 20.0509C25.2841 21.7923 22.9753 22.0797 21.9289 24.1142C22.031 24.2205 22.1013 24.3625 22.1294 24.5193C22.1575 24.6761 22.1419 24.8393 22.0849 24.9849C22.6721 25.5485 23.2689 26.144 23.8753 26.7714C23.9977 26.5094 24.3001 26.5094 24.5185 26.7404C25.6561 24.999 27.9649 24.7116 29.0137 22.6771C28.9114 22.5716 28.841 22.43 28.8129 22.2736C28.7848 22.1172 28.8005 21.9543 28.8577 21.8092C28.2673 21.2457 27.6697 20.6502 27.0649 20.0227L27.0673 20.0199ZM26.2153 24.2467C25.7545 24.5284 25.0153 24.3706 24.5713 23.8888C24.1273 23.4069 24.0913 22.7617 24.5713 22.4799C25.0513 22.1981 25.7713 22.3559 26.2177 22.8406C26.6641 23.3252 26.6737 23.9677 26.2153 24.2523V24.2467Z" fill="#E0E0E0"/>
<path d="M25.9153 23.7817C25.9585 23.8268 25.9993 23.869 26.0377 23.9141L25.9489 23.9705L25.8265 23.8409C25.7142 23.8988 25.5911 23.9221 25.4689 23.9085L25.4065 23.7592C25.5091 23.7731 25.6131 23.7566 25.7089 23.7112L25.4905 23.4774C25.4117 23.5154 25.3258 23.5281 25.2414 23.5143C25.1571 23.5004 25.0774 23.4604 25.0105 23.3985C24.9811 23.3761 24.9574 23.3449 24.9419 23.3081C24.9263 23.2712 24.9195 23.2302 24.9222 23.1892C24.925 23.1482 24.937 23.1088 24.9572 23.0752C24.9774 23.0416 25.0049 23.0151 25.0369 22.9983L24.9121 22.8659L25.0009 22.8095L25.1233 22.9392C25.2147 22.8921 25.314 22.8699 25.4137 22.8743L25.4785 23.0209C25.3969 23.0192 25.3156 23.0345 25.2385 23.066L25.4617 23.3055C25.5399 23.2649 25.6261 23.2506 25.7109 23.264C25.7956 23.2774 25.8755 23.3181 25.9417 23.3816C25.9704 23.4044 25.9935 23.4358 26.0085 23.4725C26.0236 23.5093 26.0301 23.55 26.0274 23.5906C26.0248 23.6313 26.013 23.6703 25.9933 23.7039C25.9736 23.7374 25.9467 23.7643 25.9153 23.7817ZM25.3489 23.3365L25.1521 23.1251C25.1392 23.1345 25.1286 23.1475 25.1212 23.1631C25.1138 23.1786 25.1099 23.1961 25.1099 23.2139C25.1099 23.2317 25.1138 23.2492 25.1212 23.2647C25.1286 23.2803 25.1392 23.2933 25.1521 23.3027C25.1809 23.3245 25.2134 23.3388 25.2474 23.3446C25.2813 23.3505 25.316 23.3477 25.3489 23.3365ZM25.8049 23.4802C25.7743 23.4558 25.7393 23.4401 25.7027 23.4342C25.666 23.4284 25.6288 23.4325 25.5937 23.4464L25.7881 23.6549C25.8649 23.5929 25.8625 23.5309 25.8145 23.4802H25.8049Z" fill="#E0E0E0"/>
<path d="M31.9249 64.0261C31.0129 66.9904 27.8449 66.9313 26.8033 69.4448C25.8433 68.4388 24.8833 67.4723 23.9401 66.61C24.8545 63.6457 28.0201 63.7048 29.0617 61.1913C30.0361 62.1973 30.9937 63.1553 31.9249 64.0261Z" fill="#EBEBEB"/>
<path d="M29.5273 61.9437C29.4049 62.2057 29.1049 62.2057 28.8841 61.9747C27.7465 63.7161 25.4377 64.0035 24.3889 66.038C24.4918 66.1436 24.5628 66.2855 24.5913 66.4424C24.6199 66.5994 24.6044 66.7629 24.5473 66.9087C25.1353 67.4723 25.7329 68.0753 26.3377 68.6952C26.4577 68.4331 26.7601 68.4331 26.9809 68.6642C28.1161 66.9228 30.4273 66.6326 31.4737 64.6009C31.3715 64.4953 31.301 64.3538 31.2729 64.1974C31.2448 64.041 31.2605 63.8781 31.3177 63.733C30.7305 63.1694 30.1337 62.5739 29.5273 61.9465V61.9437ZM28.6753 66.1704C28.2169 66.4522 27.4753 66.2944 27.0337 65.8126C26.5921 65.3307 26.5537 64.6854 27.0337 64.4036C27.5137 64.1219 28.2337 64.2797 28.6777 64.7643C29.1217 65.249 29.1337 65.8915 28.6753 66.1761V66.1704Z" fill="#E0E0E0"/>
<path d="M28.3778 65.7055L28.5002 65.8379C28.469 65.8548 28.4402 65.8745 28.4114 65.8943L28.289 65.7618C28.1761 65.8212 28.0521 65.8455 27.929 65.8323C27.9098 65.7815 27.8882 65.7336 27.869 65.6829C27.9716 65.6966 28.0755 65.6801 28.1714 65.635L27.9506 65.4011C27.8716 65.4388 27.7855 65.4511 27.7011 65.4367C27.6168 65.4223 27.5372 65.3818 27.4706 65.3194C27.4418 65.2969 27.4186 65.2658 27.4035 65.2293C27.3884 65.1928 27.3818 65.1522 27.3845 65.1117C27.3872 65.0712 27.399 65.0323 27.4188 64.9989C27.4386 64.9656 27.4656 64.9391 27.497 64.9221L27.3746 64.7897L27.4634 64.7333L27.5858 64.8629C27.6765 64.8162 27.7747 64.7932 27.8738 64.7953C27.8954 64.846 27.9194 64.8939 27.941 64.9418C27.8592 64.9408 27.7779 64.957 27.701 64.9897L27.9218 65.2264C28.0005 65.1884 28.0865 65.1757 28.1709 65.1895C28.2552 65.2034 28.3349 65.2434 28.4018 65.3053C28.4306 65.328 28.4538 65.3592 28.469 65.3957C28.4843 65.4323 28.491 65.4729 28.4886 65.5136C28.4862 65.5542 28.4746 65.5933 28.4552 65.627C28.4357 65.6607 28.409 65.6878 28.3778 65.7055ZM27.8186 65.2574L27.6242 65.0489C27.557 65.1109 27.5642 65.1729 27.6242 65.2264C27.6529 65.2474 27.685 65.261 27.7186 65.2663C27.7521 65.2717 27.7861 65.2686 27.8186 65.2574ZM28.2746 65.4039C28.2445 65.3783 28.2094 65.3618 28.1726 65.3559C28.1357 65.35 28.0982 65.3549 28.0634 65.3701L28.2578 65.5787C28.325 65.5167 28.3226 65.4547 28.2746 65.4039Z" fill="#E0E0E0"/>
<path d="M75.2353 34.7149L75.1153 34.7741C75.1033 34.729 75.0889 34.6839 75.0745 34.636L75.1921 34.5768C75.15 34.431 75.1377 34.2756 75.1561 34.1232L75.2857 34.1429C75.2696 34.2682 75.277 34.3961 75.3073 34.5177L75.5161 34.4106C75.4897 34.2105 75.4681 33.9907 75.6169 33.9175C75.7249 33.8611 75.8569 33.94 75.9481 34.1992L76.0657 34.1373L76.1089 34.2753L75.9913 34.3345C76.0245 34.4554 76.0375 34.5826 76.0297 34.7093L75.9025 34.6924C75.9075 34.5918 75.8986 34.4909 75.8761 34.3937L75.6649 34.5008C75.6913 34.7008 75.7177 34.9234 75.5713 34.9967C75.4633 35.0474 75.3313 34.9685 75.2353 34.7149ZM75.6457 34.3486L75.8329 34.2528C75.7849 34.1401 75.7321 34.1063 75.6865 34.1316C75.6409 34.157 75.6337 34.2415 75.6457 34.3486ZM75.4945 34.7825C75.5473 34.7572 75.5497 34.6698 75.5353 34.5599L75.3505 34.6557C75.3985 34.7713 75.4513 34.8051 75.4945 34.7825Z" fill="#E0E0E0"/>
<path d="M38.4793 31.3419C38.4937 31.387 38.5057 31.4377 38.5201 31.4856L38.4097 31.5138C38.3953 31.4659 38.3833 31.418 38.3713 31.3701C38.2516 31.3986 38.1277 31.3908 38.0113 31.3476C38.0113 31.2997 38.0281 31.2518 38.0353 31.201C38.1309 31.2392 38.233 31.2498 38.3329 31.232C38.3089 31.1475 38.2849 31.0602 38.2633 30.9756C38.1025 30.9756 37.9297 30.9756 37.8793 30.7925C37.8457 30.66 37.9153 30.5107 38.1193 30.4515C38.1073 30.4036 38.0929 30.3557 38.0809 30.305L38.1913 30.2768C38.1913 30.3247 38.2177 30.3726 38.2297 30.4205C38.3271 30.3978 38.4274 30.3978 38.5249 30.4205C38.5249 30.4684 38.5249 30.5163 38.5057 30.5642C38.4263 30.5485 38.3451 30.5485 38.2657 30.5642C38.2873 30.6516 38.3113 30.7361 38.3353 30.8235C38.4937 30.8235 38.6713 30.8235 38.7169 30.9982C38.7577 31.125 38.6857 31.2771 38.4793 31.3419ZM38.2201 30.8206C38.2009 30.7446 38.1793 30.6657 38.1601 30.5924C38.0665 30.629 38.0377 30.6854 38.0545 30.7417C38.0713 30.7981 38.1361 30.8178 38.2201 30.8206ZM38.5537 31.0517C38.5369 30.9869 38.4673 30.9756 38.3809 30.9728C38.4025 31.0489 38.4217 31.125 38.4433 31.201C38.5489 31.1616 38.5681 31.1052 38.5489 31.0517H38.5537Z" fill="#E0E0E0"/>
<path d="M61.9178 23.2012L61.8146 23.2942L61.7546 23.1843L61.8553 23.0913C61.7924 22.9693 61.7561 22.8308 61.7498 22.6884L61.8746 22.663C61.878 22.7814 61.9051 22.8973 61.9537 23.0011L62.1362 22.8377C62.0786 22.663 62.0234 22.4686 62.1506 22.353C62.2778 22.2375 62.3906 22.2995 62.5058 22.5024L62.609 22.4094L62.669 22.5221L62.5681 22.6123C62.6178 22.714 62.6504 22.8259 62.6642 22.942L62.5418 22.9673C62.5298 22.8751 62.5055 22.7857 62.4698 22.7025L62.2874 22.8687C62.345 23.0434 62.405 23.2378 62.2874 23.3506C62.1698 23.4633 62.0474 23.4041 61.9178 23.2012ZM62.2442 22.7363L62.4074 22.5926C62.345 22.5024 62.2898 22.4911 62.249 22.5249C62.2082 22.5587 62.2178 22.6433 62.2442 22.7363ZM62.1746 23.1815C62.2178 23.142 62.2058 23.0631 62.1746 22.9673L62.0137 23.111C62.0809 23.204 62.1338 23.2181 62.1746 23.1815Z" fill="#E0E0E0"/>
<path d="M69.4537 52.3151L69.3265 52.3405C69.3265 52.2954 69.3265 52.2503 69.3265 52.208L69.4537 52.1827C69.4484 52.0397 69.4731 51.8975 69.5257 51.7684L69.6457 51.8192C69.5999 51.9238 69.5761 52.0397 69.5761 52.1573L69.8041 52.115C69.8233 51.9291 69.8545 51.729 70.0129 51.698C70.1281 51.6755 70.2337 51.7769 70.2649 52.0277L70.3921 52.0051V52.1376L70.2673 52.1601C70.2708 52.2773 70.2545 52.3941 70.2193 52.5039L70.0993 52.4588C70.1284 52.3687 70.1439 52.2734 70.1449 52.177L69.9169 52.2221C69.8953 52.4081 69.8713 52.611 69.7129 52.642C69.5953 52.6673 69.4873 52.5659 69.4537 52.3151ZM69.9337 52.0897L70.1353 52.0502C70.1161 51.9375 70.0729 51.8981 70.0225 51.9065C69.9721 51.915 69.9457 51.9911 69.9313 52.0897H69.9337ZM69.6937 52.4419C69.7489 52.4419 69.7705 52.3546 69.7849 52.2531L69.5833 52.2897C69.5977 52.4109 69.6385 52.4504 69.6865 52.4419H69.6937Z" fill="#E0E0E0"/>
<path d="M60.149 104.98C85.8488 104.98 106.683 103.552 106.683 101.791C106.683 100.029 85.8488 98.6009 60.149 98.6009C34.4492 98.6009 13.6154 100.029 13.6154 101.791C13.6154 103.552 34.4492 104.98 60.149 104.98Z" fill="#F5F5F5"/>
<path d="M41.4097 19.5578C39.1129 18.0474 37.0105 14.79 35.2009 14.0883C35.773 12.6941 36.4433 11.3585 37.2049 10.0955C39.0145 12.1553 41.1169 15.7762 43.4137 15.5621C42.8402 16.9562 42.1699 18.2926 41.4097 19.5578Z" fill="#3FB55D"/>
<path opacity="0.5" d="M41.4097 19.5578C39.1129 18.0474 37.0105 14.79 35.2009 14.0883C35.773 12.6941 36.4433 11.3585 37.2049 10.0955C39.0145 12.1553 41.1169 15.7762 43.4137 15.5621C42.8402 16.9562 42.1699 18.2926 41.4097 19.5578Z" fill="white"/>
<path opacity="0.2" d="M42.8689 16.4243C42.6289 16.3905 42.5497 16.0805 42.6985 15.7706C40.8457 15.3028 39.1273 12.6709 37.6009 10.8647C37.5635 10.9199 37.5164 10.9648 37.4627 10.9965C37.4091 11.0282 37.3503 11.0459 37.2903 11.0483C37.2303 11.0507 37.1705 11.0378 37.1152 11.0105C37.0599 10.9832 37.0102 10.9421 36.9697 10.8901C36.518 11.6694 36.1006 12.4754 35.7193 13.305C35.8193 13.4048 35.8836 13.5451 35.8996 13.698C35.9156 13.8509 35.8821 14.0053 35.8057 14.1306C37.3345 15.0887 39.0505 17.512 40.9057 18.9688C40.9949 18.8543 41.1139 18.7775 41.2441 18.7505C41.3743 18.7235 41.5084 18.7477 41.6257 18.8195C42.0762 18.0456 42.4927 17.2452 42.8737 16.4215L42.8689 16.4243ZM38.5633 15.779C38.1073 15.2803 38.0017 14.511 38.3089 14.0601C38.6161 13.6093 39.2233 13.6995 39.6793 14.2151C40.1353 14.7308 40.2649 15.4662 39.9577 15.9058C39.6505 16.3454 39.0289 16.2834 38.5633 15.779Z" fill="black"/>
<g opacity="0.2">
<path d="M38.9113 15.4973L38.8297 15.6128L38.7385 15.5142C38.7673 15.4747 38.7938 15.4353 38.8226 15.3986C38.7286 15.2899 38.6579 15.1567 38.6161 15.0098L38.741 14.959C38.7729 15.0808 38.8279 15.1926 38.9018 15.2859L39.0482 15.0774C38.9474 14.914 38.8442 14.728 38.9474 14.5843C39.0506 14.4406 39.1705 14.48 39.3505 14.6575C39.3793 14.6209 39.4058 14.5815 39.4346 14.542L39.5233 14.6434L39.4418 14.759C39.5173 14.848 39.5776 14.9532 39.6194 15.0689L39.4994 15.1253C39.4658 15.0317 39.4196 14.9452 39.3626 14.8689L39.2138 15.0774C39.3146 15.2408 39.4226 15.4268 39.3194 15.5705C39.2162 15.7142 39.0961 15.6832 38.9113 15.4973ZM39.1513 14.9534L39.281 14.7703C39.197 14.6942 39.137 14.6942 39.1058 14.7393C39.0746 14.7843 39.089 14.8745 39.1394 14.9647L39.1513 14.9534ZM39.1849 15.4212C39.2209 15.3705 39.185 15.2944 39.1346 15.2014L39.0049 15.3845C39.0817 15.4747 39.1394 15.4775 39.173 15.4324L39.1849 15.4212Z" fill="black"/>
</g>
<path d="M61.1089 31.4829C58.9969 32.8185 55.8001 32.9876 54.4657 34.3148C53.7961 32.9802 53.2136 31.588 52.7233 30.15C54.9769 29.5865 58.4209 29.6231 59.3665 27.3153C60.0358 28.6511 60.6182 30.0442 61.1089 31.4829Z" fill="#3FB55D"/>
<path opacity="0.5" d="M61.1089 31.4829C58.9969 32.8185 55.8001 32.9876 54.4657 34.3148C53.7961 32.9802 53.2136 31.588 52.7233 30.15C54.9769 29.5865 58.4209 29.6231 59.3665 27.3153C60.0358 28.6511 60.6182 30.0442 61.1089 31.4829Z" fill="white"/>
<path opacity="0.2" d="M59.6858 28.3382C59.5466 28.5523 59.3017 28.448 59.1649 28.1324C57.9649 29.6315 55.3826 29.795 53.429 30.2233C53.4501 30.2854 53.4595 30.3521 53.4562 30.4189C53.453 30.4857 53.4373 30.5508 53.4103 30.6096C53.3833 30.6685 53.3456 30.7197 53.2999 30.7596C53.2542 30.7994 53.2016 30.827 53.1458 30.8404C53.4338 31.6407 53.7698 32.4804 54.1826 33.3764C54.3698 33.2665 54.641 33.4384 54.7826 33.7625C56.1554 32.8467 58.601 32.5705 60.473 31.6322C60.4375 31.4911 60.4418 31.3404 60.485 31.2024C60.5282 31.0643 60.6081 30.9463 60.713 30.8657C60.4274 30.0683 60.0938 29.2314 59.6858 28.3297V28.3382ZM57.209 32.0661C56.9566 32.148 56.6875 32.1193 56.4517 31.9856C56.216 31.8519 56.0296 31.6221 55.9274 31.3391C55.7666 30.7925 56.1169 30.2684 56.6833 30.1247C57.2497 29.9809 57.8065 30.2712 57.9577 30.8122C58.1089 31.3532 57.7658 31.9168 57.209 32.0661Z" fill="black"/>
<g opacity="0.2">
<path d="M57.1921 31.5815C57.2065 31.6294 57.2185 31.6773 57.2305 31.7252L57.1201 31.7562C57.1201 31.7083 57.0937 31.6604 57.0817 31.6125C56.9619 31.6391 56.8384 31.6314 56.7217 31.5899C56.7217 31.5392 56.7385 31.4913 56.7481 31.4434C56.8429 31.4818 56.9445 31.4915 57.0433 31.4716C57.0217 31.387 56.9977 31.3025 56.9737 31.2151C56.8153 31.2151 56.6401 31.2151 56.5921 31.032C56.5561 30.9024 56.6257 30.7643 56.8321 30.691C56.8177 30.6431 56.8057 30.5952 56.7913 30.5473L56.9041 30.5191C56.9041 30.567 56.9281 30.6149 56.9425 30.6628C57.0399 30.6389 57.1404 30.6389 57.2377 30.6628L57.2161 30.8066C57.1367 30.7908 57.0556 30.7908 56.9761 30.8066C57.0001 30.8911 57.0241 30.9784 57.0457 31.0658C57.2065 31.0658 57.3817 31.0658 57.4297 31.2405C57.4705 31.3645 57.3985 31.5054 57.1921 31.5815ZM56.9329 31.0602C56.9113 30.9841 56.8921 30.908 56.8705 30.8319C56.7793 30.8714 56.7505 30.9277 56.7649 30.9841C56.7793 31.0404 56.8489 31.0573 56.9329 31.0602ZM57.2641 31.2912C57.2473 31.2292 57.1801 31.2151 57.0937 31.2151C57.1129 31.2912 57.1345 31.3673 57.1537 31.4406C57.2497 31.4011 57.2689 31.3476 57.2689 31.2912H57.2641Z" fill="black"/>
</g>
<path d="M78.3721 13.7277C75.8809 14.7139 73.4305 15.934 71.5753 17.8361C70.9177 16.692 70.2409 15.5283 69.6241 14.3081C71.7001 12.4456 74.1217 11.2705 76.4209 10.1997C77.0785 11.3438 77.7553 12.5075 78.3721 13.7277Z" fill="#3FB55D"/>
<path opacity="0.5" d="M78.3721 13.7277C75.8809 14.7139 73.4305 15.934 71.5753 17.8361C70.9177 16.692 70.2409 15.5283 69.6241 14.3081C71.7001 12.4456 74.1217 11.2705 76.4209 10.1997C77.0785 11.3438 77.7553 12.5075 78.3721 13.7277Z" fill="white"/>
<path opacity="0.2" d="M76.613 10.9296C76.4855 10.9846 76.3463 10.9894 76.2163 10.9431C76.0864 10.8968 75.9729 10.802 75.893 10.6731C73.9874 11.5777 72.029 12.578 70.2818 14.0123C70.3469 14.1511 70.3675 14.3128 70.3397 14.4679C70.312 14.623 70.2378 14.7613 70.1306 14.8576C70.5242 15.6043 70.9346 16.3313 71.345 17.0499C71.3917 17.0028 71.4465 16.9682 71.5057 16.9483C71.5649 16.9284 71.6271 16.9238 71.688 16.9348C71.7488 16.9458 71.8069 16.9721 71.8583 17.0119C71.9097 17.0517 71.9532 17.1041 71.9858 17.1654C73.6034 15.7001 75.5858 14.6688 77.6018 13.815C77.5687 13.7542 77.5484 13.6852 77.5423 13.6134C77.5363 13.5417 77.5447 13.4693 77.5669 13.4021C77.5891 13.3348 77.6244 13.2747 77.6701 13.2265C77.7158 13.1783 77.7705 13.1434 77.8298 13.1246C77.4362 12.3807 77.0234 11.6537 76.6154 10.9352L76.613 10.9296ZM74.2706 14.635C74.0333 14.7834 73.7578 14.824 73.4966 14.7492C73.2355 14.6743 73.0069 14.4893 72.8546 14.2292C72.7883 14.0996 72.7462 13.9549 72.731 13.8047C72.7159 13.6546 72.7279 13.5023 72.7665 13.358C72.805 13.2138 72.8692 13.0807 72.9547 12.9676C73.0402 12.8545 73.1451 12.764 73.2626 12.702C73.5086 12.5596 73.7903 12.5271 74.0553 12.6106C74.3202 12.694 74.5503 12.8878 74.7026 13.1556C74.7669 13.2836 74.8069 13.4265 74.8197 13.5743C74.8326 13.7222 74.818 13.8716 74.7769 14.0122C74.7359 14.1528 74.6693 14.2813 74.5819 14.3888C74.4945 14.4963 74.3883 14.5803 74.2706 14.635Z" fill="black"/>
<g opacity="0.2">
<path d="M74.1313 14.1278L74.2057 14.2715L74.1049 14.3278L74.0305 14.1869C73.9204 14.2472 73.7985 14.2715 73.6777 14.2574C73.6777 14.2039 73.6777 14.1475 73.6657 14.094C73.765 14.1089 73.8659 14.0934 73.9585 14.0489C73.9153 13.9615 73.8697 13.877 73.8241 13.7925C73.6705 13.8375 73.5025 13.877 73.4113 13.6995C73.3417 13.5698 73.3729 13.4008 73.5529 13.2712L73.4761 13.1246L73.5769 13.0683L73.6513 13.2092C73.7421 13.1633 73.8405 13.1422 73.9393 13.1472C73.9393 13.1979 73.9513 13.2514 73.9585 13.305C73.8769 13.3014 73.7956 13.3157 73.7185 13.3472L73.8529 13.6065C74.0065 13.5642 74.1793 13.5248 74.2729 13.7023C74.3449 13.8319 74.3089 13.9953 74.1313 14.1278ZM73.7449 13.6375L73.6249 13.4092C73.5457 13.474 73.5337 13.5417 73.5625 13.598C73.5913 13.6544 73.6609 13.6572 73.7449 13.6375ZM74.1265 13.8009C74.0929 13.7389 74.0233 13.7417 73.9393 13.7615L74.0569 13.9869C74.1385 13.9221 74.1553 13.8573 74.1265 13.8065V13.8009Z" fill="black"/>
</g>
<path d="M34.5121 43.7686C32.6977 41.5482 29.7481 41.7567 27.9337 39.5419C28.5049 38.3171 29.0769 37.0913 29.6497 35.8646C31.4641 38.085 34.4137 37.8793 36.2281 40.0913C35.6569 41.318 35.0849 42.5438 34.5121 43.7686Z" fill="#3FB55D"/>
<path opacity="0.5" d="M34.5121 43.7686C32.6977 41.5482 29.7481 41.7567 27.9337 39.5419C28.5049 38.3171 29.0769 37.0913 29.6497 35.8646C31.4641 38.085 34.4137 37.8793 36.2281 40.0913C35.6569 41.318 35.0849 42.5438 34.5121 43.7686Z" fill="white"/>
<path opacity="0.2" d="M35.765 40.6211C35.6641 40.5113 35.5957 40.3665 35.5698 40.2079C35.5439 40.0492 35.5618 39.885 35.621 39.7391C33.9794 38.2457 31.7138 38.0907 30.0722 36.5944C30.0465 36.6592 30.0077 36.7156 29.9592 36.7588C29.9107 36.802 29.854 36.8306 29.794 36.8423C29.7339 36.854 29.6724 36.8482 29.6146 36.8257C29.5569 36.8031 29.5047 36.7644 29.4626 36.7128L28.3946 39.0065C28.4946 39.1164 28.5622 39.2609 28.5877 39.4189C28.6131 39.577 28.5951 39.7404 28.5362 39.8857C30.1778 41.3819 32.4434 41.5369 34.085 43.0332C34.1105 42.9682 34.1491 42.9115 34.1975 42.8681C34.2458 42.8246 34.3025 42.7956 34.3626 42.7837C34.4226 42.7717 34.4843 42.7772 34.5421 42.7996C34.6 42.8219 34.6523 42.8605 34.6946 42.912L35.7626 40.6211H35.765ZM31.589 40.762C31.4694 40.7166 31.36 40.6403 31.2689 40.5385C31.1779 40.4368 31.1075 40.3123 31.063 40.1742C31.0185 40.0362 31.0011 39.8882 31.0119 39.7412C31.0228 39.5941 31.0617 39.4519 31.1258 39.3249C31.2673 39.0468 31.486 38.8345 31.7453 38.7236C32.0045 38.6128 32.2883 38.6102 32.549 38.7163C32.6687 38.7606 32.7783 38.8361 32.8696 38.9372C32.9609 39.0382 33.0316 39.1622 33.0764 39.2999C33.1212 39.4375 33.1389 39.5853 33.1282 39.7321C33.1175 39.8789 33.0786 40.021 33.0146 40.1477C32.8737 40.4274 32.6549 40.6414 32.3951 40.7533C32.1353 40.8652 31.8505 40.8683 31.589 40.762Z" fill="black"/>
<g opacity="0.2">
<path d="M31.9129 40.3252C31.8913 40.3759 31.8673 40.4267 31.8433 40.4774L31.7401 40.4323L31.8097 40.283C31.7048 40.2366 31.6156 40.1516 31.5553 40.0406L31.6753 39.9279C31.7238 40.02 31.7949 40.0927 31.8793 40.1364C31.9201 40.0463 31.9633 39.9561 32.0065 39.8546C31.8841 39.7588 31.7665 39.6461 31.8457 39.4573C31.889 39.3784 31.9545 39.3198 32.0307 39.2915C32.1069 39.2632 32.1892 39.267 32.2633 39.3024L32.3353 39.1474L32.4385 39.1925L32.3665 39.3418C32.4523 39.3807 32.5272 39.4471 32.5825 39.5334L32.4673 39.6461C32.4217 39.5799 32.3644 39.526 32.2993 39.4883L32.1721 39.7701C32.2945 39.8659 32.4121 39.9786 32.3353 40.1674C32.2912 40.2469 32.225 40.306 32.1481 40.3347C32.0711 40.3635 31.988 40.3601 31.9129 40.3252ZM32.0809 39.7025L32.1937 39.4601C32.0977 39.4376 32.0377 39.4601 32.0113 39.5306C31.9849 39.601 32.0209 39.6461 32.0809 39.7025ZM32.1697 40.1139C32.2009 40.0463 32.1697 39.9927 32.0953 39.9364L31.9825 40.1759C32.0809 40.2012 32.1409 40.1702 32.1697 40.1139Z" fill="black"/>
</g>
<path d="M93.8761 32.4719C92.1625 34.9009 89.2105 33.5991 87.4969 35.5406C86.8705 34.2077 86.2441 32.9256 85.6177 31.7365C87.3313 29.3075 90.2833 30.6093 91.9969 28.6678C92.6233 30.0007 93.2497 31.2772 93.8761 32.4719Z" fill="#3FB55D"/>
<path opacity="0.5" d="M93.8761 32.4719C92.1625 34.9009 89.2105 33.5991 87.4969 35.5406C86.8705 34.2077 86.2441 32.9256 85.6177 31.7365C87.3313 29.3075 90.2833 30.6093 91.9969 28.6678C92.6233 30.0007 93.2497 31.2772 93.8761 32.4719Z" fill="white"/>
<path opacity="0.2" d="M92.2177 29.5611C92.0281 29.7611 91.7377 29.64 91.6033 29.3328C90.0313 30.522 87.7753 29.8767 86.2057 31.3758C86.2711 31.5164 86.2963 31.678 86.2777 31.8367C86.2592 31.9954 86.1978 32.143 86.1025 32.2577C86.4913 33.027 86.8825 33.8273 87.2737 34.6501C87.4633 34.45 87.7537 34.5712 87.8881 34.8755C89.4577 33.6864 91.7137 34.3317 93.2857 32.8354C93.2198 32.6954 93.1943 32.5341 93.2129 32.3757C93.2315 32.2172 93.2932 32.0701 93.3889 31.9562C92.9977 31.1898 92.6065 30.3867 92.2177 29.5639V29.5611ZM90.1993 33.2074C89.6857 33.2891 89.0449 32.8523 88.7593 32.2183C88.4737 31.5843 88.6441 30.9672 89.1553 30.8826C89.6665 30.7981 90.3121 31.2405 90.5953 31.8745C90.8785 32.5085 90.7129 33.1228 90.1993 33.2074Z" fill="black"/>
<g opacity="0.2">
<path d="M90.0529 32.6466L90.1297 32.8185L90.0313 32.8354L89.9521 32.6635C89.8293 32.6755 89.7059 32.6493 89.5945 32.5874L89.5801 32.4212C89.6724 32.4752 89.7747 32.5014 89.8777 32.4973L89.7409 32.1901C89.6569 32.1932 89.5737 32.1704 89.4996 32.1239C89.4254 32.0774 89.363 32.0089 89.3185 31.9252C89.2979 31.8926 89.285 31.8541 89.2813 31.8138C89.2776 31.7734 89.2831 31.7326 89.2972 31.6955C89.3114 31.6585 89.3338 31.6265 89.362 31.603C89.3902 31.5795 89.4232 31.5652 89.4577 31.5617L89.3785 31.387L89.4793 31.3701L89.5561 31.542C89.6557 31.5337 89.7556 31.551 89.8489 31.5927C89.8489 31.6491 89.8609 31.7026 89.8681 31.7562C89.7914 31.7224 89.71 31.7061 89.6281 31.7083L89.7697 32.0182C89.8535 32.0148 89.9365 32.0372 90.0106 32.0832C90.0847 32.1291 90.1473 32.1971 90.1921 32.2803C90.2126 32.3131 90.2253 32.3518 90.229 32.3923C90.2326 32.4327 90.2271 32.4737 90.213 32.5108C90.1989 32.548 90.1766 32.5802 90.1485 32.604C90.1204 32.6278 90.0874 32.6425 90.0529 32.6466ZM89.6689 32.0041L89.5441 31.7223C89.4649 31.7562 89.4529 31.8182 89.4841 31.8858C89.5042 31.9218 89.5316 31.9515 89.5639 31.9721C89.5961 31.9928 89.6322 32.0038 89.6689 32.0041ZM90.0577 32.3197C90.0358 32.2846 90.0073 32.2559 89.9745 32.2358C89.9416 32.2158 89.9052 32.205 89.8681 32.2042L89.9905 32.486C90.0601 32.4465 90.0745 32.3874 90.0457 32.3197H90.0577Z" fill="black"/>
</g>
<path d="M83.4289 51.4303C76.5776 66.9437 67.4897 80.9468 56.5681 92.8187L39.7897 77.8053C50.7189 65.936 59.8135 51.9326 66.6697 36.4169L83.4289 51.4303Z" fill="#3FB55D"/>
<path opacity="0.2" d="M83.4289 51.4303C82.8657 52.7096 82.2849 53.9776 81.6865 55.2344C75.0627 69.246 66.5841 81.9324 56.5681 92.8187L39.7897 77.8053C50.7189 65.936 59.8135 51.9326 66.6697 36.4169L83.4289 51.4303Z" fill="white"/>
<path opacity="0.2" d="M69.2929 40.4267C69.1331 40.8061 68.9025 41.1384 68.6183 41.3989C68.3341 41.6594 68.0035 41.8413 67.6512 41.9312C67.2988 42.021 66.9338 42.0166 66.5831 41.9181C66.2325 41.8196 65.9052 41.6296 65.6257 41.3622C59.6769 53.8594 52.2476 65.3021 43.5601 75.3481C43.8556 75.5917 44.1 75.9109 44.2752 76.2815C44.4503 76.6522 44.5515 77.0646 44.5711 77.4879C44.5908 77.9111 44.5284 78.3341 44.3886 78.7249C44.2488 79.1157 44.0353 79.4641 43.7641 79.7439L54.2209 89.102C54.8087 88.4732 55.5622 88.0995 56.3559 88.0431C57.1497 87.9867 57.936 88.251 58.5841 88.792C67.2723 78.7467 74.7017 67.3039 80.6497 54.8061C79.3897 53.679 79.0033 51.4416 79.7497 49.7847L79.7617 49.7593L69.3025 40.4013L69.2929 40.4267ZM67.3729 70.1633C65.3977 73.1981 61.5937 73.6856 59.0185 71.3806C56.4433 69.0756 56.0593 64.8432 58.0369 61.8C60.0145 58.7567 63.5977 58.0804 66.1777 60.391C68.7577 62.7017 69.3625 67.1285 67.3825 70.1633H67.3729Z" fill="black"/>
<g opacity="0.2">
<path d="M65.5777 67.6272L66.2713 68.2471L65.8825 68.8445L65.1889 68.2218C64.6873 68.9037 64.0321 69.4109 63.5089 69.5349L63.1009 68.6529C63.6511 68.4781 64.1469 68.1211 64.5289 67.6244L63.2905 66.517C62.5993 67.1764 61.8001 67.8357 60.9409 67.0636C60.3097 66.5001 60.1201 65.4772 60.7681 64.2599L60.0697 63.6343C60.1993 63.4371 60.3289 63.237 60.4561 63.037L61.1425 63.6513C61.4984 63.1459 61.954 62.7503 62.4697 62.4987L62.9041 63.361C62.4916 63.5647 62.1197 63.867 61.8121 64.2486L63.0601 65.3758C63.7513 64.7136 64.5289 64.0147 65.3881 64.784C66.0169 65.3391 66.2185 66.3817 65.5777 67.6272ZM62.5489 65.8492L61.4473 64.8629C61.1785 65.4406 61.2553 65.8576 61.5289 66.0999C61.8025 66.3423 62.1625 66.176 62.5489 65.8492ZM64.8529 65.7674C64.5505 65.4857 64.2025 65.6914 63.8137 66.0492L64.9081 67.0298C65.1889 66.4212 65.1145 66.007 64.8481 65.7674H64.8529Z" fill="black"/>
</g>
<path opacity="0.2" d="M81.6937 55.2287C75.0682 69.2429 66.5871 81.9313 56.5681 92.8187C56.5681 92.8187 49.4593 80.0849 46.5097 77.7179C46.5097 77.7179 69.4105 67.7399 81.6937 55.2287Z" fill="black"/>
<path d="M99.4513 72.1555C88.29 83.7187 75.5076 92.9254 61.6705 99.3674L50.6305 78.2561C64.4672 71.8149 77.2489 62.6082 88.4089 51.0443C92.0921 58.0832 95.7729 65.1203 99.4513 72.1555Z" fill="#3FB55D"/>
<path opacity="0.3" d="M99.4513 72.1555C88.29 83.7187 75.5076 92.9254 61.6705 99.3674L56.9017 90.2432C54.8217 86.2513 52.7345 82.2565 50.6401 78.2589C64.4768 71.8177 77.2585 62.611 88.4185 51.0471C92.0953 58.0842 95.7729 65.1203 99.4513 72.1555Z" fill="white"/>
<path opacity="0.2" d="M89.6425 55.8994C89.3787 56.1886 89.0623 56.4038 88.7174 56.5287C88.3724 56.6535 88.0078 56.6849 87.651 56.6203C87.2943 56.5557 86.9546 56.3969 86.6577 56.1559C86.3608 55.9149 86.1143 55.5978 85.9369 55.2287C76.5465 64.3623 66.1 71.8857 54.9097 77.5742C55.1106 77.9264 55.2406 78.3276 55.2901 78.7475C55.3396 79.1674 55.3071 79.5949 55.1953 79.9979C55.0834 80.401 54.895 80.7689 54.6443 81.0739C54.3936 81.3789 54.0872 81.613 53.7481 81.7587L60.6289 94.9067C61.3705 94.5696 62.188 94.5406 62.9455 94.8246C63.703 95.1086 64.355 95.6885 64.7929 96.4678C75.9842 90.7815 86.4309 83.2579 95.8201 74.1223C94.9897 72.5387 95.3185 70.2872 96.5233 69.0502L96.5425 69.0305L89.6689 55.8796L89.6425 55.8994ZM78.7225 82.821C75.9457 84.816 72.2425 83.6663 70.5625 80.4174C68.8825 77.1684 69.8137 73.0656 72.5905 71.0734C75.3673 69.0812 78.9193 69.9463 80.6161 73.2065C82.3129 76.4668 81.5089 80.8316 78.7225 82.821Z" fill="black"/>
<g opacity="0.2">
<path d="M77.8201 79.6847L78.2761 80.5583L77.7289 80.95C77.5801 80.6682 77.4289 80.3864 77.2777 80.0877C76.6009 80.5076 75.8377 80.7048 75.3025 80.5977C75.2665 80.2652 75.2305 79.9327 75.1921 79.6002C75.7586 79.6699 76.3301 79.5466 76.8385 79.2452C76.5681 78.7267 76.2977 78.2082 76.0273 77.6897C75.1777 78.0109 74.2321 78.2843 73.6657 77.2022C73.2505 76.4076 73.3873 75.3735 74.3665 74.514L73.9081 73.6349L74.4529 73.2404L74.9041 74.1054C75.3912 73.7853 75.9373 73.6093 76.4953 73.5926C76.5433 73.9223 76.5889 74.252 76.6369 74.5788C76.189 74.5968 75.7489 74.7215 75.3433 74.9451L76.1641 76.5175C77.0137 76.1934 77.9521 75.8722 78.5161 76.9514C78.9313 77.7461 78.7969 78.8028 77.8201 79.6847ZM75.5353 76.7486C75.2937 76.2864 75.0537 75.8243 74.8153 75.3622C74.3857 75.7877 74.3353 76.2075 74.5105 76.5513C74.6857 76.8951 75.0793 76.8923 75.5353 76.7486ZM77.7073 77.6503C77.5081 77.267 77.1241 77.3037 76.6561 77.4587L77.3761 78.8366C77.8177 78.3998 77.8825 77.9828 77.7073 77.6503Z" fill="black"/>
</g>
<path opacity="0.2" d="M99.4513 72.1555C88.29 83.7187 75.5076 92.9254 61.6705 99.3674L56.9017 90.2432L56.0689 76.1061C56.0689 76.1061 82.5409 78.3491 99.4513 72.1555Z" fill="black"/>
<path d="M102.653 99.5167C88.1646 103.524 73.1948 104.557 58.4065 102.568C57.9969 94.3272 57.5857 86.085 57.1729 77.8419C71.9643 79.8346 86.9379 78.8021 101.429 74.7902C101.834 83.0333 102.242 91.2754 102.653 99.5167Z" fill="#3FB55D"/>
<path opacity="0.4" d="M102.653 99.5167C88.1646 103.524 73.1948 104.557 58.4065 102.568C57.9969 94.3272 57.5857 86.085 57.1729 77.8419C71.9643 79.8346 86.9379 78.8021 101.429 74.7902C101.834 83.0333 102.242 91.2754 102.653 99.5167Z" fill="white"/>
<path opacity="0.2" d="M100.546 79.7439C100.196 79.8486 99.8316 79.8596 99.4782 79.776C99.1248 79.6924 98.792 79.5165 98.5045 79.2612C98.217 79.0059 97.9821 78.6779 97.8174 78.3014C97.6527 77.925 97.5623 77.5098 97.5529 77.0867C85.6025 79.9328 73.3684 80.7724 61.2169 79.5805C61.252 80.0024 61.2052 80.4281 61.0798 80.8256C60.9545 81.2231 60.7539 81.582 60.4932 81.8753C60.2326 82.1686 59.9186 82.3886 59.575 82.5187C59.2315 82.6488 58.8672 82.6857 58.5097 82.6266C58.7673 87.7644 59.0233 92.9023 59.2777 98.0401C60.0672 98.1529 60.7999 98.58 61.3536 99.2502C61.9074 99.9204 62.2488 100.793 62.3209 101.723C74.4724 102.915 86.7065 102.075 98.6569 99.2293C98.5633 97.3723 99.7585 95.5661 101.316 95.1547H101.34L100.57 79.7439H100.546ZM80.0929 97.4258C76.8433 97.6428 74.0497 94.5742 73.8529 90.7786C73.6561 86.9829 76.1497 83.8833 79.3993 83.6664C82.6489 83.4494 85.4257 86.2024 85.6153 89.998C85.8049 93.7937 83.3401 97.2145 80.0929 97.4258Z" fill="black"/>
<g opacity="0.2">
<path d="M80.5489 94.16L80.5993 95.1801L79.9609 95.2251L79.9105 94.2135C79.2201 94.2363 78.5403 94.0112 77.9617 93.5683C78.0649 93.2555 78.1657 92.9427 78.2665 92.6299C78.7383 93.0038 79.2911 93.212 79.8601 93.2301C79.8313 92.6215 79.8009 92.0137 79.7689 91.407C78.8929 91.2182 77.9473 90.9364 77.8849 89.6684C77.8393 88.7385 78.3769 87.9044 79.5841 87.6959L79.5337 86.6674L80.1721 86.6223L80.2225 87.6339C80.7807 87.6185 81.3334 87.7667 81.8305 88.065L81.5569 89.0118C81.1556 88.7785 80.7178 88.6442 80.2705 88.6173L80.3641 90.4602C81.2401 90.6433 82.1977 90.88 82.2625 92.1509C82.3177 93.0667 81.7753 93.9261 80.5489 94.16ZM79.7161 90.3024C79.6873 89.7632 79.6601 89.2231 79.6345 88.6821C79.0849 88.8174 78.8689 89.1583 78.8881 89.5613C78.9073 89.9642 79.2649 90.1699 79.7257 90.3024H79.7161ZM81.2689 92.303C81.2473 91.8578 80.8945 91.6747 80.4193 91.5535L80.4985 93.1681C81.0721 93.0244 81.2977 92.706 81.2689 92.303Z" fill="black"/>
</g>
<path d="M68.1745 99.5421C68.2369 100.386 68.3113 101.243 68.3977 102.115H17.9257C19.5049 86.4504 17.9257 79.6594 17.9257 79.6594C34.7929 78.1688 68.3977 79.6594 68.3977 79.6594C68.3977 79.6594 67.3825 87.2056 68.0665 98.012C68.0985 98.5136 68.1345 99.0236 68.1745 99.5421Z" fill="#3FB55D"/>
<path opacity="0.2" d="M68.3977 79.6594C66.1873 80.8711 55.3753 81.043 49.1545 80.5893C42.9337 80.1356 34.7929 81.5192 34.7929 81.5192C30.0793 79.6087 17.9257 79.6594 17.9257 79.6594C34.7929 78.1688 68.3977 79.6594 68.3977 79.6594Z" fill="white"/>
<path opacity="0.2" d="M17.9257 102.115C19.5049 86.4504 17.9257 79.6594 17.9257 79.6594C17.9257 79.6594 27.9313 79.403 34.7929 81.5192C34.7929 81.5192 35.0329 83.9087 34.7929 85.1373C34.7929 85.1373 43.0465 83.5649 50.3929 83.7734C50.3929 83.7734 39.0217 85.3091 34.7929 86.4504C34.7929 86.4504 27.9913 85.2049 23.6881 85.1373C23.6881 85.1373 32.6353 86.5039 34.7929 87.3211C34.7929 87.3211 37.3513 86.7744 38.6905 86.7744C38.6905 86.7744 35.4865 87.4592 34.7929 88.0706V92.3988C34.7929 92.3988 27.6505 92.5651 24.0673 91.9649C25.7689 92.2777 32.7073 93.5316 34.7929 93.5316C34.7929 93.5316 42.6745 93.1906 47.2513 93.5316C47.2513 93.5316 36.8233 94.2361 34.7929 94.8053H25.8409L34.7929 95.6872V96.5636H38.6329L34.7929 97.3413C34.7929 97.3413 23.6881 96.5129 20.4937 97.3413C20.4937 97.3413 33.6001 98.0401 34.7785 98.584L34.7929 99.8802C34.7929 99.8802 49.4905 97.6005 62.4889 99.5618C62.4889 99.5618 43.5073 98.677 34.7929 101.157C34.7929 101.157 62.0593 100.461 68.3929 102.115H17.9257Z" fill="black"/>
<path d="M18.2209 81.5192L16.8889 82.0658C16.8889 82.0658 24.9121 82.3899 30.0889 83.3198C30.0841 83.3198 22.1089 81.6544 18.2209 81.5192Z" fill="#3FB55D"/>
<path opacity="0.2" d="M35.9617 83.3198L37.9921 83.7734C37.9921 83.7734 47.4457 82.5674 58.6201 82.4209C58.6201 82.4209 42.4801 81.5022 35.9617 83.3198Z" fill="white"/>
<path opacity="0.2" d="M42.3673 85.8699C42.3673 85.8699 48.0361 84.0552 53.0065 84.1454C57.9769 84.2356 67.4377 83.3198 67.4377 83.3198L67.8097 84.1454C67.8097 84.1454 60.3913 84.6554 54.2689 84.5962C50.2774 84.6052 46.2944 85.0314 42.3673 85.8699Z" fill="white"/>
<path opacity="0.2" d="M36.7418 88.5835C36.7418 88.5835 43.5002 86.8928 50.1266 87.0478C56.753 87.2027 65.0978 87.8114 65.0978 87.8114C65.0978 87.8114 46.9874 87.8114 42.3674 88.9385L36.7418 88.5835Z" fill="white"/>
<path d="M48.4321 86.1263C48.4321 86.1263 54.2521 85.5628 59.2753 85.8699C64.2985 86.1771 69.5737 86.4532 69.5737 86.4532L67.8097 87.0393C67.8097 87.0393 55.7161 85.6163 48.4321 86.1263Z" fill="#3FB55D"/>
<path opacity="0.2" d="M48.4321 86.1263C48.4321 86.1263 54.2521 85.5628 59.2753 85.8699C64.2985 86.1771 69.5737 86.4532 69.5737 86.4532L67.8097 87.0393C67.8097 87.0393 55.7161 85.6163 48.4321 86.1263Z" fill="black"/>
<path opacity="0.2" d="M36.9601 90.0178C36.9601 90.0178 47.0401 89.8712 51.8953 89.5866C56.7505 89.302 63.2617 90.8828 63.2617 90.8828C63.2617 90.8828 55.2289 90.6828 52.7425 91.1449L36.9601 90.0178Z" fill="black"/>
<path opacity="0.2" d="M35.9617 91.8099L42.3673 91.1449L56.0137 91.8099L42.1921 92.4749L35.9617 91.8099Z" fill="white"/>
<path opacity="0.2" d="M40.7521 95.3406C40.7521 95.3406 50.0665 94.3206 53.6953 94.267C57.3241 94.2135 67.0897 93.4471 67.0897 93.4471L66.0049 95.1378C66.0049 95.1378 47.6425 94.6784 40.7521 95.3406Z" fill="white"/>
<path d="M64.3705 89.5866L67.8097 89.967L68.7457 89.5866C67.2905 89.4269 65.8258 89.4269 64.3705 89.5866Z" fill="#3FB55D"/>
<path d="M68.2441 81.0627L69.5737 81.3135L68.1457 82.1898L59.7457 81.9813C59.7457 81.9813 66.0433 81.8827 68.2441 81.0627Z" fill="#3FB55D"/>
<path opacity="0.2" d="M64.3705 89.5866L67.8097 89.967L68.7457 89.5866C67.2905 89.4269 65.8258 89.4269 64.3705 89.5866Z" fill="white"/>
<path opacity="0.2" d="M68.2441 81.0627L69.5737 81.3135L68.1457 82.1898L59.7457 81.9813C59.7457 81.9813 66.0433 81.8827 68.2441 81.0627Z" fill="black"/>
<path opacity="0.2" d="M68.1745 99.5421C65.9185 99.3702 50.1097 97.037 50.1097 97.037C51.1633 96.8933 64.9633 97.8514 68.0665 98.012C68.0985 98.5135 68.1345 99.0236 68.1745 99.5421Z" fill="black"/>
<path d="M44.3713 96.7186C44.3713 96.7186 59.1529 96.6735 63.3817 97.0314C67.6105 97.3892 67.9897 96.7186 67.9897 96.7186L70.0969 97.9105C70.0969 97.9105 70.2049 99.094 64.6585 98.2684C59.1121 97.4428 44.3713 96.7186 44.3713 96.7186Z" fill="#3FB55D"/>
<path d="M32.2945 87.9918C32.2945 87.9918 23.6377 86.38 18.5905 86.7914C19.3491 86.9938 20.0558 87.4053 20.6521 87.9918H32.2945Z" fill="#3FB55D"/>
<path d="M18.5809 92.3989C18.7777 92.3735 25.0609 93.3457 27.4609 93.4471L17.6929 93.9092L18.5809 92.3989Z" fill="#3FB55D"/>
<path d="M18.2257 98.7728L27.7153 99.1673L16.8889 100.108L18.2257 98.7728Z" fill="#3FB55D"/>
<path d="M35.5154 78.8986C35.5154 78.8986 48.9938 81.6037 56.8106 70.7748L71.537 75.2129C71.537 75.2129 68.8274 81.8122 48.4754 80.9359C28.1234 80.0596 35.5154 78.8986 35.5154 78.8986Z" fill="#3FB55D"/>
<path opacity="0.5" d="M35.5154 78.8986C35.5154 78.8986 48.9938 81.6037 56.8106 70.7748L71.537 75.2129C71.537 75.2129 68.8274 81.8122 48.4754 80.9359C28.1234 80.0596 35.5154 78.8986 35.5154 78.8986Z" fill="white"/>
<path opacity="0.2" d="M43.2122 79.4819C43.2122 79.4819 51.4514 78.9718 56.1098 72.7839C56.5373 72.9392 56.9948 72.9401 57.4228 72.7863C57.8507 72.6326 58.2295 72.3313 58.5098 71.9216L69.2594 75.2664C69.2594 75.2664 68.1026 75.7426 68.5082 77.3149C68.4986 77.3149 54.389 84.027 43.2122 79.4819Z" fill="black"/>
<path d="M53.3353 81.0852C53.3353 81.0852 21.1249 81.3473 19.1257 76.0357L33.4705 74.8127C36.3174 76.2149 39.2311 77.422 42.1969 78.428C45.5089 79.5636 49.4353 80.64 53.3353 81.0852Z" fill="#3FB55D"/>
<path opacity="0.2" d="M53.3353 81.0852C53.3353 81.0852 52.3249 81.0852 50.6449 81.0852C43.7545 80.5217 35.7097 76.5034 35.7097 76.5034C32.8057 77.253 30.8089 75.9089 30.8089 75.9089L22.9801 76.4358C23.0222 76.6621 23.0204 76.8967 22.9747 77.1221C22.929 77.3475 22.8406 77.5579 22.7161 77.7376C26.7745 79.0761 31.1497 79.8905 34.7161 80.3836C27.1825 79.7214 20.0329 78.459 19.1161 76.0441L33.4609 74.8212C33.4609 74.8212 43.4809 79.9581 53.3353 81.0852Z" fill="white"/>
<path opacity="0.2" d="M53.3353 81.0852C53.3353 81.0852 21.1249 81.3473 19.1257 76.0356C19.1257 76.0356 30.0097 81.5558 42.1969 78.428C45.5089 79.5636 49.4353 80.64 53.3353 81.0852Z" fill="black"/>
</svg>
