<svg width="25" height="25" viewBox="0 0 25 25" fill="none" xmlns="http://www.w3.org/2000/svg">
<path d="M12.0489 23.0312H8.24893C6.11678 23.0312 4.68632 22.554 3.78123 21.6489C2.87614 20.7439 2.39893 19.3134 2.39893 17.1812V13.3813C2.39893 11.2491 2.87614 9.81864 3.78123 8.91355C4.68632 8.00846 6.11678 7.53125 8.24893 7.53125H11.2489C11.3828 7.53125 11.4989 7.64739 11.4989 7.78125C11.4989 7.91511 11.3828 8.03125 11.2489 8.03125H8.24893C6.42398 8.03125 5.03838 8.34969 4.12787 9.2602C3.21737 10.1707 2.89893 11.5563 2.89893 13.3813V17.1812C2.89893 19.0062 3.21737 20.3918 4.12787 21.3023C5.03838 22.2128 6.42398 22.5312 8.24893 22.5312H12.0489C13.8739 22.5312 15.2595 22.2128 16.17 21.3023C17.0805 20.3918 17.3989 19.0062 17.3989 17.1812V14.1812C17.3989 14.0474 17.5151 13.9312 17.6489 13.9312C17.7828 13.9312 17.8989 14.0474 17.8989 14.1812V17.1812C17.8989 19.3134 17.4217 20.7439 16.5166 21.6489C15.6115 22.554 14.1811 23.0312 12.0489 23.0312Z" fill="#9FA2A5" stroke="#239ED9"/>
<path d="M11.1414 7.5571L11.1485 7.55431L11.1555 7.5513C11.2357 7.51694 11.3434 7.52986 11.43 7.61032L17.825 14.0053C17.8945 14.0748 17.9162 14.1879 17.879 14.2748L17.876 14.2818L17.8732 14.2889C17.8427 14.3664 17.7552 14.4317 17.6485 14.4317H14.4485C13.0946 14.4317 12.2707 14.1543 11.7733 13.6569C11.276 13.1596 10.9985 12.3357 10.9985 10.9817V7.78173C10.9985 7.67507 11.0638 7.58756 11.1414 7.5571ZM12.3521 9.23817L11.4985 8.38462V9.59173V10.9817C11.4985 11.9653 11.5986 12.7814 12.1237 13.3065C12.6489 13.8317 13.4649 13.9317 14.4485 13.9317H15.8385H17.0456L16.1921 13.0782L12.3521 9.23817Z" fill="#9FA2A5" stroke="#239ED9"/>
<path d="M16.2485 3.03125H12.2485C12.1147 3.03125 11.9985 2.91511 11.9985 2.78125C11.9985 2.64739 12.1147 2.53125 12.2485 2.53125H16.2485C16.3824 2.53125 16.4985 2.64739 16.4985 2.78125C16.4985 2.91511 16.3824 3.03125 16.2485 3.03125Z" fill="#239ED9" stroke="#239ED9"/>
<path d="M7.64893 6.03125C7.51507 6.03125 7.39893 5.91511 7.39893 5.78125C7.39893 3.98739 8.85507 2.53125 10.6489 2.53125H13.2689C13.4028 2.53125 13.5189 2.64739 13.5189 2.78125C13.5189 2.91511 13.4028 3.03125 13.2689 3.03125H10.6489C9.13278 3.03125 7.89893 4.26511 7.89893 5.78125C7.89893 5.91511 7.78278 6.03125 7.64893 6.03125Z" fill="#9FA2A5" stroke="#239ED9"/>
<path d="M19.8394 18.0312C19.7055 18.0312 19.5894 17.9151 19.5894 17.7812C19.5894 17.6474 19.7055 17.5312 19.8394 17.5312C21.2571 17.5312 22.3994 16.3758 22.3994 14.9712V8.78125C22.3994 8.64739 22.5155 8.53125 22.6494 8.53125C22.7832 8.53125 22.8994 8.64739 22.8994 8.78125V14.9712C22.8994 16.6551 21.5232 18.0312 19.8394 18.0312Z" fill="#239ED9" stroke="#239ED9"/>
<path d="M16.5418 2.5571L16.5489 2.55431L16.5559 2.5513C16.6361 2.51694 16.7438 2.52986 16.8304 2.61032L22.8254 8.60528C22.8949 8.6748 22.9166 8.78795 22.8794 8.87477L22.8763 8.88179L22.8736 8.8889C22.8431 8.96642 22.7556 9.03173 22.6489 9.03173H19.6489C18.3712 9.03173 17.5966 8.76729 17.13 8.30067C16.6634 7.83406 16.3989 7.05947 16.3989 5.78173V2.78173C16.3989 2.67507 16.4642 2.58756 16.5418 2.5571ZM17.7525 4.23817L16.8989 3.38462V4.59173V5.78173C16.8989 6.68464 16.9888 7.45118 17.4841 7.94653C17.9795 8.44188 18.746 8.53173 19.6489 8.53173H20.8389H22.046L21.1925 7.67817L17.7525 4.23817Z" fill="#239ED9" stroke="#239ED9"/>
</svg>
