
<svg width="41" height="41" viewBox="0 0 41 41" fill="none" xmlns="http://www.w3.org/2000/svg">
<path d="M20.4471 24.1118C17.1724 24.1118 14.4971 21.4515 14.4971 18.1618C14.4971 14.8738 17.1707 12.2285 20.4471 12.2285C23.7218 12.2285 26.3971 14.8888 26.3971 18.1785C26.3971 21.4665 23.7235 24.1118 20.4471 24.1118ZM20.4471 13.7285C18.0056 13.7285 15.9971 15.7177 15.9971 18.1785C15.9971 20.638 17.9876 22.6285 20.4471 22.6285C22.9065 22.6285 24.8971 20.638 24.8971 18.1785C24.8971 15.7177 22.8885 13.7285 20.4471 13.7285Z" fill="none" stroke="#239ED9"/>
<path d="M5.75121 14.9894L5.75133 14.9888C7.53738 7.12056 14.4036 3.57812 20.4471 3.57812H20.4471H20.4471H20.4471H20.4471H20.4471H20.4471H20.4471H20.4471H20.4471H20.4472H20.4472H20.4472H20.4472H20.4472H20.4472H20.4472H20.4472H20.4472H20.4472H20.4472H20.4473H20.4473H20.4473H20.4473H20.4473H20.4473H20.4473H20.4473H20.4473H20.4474H20.4474H20.4474H20.4474H20.4474H20.4474H20.4474H20.4474H20.4474H20.4475H20.4475H20.4475H20.4475H20.4475H20.4475H20.4475H20.4475H20.4475H20.4475H20.4475H20.4475H20.4476H20.4476H20.4476H20.4476H20.4476H20.4476H20.4476H20.4476H20.4476H20.4476H20.4477H20.4477H20.4477H20.4477H20.4477H20.4477H20.4477H20.4477H20.4477H20.4477H20.4478H20.4478H20.4478H20.4478H20.4478H20.4478H20.4478H20.4478H20.4479H20.4479H20.4479H20.4479H20.4479H20.4479H20.4479H20.448H20.448H20.448H20.448H20.448H20.448H20.448H20.4481H20.4481H20.4481H20.4481H20.4481H20.4481H20.4481H20.4482H20.4482H20.4482H20.4482H20.4482H20.4482H20.4483H20.4483H20.4483H20.4483H20.4483H20.4483H20.4484H20.4484H20.4484H20.4484H20.4484H20.4484H20.4485H20.4485H20.4485H20.4485H20.4485H20.4486H20.4486H20.4486H20.4486H20.4486H20.4487H20.4487H20.4487H20.4487H20.4487H20.4488H20.4488H20.4488H20.4488H20.4489H20.4489H20.4489H20.4489H20.4489H20.449H20.449H20.449H20.449H20.4491H20.4491H20.4491H20.4491H20.4492H20.4492H20.4492H20.4492H20.4493H20.4493H20.4493H20.4493H20.4494H20.4494H20.4494H20.4494H20.4495H20.4495H20.4495H20.4495H20.4496H20.4496H20.4496H20.4497H20.4497H20.4497H20.4497H20.4498H20.4498H20.4498H20.4499H20.4499H20.4499H20.4499H20.45H20.45H20.45H20.4501H20.4501H20.4501H20.4502H20.4502H20.4502H20.4503H20.4503H20.4503H20.4504H20.4504H20.4504H20.4505H20.4505H20.4505H20.4506H20.4506H20.4506H20.4507H20.4507H20.4507H20.4508H20.4508H20.4508H20.4509H20.4509H20.451H20.451H20.451H20.4511H20.4511H20.4511H20.4512H20.4512H20.4513H20.4513H20.4513H20.4514H20.4514H20.4515H20.4515H20.4515H20.4516H20.4516H20.4517H20.4517H20.4517H20.4518H20.4518H20.4519H20.4519H20.452H20.452H20.452H20.4521H20.4521H20.4522H20.4522H20.4523H20.4523H20.4524H20.4524H20.4524H20.4525H20.4525H20.4526H20.4526H20.4527H20.4527H20.4528H20.4528H20.4529H20.4529H20.453H20.453H20.4531H20.4531H20.4532H20.4532H20.4533H20.4533H20.4534H20.4534H20.4535H20.4535H20.4536H20.4536H20.4537H20.4537H20.4538H20.4538H20.4539H20.4539H20.454H20.454H20.4541H20.4542H20.4542H20.4543H20.4543H20.4544H20.4544H20.4545H20.4546H20.4546H20.4547H20.4547H20.4548H20.4548H20.4549H20.455H20.455H20.4551H20.4551H20.4552H20.4553H20.4553H20.4554H20.4554H20.4555H20.4556H20.4556H20.4557H20.4558H20.4558H20.4559H20.4559H20.456H20.4561H20.4561H20.4562H20.4563H20.4563H20.4564H20.4565H20.4565H20.4566H20.4567H20.4567H20.4568H20.4569H20.4569H20.457H20.4571H20.4572H20.4572H20.4573H20.4574H20.4574H20.4575H20.4576H20.4577H20.4577H20.4578H20.4579H20.4579H20.458H20.4581H20.4582H20.4582H20.4583H20.4584H20.4585H20.4585H20.4586H20.4587H20.4588H20.4588H20.4589H20.459H20.4591H20.4592H20.4592H20.4593H20.4594H20.4595H20.4596H20.4596H20.4597H20.4598H20.4599H20.46H20.46H20.4601H20.4602H20.4603H20.4604H20.4605H20.4605H20.4606H20.4607H20.4608H20.4609H20.461H20.4611H20.4612H20.4612H20.4613H20.4614H20.4615H20.4616H20.4617H20.4618H20.4619H20.462H20.462H20.4621H20.4622H20.4623H20.4624H20.4625H20.4626H20.4627H20.4628H20.4629H20.463H20.4631H20.4632H20.4633H20.4634H20.4634H20.4635H20.4636H20.4637C26.5069 3.57812 33.3732 7.12024 35.1594 15.0053C37.1315 23.7181 31.8715 31.0787 26.9845 35.7838C25.1463 37.5426 22.7877 38.4281 20.4471 38.4281C18.1065 38.4281 15.748 37.5427 13.9098 35.7839C9.02298 31.0791 3.76297 23.7021 5.75121 14.9894ZM33.7015 15.3183L33.7011 15.3163C31.9655 7.74941 25.4458 5.07812 20.4471 5.07812C15.448 5.07812 8.94476 7.74981 7.22627 15.3169C5.36348 23.4419 10.477 30.3825 14.9671 34.6885C18.0441 37.658 22.8669 37.658 25.9438 34.6884C30.4172 30.3825 35.5299 23.4426 33.7015 15.3183Z" fill="none" stroke="#239ED9"/>
</svg>
