<svg width="25" height="24" viewBox="0 0 25 24" fill="none" xmlns="http://www.w3.org/2000/svg">
<path d="M18.6489 10.75C18.2389 10.75 17.8989 10.41 17.8989 10V8C17.8989 4.85 17.0089 2.75 12.6489 2.75C8.28893 2.75 7.39893 4.85 7.39893 8V10C7.39893 10.41 7.05893 10.75 6.64893 10.75C6.23893 10.75 5.89893 10.41 5.89893 10V8C5.89893 5.1 6.59893 1.25 12.6489 1.25C18.6989 1.25 19.3989 5.1 19.3989 8V10C19.3989 10.41 19.0589 10.75 18.6489 10.75Z" fill="#4CAFE3"/>
<path d="M17.6489 22.75H7.64893C3.23893 22.75 1.89893 21.41 1.89893 17V15C1.89893 10.59 3.23893 9.25 7.64893 9.25H17.6489C22.0589 9.25 23.3989 10.59 23.3989 15V17C23.3989 21.41 22.0589 22.75 17.6489 22.75ZM7.64893 10.75C4.06893 10.75 3.39893 11.43 3.39893 15V17C3.39893 20.57 4.06893 21.25 7.64893 21.25H17.6489C21.2289 21.25 21.8989 20.57 21.8989 17V15C21.8989 11.43 21.2289 10.75 17.6489 10.75H7.64893Z" fill="#4CAFE3"/>
<path d="M8.64893 17C8.51893 17 8.38892 16.97 8.26892 16.92C8.13892 16.87 8.03893 16.8 7.93893 16.71C7.75893 16.52 7.64893 16.27 7.64893 16C7.64893 15.87 7.67891 15.74 7.72891 15.62C7.77891 15.49 7.84893 15.39 7.93893 15.29C8.03893 15.2 8.13892 15.13 8.26892 15.08C8.62892 14.92 9.07892 15.01 9.35892 15.29C9.44892 15.39 9.51894 15.5 9.56894 15.62C9.61894 15.74 9.64893 15.87 9.64893 16C9.64893 16.26 9.53892 16.52 9.35892 16.71C9.16892 16.89 8.90893 17 8.64893 17Z" fill="#4CAFE3"/>
<path d="M12.6489 17C12.3889 17 12.1289 16.89 11.9389 16.71C11.7589 16.52 11.6489 16.27 11.6489 16C11.6489 15.87 11.6689 15.74 11.7289 15.62C11.7789 15.5 11.8489 15.39 11.9389 15.29C12.1689 15.06 12.5189 14.95 12.8389 15.02C12.9089 15.03 12.9689 15.05 13.0289 15.08C13.0889 15.1 13.1489 15.13 13.2089 15.17C13.2589 15.2 13.3089 15.25 13.3589 15.29C13.4489 15.39 13.5189 15.5 13.5689 15.62C13.6189 15.74 13.6489 15.87 13.6489 16C13.6489 16.27 13.5389 16.52 13.3589 16.71C13.3089 16.75 13.2589 16.79 13.2089 16.83C13.1489 16.87 13.0889 16.9 13.0289 16.92C12.9689 16.95 12.9089 16.97 12.8389 16.98C12.7789 16.99 12.7089 17 12.6489 17Z" fill="#4CAFE3"/>
<path d="M16.6489 17C16.3789 17 16.1289 16.89 15.9389 16.71C15.8489 16.61 15.7789 16.5 15.7289 16.38C15.6789 16.26 15.6489 16.13 15.6489 16C15.6489 15.74 15.7589 15.48 15.9389 15.29C15.9889 15.25 16.0389 15.21 16.0889 15.17C16.1489 15.13 16.2089 15.1 16.2689 15.08C16.3289 15.05 16.3889 15.03 16.4489 15.02C16.7789 14.95 17.1189 15.06 17.3589 15.29C17.5389 15.48 17.6489 15.73 17.6489 16C17.6489 16.13 17.6189 16.26 17.5689 16.38C17.5189 16.51 17.4489 16.61 17.3589 16.71C17.1689 16.89 16.9089 17 16.6489 17Z" fill="#4CAFE3"/>
</svg>
